<?xml version="1.0" encoding="UTF-8" standalone="no"?>
<!DOCTYPE svg PUBLIC "-//W3C//DTD SVG 1.1//EN" "http://www.w3.org/Graphics/SVG/1.1/DTD/svg11.dtd">
<svg width="100%" height="100%" viewBox="0 0 276 295" version="1.1" xmlns="http://www.w3.org/2000/svg" xmlns:xlink="http://www.w3.org/1999/xlink" xml:space="preserve" xmlns:serif="http://www.serif.com/" style="fill-rule:evenodd;clip-rule:evenodd;stroke-linejoin:round;stroke-miterlimit:2;">
    <g transform="matrix(1,0,0,1,-9368,-2758)">
        <g transform="matrix(3.03411,0,0,5.19663,2165.08,942.188)">
            <g id="Skull">
                <g transform="matrix(0.329586,0,0,0.192432,-888.114,-178.585)">
                    <path d="M10033.8,2744.85C10196.5,2744.85 10184.1,2933.52 10155.8,2961.81C10126.5,2991.14 10112.2,2969.85 10098.3,2988.3C10091.1,2997.83 10089.8,3014.38 10089.8,3025.89C10089.8,3029.26 10088.5,3032.5 10086.1,3034.89C10083.8,3037.28 10080.5,3038.62 10077.2,3038.62C10055.4,3038.63 10012.2,3038.63 9990.46,3038.63C9987.09,3038.63 9983.86,3037.29 9981.48,3034.89C9979.11,3032.5 9977.79,3029.26 9977.81,3025.89C9977.85,3014.38 9976.49,2997.83 9969.3,2988.3C9955.39,2969.85 9940.17,2992.03 9911.8,2961.81C9890.84,2939.47 9871.15,2744.85 10033.8,2744.85Z" style="fill:rgb(231,51,39);fill-opacity:0.15;"/>
                    <clipPath id="_clip1">
                        <path d="M10033.8,2744.85C10196.5,2744.85 10184.1,2933.52 10155.8,2961.81C10126.5,2991.14 10112.2,2969.85 10098.3,2988.3C10091.1,2997.83 10089.8,3014.38 10089.8,3025.89C10089.8,3029.26 10088.5,3032.5 10086.1,3034.89C10083.8,3037.28 10080.5,3038.62 10077.2,3038.62C10055.4,3038.63 10012.2,3038.63 9990.46,3038.63C9987.09,3038.63 9983.86,3037.29 9981.48,3034.89C9979.11,3032.5 9977.79,3029.26 9977.81,3025.89C9977.85,3014.38 9976.49,2997.83 9969.3,2988.3C9955.39,2969.85 9940.17,2992.03 9911.8,2961.81C9890.84,2939.47 9871.15,2744.85 10033.8,2744.85Z"/>
                    </clipPath>
                    <g clip-path="url(#_clip1)">
                        <g transform="matrix(1,0,0,1.31845,534.99,-972.024)">
                            <path d="M9477.81,3022.17C9477.81,3019.18 9474.61,3016.75 9470.66,3016.75C9466.72,3016.75 9463.51,3019.18 9463.51,3022.17L9463.51,3047.36C9463.51,3050.35 9466.72,3052.78 9470.66,3052.78C9474.61,3052.78 9477.81,3050.35 9477.81,3047.36L9477.81,3022.17Z" style="fill:rgb(141,31,36);"/>
                        </g>
                        <g transform="matrix(1,0,0,1.31845,564.761,-972.024)">
                            <path d="M9477.81,3022.17C9477.81,3019.18 9474.61,3016.75 9470.66,3016.75C9466.72,3016.75 9463.51,3019.18 9463.51,3022.17L9463.51,3047.36C9463.51,3050.35 9466.72,3052.78 9470.66,3052.78C9474.61,3052.78 9477.81,3050.35 9477.81,3047.36L9477.81,3022.17Z" style="fill:rgb(141,31,36);"/>
                        </g>
                        <g transform="matrix(1,0,0,1.31845,594.532,-972.024)">
                            <path d="M9477.81,3022.17C9477.81,3019.18 9474.61,3016.75 9470.66,3016.75C9466.72,3016.75 9463.51,3019.18 9463.51,3022.17L9463.51,3047.36C9463.51,3050.35 9466.72,3052.78 9470.66,3052.78C9474.61,3052.78 9477.81,3050.35 9477.81,3047.36L9477.81,3022.17Z" style="fill:rgb(141,31,36);"/>
                        </g>
                    </g>
                </g>
                <g transform="matrix(0.793127,0,0,0.793127,503.122,75.4791)">
                    <g transform="matrix(0.329586,0,0,0.192432,-719.096,-181.307)">
                        <circle cx="9431.78" cy="2933.95" r="45.467" style="fill:rgb(141,31,36);"/>
                    </g>
                    <g transform="matrix(0.329586,0,0,0.192432,-665.806,-181.307)">
                        <circle cx="9431.78" cy="2933.95" r="45.467" style="fill:rgb(141,31,36);"/>
                    </g>
                </g>
                <g transform="matrix(0.182403,0,0,0.13141,688.047,-9.97307)">
                    <path d="M9481.38,2992.68C9482.79,2988.87 9487.11,2986.27 9492.01,2986.27C9496.91,2986.27 9501.23,2988.87 9502.64,2992.68C9509.5,3011.13 9518.23,3034.61 9524.23,3050.76C9525.88,3055.21 9524.84,3060.03 9521.42,3063.76C9518,3067.49 9512.61,3069.68 9506.88,3069.68C9497.42,3069.68 9486.6,3069.68 9477.15,3069.68C9471.41,3069.68 9466.02,3067.49 9462.6,3063.76C9459.18,3060.03 9458.14,3055.21 9459.79,3050.76C9465.8,3034.61 9474.52,3011.13 9481.38,2992.68Z" style="fill:rgb(141,31,36);"/>
                </g>
            </g>
        </g>
    </g>
</svg>
