<svg id="Calque_1" data-name="Calque 1" xmlns="http://www.w3.org/2000/svg" viewBox="0 0 415 401"><defs><style>.cls-1{fill:#8d1f24;}.cls-2{fill:none;stroke-width:10px;}.cls-2,.cls-3{stroke:#1d1d1b;stroke-miterlimit:10;}.cls-3{fill:#1d1d1b;stroke-width:3px;}</style></defs><path class="cls-1" d="M353.15,229.15a55.63,55.63,0,0,0-17-37.53l-81.27-77.25c-21.15-20.11-53.66-18.41-72.61,3.79s-17.14,56.52,4,76.64l81.27,77.25c21.15,20.11,53.66,18.41,72.61-3.8A55.64,55.64,0,0,0,353.15,229.15Z"/><path class="cls-2" d="M362.71,216.48a55.69,55.69,0,0,0-17-37.53L264.4,101.7c-21.16-20.11-53.67-18.41-72.61,3.8s-17.15,56.51,4,76.63l81.26,77.25c21.16,20.11,53.67,18.41,72.61-3.8A55.68,55.68,0,0,0,362.71,216.48Z"/><line class="cls-2" x1="266.15" y1="139.76" x2="247.26" y2="121.8"/><path class="cls-2" d="M275.77,148.9l52.75,50.15a28.26,28.26,0,0,1,2,38.33"/><path class="cls-2" d="M116,52.8l7.7-9a28.4,28.4,0,0,1,26.07-9.85A29.9,29.9,0,0,1,173,53.35a106.31,106.31,0,0,0,26.29,39.92l3,2.9"/><path class="cls-2" d="M118.16,93.44l7.12-3a41.85,41.85,0,0,1,24.21-2.21,42.75,42.75,0,0,1,23.16,13.46l12.43,13.74"/><line class="cls-2" x1="178.75" y1="144.6" x2="153.08" y2="145.94"/><line class="cls-2" x1="168.4" y1="192.68" x2="195.23" y2="181.57"/><line class="cls-2" x1="202.26" y1="224.87" x2="222.73" y2="207.77"/><line class="cls-2" x1="236.12" y1="257.06" x2="250.09" y2="233.78"/><line class="cls-2" x1="269.98" y1="289.25" x2="277.65" y2="259.91"/><line class="cls-2" x1="315.61" y1="300.44" x2="314.2" y2="273.35"/><line class="cls-2" x1="362.71" y1="216.48" x2="388.38" y2="215.14"/><line class="cls-2" x1="373.06" y1="168.4" x2="346.23" y2="179.51"/><line class="cls-2" x1="339.2" y1="136.21" x2="318.73" y2="153.31"/><line class="cls-2" x1="305.34" y1="104.02" x2="291.37" y2="127.3"/><line class="cls-2" x1="271.48" y1="71.83" x2="263.81" y2="101.17"/><line class="cls-2" x1="225.85" y1="60.64" x2="227.26" y2="87.73"/><path class="cls-3" d="M125.19,290.34a8.11,8.11,0,0,0-8-8.17H115a8.11,8.11,0,0,0-8,8.17v6.9a8.12,8.12,0,0,0,8,8.17h2.16a8.11,8.11,0,0,0,8-8.17Zm-4.35,6.9a3.72,3.72,0,0,1-3.68,3.74H115a3.72,3.72,0,0,1-3.68-3.74v-6.9A3.72,3.72,0,0,1,115,286.6h2.16a3.72,3.72,0,0,1,3.68,3.74Z"/><path class="cls-3" d="M161,290.34a8.11,8.11,0,0,0-8-8.17h-2.16a8.11,8.11,0,0,0-8,8.17v6.9a8.11,8.11,0,0,0,8,8.17H153a8.12,8.12,0,0,0,8-8.17Zm-4.36,6.9A3.72,3.72,0,0,1,153,301h-2.16a3.72,3.72,0,0,1-3.68-3.74v-6.9a3.72,3.72,0,0,1,3.68-3.74H153a3.72,3.72,0,0,1,3.68,3.74Z"/><path class="cls-3" d="M140.74,311.62a9.41,9.41,0,0,0-13.48,0l-2.51,2.54a2.25,2.25,0,0,0,0,3.14,2.16,2.16,0,0,0,3.08,0l2.51-2.55a5.11,5.11,0,0,1,7.32,0l2.51,2.55a2.16,2.16,0,0,0,3.08,0,2.25,2.25,0,0,0,0-3.14Z"/><path class="cls-3" d="M222.46,332.36h0a12.34,12.34,0,0,0-9.77-1.91,12.58,12.58,0,0,0-8.12,5.89.51.51,0,0,1-.27.22.29.29,0,0,1-.22,0l-27.59-17.11a14.48,14.48,0,0,0,3.62-9.61V296.14a48.08,48.08,0,0,0-.58-7.44l24.55-15.22a.29.29,0,0,1,.22,0,.55.55,0,0,1,.29.25,12.52,12.52,0,0,0,8.1,5.86,12.34,12.34,0,0,0,9.77-1.91,13.07,13.07,0,0,0,4-16.82,12.57,12.57,0,0,0-7.83-6.24,12.74,12.74,0,0,0-2.65-.43,12.56,12.56,0,0,0,.84-2.58,12.92,12.92,0,0,0-1.88-9.94,12.6,12.6,0,0,0-16.54-4.07,12.73,12.73,0,0,0-6.15,8,13,13,0,0,0,1.44,10,.5.5,0,0,1,.07.35.27.27,0,0,1-.13.17l-21.7,13.46a45.64,45.64,0,0,0-75.88,0l-21.7-13.46a.27.27,0,0,1-.13-.17.56.56,0,0,1,.08-.38,12.93,12.93,0,0,0,1.43-10,12.73,12.73,0,0,0-6.15-8,12.6,12.6,0,0,0-16.54,4.07,12.92,12.92,0,0,0-1.88,9.94,12.56,12.56,0,0,0,.84,2.58,12.74,12.74,0,0,0-2.65.43,12.57,12.57,0,0,0-7.83,6.24,13.07,13.07,0,0,0,4,16.82,12.34,12.34,0,0,0,9.77,1.91,12.55,12.55,0,0,0,8.12-5.89.51.51,0,0,1,.27-.22.28.28,0,0,1,.22,0L88.47,288.7a48.08,48.08,0,0,0-.58,7.44V309.8a14.48,14.48,0,0,0,3.62,9.61L63.92,336.52a.29.29,0,0,1-.22,0,.55.55,0,0,1-.29-.25,12.55,12.55,0,0,0-8.1-5.86,12.34,12.34,0,0,0-9.77,1.91,13.07,13.07,0,0,0-4,16.82,12.57,12.57,0,0,0,7.83,6.24,12.74,12.74,0,0,0,2.65.43,12.56,12.56,0,0,0-.84,2.58,12.92,12.92,0,0,0,1.88,9.94A12.64,12.64,0,0,0,63.58,374a12.25,12.25,0,0,0,6-1.56,12.73,12.73,0,0,0,6.15-8,13,13,0,0,0-1.44-10v0a.51.51,0,0,1-.06-.34.27.27,0,0,1,.13-.17l29.71-18.43v4.86a7.31,7.31,0,0,0,7.24,7.36h45.38a7.31,7.31,0,0,0,7.24-7.36V335.5l29.71,18.43a.27.27,0,0,1,.13.17.56.56,0,0,1-.08.38,12.93,12.93,0,0,0-1.43,10,12.73,12.73,0,0,0,6.15,8,12.25,12.25,0,0,0,6,1.56A12.64,12.64,0,0,0,215,368.37a12.92,12.92,0,0,0,1.88-9.94,12.56,12.56,0,0,0-.84-2.58,12.74,12.74,0,0,0,2.65-.43,12.57,12.57,0,0,0,7.83-6.24A13.07,13.07,0,0,0,222.46,332.36Zm-48.2-59.08,21.51-13.34a4.83,4.83,0,0,0,1.64-6.72,8.52,8.52,0,0,1-.94-6.56,8.35,8.35,0,0,1,4.42-5.42,8.21,8.21,0,0,1,10.19,2.5,8.52,8.52,0,0,1,1.5,6.88,8.37,8.37,0,0,1-2.28,4.21,2.51,2.51,0,0,0-.37,3.08,2.44,2.44,0,0,0,2.86,1.08,8.1,8.1,0,0,1,4.73-.13,8.23,8.23,0,0,1,5.13,4.09A8.57,8.57,0,0,1,220,274a8.1,8.1,0,0,1-6.41,1.25,8.25,8.25,0,0,1-5.32-3.86,4.79,4.79,0,0,0-3-2.22,4.54,4.54,0,0,0-3.52.56l-23.24,14.41q-.23-.86-.48-1.71c0-.14-.09-.29-.14-.44-.42-1.36-.9-2.69-1.45-4l0-.08A48.4,48.4,0,0,0,174.26,273.28ZM89.43,284.11,66.19,269.7a4.56,4.56,0,0,0-2.41-.7,4.69,4.69,0,0,0-1.11.14,4.85,4.85,0,0,0-3,2.24,8.21,8.21,0,0,1-12.07,2.33,8.54,8.54,0,0,1-2.47-10.36,8.28,8.28,0,0,1,5.33-4.49,8.1,8.1,0,0,1,4.73.13,2.44,2.44,0,0,0,2.86-1.08h0a2.51,2.51,0,0,0-.37-3.08,8.37,8.37,0,0,1-2.28-4.21,8.52,8.52,0,0,1,1.5-6.88,8.21,8.21,0,0,1,10.19-2.5,8.35,8.35,0,0,1,4.42,5.42,8.54,8.54,0,0,1-1,6.58,4.93,4.93,0,0,0-.58,3.69,4.69,4.69,0,0,0,2.09,2.93l21.65,13.42a48.4,48.4,0,0,0-2.21,4.59l0,.08c-.55,1.32-1,2.65-1.45,4,0,.15-.1.3-.14.45C89.74,283,89.58,283.54,89.43,284.11Zm-17.2,65.95a4.82,4.82,0,0,0-1.65,6.7l1.86-1.15-1.85,1.17a8.52,8.52,0,0,1,.94,6.56,8.35,8.35,0,0,1-4.42,5.42,8.21,8.21,0,0,1-10.19-2.5,8.52,8.52,0,0,1-1.5-6.88,8.37,8.37,0,0,1,2.28-4.21,2.51,2.51,0,0,0,.37-3.08h0A2.44,2.44,0,0,0,55.21,351a8.07,8.07,0,0,1-4.72.13,8.22,8.22,0,0,1-5.14-4.09A8.58,8.58,0,0,1,48,336a8.14,8.14,0,0,1,6.42-1.25,8.25,8.25,0,0,1,5.32,3.86,4.79,4.79,0,0,0,3,2.22,4.54,4.54,0,0,0,3.52-.56l28.93-17.94.12.07.42.23.53.25.42.19.38.15.38.15.38.13.44.13.32.09.75.18.3.05.52.09.31,0,.56.05.27,0c.26,0,.53,0,.8,0h0a2.58,2.58,0,0,1,.29,0h.12l.13,0a2,2,0,0,1,1.48,2v4.05Zm87.34-9.7a2.9,2.9,0,0,1-2.88,2.93H145.43v-9.67a2.18,2.18,0,1,0-4.36,0v9.67H126.93v-9.67a2.18,2.18,0,1,0-4.36,0v9.67H111.31a2.9,2.9,0,0,1-2.88-2.93v-14.1a6.44,6.44,0,0,0-6.37-6.48c-.31,0-.61,0-.91,0l-.26,0-.66-.11-.24-.05a7.19,7.19,0,0,1-.8-.2l-.06,0a8.71,8.71,0,0,1-.85-.32l-.15-.07-.64-.31-.22-.12-.56-.35-.2-.13a10,10,0,0,1-4.27-8.23V296.14a43.53,43.53,0,0,1,.79-8.21c.08-.42.18-.85.27-1.27.06-.25.11-.5.18-.75s.17-.7.27-1l.27-1c.09-.28.17-.56.26-.84s.25-.78.39-1.16l.24-.67c.16-.43.33-.87.51-1.3l.21-.52c.2-.47.41-.94.63-1.4l.18-.4c.24-.5.49-1,.75-1.48l.15-.29c.29-.53.59-1.06.89-1.58l.09-.15a41.39,41.39,0,0,1,71.36,0,1.09,1.09,0,0,1,.08.15c.31.52.61,1.05.9,1.58l.15.29c.26.49.51,1,.75,1.48l.18.4c.22.46.43.93.63,1.4l.21.52c.18.43.35.87.51,1.3l.24.67c.14.38.26.77.39,1.16s.17.56.26.84l.27,1c.1.34.19.69.27,1s.12.5.18.75c.09.42.19.85.27,1.27a43.53,43.53,0,0,1,.79,8.21V309.8a10,10,0,0,1-4.27,8.23l-.2.13-.56.35-.22.12-.64.31-.15.07a8.71,8.71,0,0,1-.85.32l-.06,0a7.19,7.19,0,0,1-.8.2l-.24.05-.66.11-.26,0c-.3,0-.6,0-.91,0a6.44,6.44,0,0,0-6.37,6.48v14.1Zm63.08,6.69a8.22,8.22,0,0,1-5.14,4.09,8.07,8.07,0,0,1-4.72-.13,2.44,2.44,0,0,0-2.86,1.08h0a2.51,2.51,0,0,0,.37,3.08,8.37,8.37,0,0,1,2.28,4.21,8.52,8.52,0,0,1-1.5,6.88,8.21,8.21,0,0,1-10.19,2.5,8.35,8.35,0,0,1-4.42-5.42,8.55,8.55,0,0,1,.95-6.58,4.93,4.93,0,0,0,.58-3.69,4.69,4.69,0,0,0-2.09-2.93l-32-19.83v-4.05a2,2,0,0,1,1.48-2l.13,0h.12a2.58,2.58,0,0,1,.29,0h0c.27,0,.54,0,.8,0l.27,0,.56-.05.31,0,.52-.09.3-.05.75-.18.32-.09.44-.13.38-.13.38-.15.38-.15.42-.19.53-.25.42-.23.12-.07,28.8,17.86a4.67,4.67,0,0,0,6.63-1.6A8.21,8.21,0,0,1,220,336h0A8.57,8.57,0,0,1,222.65,347.05Z"/></svg>