<svg id="Calque_1" data-name="Calque 1" xmlns="http://www.w3.org/2000/svg" viewBox="0 0 291 230"><defs><style>.cls-1,.cls-2,.cls-4{fill:none;stroke:#1d1d1b;stroke-linecap:round;}.cls-1,.cls-4{stroke-miterlimit:10;}.cls-1{stroke-width:3px;}.cls-2{stroke-linejoin:round;stroke-width:3.61px;}.cls-3{fill:#8d1f24;}.cls-4{stroke-width:15px;}</style></defs><line class="cls-1" x1="135.75" y1="58.39" x2="132.78" y2="64.67"/><line class="cls-1" x1="190.97" y1="158.59" x2="184.9" y2="158.06"/><line class="cls-1" x1="182.16" y1="174.23" x2="174.92" y2="168.47"/><line class="cls-1" x1="168.44" y1="178.55" x2="166.5" y2="170.32"/><line class="cls-1" x1="101" y1="65.72" x2="106.3" y2="73.88"/><line class="cls-1" x1="112.53" y1="61.65" x2="115.26" y2="69.19"/><path class="cls-2" d="M136.3,142.58c.11-.34.23-.67.35-1,1.32-7.06-.24-22.58-13.53-25.85-11.15-2-19.91-9.12-21.69-18.86-2.48-13.52,9-30.63,26.36-31.18,52-1.65,84.8,71.83,50.7,98.85-13.65,10.82-31.39,10.24-39.58-.8a20,20,0,0,1-3.18-6.47"/><path class="cls-3" d="M176.91,158.34c-11,8.89-25.9,7.84-33.15-1.93a18.86,18.86,0,0,1-2.9-5.68l-.07-12.62c.08-.29.17-.58.26-.87.85-6-2.6-22.32-13.84-25.56-9.41-2.1-15.43-5.61-17.28-14.05-2.57-11.73,6.38-26.11,20.93-26C174.32,71.8,204.46,136.14,176.91,158.34Z"/><line class="cls-4" x1="93.32" y1="86.38" x2="113.46" y2="116.88"/><line class="cls-4" x1="118.17" y1="91.45" x2="88.19" y2="113.07"/></svg>