<svg id="Calque_1" data-name="Calque 1" xmlns="http://www.w3.org/2000/svg" viewBox="0 0 291 230"><defs><style>.cls-1,.cls-2{fill:none;}.cls-1,.cls-2,.cls-5{stroke:#1d1d1b;stroke-linecap:round;}.cls-1,.cls-5{stroke-miterlimit:10;stroke-width:3px;}.cls-2{stroke-linejoin:round;stroke-width:3.61px;}.cls-3{fill:#e73327;}.cls-4{fill:#8d1f24;}.cls-5{fill:#fff;}</style></defs><line class="cls-1" x1="169.43" y1="109.47" x2="154.41" y2="118.14"/><line class="cls-1" x1="67.95" y1="194.01" x2="66.59" y2="187.74"/><line class="cls-1" x1="139.58" y1="115.67" x2="133.95" y2="114.86"/><line class="cls-1" x1="134.91" y1="99.76" x2="127.09" y2="103.41"/><line class="cls-1" x1="123.35" y1="92.99" x2="119.84" y2="99.97"/><line class="cls-1" x1="37.92" y1="180.09" x2="44.48" y2="173.88"/><line class="cls-1" x1="47.54" y1="186.18" x2="51.63" y2="179.98"/><path class="cls-2" d="M86.44,118.51c0,.33.06.66.11,1-.31,6.61-5,20.22-17.83,20.36-10.58-.54-20.06,4-23.76,12.35-5.15,11.62,1.6,29.41,17.31,33.58,46.95,12.45,92.47-46.63,67.23-78.09-10.1-12.6-26.36-15.82-36.16-7.63a18.44,18.44,0,0,0-4.28,5.14"/><path class="cls-3" d="M126.74,112.92c-8.13-10.3-21.88-12.49-30.56-5.25a17.59,17.59,0,0,0-3.85,4.48l-2.76,11.33c0,.27,0,.55.05.83-.52,5.6-7.14,19.5-18.05,20-9-.11-15.22,1.78-18.71,9-4.85,10,.22,24.8,13.46,27.8C105.9,190.1,147.05,138.68,126.74,112.92Z"/><line class="cls-1" x1="203.88" y1="42.16" x2="199.84" y2="47.18"/><line class="cls-1" x1="232.7" y1="143.81" x2="227.28" y2="142.05"/><line class="cls-1" x1="221.34" y1="156" x2="215.98" y2="149.29"/><line class="cls-1" x1="207.93" y1="156.98" x2="207.93" y2="149.18"/><line class="cls-1" x1="170.71" y1="41.42" x2="173.79" y2="49.86"/><line class="cls-1" x1="182.07" y1="40.19" x2="182.94" y2="47.54"/><path class="cls-2" d="M186.39,117.89l.54-.83c2.7-6.06,4.6-20.33-6.78-26.07-9.72-4.18-16.16-12.39-15.7-21.52.63-12.66,14.69-25.62,30.64-22.44,47.65,9.49,61.77,82.4,25,99.48-14.72,6.83-30.73,2.57-35.82-9.07a18.45,18.45,0,0,1-1.51-6.48"/><path class="cls-4" d="M220,140.62c-11.93,5.65-25.23,1.57-29.74-8.74a17.5,17.5,0,0,1-1.43-5.71l2.65-11.35q.19-.36.42-.72c2-5.24,2.4-20.6-7.13-25.88C176.62,84.35,171.9,79.93,172,72c.16-11.07,11.38-22.1,24.59-19C236.1,62.35,249.76,126.48,220,140.62Z"/><ellipse class="cls-5" cx="186.94" cy="98.71" rx="19.97" ry="21.26" transform="translate(55.34 264.15) rotate(-79.34)"/></svg>