<svg id="Calque_1" data-name="Calque 1" xmlns="http://www.w3.org/2000/svg" viewBox="0 0 527 454"><defs><style>.cls-1{fill:#8d1f24;}.cls-2{fill:#e73327;}.cls-3{fill:none;}.cls-3,.cls-4{stroke:#1d1d1b;stroke-miterlimit:10;stroke-width:10px;}.cls-4{fill:#fff;}</style></defs><path class="cls-1" d="M465.35,222a55.69,55.69,0,0,0-17.05-37.53L367,107.22c-21.16-20.11-53.67-18.41-72.61,3.8s-17.15,56.51,4,76.63L379.7,264.9c21.16,20.11,53.67,18.41,72.61-3.8A55.7,55.7,0,0,0,465.35,222Z"/><path class="cls-2" d="M159,381.27a55.66,55.66,0,0,0,38.37-15.06l81.38-77.12c21.19-20.07,21.19-52.63,0-72.7s-55.54-20.08-76.73,0l-81.39,77.12c-21.19,20.07-21.19,52.63,0,72.7A55.66,55.66,0,0,0,159,381.27Z"/><path class="cls-3" d="M29.82,423.36A181.62,181.62,0,0,1,97.32,340l.32-.22"/><path class="cls-3" d="M145.12,365.52a55.66,55.66,0,0,0,38.36-15l81.39-77.12c21.19-20.08,21.19-52.63,0-72.71s-55.54-20.08-76.74,0l-81.38,77.12c-21.19,20.08-21.19,52.63,0,72.71A55.68,55.68,0,0,0,145.12,365.52Z"/><line class="cls-3" x1="226.78" y1="273.11" x2="245.7" y2="255.18"/><path class="cls-3" d="M217.14,282.24,164.31,332.3a28.26,28.26,0,0,1-38.39,0"/><path class="cls-3" d="M113.92,356.14a103.74,103.74,0,0,0-29.85,72.43v1.22"/><line class="cls-3" x1="226.5" y1="185.58" x2="226.5" y2="159.87"/><line class="cls-3" x1="179.03" y1="172.73" x2="188.73" y2="200.1"/><line class="cls-3" x1="145.12" y1="204.86" x2="161.12" y2="226.2"/><line class="cls-3" x1="111.2" y1="236.99" x2="133.72" y2="252.16"/><line class="cls-3" x1="77.29" y1="269.13" x2="106.18" y2="278.32"/><line class="cls-3" x1="63.73" y1="314.11" x2="90.86" y2="314.11"/><line class="cls-3" x1="145.12" y1="365.52" x2="145.12" y2="391.23"/><line class="cls-3" x1="192.59" y1="378.38" x2="182.89" y2="351"/><line class="cls-3" x1="226.5" y1="346.24" x2="210.5" y2="324.91"/><line class="cls-3" x1="260.42" y1="314.11" x2="237.9" y2="298.95"/><line class="cls-3" x1="294.33" y1="281.98" x2="265.43" y2="272.79"/><line class="cls-3" x1="307.89" y1="236.99" x2="280.76" y2="236.99"/><path class="cls-3" d="M474.9,209.33a55.63,55.63,0,0,0-17-37.53L376.59,94.55c-21.15-20.11-53.66-18.41-72.6,3.8s-17.15,56.52,4,76.63l81.27,77.25c21.15,20.11,53.66,18.41,72.61-3.8A55.63,55.63,0,0,0,474.9,209.33Z"/><line class="cls-3" x1="378.35" y1="132.61" x2="359.45" y2="114.65"/><path class="cls-3" d="M388,141.75l52.76,50.15a28.25,28.25,0,0,1,2,38.33"/><path class="cls-3" d="M228.23,45.65l7.7-9A28.39,28.39,0,0,1,262,26.77,29.92,29.92,0,0,1,285.15,46.2a106.29,106.29,0,0,0,26.28,39.92l3.05,2.9"/><path class="cls-3" d="M230.36,86.29l7.11-3a41.78,41.78,0,0,1,24.21-2.22,42.77,42.77,0,0,1,23.17,13.46l12.43,13.74"/><line class="cls-3" x1="290.95" y1="137.45" x2="265.28" y2="138.79"/><line class="cls-3" x1="280.59" y1="185.54" x2="307.43" y2="174.42"/><line class="cls-3" x1="314.45" y1="217.72" x2="334.93" y2="200.62"/><line class="cls-3" x1="348.32" y1="249.91" x2="362.29" y2="226.63"/><line class="cls-3" x1="382.18" y1="282.1" x2="389.84" y2="252.76"/><line class="cls-3" x1="427.81" y1="293.29" x2="426.39" y2="266.2"/><line class="cls-3" x1="474.9" y1="209.33" x2="500.57" y2="207.99"/><line class="cls-3" x1="485.26" y1="161.25" x2="458.42" y2="172.36"/><line class="cls-3" x1="451.4" y1="129.06" x2="430.93" y2="146.16"/><line class="cls-3" x1="417.54" y1="96.87" x2="403.57" y2="120.15"/><line class="cls-3" x1="383.68" y1="64.69" x2="376.01" y2="94.02"/><line class="cls-3" x1="338.04" y1="53.49" x2="339.46" y2="80.58"/><circle class="cls-4" cx="410.69" cy="275.31" r="36.5"/><line class="cls-3" x1="421.23" y1="309.56" x2="439.15" y2="364.79"/></svg>