<svg id="Calque_1" data-name="Calque 1" xmlns="http://www.w3.org/2000/svg" viewBox="0 0 344 316"><defs><style>.cls-1{fill:#e73327;}.cls-2,.cls-3{fill:none;stroke:#1d1d1b;stroke-miterlimit:10;}.cls-2{stroke-width:10px;}.cls-3{stroke-width:35px;}</style></defs><path class="cls-1" d="M143.38,247.77a55.65,55.65,0,0,0,38.37-15.06l81.39-77.12c21.19-20.08,21.19-52.63,0-72.71s-55.54-20.08-76.74,0L105,160c-21.18,20.08-21.18,52.63,0,72.71A55.68,55.68,0,0,0,143.38,247.77Z"/><path class="cls-2" d="M14.24,289.86a181.82,181.82,0,0,1,67.5-83.33l.33-.22"/><path class="cls-2" d="M129.54,232A55.66,55.66,0,0,0,167.91,217l81.39-77.12c21.19-20.08,21.19-52.63,0-72.71s-55.54-20.07-76.74,0L91.17,144.25C70,164.33,70,196.88,91.17,217A55.66,55.66,0,0,0,129.54,232Z"/><line class="cls-2" x1="211.2" y1="139.6" x2="230.13" y2="121.67"/><path class="cls-2" d="M201.57,148.73l-52.83,50.06a28.26,28.26,0,0,1-38.39,0"/><path class="cls-2" d="M98.34,222.64A103.74,103.74,0,0,0,68.5,295.07v1.22"/><line class="cls-2" x1="210.93" y1="52.07" x2="210.93" y2="26.37"/><line class="cls-2" x1="163.45" y1="39.22" x2="173.15" y2="66.6"/><line class="cls-2" x1="129.54" y1="71.35" x2="145.55" y2="92.69"/><line class="cls-2" x1="95.63" y1="103.49" x2="118.15" y2="118.65"/><line class="cls-2" x1="61.72" y1="135.62" x2="90.61" y2="144.81"/><line class="cls-2" x1="48.15" y1="180.61" x2="75.28" y2="180.61"/><line class="cls-2" x1="129.54" y1="232.02" x2="129.54" y2="257.73"/><line class="cls-2" x1="177.02" y1="244.87" x2="167.32" y2="217.5"/><line class="cls-2" x1="210.93" y1="212.74" x2="194.92" y2="191.4"/><line class="cls-2" x1="244.84" y1="180.61" x2="222.33" y2="165.44"/><line class="cls-2" x1="278.75" y1="148.47" x2="249.86" y2="139.28"/><line class="cls-2" x1="292.32" y1="103.49" x2="265.19" y2="103.49"/><line class="cls-3" x1="228.96" y1="21" x2="302.9" y2="116"/><line class="cls-3" x1="219" y1="105.69" x2="312.86" y2="30.78"/></svg>