<svg id="Calque_1" data-name="Calque 1" xmlns="http://www.w3.org/2000/svg" viewBox="0 0 291 230"><defs><style>.cls-1{fill:#e73327;}.cls-2{fill:none;stroke:#1d1d1b;stroke-linecap:round;stroke-linejoin:round;stroke-width:3.61px;}</style></defs><path class="cls-1" d="M77.44,93l4.21,7.07v11.37h37.57V174H81.65v10.25a3.37,3.37,0,0,0,3.49,3.23h57.5a3.37,3.37,0,0,0,3.49-3.23V100.83L150.34,93Z"/><path class="cls-2" d="M142.64,187.47H85.14a3.37,3.37,0,0,1-3.49-3.23V100.09L77.44,93h72.9l-4.21,7.81v83.41A3.37,3.37,0,0,1,142.64,187.47Z"/><polyline class="cls-2" points="124.55 78.32 153.39 78.32 153.39 87.42"/><polyline class="cls-2" points="73.14 87.42 73.14 78.32 85.68 78.32"/><polyline class="cls-2" points="142.06 64.17 147.57 64.17 147.57 77.16"/><line class="cls-2" x1="88.72" y1="64.18" x2="142.06" y2="64.18"/><polyline class="cls-2" points="78.96 77.16 78.96 64.17 88.72 64.17"/><polyline class="cls-2" points="82.18 111.46 119.22 111.46 119.22 173.99 82.18 173.99"/><line class="cls-2" x1="92.51" y1="64.67" x2="92.51" y2="71.49"/><line class="cls-2" x1="106.34" y1="64.67" x2="106.34" y2="71.49"/><line class="cls-2" x1="120.18" y1="64.67" x2="120.18" y2="71.49"/><line class="cls-2" x1="134.02" y1="64.67" x2="134.02" y2="71.49"/><line class="cls-2" x1="81.65" y1="127.42" x2="101.44" y2="127.42"/><path class="cls-1" d="M180,87.36s-2.07,22.51,10.81,22.22,9.34-21.43,9.34-21.43Z"/><path class="cls-1" d="M179.52,153.55s-2.07,22.51,10.81,22.22,9.34-21.43,9.34-21.43Z"/><path class="cls-2" d="M180.7,82.11l0-9c0-5,4.31-9,9.68-9h0c5.36,0,9.72,4,9.74,8.94l0,9"/><path class="cls-2" d="M180.72,87l19.42,0,.05,13.7c0,5-4.32,9-9.69,9h0c-5.36,0-9.72-4-9.74-8.95Z"/><path class="cls-2" d="M180.91,145.88l0-9c0-4.95,4.32-9,9.68-9h0c5.37,0,9.73,4,9.74,8.94l0,9"/><path class="cls-2" d="M180.92,152.72l19.43-.05,0,13.7c0,5-4.32,9-9.68,9h0c-5.37,0-9.73-4-9.74-8.94Z"/><path class="cls-2" d="M149.67,49.63l58.87-.16c6.15,0,11.21,4.62,11.23,10.31l.37,116c0,5.69-5,10.36-11.17,10.37l-52.84.15"/><line class="cls-2" x1="162.83" y1="58.87" x2="163.2" y2="173.39"/></svg>