<svg id="Calque_1" data-name="Calque 1" xmlns="http://www.w3.org/2000/svg" viewBox="0 0 291 230"><defs><style>.cls-1,.cls-2,.cls-4{fill:none;stroke:#1d1d1b;stroke-linecap:round;}.cls-1,.cls-4{stroke-miterlimit:10;}.cls-1{stroke-width:3px;}.cls-2{stroke-linejoin:round;stroke-width:3.61px;}.cls-3{fill:#e73327;}.cls-4{stroke-width:15px;}</style></defs><line class="cls-1" x1="126.62" y1="174.6" x2="123.65" y2="168.31"/><line class="cls-1" x1="181.84" y1="74.39" x2="175.77" y2="74.92"/><line class="cls-1" x1="173.03" y1="58.75" x2="165.79" y2="64.51"/><line class="cls-1" x1="159.31" y1="54.43" x2="157.37" y2="62.66"/><line class="cls-1" x1="91.88" y1="167.26" x2="97.17" y2="159.1"/><line class="cls-1" x1="103.41" y1="171.33" x2="106.13" y2="163.79"/><path class="cls-2" d="M127.17,90.4c.11.34.23.68.35,1,1.32,7.06-.24,22.58-13.53,25.85-11.15,2-19.9,9.12-21.69,18.86-2.48,13.52,9,30.63,26.37,31.19,52,1.65,84.79-71.84,50.69-98.86-13.65-10.82-31.39-10.24-39.58.8a20.22,20.22,0,0,0-3.18,6.47"/><path class="cls-3" d="M167.78,74.64c-11-8.89-25.89-7.83-33.15,1.93a19.1,19.1,0,0,0-2.9,5.68l-.06,12.62c.08.29.16.58.25.87.85,6-2.6,22.32-13.84,25.56-9.41,2.1-15.42,5.61-17.28,14.06-2.57,11.72,6.38,26.11,20.93,26C165.19,161.18,195.33,96.85,167.78,74.64Z"/><line class="cls-4" x1="146.03" y1="146" x2="166.18" y2="176.5"/><line class="cls-4" x1="170.89" y1="151.08" x2="140.91" y2="172.7"/></svg>