<?xml version="1.0" encoding="UTF-8" standalone="no"?>
<!DOCTYPE svg PUBLIC "-//W3C//DTD SVG 1.1//EN" "http://www.w3.org/Graphics/SVG/1.1/DTD/svg11.dtd">
<svg width="100%" height="100%" viewBox="0 0 143 144" version="1.1" xmlns="http://www.w3.org/2000/svg" xmlns:xlink="http://www.w3.org/1999/xlink" xml:space="preserve" xmlns:serif="http://www.serif.com/" style="fill-rule:evenodd;clip-rule:evenodd;stroke-linejoin:round;stroke-miterlimit:2;">
    <g transform="matrix(1,0,0,1,-28367,-1395)">
        <g transform="matrix(3.03411,0,0,5.19663,21097.4,942.188)">
            <g id="engineering2" transform="matrix(2.71277,0,0,2.71277,-4292.84,0.194933)">
                <g transform="matrix(0.115506,0,0,0.0674395,-811.93,-62.6432)">
                    <path d="M28439.9,1455.28C28434.7,1447.92 28429.6,1438 28429.8,1427.89C28430.2,1412.11 28436.6,1406.7 28450.1,1406.7C28463.7,1406.7 28472.1,1413.5 28472.1,1427.04C28472.1,1437.31 28466.3,1447.65 28460.6,1455.28L28439.9,1455.28Z" style="fill:url(#_Linear1);"/>
                </g>
                <g transform="matrix(0.115506,0,0,0.0674395,-811.93,-62.6432)">
                    <path d="M28438.5,1456.29C28438.8,1456.76 28439.3,1457.04 28439.9,1457.04L28460.6,1457.04C28461.2,1457.04 28461.7,1456.78 28462.1,1456.33C28467.9,1448.42 28473.8,1437.68 28473.8,1427.04C28473.8,1419.67 28471.5,1414.17 28467.3,1410.47C28463.3,1406.83 28457.4,1404.93 28450.1,1404.93C28442.8,1404.93 28437.4,1406.52 28433.8,1410.13C28430.2,1413.7 28428.3,1419.36 28428.1,1427.85C28427.8,1438.34 28433.1,1448.65 28438.5,1456.29ZM28459.7,1453.51C28465,1446.24 28470.3,1436.62 28470.3,1427.04C28470.3,1420.87 28468.5,1416.2 28465,1413.11C28461.5,1409.97 28456.4,1408.46 28450.1,1408.46C28443.9,1408.46 28439.3,1409.58 28436.3,1412.63C28433.2,1415.7 28431.8,1420.64 28431.6,1427.93C28431.4,1437.32 28436,1446.52 28440.8,1453.51L28459.7,1453.51Z" style="fill:url(#_Linear2);"/>
                </g>
                <g transform="matrix(0.329586,0,0,0.192432,-6953.42,-181.307)">
                    <circle cx="28589.4" cy="1137.99" r="6.366" style="fill:url(#_Linear3);"/>
                </g>
                <g transform="matrix(0.329586,0,0,0.192432,-6953.42,-181.307)">
                    <path d="M28589.4,1131.01C28585.5,1131.01 28582.4,1134.13 28582.4,1137.99C28582.4,1141.85 28585.5,1144.98 28589.4,1144.98C28593.3,1144.98 28596.4,1141.85 28596.4,1137.99C28596.4,1134.13 28593.3,1131.01 28589.4,1131.01ZM28589.4,1132.24C28592.6,1132.24 28595.1,1134.82 28595.1,1137.99C28595.1,1141.16 28592.6,1143.74 28589.4,1143.74C28586.2,1143.74 28583.7,1141.16 28583.7,1137.99C28583.7,1134.82 28586.2,1132.24 28589.4,1132.24Z" style="fill:url(#_Linear4);"/>
                </g>
                <g transform="matrix(0.329586,0,0,0.192432,-6943.21,-181.307)">
                    <circle cx="28589.4" cy="1137.99" r="6.366" style="fill:url(#_Linear5);"/>
                </g>
                <g transform="matrix(0.329586,0,0,0.192432,-6943.21,-181.307)">
                    <path d="M28589.4,1131.01C28585.5,1131.01 28582.4,1134.13 28582.4,1137.99C28582.4,1141.85 28585.5,1144.98 28589.4,1144.98C28593.3,1144.98 28596.4,1141.85 28596.4,1137.99C28596.4,1134.13 28593.3,1131.01 28589.4,1131.01ZM28589.4,1132.24C28592.6,1132.24 28595.1,1134.82 28595.1,1137.99C28595.1,1141.16 28592.6,1143.74 28589.4,1143.74C28586.2,1143.74 28583.7,1141.16 28583.7,1137.99C28583.7,1134.82 28586.2,1132.24 28589.4,1132.24Z" style="fill:url(#_Linear6);"/>
                </g>
                <g transform="matrix(0.329586,0,0,0.192432,-6948.33,-180.373)">
                    <circle cx="28589.4" cy="1137.99" r="6.366" style="fill:url(#_Linear7);"/>
                </g>
                <g transform="matrix(0.329586,0,0,0.192432,-6948.33,-180.373)">
                    <path d="M28589.4,1131.01C28585.5,1131.01 28582.4,1134.13 28582.4,1137.99C28582.4,1141.85 28585.5,1144.98 28589.4,1144.98C28593.3,1144.98 28596.4,1141.85 28596.4,1137.99C28596.4,1134.13 28593.3,1131.01 28589.4,1131.01ZM28589.4,1132.24C28592.6,1132.24 28595.1,1134.82 28595.1,1137.99C28595.1,1141.16 28592.6,1143.74 28589.4,1143.74C28586.2,1143.74 28583.7,1141.16 28583.7,1137.99C28583.7,1134.82 28586.2,1132.24 28589.4,1132.24Z" style="fill:url(#_Linear8);"/>
                </g>
                <g transform="matrix(0.329586,0,0,0.192432,-6952.99,-181.485)">
                    <path d="M28598.5,1149.97C28591.5,1147.42 28584.7,1147.6 28577.9,1149.97L28577.9,1157.3L28598.5,1157.3L28598.5,1149.97Z" style="fill:url(#_Linear9);"/>
                </g>
                <g transform="matrix(0.329586,0,0,0.192432,-6952.99,-181.485)">
                    <path d="M28599.1,1149.97C28599.1,1149.71 28598.9,1149.48 28598.7,1149.39C28591.6,1146.79 28584.6,1146.97 28577.7,1149.38C28577.5,1149.47 28577.3,1149.7 28577.3,1149.97L28577.3,1157.3C28577.3,1157.64 28577.6,1157.92 28577.9,1157.92L28598.5,1157.92C28598.8,1157.92 28599.1,1157.64 28599.1,1157.3L28599.1,1149.97ZM28597.9,1150.4C28591.3,1148.11 28584.9,1148.27 28578.6,1150.41L28578.6,1156.68L28597.9,1156.68L28597.9,1150.4Z" style="fill:url(#_Linear10);"/>
                </g>
                <g transform="matrix(0.329586,0,0,0.192432,-6942.82,-181.485)">
                    <path d="M28598.5,1149.97C28591.5,1147.42 28584.7,1147.6 28577.9,1149.97L28577.9,1157.3L28598.5,1157.3L28598.5,1149.97Z" style="fill:url(#_Linear11);"/>
                </g>
                <g transform="matrix(0.329586,0,0,0.192432,-6942.82,-181.485)">
                    <path d="M28599.1,1149.97C28599.1,1149.71 28598.9,1149.48 28598.7,1149.39C28591.6,1146.79 28584.6,1146.97 28577.7,1149.38C28577.5,1149.47 28577.3,1149.7 28577.3,1149.97L28577.3,1157.3C28577.3,1157.64 28577.6,1157.92 28577.9,1157.92L28598.5,1157.92C28598.8,1157.92 28599.1,1157.64 28599.1,1157.3L28599.1,1149.97ZM28597.9,1150.4C28591.3,1148.11 28584.9,1148.27 28578.6,1150.41L28578.6,1156.68L28597.9,1156.68L28597.9,1150.4Z" style="fill:url(#_Linear12);"/>
                </g>
                <g transform="matrix(0.329586,0,0,0.192432,-6947.93,-180.602)">
                    <path d="M28598.5,1149.97C28591.5,1147.42 28584.7,1147.6 28577.9,1149.97L28577.9,1157.3L28598.5,1157.3L28598.5,1149.97Z" style="fill:white;"/>
                </g>
                <g transform="matrix(0.329586,0,0,0.192432,-6947.93,-180.602)">
                    <path d="M28599.1,1149.97C28599.1,1149.71 28598.9,1149.48 28598.7,1149.39C28591.6,1146.79 28584.6,1146.97 28577.7,1149.38C28577.5,1149.47 28577.3,1149.7 28577.3,1149.97L28577.3,1157.3C28577.3,1157.64 28577.6,1157.92 28577.9,1157.92L28598.5,1157.92C28598.8,1157.92 28599.1,1157.64 28599.1,1157.3L28599.1,1149.97ZM28597.9,1150.4C28591.3,1148.11 28584.9,1148.27 28578.6,1150.41L28578.6,1156.68L28597.9,1156.68L28597.9,1150.4Z" style="fill:url(#_Linear13);"/>
                </g>
                <g transform="matrix(0.120861,0,0,0.05203,-964.118,-40.1054)">
                    <path d="M28459.7,1461.48C28459.7,1460.41 28459,1459.55 28458.2,1459.55L28440.9,1459.55C28440.1,1459.55 28439.5,1460.41 28439.5,1461.48L28439.5,1465.34C28439.5,1466.4 28440.1,1467.27 28440.9,1467.27L28458.2,1467.27C28459,1467.27 28459.7,1466.4 28459.7,1465.34L28459.7,1461.48Z" style="fill:url(#_Linear14);"/>
                </g>
                <g transform="matrix(0.120861,0,0,0.05203,-964.118,-40.1054)">
                    <path d="M28461.4,1461.48C28461.4,1459.15 28460,1457.26 28458.2,1457.26L28440.9,1457.26C28439.2,1457.26 28437.8,1459.15 28437.8,1461.48C28437.8,1461.48 28437.8,1465.34 28437.8,1465.34C28437.8,1467.67 28439.2,1469.56 28440.9,1469.56L28458.2,1469.56C28460,1469.56 28461.4,1467.67 28461.4,1465.34C28461.4,1465.34 28461.4,1461.48 28461.4,1461.48ZM28441.2,1461.84L28441.2,1464.98L28458,1464.98L28458,1461.84L28441.2,1461.84Z" style="fill:url(#_Linear15);"/>
                </g>
                <g transform="matrix(0.115506,0,0,0.0674395,-811.93,-62.6432)">
                    <path d="M28453.7,1470.94C28453.8,1471.27 28453.9,1471.62 28453.9,1471.99C28453.9,1473.62 28452.6,1474.95 28450.9,1474.95C28449.3,1474.95 28448,1473.62 28448,1471.99C28448,1471.62 28448.1,1471.27 28448.2,1470.94L28453.7,1470.94Z" style="fill:url(#_Linear16);"/>
                </g>
                <g transform="matrix(0.115506,0,0,0.0674395,-811.93,-62.6432)">
                    <path d="M28455.4,1470.32C28455.1,1469.63 28454.5,1469.17 28453.7,1469.17L28448.2,1469.17C28447.4,1469.17 28446.8,1469.63 28446.5,1470.32C28446.3,1470.84 28446.2,1471.4 28446.2,1471.99C28446.2,1474.6 28448.3,1476.72 28450.9,1476.72C28453.6,1476.72 28455.7,1474.6 28455.7,1471.99C28455.7,1471.4 28455.6,1470.84 28455.4,1470.32ZM28451.9,1472.71L28450,1472.71C28450.2,1473 28450.6,1473.18 28450.9,1473.18C28451.3,1473.18 28451.7,1473 28451.9,1472.71Z" style="fill:url(#_Linear17);"/>
                </g>
            </g>
        </g>
    </g>
    <defs>
        <linearGradient id="_Linear1" x1="0" y1="0" x2="1" y2="0" gradientUnits="userSpaceOnUse" gradientTransform="matrix(30.1836,68.2523,-68.2523,30.1836,28429.8,1406.7)"><stop offset="0" style="stop-color:rgb(141,31,36);stop-opacity:0.1"/><stop offset="1" style="stop-color:rgb(141,31,36);stop-opacity:0.2"/></linearGradient>
        <linearGradient id="_Linear2" x1="0" y1="0" x2="1" y2="0" gradientUnits="userSpaceOnUse" gradientTransform="matrix(143.891,-152.579,152.579,143.891,28377.9,1555.68)"><stop offset="0" style="stop-color:rgb(255,28,38);stop-opacity:1"/><stop offset="1" style="stop-color:rgb(141,31,36);stop-opacity:1"/></linearGradient>
        <linearGradient id="_Linear3" x1="0" y1="0" x2="1" y2="0" gradientUnits="userSpaceOnUse" gradientTransform="matrix(51.4018,-25.8817,25.8817,51.4018,28579.2,1156.38)"><stop offset="0" style="stop-color:rgb(141,31,36);stop-opacity:0.2"/><stop offset="1" style="stop-color:rgb(141,31,36);stop-opacity:0.2"/></linearGradient>
        <linearGradient id="_Linear4" x1="0" y1="0" x2="1" y2="0" gradientUnits="userSpaceOnUse" gradientTransform="matrix(50.4279,-53.4725,53.4725,50.4279,28579.2,1161.86)"><stop offset="0" style="stop-color:rgb(255,28,38);stop-opacity:1"/><stop offset="1" style="stop-color:rgb(141,31,36);stop-opacity:1"/></linearGradient>
        <linearGradient id="_Linear5" x1="0" y1="0" x2="1" y2="0" gradientUnits="userSpaceOnUse" gradientTransform="matrix(51.4018,-25.8817,25.8817,51.4018,28548.3,1156.38)"><stop offset="0" style="stop-color:rgb(141,31,36);stop-opacity:0.1"/><stop offset="1" style="stop-color:rgb(141,31,36);stop-opacity:0.2"/></linearGradient>
        <linearGradient id="_Linear6" x1="0" y1="0" x2="1" y2="0" gradientUnits="userSpaceOnUse" gradientTransform="matrix(50.4279,-53.4725,53.4725,50.4279,28548.3,1161.86)"><stop offset="0" style="stop-color:rgb(255,28,38);stop-opacity:1"/><stop offset="1" style="stop-color:rgb(141,31,36);stop-opacity:1"/></linearGradient>
        <linearGradient id="_Linear7" x1="0" y1="0" x2="1" y2="0" gradientUnits="userSpaceOnUse" gradientTransform="matrix(51.4018,-25.8817,25.8817,51.4018,28563.8,1151.52)"><stop offset="0" style="stop-color:rgb(141,31,36);stop-opacity:0.1"/><stop offset="1" style="stop-color:rgb(141,31,36);stop-opacity:0.2"/></linearGradient>
        <linearGradient id="_Linear8" x1="0" y1="0" x2="1" y2="0" gradientUnits="userSpaceOnUse" gradientTransform="matrix(50.4279,-53.4725,53.4725,50.4279,28563.8,1157)"><stop offset="0" style="stop-color:rgb(255,28,38);stop-opacity:1"/><stop offset="1" style="stop-color:rgb(141,31,36);stop-opacity:1"/></linearGradient>
        <linearGradient id="_Linear9" x1="0" y1="0" x2="1" y2="0" gradientUnits="userSpaceOnUse" gradientTransform="matrix(51.4018,-25.8817,25.8817,51.4018,28577.9,1157.3)"><stop offset="0" style="stop-color:rgb(141,31,36);stop-opacity:0.1"/><stop offset="1" style="stop-color:rgb(141,31,36);stop-opacity:0.2"/></linearGradient>
        <linearGradient id="_Linear10" x1="0" y1="0" x2="1" y2="0" gradientUnits="userSpaceOnUse" gradientTransform="matrix(50.4279,-53.4725,53.4725,50.4279,28577.9,1162.78)"><stop offset="0" style="stop-color:rgb(255,28,38);stop-opacity:1"/><stop offset="1" style="stop-color:rgb(141,31,36);stop-opacity:1"/></linearGradient>
        <linearGradient id="_Linear11" x1="0" y1="0" x2="1" y2="0" gradientUnits="userSpaceOnUse" gradientTransform="matrix(51.4018,-25.8817,25.8817,51.4018,28547.1,1157.3)"><stop offset="0" style="stop-color:rgb(141,31,36);stop-opacity:0.1"/><stop offset="1" style="stop-color:rgb(141,31,36);stop-opacity:0.2"/></linearGradient>
        <linearGradient id="_Linear12" x1="0" y1="0" x2="1" y2="0" gradientUnits="userSpaceOnUse" gradientTransform="matrix(50.4279,-53.4725,53.4725,50.4279,28547.1,1162.78)"><stop offset="0" style="stop-color:rgb(255,28,38);stop-opacity:1"/><stop offset="1" style="stop-color:rgb(141,31,36);stop-opacity:1"/></linearGradient>
        <linearGradient id="_Linear13" x1="0" y1="0" x2="1" y2="0" gradientUnits="userSpaceOnUse" gradientTransform="matrix(50.4279,-53.4725,53.4725,50.4279,28562.6,1158.19)"><stop offset="0" style="stop-color:rgb(255,28,38);stop-opacity:1"/><stop offset="1" style="stop-color:rgb(141,31,36);stop-opacity:1"/></linearGradient>
        <linearGradient id="_Linear14" x1="0" y1="0" x2="1" y2="0" gradientUnits="userSpaceOnUse" gradientTransform="matrix(28.8463,88.4664,-65.2283,39.123,28429.4,1390.15)"><stop offset="0" style="stop-color:rgb(141,31,36);stop-opacity:0.1"/><stop offset="1" style="stop-color:rgb(141,31,36);stop-opacity:0.2"/></linearGradient>
        <linearGradient id="_Linear15" x1="0" y1="0" x2="1" y2="0" gradientUnits="userSpaceOnUse" gradientTransform="matrix(137.516,-197.767,145.818,186.507,28379.7,1583.25)"><stop offset="0" style="stop-color:rgb(255,28,38);stop-opacity:1"/><stop offset="1" style="stop-color:rgb(141,31,36);stop-opacity:1"/></linearGradient>
        <linearGradient id="_Linear16" x1="0" y1="0" x2="1" y2="0" gradientUnits="userSpaceOnUse" gradientTransform="matrix(30.1836,68.2523,-68.2523,30.1836,28429.8,1406.7)"><stop offset="0" style="stop-color:rgb(141,31,36);stop-opacity:0.1"/><stop offset="1" style="stop-color:rgb(141,31,36);stop-opacity:0.2"/></linearGradient>
        <linearGradient id="_Linear17" x1="0" y1="0" x2="1" y2="0" gradientUnits="userSpaceOnUse" gradientTransform="matrix(143.891,-152.579,152.579,143.891,28377.9,1555.68)"><stop offset="0" style="stop-color:rgb(255,28,38);stop-opacity:1"/><stop offset="1" style="stop-color:rgb(141,31,36);stop-opacity:1"/></linearGradient>
    </defs>
</svg>
