<?xml version="1.0" encoding="UTF-8" standalone="no"?>
<!DOCTYPE svg PUBLIC "-//W3C//DTD SVG 1.1//EN" "http://www.w3.org/Graphics/SVG/1.1/DTD/svg11.dtd">
<svg width="100%" height="100%" viewBox="0 0 144 151" version="1.1" xmlns="http://www.w3.org/2000/svg" xmlns:xlink="http://www.w3.org/1999/xlink" xml:space="preserve" xmlns:serif="http://www.serif.com/" style="fill-rule:evenodd;clip-rule:evenodd;stroke-linejoin:round;stroke-miterlimit:2;">
    <g transform="matrix(1,0,0,1,-28935,-1395)">
        <g transform="matrix(3.03411,0,0,5.19663,21097.4,942.188)">
            <g id="engineering5" transform="matrix(5.83352,0,0,5.83352,-12473.5,-413.232)">
                <g transform="matrix(0.329586,0,0,0.192432,2582.07,86.5834)">
                    <path d="M19,21L5,21C3.903,21 3,20.097 3,19L3,5C3,3.903 3.903,3 5,3L16,3L21,8L21,19C21,20.097 20.097,21 19,21Z" style="fill:url(#_Linear1);fill-rule:nonzero;"/>
                </g>
                <g transform="matrix(0.0729952,0,0,0.0426191,469.712,25.0605)">
                    <path d="M28970.2,1502.71L28969.5,1538.25L29015,1537.99L29014.5,1502.78L28970.2,1502.71Z" style="fill:white;"/>
                </g>
                <g transform="matrix(0.329586,0,0,0.192432,2582.07,86.5834)">
                    <path d="M19,21.554C20.401,21.554 21.554,20.401 21.554,19C21.554,19 21.554,8 21.554,8C21.554,7.853 21.495,7.712 21.392,7.608L16.392,2.608C16.288,2.505 16.147,2.446 16,2.446L5,2.446C3.599,2.446 2.446,3.599 2.446,5C2.446,5 2.446,19 2.446,19C2.446,20.401 3.599,21.554 5,21.554L19,21.554ZM15.771,3.554L5,3.554C4.207,3.554 3.554,4.207 3.554,5L3.554,19C3.554,19.793 4.207,20.446 5,20.446L19,20.446C19.793,20.446 20.446,19.793 20.446,19L20.446,8.229L15.771,3.554Z" style="fill:url(#_Linear2);"/>
                </g>
                <g transform="matrix(0.329586,0,0,0.192432,2582.07,86.5834)">
                    <path d="M7.554,13.554L7.554,21C7.554,21.306 7.306,21.554 7,21.554C6.694,21.554 6.446,21.306 6.446,21L6.446,13C6.446,12.694 6.694,12.446 7,12.446L17,12.446C17.306,12.446 17.554,12.694 17.554,13L17.554,21C17.554,21.306 17.306,21.554 17,21.554C16.694,21.554 16.446,21.306 16.446,21L16.446,13.554L7.554,13.554Z" style="fill:url(#_Linear3);"/>
                </g>
                <g transform="matrix(0.329586,0,0,0.192432,2582.07,86.5834)">
                    <path d="M7.554,7.446L15,7.446C15.306,7.446 15.554,7.694 15.554,8C15.554,8.306 15.306,8.554 15,8.554L7,8.554C6.694,8.554 6.446,8.306 6.446,8L6.446,3C6.446,2.694 6.694,2.446 7,2.446C7.306,2.446 7.554,2.694 7.554,3L7.554,7.446Z" style="fill:url(#_Linear4);"/>
                </g>
                <g transform="matrix(0.0729952,0,0,0.0426191,464.714,24.954)">
                    <circle cx="29022.9" cy="1457.1" r="27.424" style="fill:white;"/>
                </g>
                <g transform="matrix(0.0729952,0,0,0.0426191,464.714,24.954)">
                    <path d="M29022.9,1427.17C29006.3,1427.17 28992.9,1440.58 28992.9,1457.1C28992.9,1473.62 29006.3,1487.02 29022.9,1487.02C29039.4,1487.02 29052.8,1473.62 29052.8,1457.1C29052.8,1440.58 29039.4,1427.17 29022.9,1427.17ZM29022.9,1432.17C29036.6,1432.17 29047.8,1443.34 29047.8,1457.1C29047.8,1470.86 29036.6,1482.02 29022.9,1482.02C29009.1,1482.02 28997.9,1470.86 28997.9,1457.1C28997.9,1443.34 29009.1,1432.17 29022.9,1432.17Z" style="fill:url(#_Linear5);"/>
                </g>
                <g transform="matrix(0.0601788,0,0,0.0351361,836.69,35.7953)">
                    <path d="M29027.7,1449.64L29019.8,1449.64C29018.1,1449.64 29016.8,1448.28 29016.8,1446.61C29016.8,1444.93 29018.1,1443.57 29019.8,1443.57L29035,1443.57C29035.1,1443.57 29035.1,1443.58 29035.2,1443.58L29035.2,1443.58L29035.2,1443.58C29035.4,1443.6 29035.5,1443.62 29035.6,1443.65L29035.7,1443.65L29035.7,1443.65C29035.8,1443.68 29035.9,1443.73 29036.1,1443.78L29036.1,1443.78C29036.2,1443.83 29036.3,1443.89 29036.5,1443.96L29036.5,1443.97L29036.5,1443.97C29036.6,1444.04 29036.7,1444.12 29036.8,1444.2L29036.8,1444.21L29036.9,1444.23L29036.9,1444.27L29037,1444.35L29037,1444.35L29037,1444.36C29037.1,1444.4 29037.1,1444.44 29037.2,1444.49L29037.2,1444.51L29037.2,1444.53L29037.2,1444.57L29037.3,1444.67C29037.4,1444.73 29037.4,1444.78 29037.4,1444.83L29037.5,1444.85L29037.5,1444.87C29037.5,1444.98 29037.6,1445.1 29037.7,1445.23L29037.7,1445.24L29037.7,1445.24C29037.8,1445.38 29037.8,1445.51 29037.9,1445.66L29037.9,1445.66C29037.9,1445.8 29037.9,1445.93 29038,1446.08L29038,1446.1L29038,1446.11C29038,1446.17 29038,1446.24 29038,1446.31L29038,1446.32L29038,1446.34L29038,1446.45L29038,1446.51L29038,1446.54L29038,1446.57L29038,1446.61L29038,1460.41C29038,1462.09 29036.7,1463.45 29035,1463.45C29033.3,1463.45 29031.9,1462.09 29031.9,1460.41L29031.9,1453.93L29012.6,1473.27C29011.4,1474.46 29009.5,1474.46 29008.3,1473.27C29007.1,1472.09 29007.1,1470.17 29008.3,1468.99L29027.7,1449.64Z" style="fill:url(#_Linear6);"/>
                </g>
            </g>
        </g>
    </g>
    <defs>
        <linearGradient id="_Linear1" x1="0" y1="0" x2="1" y2="0" gradientUnits="userSpaceOnUse" gradientTransform="matrix(17.9598,-18.9584,18.9584,17.9598,3,21.4251)"><stop offset="0" style="stop-color:rgb(141,31,36);stop-opacity:0.1"/><stop offset="1" style="stop-color:rgb(141,31,36);stop-opacity:0.1"/></linearGradient>
        <linearGradient id="_Linear2" x1="0" y1="0" x2="1" y2="0" gradientUnits="userSpaceOnUse" gradientTransform="matrix(22.3483,-24.6275,24.6275,22.3483,2.44631,21.5537)"><stop offset="0" style="stop-color:rgb(141,31,36);stop-opacity:1"/><stop offset="1" style="stop-color:rgb(255,29,39);stop-opacity:1"/></linearGradient>
        <linearGradient id="_Linear3" x1="0" y1="0" x2="1" y2="0" gradientUnits="userSpaceOnUse" gradientTransform="matrix(22.3483,-24.6275,24.6275,22.3483,2.44631,21.5537)"><stop offset="0" style="stop-color:rgb(141,31,36);stop-opacity:1"/><stop offset="1" style="stop-color:rgb(255,29,39);stop-opacity:1"/></linearGradient>
        <linearGradient id="_Linear4" x1="0" y1="0" x2="1" y2="0" gradientUnits="userSpaceOnUse" gradientTransform="matrix(22.3483,-24.6275,24.6275,22.3483,2.44631,21.5537)"><stop offset="0" style="stop-color:rgb(141,31,36);stop-opacity:1"/><stop offset="1" style="stop-color:rgb(255,29,39);stop-opacity:1"/></linearGradient>
        <linearGradient id="_Linear5" x1="0" y1="0" x2="1" y2="0" gradientUnits="userSpaceOnUse" gradientTransform="matrix(100.906,-111.197,111.197,100.906,28949.4,1540.87)"><stop offset="0" style="stop-color:rgb(141,31,36);stop-opacity:1"/><stop offset="1" style="stop-color:rgb(255,29,39);stop-opacity:1"/></linearGradient>
        <linearGradient id="_Linear6" x1="0" y1="0" x2="1" y2="0" gradientUnits="userSpaceOnUse" gradientTransform="matrix(122.397,-134.879,134.879,122.397,28933.6,1560.48)"><stop offset="0" style="stop-color:rgb(141,31,36);stop-opacity:1"/><stop offset="1" style="stop-color:rgb(255,29,39);stop-opacity:1"/></linearGradient>
    </defs>
</svg>
