<?xml version="1.0" encoding="UTF-8" standalone="no"?>
<!DOCTYPE svg PUBLIC "-//W3C//DTD SVG 1.1//EN" "http://www.w3.org/Graphics/SVG/1.1/DTD/svg11.dtd">
<svg width="100%" height="100%" viewBox="0 0 773 223" version="1.1" xmlns="http://www.w3.org/2000/svg" xmlns:xlink="http://www.w3.org/1999/xlink" xml:space="preserve" xmlns:serif="http://www.serif.com/" style="fill-rule:evenodd;clip-rule:evenodd;stroke-linecap:round;stroke-linejoin:round;stroke-miterlimit:1.5;">
    <g transform="matrix(1,0,0,1,-30567,-1679)">
        <g transform="matrix(3.03411,0,0,5.19663,23433,942.188)">
            <g id="education8">
                <g transform="matrix(0.329586,0,0,0.192432,-7723.18,-154.285)">
                    <circle cx="30650.8" cy="1650.47" r="83.29" style="fill:rgb(141,31,36);"/>
                    <clipPath id="_clip1">
                        <circle cx="30650.8" cy="1650.47" r="83.29"/>
                    </clipPath>
                    <g clip-path="url(#_clip1)">
                        <g transform="matrix(1,0,0,1,-15.671,-144.107)">
                            <text x="30609.2px" y="1782.87px" style="font-family:'Poppins-Light', 'Poppins';font-weight:300;font-size:17px;fill:white;">How were our</text>
                            <text x="30608.5px" y="1800.87px" style="font-family:'Poppins-Light', 'Poppins';font-weight:300;font-size:17px;fill:white;">presentations</text>
                            <text x="30618.6px" y="1818.87px" style="font-family:'Poppins-Light', 'Poppins';font-weight:300;font-size:17px;fill:white;">structured?</text>
                        </g>
                    </g>
                </g>
                <g transform="matrix(0.28543,-0.0962161,0.164793,0.166651,-6680.2,2820.1)">
                    <path d="M30809.1,1790.9L30883.4,1790.9L30864,1771.51L30883.4,1790.9L30864,1810.28" style="fill:none;stroke:black;stroke-width:5px;"/>
                </g>
                <g transform="matrix(0.28543,0.0962161,0.164793,-0.166651,-6680.2,-2493.46)">
                    <path d="M30809.1,1790.9L30883.4,1790.9L30864,1771.51L30883.4,1790.9L30864,1810.28" style="fill:none;stroke:black;stroke-width:5px;"/>
                </g>
                <g transform="matrix(0.329586,0,0,0.192432,-7714.99,-181.307)">
                    <circle cx="30837.1" cy="1707.61" r="26.893" style="fill:white;"/>
                    <clipPath id="_clip2">
                        <circle cx="30837.1" cy="1707.61" r="26.893"/>
                    </clipPath>
                    <g clip-path="url(#_clip2)">
                        <g transform="matrix(1,0,0,1,-14.6747,0.432934)">
                            <text x="30847.6px" y="1716.3px" style="font-family:'Poppins-Bold', 'Poppins';font-weight:700;font-size:25px;fill:rgb(141,31,36);">1</text>
                        </g>
                    </g>
                </g>
                <g transform="matrix(0.329586,0,0,0.192432,-7714.99,-149.252)">
                    <circle cx="30837.1" cy="1707.61" r="26.893" style="fill:white;"/>
                    <clipPath id="_clip3">
                        <circle cx="30837.1" cy="1707.61" r="26.893"/>
                    </clipPath>
                    <g clip-path="url(#_clip3)">
                        <g transform="matrix(1,0,0,1,-14.6747,0.432934)">
                            <text x="30845.2px" y="1716.3px" style="font-family:'Poppins-Bold', 'Poppins';font-weight:700;font-size:25px;fill:rgb(141,31,36);">2</text>
                        </g>
                    </g>
                </g>
                <g transform="matrix(0.329586,0,0,0.192432,-7725.36,-181.307)">
                    <text x="30924.4px" y="1691.81px" style="font-family:'Poppins-Light', 'Poppins';font-weight:300;font-size:15px;">The goal was to</text>
                    <text x="31045.7px" y="1691.81px" style="font-family:'Poppins-Bold', 'Poppins';font-weight:700;font-size:15px;">present global scientiﬁc concepts</text>
                    <text x="30924.4px" y="1709.81px" style="font-family:'Poppins-Light', 'Poppins';font-weight:300;font-size:15px;">(biology and then synthetic biology) and antimicrobial</text>
                    <text x="30924.4px" y="1727.81px" style="font-family:'Poppins-Light', 'Poppins';font-weight:300;font-size:15px;">resistance in order to inform the students on why we had</text>
                    <text x="30924.4px" y="1745.81px" style="font-family:'Poppins-Light', 'Poppins';font-weight:300;font-size:15px;">created the project BacTail.</text>
                </g>
                <g transform="matrix(0.329586,0,0,0.192432,-7725.36,-149.252)">
                    <text x="30924.4px" y="1691.81px" style="font-family:'Poppins-Bold', 'Poppins';font-weight:700;font-size:15px;">Interaction</text>
                    <text x="31010.1px" y="1691.81px" style="font-family:'Poppins-Light', 'Poppins';font-weight:300;font-size:15px;">: answer quizzes, talk about the students&apos;</text>
                    <text x="30924.4px" y="1709.81px" style="font-family:'Poppins-Light', 'Poppins';font-weight:300;font-size:15px;">professional perspectives or discuss and</text>
                    <text x="31230.9px" y="1709.81px" style="font-family:'Poppins-Bold', 'Poppins';font-weight:700;font-size:15px;">animate</text>
                    <text x="30924.4px" y="1727.81px" style="font-family:'Poppins-Bold', 'Poppins';font-weight:700;font-size:15px;">debates</text>
                    <text x="30991.1px" y="1727.81px" style="font-family:'Poppins-Light', 'Poppins';font-weight:300;font-size:15px;">with them.</text>
                </g>
            </g>
        </g>
    </g>
</svg>
