<?xml version="1.0" encoding="UTF-8" standalone="no"?>
<!DOCTYPE svg PUBLIC "-//W3C//DTD SVG 1.1//EN" "http://www.w3.org/Graphics/SVG/1.1/DTD/svg11.dtd">
<svg width="100%" height="100%" viewBox="0 0 190 129" version="1.1" xmlns="http://www.w3.org/2000/svg" xmlns:xlink="http://www.w3.org/1999/xlink" xml:space="preserve" xmlns:serif="http://www.serif.com/" style="fill-rule:evenodd;clip-rule:evenodd;stroke-linejoin:round;stroke-miterlimit:2;">
    <g transform="matrix(1,0,0,1,-31238,-1495)">
        <g transform="matrix(3.03411,0,0,5.19663,23433,942.188)">
            <g id="education4" transform="matrix(1.25485,0,0,1.25485,-659.543,34.8289)">
                <g transform="matrix(0.329586,0,0,0.192432,-7723.18,-181.307)">
                    <path d="M31356.7,1321.43C31352.1,1317.07 31337.8,1312.93 31323.5,1312.89C31308.9,1312.85 31294.3,1316.99 31289.6,1321.43C31271.5,1338.4 31261.2,1341.58 31254.8,1334.92C31245.2,1324.82 31250.9,1267.05 31275.5,1245.29C31282.7,1238.89 31293.2,1241.04 31301.9,1248.51C31307,1252.98 31318.3,1252.73 31323,1252.7C31327.7,1252.66 31339.3,1252.98 31344.4,1248.51C31353.1,1241.04 31363.6,1238.89 31370.8,1245.29C31395.4,1267.05 31401.1,1324.82 31391.5,1334.92C31385.2,1341.58 31374.8,1338.4 31356.7,1321.43Z" style="fill:url(#_Linear1);"/>
                </g>
                <g transform="matrix(0.329586,0,0,0.192432,-7723.18,-181.307)">
                    <path d="M31355,1323.25C31364.4,1332.05 31371.8,1337.22 31377.6,1339.38C31384.4,1341.9 31389.5,1340.67 31393.3,1336.64C31394.7,1335.2 31395.8,1332.97 31396.7,1330.07C31397.8,1326.23 31398.4,1321.11 31398.4,1315.23C31398.4,1292.8 31390.1,1259.07 31372.4,1243.42C31364.3,1236.23 31352.5,1238.23 31342.8,1246.62C31341,1248.14 31338.4,1248.94 31335.6,1249.44C31330.8,1250.29 31325.7,1250.18 31323,1250.2C31320.3,1250.22 31315.3,1250.33 31310.7,1249.47C31307.9,1248.96 31305.3,1248.14 31303.5,1246.62C31293.8,1238.23 31282,1236.23 31273.9,1243.42C31256.2,1259.07 31247.9,1292.8 31247.9,1315.23C31247.9,1321.11 31248.5,1326.23 31249.6,1330.07C31250.5,1332.97 31251.7,1335.2 31253,1336.64C31256.8,1340.67 31261.9,1341.9 31268.7,1339.38C31274.5,1337.22 31281.9,1332.05 31291.3,1323.25C31293,1321.65 31296.1,1320.16 31300.1,1318.87C31306.5,1316.79 31315,1315.36 31323.5,1315.39C31331.8,1315.41 31340.1,1316.86 31346.4,1318.93C31350.3,1320.21 31353.4,1321.68 31355,1323.25ZM31358.5,1319.61C31356.4,1317.69 31352.7,1315.75 31348,1314.18C31341.3,1311.97 31332.4,1310.41 31323.5,1310.39C31314.5,1310.36 31305.4,1311.9 31298.6,1314.11C31293.7,1315.69 31289.9,1317.66 31287.8,1319.61C31279.2,1327.78 31272.4,1332.68 31266.9,1334.69C31262.5,1336.34 31259.2,1335.84 31256.6,1333.2C31255.7,1332.22 31255,1330.65 31254.5,1328.68C31253.4,1325.19 31252.9,1320.55 31252.9,1315.21C31252.9,1293.99 31260.4,1261.97 31277.2,1247.16C31283.5,1241.55 31292.7,1243.85 31300.2,1250.4C31302.6,1252.45 31306.1,1253.7 31309.7,1254.38C31314.7,1255.31 31320.1,1255.22 31323,1255.2C31325.9,1255.18 31331.4,1255.27 31336.4,1254.37C31340.2,1253.69 31343.7,1252.45 31346.1,1250.4C31353.7,1243.85 31362.8,1241.55 31369.1,1247.16C31385.9,1261.97 31393.4,1293.99 31393.4,1315.21C31393.4,1320.55 31392.9,1325.19 31391.9,1328.68C31391.3,1330.65 31390.6,1332.22 31389.7,1333.2C31387.2,1335.84 31383.8,1336.34 31379.4,1334.69C31373.9,1332.68 31367.1,1327.78 31358.5,1319.61Z" style="fill:url(#_Linear2);"/>
                </g>
                <g transform="matrix(0.329586,0,0,0.166146,-7723.18,-147.532)">
                    <path d="M31289.3,1268.52L31289.3,1295.95C31289.3,1297.54 31290.4,1298.84 31291.8,1298.84C31293.2,1298.84 31294.3,1297.54 31294.3,1295.95L31294.3,1268.52C31294.3,1266.92 31293.2,1265.63 31291.8,1265.63C31290.4,1265.63 31289.3,1266.92 31289.3,1268.52Z" style="fill:url(#_Linear3);"/>
                </g>
                <g transform="matrix(2.01813e-17,-0.192432,0.284565,1.01735e-17,2225.27,6087.06)">
                    <path d="M31289.3,1268.52L31289.3,1295.95C31289.3,1297.54 31290.4,1298.84 31291.8,1298.84C31293.2,1298.84 31294.3,1297.54 31294.3,1295.95L31294.3,1268.52C31294.3,1266.92 31293.2,1265.63 31291.8,1265.63C31290.4,1265.63 31289.3,1266.92 31289.3,1268.52Z" style="fill:url(#_Linear4);"/>
                </g>
                <g transform="matrix(0.447058,0,0,0.261019,-11405.3,-269.381)">
                    <circle cx="31345.1" cy="1282.6" r="3.091" style="fill:rgb(190,33,40);"/>
                </g>
                <g transform="matrix(2.73744e-17,-0.261019,0.447058,1.59828e-17,2037.93,8249.17)">
                    <circle cx="31345.1" cy="1282.6" r="3.091" style="fill:rgb(96,0,4);"/>
                </g>
                <g transform="matrix(0.447058,0,0,0.261019,-11398.2,-269.381)">
                    <circle cx="31345.1" cy="1282.6" r="3.091" style="fill:rgb(143,18,23);"/>
                </g>
                <g transform="matrix(2.73744e-17,-0.261019,0.447058,1.59828e-17,2037.93,8244.99)">
                    <circle cx="31345.1" cy="1282.6" r="3.091" style="fill:url(#_Linear5);"/>
                </g>
            </g>
        </g>
    </g>
    <defs>
        <linearGradient id="_Linear1" x1="0" y1="0" x2="1" y2="0" gradientUnits="userSpaceOnUse" gradientTransform="matrix(132.951,-102.108,102.108,132.951,31250.4,1343.62)"><stop offset="0" style="stop-color:rgb(141,31,36);stop-opacity:0.1"/><stop offset="1" style="stop-color:rgb(141,31,36);stop-opacity:0.2"/></linearGradient>
        <linearGradient id="_Linear2" x1="0" y1="0" x2="1" y2="0" gradientUnits="userSpaceOnUse" gradientTransform="matrix(155.001,-99.6302,99.6302,155.001,31240.9,1343.94)"><stop offset="0" style="stop-color:rgb(141,31,36);stop-opacity:1"/><stop offset="1" style="stop-color:rgb(255,16,27);stop-opacity:1"/></linearGradient>
        <linearGradient id="_Linear3" x1="0" y1="0" x2="1" y2="0" gradientUnits="userSpaceOnUse" gradientTransform="matrix(22.2945,25.1589,-21.7222,25.8217,31280.3,1269.03)"><stop offset="0" style="stop-color:rgb(141,31,36);stop-opacity:1"/><stop offset="1" style="stop-color:rgb(112,0,5);stop-opacity:1"/></linearGradient>
        <linearGradient id="_Linear4" x1="0" y1="0" x2="1" y2="0" gradientUnits="userSpaceOnUse" gradientTransform="matrix(-21.7222,25.8217,-22.2945,-25.1589,31303.2,1268.91)"><stop offset="0" style="stop-color:rgb(141,31,36);stop-opacity:1"/><stop offset="1" style="stop-color:rgb(112,0,5);stop-opacity:1"/></linearGradient>
        <linearGradient id="_Linear5" x1="0" y1="0" x2="1" y2="0" gradientUnits="userSpaceOnUse" gradientTransform="matrix(73.4507,114.272,-114.272,73.4507,31291.5,1197.69)"><stop offset="0" style="stop-color:rgb(141,31,36);stop-opacity:1"/><stop offset="1" style="stop-color:rgb(255,16,27);stop-opacity:1"/></linearGradient>
    </defs>
</svg>
