<?xml version="1.0" encoding="UTF-8" standalone="no"?>
<!DOCTYPE svg PUBLIC "-//W3C//DTD SVG 1.1//EN" "http://www.w3.org/Graphics/SVG/1.1/DTD/svg11.dtd">
<svg width="100%" height="100%" viewBox="0 0 148 129" version="1.1" xmlns="http://www.w3.org/2000/svg" xmlns:xlink="http://www.w3.org/1999/xlink" xml:space="preserve" xmlns:serif="http://www.serif.com/" style="fill-rule:evenodd;clip-rule:evenodd;stroke-linejoin:round;stroke-miterlimit:2;">
    <g transform="matrix(1,0,0,1,-30829,-1495)">
        <g transform="matrix(3.03411,0,0,5.19663,23433,942.188)">
            <g id="education2" transform="matrix(2.76467,0,0,2.76467,-4180.69,-44.9217)">
                <g transform="matrix(0.329586,0,0,0.192432,-6953.42,-181.307)">
                    <path d="M28397.8,1241.78L28389.9,1241.78" style="fill:none;"/>
                </g>
                <g transform="matrix(0.329586,0,0,0.192432,-6953.42,-181.307)">
                    <rect x="28389.9" y="1241.32" width="7.867" height="0.922" style="fill:url(#_Linear1);"/>
                </g>
                <g transform="matrix(0.329586,0,0,0.192432,-6953.42,-181.307)">
                    <path d="M28381.7,1241.78L28373.8,1241.78" style="fill:none;"/>
                </g>
                <g transform="matrix(0.329586,0,0,0.192432,-6953.42,-181.307)">
                    <rect x="28373.8" y="1241.32" width="7.917" height="0.922" style="fill:url(#_Linear2);"/>
                </g>
                <g transform="matrix(0.329586,0,0,0.192432,-6953.42,-181.307)">
                    <path d="M28365.6,1241.78C28364.7,1241.78 28364.1,1241.1 28364.1,1240.25C28364.1,1239.4 28364.7,1238.71 28365.6,1238.71" style="fill:url(#_Linear3);"/>
                </g>
                <g transform="matrix(0.329586,0,0,0.192432,-6953.42,-181.307)">
                    <path d="M28365.6,1241.32C28365,1241.32 28364.5,1240.84 28364.5,1240.25C28364.5,1239.65 28365,1239.17 28365.6,1239.17L28365.6,1238.25C28364.5,1238.25 28363.6,1239.14 28363.6,1240.25C28363.6,1241.35 28364.5,1242.25 28365.6,1242.25L28365.6,1241.32Z" style="fill:url(#_Linear4);"/>
                </g>
                <g transform="matrix(0.329586,0,0,0.192432,-6953.42,-181.307)">
                    <path d="M28373.8,1238.71L28381.7,1238.71" style="fill:none;"/>
                </g>
                <g transform="matrix(0.329586,0,0,0.192432,-6953.42,-181.307)">
                    <rect x="28373.8" y="1238.25" width="7.901" height="0.922" style="fill:url(#_Linear5);"/>
                </g>
                <g transform="matrix(0.329586,0,0,0.192432,-6953.42,-181.307)">
                    <path d="M28389.9,1238.71L28397.8,1238.71" style="fill:none;"/>
                </g>
                <g transform="matrix(0.329586,0,0,0.192432,-6953.42,-181.307)">
                    <rect x="28389.9" y="1238.25" width="7.867" height="0.922" style="fill:url(#_Linear6);"/>
                </g>
                <g transform="matrix(0.329586,0,0,0.192432,-6953.42,-181.307)">
                    <path d="M28406,1238.71L28409,1238.71L28409,1232.73L28412.1,1232.73L28412.1,1269.43L28413.5,1269.43L28413.5,1272.5L28363.1,1272.5C28362.2,1272.5 28361.5,1271.82 28361.5,1270.97C28361.5,1270.12 28362.2,1269.43 28363.1,1269.43L28409,1269.43L28409,1241.78L28406,1241.78" style="fill:url(#_Linear7);"/>
                </g>
                <g transform="matrix(0.329586,0,0,0.192432,-6953.42,-181.307)">
                    <path d="M28408.5,1238.25L28408.5,1232.73C28408.5,1232.47 28408.7,1232.26 28409,1232.26L28412.1,1232.26C28412.3,1232.26 28412.5,1232.47 28412.5,1232.73L28412.5,1268.97L28413.5,1268.97C28413.7,1268.97 28414,1269.18 28414,1269.43L28414,1272.5C28414,1272.76 28413.7,1272.96 28413.5,1272.96C28413.5,1272.96 28363.1,1272.96 28363.1,1272.96C28361.9,1272.96 28361.1,1272.07 28361.1,1270.97C28361.1,1269.87 28361.9,1268.97 28363.1,1268.97L28408.5,1268.97L28408.5,1242.25L28406,1242.25L28406,1241.32L28409,1241.32C28409.2,1241.32 28409.4,1241.53 28409.4,1241.78L28409.4,1269.43C28409.4,1269.68 28409.2,1269.89 28409,1269.89C28409,1269.89 28363.1,1269.89 28363.1,1269.89C28362.5,1269.89 28362,1270.37 28362,1270.97C28362,1271.56 28362.5,1272.04 28363.1,1272.04L28413,1272.04L28413,1269.89L28412.1,1269.89C28411.8,1269.89 28411.6,1269.68 28411.6,1269.43L28411.6,1233.19L28409.4,1233.19L28409.4,1238.71C28409.4,1238.96 28409.2,1239.17 28409,1239.17L28406,1239.17L28406,1238.25L28408.5,1238.25Z" style="fill:url(#_Linear8);"/>
                </g>
                <g transform="matrix(0.310122,0,0,0.188804,-6401.74,-176.715)">
                    <path d="M28375.8,1226.55L28377.4,1226.55L28365.4,1226.55L28367,1226.55L28367,1261.86C28367,1263.49 28367.8,1265.51 28371.3,1265.51C28374.8,1265.51 28375.8,1264.06 28375.8,1261.86L28375.8,1226.55Z" style="fill:url(#_Linear9);"/>
                </g>
                <g transform="matrix(0.310122,0,0,0.188804,-6396.43,-176.715)">
                    <path d="M28375.8,1226.55L28377.4,1226.55L28365.4,1226.55L28367,1226.55L28367,1261.86C28367,1263.49 28367.8,1265.51 28371.3,1265.51C28374.8,1265.51 28375.8,1264.06 28375.8,1261.86L28375.8,1226.55Z" style="fill:url(#_Linear10);"/>
                </g>
                <g transform="matrix(0.310122,0,0,0.188804,-6391.12,-176.715)">
                    <path d="M28375.8,1226.55L28377.4,1226.55L28365.4,1226.55L28367,1226.55L28367,1261.86C28367,1263.49 28367.8,1265.51 28371.3,1265.51C28374.8,1265.51 28375.8,1264.06 28375.8,1261.86L28375.8,1226.55Z" style="fill:url(#_Linear11);"/>
                </g>
                <g transform="matrix(0.101311,0,0,0.0591518,-516.377,-26.6054)">
                    <path d="M28741.6,1445.78C28750,1441.78 28756.1,1452.27 28768.3,1451.55L28768.4,1457.57L28741.6,1457.57L28741.6,1445.78Z" style="fill:url(#_Linear12);"/>
                </g>
                <g transform="matrix(0.101311,0,0,0.0591518,-511.042,-28.0195)">
                    <path d="M28741.6,1445.78C28750,1441.78 28756.1,1452.27 28768.3,1451.55L28768.4,1457.57L28741.6,1457.57L28741.6,1445.78Z" style="fill:url(#_Linear13);"/>
                </g>
                <g transform="matrix(0.101311,0,0,0.0591518,-505.748,-27.5817)">
                    <path d="M28741.6,1445.78C28750,1441.78 28756.1,1452.27 28768.3,1451.55L28768.4,1457.57L28741.6,1457.57L28741.6,1445.78Z" style="fill:url(#_Linear14);"/>
                </g>
                <g transform="matrix(0.101311,0,0,0.0591518,-516.377,-26.6054)">
                    <path d="M28741.6,1451.95C28753.1,1451.95 28754.1,1443.82 28768.4,1443.82L28767.8,1495.34C28765.3,1500.2 28760.6,1502.58 28754.8,1502.07C28746.1,1501.53 28742.6,1499.18 28741.7,1492.27L28741.6,1451.95Z" style="fill:url(#_Linear15);"/>
                </g>
                <g transform="matrix(0.101311,0,0,0.0591518,-511.042,-28.0195)">
                    <path d="M28741.6,1451.95C28753.1,1451.95 28754.1,1443.82 28768.4,1443.82L28767.8,1518.12C28765.3,1522.98 28760.6,1526.56 28754.8,1526.04C28746.1,1525.51 28742.6,1523.2 28741.7,1516.29L28741.6,1451.95Z" style="fill:url(#_Linear16);"/>
                </g>
                <g transform="matrix(0.101311,0,0,0.0591518,-505.748,-27.5817)">
                    <path d="M28741.6,1451.95C28753.1,1451.95 28754.1,1443.82 28768.4,1443.82L28767.8,1509.88C28765.3,1514.75 28760.6,1518.55 28754.8,1518.03C28746.1,1517.5 28742.7,1513.78 28741.7,1506.87L28741.6,1451.95Z" style="fill:url(#_Linear17);"/>
                </g>
                <g transform="matrix(0.310122,0,0,0.188804,-6401.74,-176.715)">
                    <path d="M28365.4,1227.02L28365.4,1226.08L28377.4,1226.08L28377.4,1227.02L28376.2,1227.02L28376.2,1261.86C28376.2,1263.1 28375.9,1264.12 28375.2,1264.84C28374.4,1265.55 28373.2,1265.98 28371.3,1265.98C28369.4,1265.98 28368.2,1265.39 28367.5,1264.6C28366.8,1263.8 28366.5,1262.78 28366.5,1261.86L28366.5,1227.02L28365.4,1227.02ZM28375.3,1227.02L28367.5,1227.02L28367.5,1261.86C28367.5,1262.57 28367.7,1263.37 28368.2,1263.99C28368.8,1264.62 28369.7,1265.04 28371.3,1265.04C28372.9,1265.04 28373.9,1264.75 28374.5,1264.17C28375.1,1263.62 28375.3,1262.81 28375.3,1261.86L28375.3,1227.02Z" style="fill:url(#_Linear18);"/>
                </g>
                <g transform="matrix(0.310122,0,0,0.188804,-6396.43,-176.715)">
                    <path d="M28365.4,1227.02L28365.4,1226.08L28377.4,1226.08L28377.4,1227.02L28376.2,1227.02L28376.2,1261.86C28376.2,1263.1 28375.9,1264.12 28375.2,1264.84C28374.4,1265.55 28373.2,1265.98 28371.3,1265.98C28369.4,1265.98 28368.2,1265.39 28367.5,1264.6C28366.8,1263.8 28366.5,1262.78 28366.5,1261.86L28366.5,1227.02L28365.4,1227.02ZM28375.3,1227.02L28367.5,1227.02L28367.5,1261.86C28367.5,1262.57 28367.7,1263.37 28368.2,1263.99C28368.8,1264.62 28369.7,1265.04 28371.3,1265.04C28372.9,1265.04 28373.9,1264.75 28374.5,1264.17C28375.1,1263.62 28375.3,1262.81 28375.3,1261.86L28375.3,1227.02Z" style="fill:url(#_Linear19);"/>
                </g>
                <g transform="matrix(0.310122,0,0,0.188804,-6391.12,-176.715)">
                    <path d="M28365.4,1227.02L28365.4,1226.08L28377.4,1226.08L28377.4,1227.02L28376.2,1227.02L28376.2,1261.86C28376.2,1263.1 28375.9,1264.12 28375.2,1264.84C28374.4,1265.55 28373.2,1265.98 28371.3,1265.98C28369.4,1265.98 28368.2,1265.39 28367.5,1264.6C28366.8,1263.8 28366.5,1262.78 28366.5,1261.86L28366.5,1227.02L28365.4,1227.02ZM28375.3,1227.02L28367.5,1227.02L28367.5,1261.86C28367.5,1262.57 28367.7,1263.37 28368.2,1263.99C28368.8,1264.62 28369.7,1265.04 28371.3,1265.04C28372.9,1265.04 28373.9,1264.75 28374.5,1264.17C28375.1,1263.62 28375.3,1262.81 28375.3,1261.86L28375.3,1227.02Z" style="fill:url(#_Linear20);"/>
                </g>
            </g>
        </g>
    </g>
    <defs>
        <linearGradient id="_Linear1" x1="0" y1="0" x2="1" y2="0" gradientUnits="userSpaceOnUse" gradientTransform="matrix(52.8969,-45.2062,45.2062,52.8969,28361.1,1272.97)"><stop offset="0" style="stop-color:rgb(255,0,12);stop-opacity:1"/><stop offset="1" style="stop-color:rgb(141,31,36);stop-opacity:1"/></linearGradient>
        <linearGradient id="_Linear2" x1="0" y1="0" x2="1" y2="0" gradientUnits="userSpaceOnUse" gradientTransform="matrix(52.8969,-45.2062,45.2062,52.8969,28361.1,1272.97)"><stop offset="0" style="stop-color:rgb(255,0,12);stop-opacity:1"/><stop offset="1" style="stop-color:rgb(141,31,36);stop-opacity:1"/></linearGradient>
        <linearGradient id="_Linear3" x1="0" y1="0" x2="1" y2="0" gradientUnits="userSpaceOnUse" gradientTransform="matrix(56.9896,-45.6858,45.6858,56.9896,28356.5,1272.5)"><stop offset="0" style="stop-color:rgb(141,31,36);stop-opacity:0.1"/><stop offset="1" style="stop-color:rgb(141,31,36);stop-opacity:0.1"/></linearGradient>
        <linearGradient id="_Linear4" x1="0" y1="0" x2="1" y2="0" gradientUnits="userSpaceOnUse" gradientTransform="matrix(52.8969,-45.2062,45.2062,52.8969,28361.1,1272.97)"><stop offset="0" style="stop-color:rgb(255,0,12);stop-opacity:1"/><stop offset="1" style="stop-color:rgb(141,31,36);stop-opacity:1"/></linearGradient>
        <linearGradient id="_Linear5" x1="0" y1="0" x2="1" y2="0" gradientUnits="userSpaceOnUse" gradientTransform="matrix(52.8969,-45.2062,45.2062,52.8969,28361.1,1272.97)"><stop offset="0" style="stop-color:rgb(255,0,12);stop-opacity:1"/><stop offset="1" style="stop-color:rgb(141,31,36);stop-opacity:1"/></linearGradient>
        <linearGradient id="_Linear6" x1="0" y1="0" x2="1" y2="0" gradientUnits="userSpaceOnUse" gradientTransform="matrix(52.8969,-45.2062,45.2062,52.8969,28361.1,1272.97)"><stop offset="0" style="stop-color:rgb(255,0,12);stop-opacity:1"/><stop offset="1" style="stop-color:rgb(141,31,36);stop-opacity:1"/></linearGradient>
        <linearGradient id="_Linear7" x1="0" y1="0" x2="1" y2="0" gradientUnits="userSpaceOnUse" gradientTransform="matrix(56.9896,-45.6858,45.6858,56.9896,28356.5,1272.5)"><stop offset="0" style="stop-color:rgb(141,31,36);stop-opacity:0.1"/><stop offset="1" style="stop-color:rgb(141,31,36);stop-opacity:0.1"/></linearGradient>
        <linearGradient id="_Linear8" x1="0" y1="0" x2="1" y2="0" gradientUnits="userSpaceOnUse" gradientTransform="matrix(52.8969,-45.2062,45.2062,52.8969,28361.1,1272.97)"><stop offset="0" style="stop-color:rgb(255,0,12);stop-opacity:1"/><stop offset="1" style="stop-color:rgb(141,31,36);stop-opacity:1"/></linearGradient>
        <linearGradient id="_Linear9" x1="0" y1="0" x2="1" y2="0" gradientUnits="userSpaceOnUse" gradientTransform="matrix(60.5664,-46.5638,48.5532,58.0848,28357.3,1272.64)"><stop offset="0" style="stop-color:rgb(141,31,36);stop-opacity:0.1"/><stop offset="1" style="stop-color:rgb(141,31,36);stop-opacity:0.1"/></linearGradient>
        <linearGradient id="_Linear10" x1="0" y1="0" x2="1" y2="0" gradientUnits="userSpaceOnUse" gradientTransform="matrix(60.5664,-46.5638,48.5532,58.0848,28340.2,1272.64)"><stop offset="0" style="stop-color:rgb(141,31,36);stop-opacity:0.1"/><stop offset="1" style="stop-color:rgb(141,31,36);stop-opacity:0.1"/></linearGradient>
        <linearGradient id="_Linear11" x1="0" y1="0" x2="1" y2="0" gradientUnits="userSpaceOnUse" gradientTransform="matrix(60.5664,-46.5638,48.5532,58.0848,28323.1,1272.64)"><stop offset="0" style="stop-color:rgb(141,31,36);stop-opacity:0.1"/><stop offset="1" style="stop-color:rgb(141,31,36);stop-opacity:0.1"/></linearGradient>
        <linearGradient id="_Linear12" x1="0" y1="0" x2="1" y2="0" gradientUnits="userSpaceOnUse" gradientTransform="matrix(137.586,36.9169,-36.9169,137.586,28737.2,1406.9)"><stop offset="0" style="stop-color:rgb(255,141,146);stop-opacity:1"/><stop offset="1" style="stop-color:rgb(255,133,138);stop-opacity:1"/></linearGradient>
        <linearGradient id="_Linear13" x1="0" y1="0" x2="1" y2="0" gradientUnits="userSpaceOnUse" gradientTransform="matrix(137.586,36.9169,-36.9169,137.586,28684.5,1430.8)"><stop offset="0" style="stop-color:rgb(255,141,146);stop-opacity:1"/><stop offset="1" style="stop-color:rgb(255,133,138);stop-opacity:1"/></linearGradient>
        <linearGradient id="_Linear14" x1="0" y1="0" x2="1" y2="0" gradientUnits="userSpaceOnUse" gradientTransform="matrix(137.586,36.9169,-36.9169,137.586,28632.2,1443.81)"><stop offset="0" style="stop-color:rgb(255,141,146);stop-opacity:1"/><stop offset="1" style="stop-color:rgb(255,133,138);stop-opacity:1"/></linearGradient>
        <linearGradient id="_Linear15" x1="0" y1="0" x2="1" y2="0" gradientUnits="userSpaceOnUse" gradientTransform="matrix(128.617,-92.1594,92.1594,128.617,28743.1,1500.11)"><stop offset="0" style="stop-color:rgb(255,205,208);stop-opacity:1"/><stop offset="1" style="stop-color:rgb(255,176,179);stop-opacity:1"/></linearGradient>
        <linearGradient id="_Linear16" x1="0" y1="0" x2="1" y2="0" gradientUnits="userSpaceOnUse" gradientTransform="matrix(128.617,-92.1594,92.1594,128.617,28690.5,1524.01)"><stop offset="0" style="stop-color:rgb(255,205,208);stop-opacity:1"/><stop offset="1" style="stop-color:rgb(255,176,179);stop-opacity:1"/></linearGradient>
        <linearGradient id="_Linear17" x1="0" y1="0" x2="1" y2="0" gradientUnits="userSpaceOnUse" gradientTransform="matrix(128.617,-92.1594,92.1594,128.617,28638.2,1537.03)"><stop offset="0" style="stop-color:rgb(255,205,208);stop-opacity:1"/><stop offset="1" style="stop-color:rgb(255,176,179);stop-opacity:1"/></linearGradient>
        <linearGradient id="_Linear18" x1="0" y1="0" x2="1" y2="0" gradientUnits="userSpaceOnUse" gradientTransform="matrix(56.2169,-46.075,48.0435,53.9135,28362.2,1273.11)"><stop offset="0" style="stop-color:rgb(255,0,12);stop-opacity:1"/><stop offset="1" style="stop-color:rgb(141,31,36);stop-opacity:1"/></linearGradient>
        <linearGradient id="_Linear19" x1="0" y1="0" x2="1" y2="0" gradientUnits="userSpaceOnUse" gradientTransform="matrix(56.2169,-46.075,48.0435,53.9135,28345.1,1273.11)"><stop offset="0" style="stop-color:rgb(255,0,12);stop-opacity:1"/><stop offset="1" style="stop-color:rgb(141,31,36);stop-opacity:1"/></linearGradient>
        <linearGradient id="_Linear20" x1="0" y1="0" x2="1" y2="0" gradientUnits="userSpaceOnUse" gradientTransform="matrix(56.2169,-46.075,48.0435,53.9135,28327.9,1273.11)"><stop offset="0" style="stop-color:rgb(255,0,12);stop-opacity:1"/><stop offset="1" style="stop-color:rgb(141,31,36);stop-opacity:1"/></linearGradient>
    </defs>
</svg>
