<?xml version="1.0" encoding="UTF-8" standalone="no"?>
<!DOCTYPE svg PUBLIC "-//W3C//DTD SVG 1.1//EN" "http://www.w3.org/Graphics/SVG/1.1/DTD/svg11.dtd">
<svg width="100%" height="100%" viewBox="0 0 127 129" version="1.1" xmlns="http://www.w3.org/2000/svg" xmlns:xlink="http://www.w3.org/1999/xlink" xml:space="preserve" xmlns:serif="http://www.serif.com/" style="fill-rule:evenodd;clip-rule:evenodd;stroke-linejoin:round;stroke-miterlimit:2;">
    <g transform="matrix(1,0,0,1,-31464,-1495)">
        <g transform="matrix(3.03411,0,0,5.19663,23433,942.188)">
            <g id="education5" transform="matrix(1.19163,0,0,1.19163,-511.294,39.1196)">
                <g transform="matrix(0.329586,0,0,0.192432,-7726.55,-226.262)">
                    <path d="M31572.6,1472.17L31488.6,1472.17L31488.7,1569.72C31491.4,1579.2 31501.2,1572.79 31574.5,1574.23C31570.7,1560.13 31571.6,1511.8 31572.6,1472.17Z" style="fill:url(#_Linear1);"/>
                </g>
                <g transform="matrix(0.329586,0,0,0.192432,-7726.55,-226.262)">
                    <path d="M31588.5,1481.98L31572.6,1481.98L31572.6,1575.03L31588.5,1572.28L31588.5,1481.98Z" style="fill:url(#_Linear2);"/>
                </g>
                <g transform="matrix(0.329586,0,0,0.192432,-7723.18,-181.307)">
                    <path d="M31564.9,1245.87L31578.3,1245.87C31579.7,1245.87 31580.8,1246.98 31580.8,1248.37L31580.8,1333.5C31580.8,1339.07 31576.8,1343.12 31571.2,1343.12C31571.2,1343.12 31486.1,1343.12 31486.1,1343.12C31479.9,1343.12 31475,1338.22 31475,1331.98L31475,1238.58C31475,1237.2 31476.1,1236.08 31477.5,1236.08L31562.4,1236.05C31563.1,1236.05 31563.7,1236.32 31564.2,1236.79C31564.6,1237.25 31564.9,1237.89 31564.9,1238.55L31564.9,1245.87ZM31559.9,1241.05L31480,1241.08L31480,1331.98C31480,1335.42 31482.7,1338.12 31486.1,1338.12L31571.2,1338.12C31573.9,1338.12 31575.8,1336.17 31575.8,1333.5L31575.8,1250.87L31562.4,1250.87C31561,1250.87 31559.9,1249.75 31559.9,1248.37L31559.9,1241.05Z" style="fill:url(#_Linear3);"/>
                </g>
                <g transform="matrix(0.329586,0,0,0.192432,-7723.18,-181.307)">
                    <path d="M31559.9,1248.37L31559.9,1333.27C31559.9,1335.83 31560.7,1337.91 31562,1339.51C31563.9,1341.76 31567,1343.12 31571.2,1343.12C31572.6,1343.12 31573.7,1342 31573.7,1340.62C31573.7,1339.24 31572.6,1338.12 31571.2,1338.12C31568.8,1338.12 31566.9,1337.6 31565.8,1336.31C31565.2,1335.54 31564.9,1334.51 31564.9,1333.27C31564.9,1333.27 31564.9,1248.37 31564.9,1248.37C31564.9,1246.99 31563.8,1245.87 31562.4,1245.87C31561,1245.87 31559.9,1246.99 31559.9,1248.37Z" style="fill:url(#_Linear4);"/>
                </g>
                <g transform="matrix(0.309185,0,0,0.192432,-7080.17,-181.307)">
                    <path d="M31489.3,1258.12L31549.7,1258.12C31551.2,1258.12 31552.4,1257 31552.4,1255.62C31552.4,1254.24 31551.2,1253.12 31549.7,1253.12L31489.3,1253.12C31487.8,1253.12 31486.6,1254.24 31486.6,1255.62C31486.6,1257 31487.8,1258.12 31489.3,1258.12Z" style="fill:url(#_Linear5);"/>
                </g>
                <g transform="matrix(0.309185,0,0,0.192432,-7080.17,-173.548)">
                    <path d="M31489.3,1258.12L31549.7,1258.12C31551.2,1258.12 31552.4,1257 31552.4,1255.62C31552.4,1254.24 31551.2,1253.12 31549.7,1253.12L31489.3,1253.12C31487.8,1253.12 31486.6,1254.24 31486.6,1255.62C31486.6,1257 31487.8,1258.12 31489.3,1258.12Z" style="fill:url(#_Linear6);"/>
                </g>
                <g transform="matrix(0.302639,0,0,0.192432,-6873.36,-181.307)">
                    <path d="M31523.4,1271.49L31549.7,1271.49C31551.2,1271.49 31552.4,1270.37 31552.4,1268.99C31552.4,1267.61 31551.2,1266.49 31549.7,1266.49L31523.4,1266.49C31521.9,1266.49 31520.7,1267.61 31520.7,1268.99C31520.7,1270.37 31521.9,1271.49 31523.4,1271.49Z" style="fill:url(#_Linear7);"/>
                </g>
                <g transform="matrix(0.302639,0,0,0.192432,-6884.34,-173.738)">
                    <path d="M31523.4,1271.49L31549.7,1271.49C31551.2,1271.49 31552.4,1270.37 31552.4,1268.99C31552.4,1267.61 31551.2,1266.49 31549.7,1266.49L31523.4,1266.49C31521.9,1266.49 31520.7,1267.61 31520.7,1268.99C31520.7,1270.37 31521.9,1271.49 31523.4,1271.49Z" style="fill:url(#_Linear8);"/>
                </g>
                <g transform="matrix(0.302639,0,0,0.192432,-6873.36,-178.736)">
                    <path d="M31523.4,1271.49L31549.7,1271.49C31551.2,1271.49 31552.4,1270.37 31552.4,1268.99C31552.4,1267.61 31551.2,1266.49 31549.7,1266.49L31523.4,1266.49C31521.9,1266.49 31520.7,1267.61 31520.7,1268.99C31520.7,1270.37 31521.9,1271.49 31523.4,1271.49Z" style="fill:url(#_Linear9);"/>
                </g>
                <g transform="matrix(0.302639,0,0,0.192432,-6884.34,-171.167)">
                    <path d="M31523.4,1271.49L31549.7,1271.49C31551.2,1271.49 31552.4,1270.37 31552.4,1268.99C31552.4,1267.61 31551.2,1266.49 31549.7,1266.49L31523.4,1266.49C31521.9,1266.49 31520.7,1267.61 31520.7,1268.99C31520.7,1270.37 31521.9,1271.49 31523.4,1271.49Z" style="fill:url(#_Linear10);"/>
                </g>
                <g transform="matrix(0.323391,0,0,0.181912,-7527.97,-167.813)">
                    <rect x="31490.7" y="1267.14" width="23.234" height="15.638" style="fill:url(#_Linear11);"/>
                </g>
                <g transform="matrix(0.323391,0,0,0.181912,-7527.97,-167.813)">
                    <path d="M31516.5,1267.14C31516.5,1265.68 31515.4,1264.5 31514,1264.5L31490.7,1264.5C31489.3,1264.5 31488.2,1265.68 31488.2,1267.14L31488.2,1282.78C31488.2,1284.24 31489.3,1285.42 31490.7,1285.42L31514,1285.42C31515.4,1285.42 31516.5,1284.24 31516.5,1282.78L31516.5,1267.14ZM31493.3,1269.79L31493.3,1280.14L31511.4,1280.14L31511.4,1269.79L31493.3,1269.79Z" style="fill:url(#_Linear12);"/>
                </g>
                <g transform="matrix(0.323391,0,0,0.181912,-7516.81,-160.327)">
                    <rect x="31490.7" y="1267.14" width="23.234" height="15.638" style="fill:url(#_Linear13);"/>
                </g>
                <g transform="matrix(0.323391,0,0,0.181912,-7516.81,-160.327)">
                    <path d="M31516.5,1267.14C31516.5,1265.68 31515.4,1264.5 31514,1264.5L31490.7,1264.5C31489.3,1264.5 31488.2,1265.68 31488.2,1267.14L31488.2,1282.78C31488.2,1284.24 31489.3,1285.42 31490.7,1285.42L31514,1285.42C31515.4,1285.42 31516.5,1284.24 31516.5,1282.78L31516.5,1267.14ZM31493.3,1269.79L31493.3,1280.14L31511.4,1280.14L31511.4,1269.79L31493.3,1269.79Z" style="fill:url(#_Linear14);"/>
                </g>
            </g>
        </g>
    </g>
    <defs>
        <linearGradient id="_Linear1" x1="0" y1="0" x2="1" y2="0" gradientUnits="userSpaceOnUse" gradientTransform="matrix(84.0066,-102.064,102.064,84.0066,31488.6,1574.23)"><stop offset="0" style="stop-color:rgb(141,31,36);stop-opacity:0.1"/><stop offset="1" style="stop-color:rgb(141,31,36);stop-opacity:0.1"/></linearGradient>
        <linearGradient id="_Linear2" x1="0" y1="0" x2="1" y2="0" gradientUnits="userSpaceOnUse" gradientTransform="matrix(-11.8295,93.0477,-93.0477,-11.8295,31588.5,1481.98)"><stop offset="0" style="stop-color:rgb(141,31,36);stop-opacity:0.7"/><stop offset="1" style="stop-color:rgb(141,31,36);stop-opacity:0.5"/></linearGradient>
        <linearGradient id="_Linear3" x1="0" y1="0" x2="1" y2="0" gradientUnits="userSpaceOnUse" gradientTransform="matrix(102.36,-108.927,108.927,102.36,31473.4,1344.98)"><stop offset="0" style="stop-color:rgb(141,31,36);stop-opacity:1"/><stop offset="1" style="stop-color:rgb(255,16,26);stop-opacity:1"/></linearGradient>
        <linearGradient id="_Linear4" x1="0" y1="0" x2="1" y2="0" gradientUnits="userSpaceOnUse" gradientTransform="matrix(102.36,-108.927,108.927,102.36,31473.4,1344.98)"><stop offset="0" style="stop-color:rgb(141,31,36);stop-opacity:1"/><stop offset="1" style="stop-color:rgb(255,16,26);stop-opacity:1"/></linearGradient>
        <linearGradient id="_Linear5" x1="0" y1="0" x2="1" y2="0" gradientUnits="userSpaceOnUse" gradientTransform="matrix(109.114,-108.927,116.114,102.36,31470.4,1344.98)"><stop offset="0" style="stop-color:rgb(141,31,36);stop-opacity:1"/><stop offset="1" style="stop-color:rgb(255,16,26);stop-opacity:1"/></linearGradient>
        <linearGradient id="_Linear6" x1="0" y1="0" x2="1" y2="0" gradientUnits="userSpaceOnUse" gradientTransform="matrix(109.114,-108.927,116.114,102.36,31470.4,1304.66)"><stop offset="0" style="stop-color:rgb(141,31,36);stop-opacity:1"/><stop offset="1" style="stop-color:rgb(255,16,26);stop-opacity:1"/></linearGradient>
        <linearGradient id="_Linear7" x1="0" y1="0" x2="1" y2="0" gradientUnits="userSpaceOnUse" gradientTransform="matrix(111.474,-108.927,118.626,102.36,31467.8,1344.98)"><stop offset="0" style="stop-color:rgb(141,31,36);stop-opacity:1"/><stop offset="1" style="stop-color:rgb(255,16,26);stop-opacity:1"/></linearGradient>
        <linearGradient id="_Linear8" x1="0" y1="0" x2="1" y2="0" gradientUnits="userSpaceOnUse" gradientTransform="matrix(111.474,-108.927,118.626,102.36,31504.1,1305.64)"><stop offset="0" style="stop-color:rgb(141,31,36);stop-opacity:1"/><stop offset="1" style="stop-color:rgb(255,16,26);stop-opacity:1"/></linearGradient>
        <linearGradient id="_Linear9" x1="0" y1="0" x2="1" y2="0" gradientUnits="userSpaceOnUse" gradientTransform="matrix(111.474,-108.927,118.626,102.36,31467.8,1331.62)"><stop offset="0" style="stop-color:rgb(141,31,36);stop-opacity:1"/><stop offset="1" style="stop-color:rgb(255,16,26);stop-opacity:1"/></linearGradient>
        <linearGradient id="_Linear10" x1="0" y1="0" x2="1" y2="0" gradientUnits="userSpaceOnUse" gradientTransform="matrix(111.474,-108.927,118.626,102.36,31504.1,1292.28)"><stop offset="0" style="stop-color:rgb(141,31,36);stop-opacity:1"/><stop offset="1" style="stop-color:rgb(255,16,26);stop-opacity:1"/></linearGradient>
        <linearGradient id="_Linear11" x1="0" y1="0" x2="1" y2="0" gradientUnits="userSpaceOnUse" gradientTransform="matrix(-63.6603,66.8461,-64.4022,-66.0761,31551.8,1260.89)"><stop offset="0" style="stop-color:rgb(141,31,36);stop-opacity:0.7"/><stop offset="1" style="stop-color:rgb(141,31,36);stop-opacity:0.5"/></linearGradient>
        <linearGradient id="_Linear12" x1="0" y1="0" x2="1" y2="0" gradientUnits="userSpaceOnUse" gradientTransform="matrix(104.321,-115.226,111.013,108.279,31472.7,1348.58)"><stop offset="0" style="stop-color:rgb(141,31,36);stop-opacity:1"/><stop offset="1" style="stop-color:rgb(255,16,26);stop-opacity:1"/></linearGradient>
        <linearGradient id="_Linear13" x1="0" y1="0" x2="1" y2="0" gradientUnits="userSpaceOnUse" gradientTransform="matrix(-63.6603,66.8461,-64.4022,-66.0761,31517.3,1219.74)"><stop offset="0" style="stop-color:rgb(141,31,36);stop-opacity:0.7"/><stop offset="1" style="stop-color:rgb(141,31,36);stop-opacity:0.5"/></linearGradient>
        <linearGradient id="_Linear14" x1="0" y1="0" x2="1" y2="0" gradientUnits="userSpaceOnUse" gradientTransform="matrix(104.321,-115.226,111.013,108.279,31438.1,1307.43)"><stop offset="0" style="stop-color:rgb(141,31,36);stop-opacity:1"/><stop offset="1" style="stop-color:rgb(255,16,26);stop-opacity:1"/></linearGradient>
    </defs>
</svg>
