<?xml version="1.0" encoding="UTF-8" standalone="no"?>
<!DOCTYPE svg PUBLIC "-//W3C//DTD SVG 1.1//EN" "http://www.w3.org/Graphics/SVG/1.1/DTD/svg11.dtd">
<svg width="100%" height="100%" viewBox="0 0 137 129" version="1.1" xmlns="http://www.w3.org/2000/svg" xmlns:xlink="http://www.w3.org/1999/xlink" xml:space="preserve" xmlns:serif="http://www.serif.com/" style="fill-rule:evenodd;clip-rule:evenodd;stroke-linejoin:round;stroke-miterlimit:2;">
    <g transform="matrix(1,0,0,1,-30619,-1495)">
        <g transform="matrix(3.03411,0,0,5.19663,23433,942.188)">
            <g id="education1" transform="matrix(1,0,0,1,-0.791092,52.328)">
                <g transform="matrix(0.329586,0,0,0.192432,-7723.18,-181.307)">
                    <path d="M30650.1,1227.29L30741.2,1227.29L30741.2,1290.02L30650.5,1290.02L30650.1,1227.29Z" style="fill:url(#_Linear1);"/>
                </g>
                <g transform="matrix(0.329586,0,0,0.192432,-7723.18,-181.307)">
                    <path d="M30635.5,1310.29C30632.3,1306.57 30628.5,1305.99 30624.7,1305.31L30632.2,1267.86L30660.1,1267.86L30668.6,1281.67L30676.4,1270.49L30683.1,1275.96L30671.6,1293.64L30666.8,1294.5C30663.5,1291.96 30660.3,1291.77 30657.2,1293.84L30657.2,1347.83L30636.7,1347.83L30635.5,1310.29Z" style="fill:url(#_Linear2);"/>
                </g>
                <g transform="matrix(0.329586,0,0,0.192432,-7723.18,-181.307)">
                    <path d="M30666.4,1336.03C30674.8,1329.65 30683.1,1330.88 30691.4,1336.16L30691.4,1342.65L30666.4,1343.08L30666.4,1336.03Z" style="fill:url(#_Linear3);"/>
                </g>
                <g transform="matrix(0.329586,0,0,0.192432,-7712.74,-181.307)">
                    <path d="M30666.4,1336.03C30674.8,1329.65 30683.1,1330.88 30691.4,1336.16L30691.4,1342.65L30666.4,1343.08L30666.4,1336.03Z" style="fill:url(#_Linear4);"/>
                </g>
                <g transform="matrix(0.329586,0,0,0.192432,-7702.32,-181.307)">
                    <path d="M30666.4,1336.03C30674.8,1329.65 30683.1,1330.88 30691.4,1336.16L30691.4,1342.65L30666.4,1343.08L30666.4,1336.03Z" style="fill:url(#_Linear5);"/>
                </g>
                <g transform="matrix(0.329586,0,0,0.192432,-7723.18,-181.307)">
                    <circle cx="30678.4" cy="1320.34" r="5.234" style="fill:url(#_Linear6);"/>
                </g>
                <g transform="matrix(0.329586,0,0,0.192432,-7723.18,-181.307)">
                    <path d="M30678.4,1312.61C30674.1,1312.61 30670.7,1316.07 30670.7,1320.34C30670.7,1324.61 30674.1,1328.07 30678.4,1328.07C30682.7,1328.07 30686.1,1324.61 30686.1,1320.34C30686.1,1316.07 30682.7,1312.61 30678.4,1312.61ZM30678.4,1317.61C30679.9,1317.61 30681.1,1318.83 30681.1,1320.34C30681.1,1321.85 30679.9,1323.07 30678.4,1323.07C30676.9,1323.07 30675.7,1321.85 30675.7,1320.34C30675.7,1318.83 30676.9,1317.61 30678.4,1317.61Z" style="fill:url(#_Linear7);"/>
                </g>
                <g transform="matrix(0.329586,0,0,0.192432,-7712.59,-181.307)">
                    <circle cx="30678.4" cy="1320.34" r="5.234" style="fill:url(#_Linear8);"/>
                </g>
                <g transform="matrix(0.329586,0,0,0.192432,-7712.59,-181.307)">
                    <path d="M30678.4,1312.61C30674.1,1312.61 30670.7,1316.07 30670.7,1320.34C30670.7,1324.61 30674.1,1328.07 30678.4,1328.07C30682.7,1328.07 30686.1,1324.61 30686.1,1320.34C30686.1,1316.07 30682.7,1312.61 30678.4,1312.61ZM30678.4,1317.61C30679.9,1317.61 30681.1,1318.83 30681.1,1320.34C30681.1,1321.85 30679.9,1323.07 30678.4,1323.07C30676.9,1323.07 30675.7,1321.85 30675.7,1320.34C30675.7,1318.83 30676.9,1317.61 30678.4,1317.61Z" style="fill:url(#_Linear9);"/>
                </g>
                <g transform="matrix(0.329586,0,0,0.192432,-7701.99,-181.307)">
                    <circle cx="30678.4" cy="1320.34" r="5.234" style="fill:url(#_Linear10);"/>
                </g>
                <g transform="matrix(0.329586,0,0,0.192432,-7701.99,-181.307)">
                    <path d="M30678.4,1312.61C30674.1,1312.61 30670.7,1316.07 30670.7,1320.34C30670.7,1324.61 30674.1,1328.07 30678.4,1328.07C30682.7,1328.07 30686.1,1324.61 30686.1,1320.34C30686.1,1316.07 30682.7,1312.61 30678.4,1312.61ZM30678.4,1317.61C30679.9,1317.61 30681.1,1318.83 30681.1,1320.34C30681.1,1321.85 30679.9,1323.07 30678.4,1323.07C30676.9,1323.07 30675.7,1321.85 30675.7,1320.34C30675.7,1318.83 30676.9,1317.61 30678.4,1317.61Z" style="fill:url(#_Linear11);"/>
                </g>
                <g transform="matrix(0.329586,0,0,0.192432,-7723.18,-181.307)">
                    <path d="M30693.9,1336.41C30693.9,1335.79 30693.7,1335.18 30693.2,1334.72C30689.8,1331.01 30684.2,1329.04 30678.5,1329.01C30672.9,1328.97 30667.2,1330.86 30663.7,1334.49C30663.2,1334.96 30662.9,1335.59 30662.9,1336.24L30662.9,1342.72C30662.9,1344.1 30664.1,1345.22 30665.4,1345.22L30691.4,1345.22C30692.8,1345.22 30693.9,1344.1 30693.9,1342.72L30693.9,1336.41ZM30688.9,1337.46C30686.3,1335.13 30682.4,1334.03 30678.5,1334.01C30674.6,1333.98 30670.7,1335.05 30667.9,1337.33L30667.9,1340.22L30688.9,1340.22L30688.9,1337.46Z" style="fill:url(#_Linear12);"/>
                </g>
                <g transform="matrix(0.329586,0,0,0.192432,-7712.59,-181.307)">
                    <path d="M30693.9,1336.41C30693.9,1335.79 30693.7,1335.18 30693.2,1334.72C30689.8,1331.01 30684.2,1329.04 30678.5,1329.01C30672.9,1328.97 30667.2,1330.86 30663.7,1334.49C30663.2,1334.96 30662.9,1335.59 30662.9,1336.24L30662.9,1342.72C30662.9,1344.1 30664.1,1345.22 30665.4,1345.22L30691.4,1345.22C30692.8,1345.22 30693.9,1344.1 30693.9,1342.72L30693.9,1336.41ZM30688.9,1337.46C30686.3,1335.13 30682.4,1334.03 30678.5,1334.01C30674.6,1333.98 30670.7,1335.05 30667.9,1337.33L30667.9,1340.22L30688.9,1340.22L30688.9,1337.46Z" style="fill:url(#_Linear13);"/>
                </g>
                <g transform="matrix(0.329586,0,0,0.192432,-7701.99,-181.307)">
                    <path d="M30693.9,1336.41C30693.9,1335.79 30693.7,1335.18 30693.2,1334.72C30689.8,1331.01 30684.2,1329.04 30678.5,1329.01C30672.9,1328.97 30667.2,1330.86 30663.7,1334.49C30663.2,1334.96 30662.9,1335.59 30662.9,1336.24L30662.9,1342.72C30662.9,1344.1 30664.1,1345.22 30665.4,1345.22L30691.4,1345.22C30692.8,1345.22 30693.9,1344.1 30693.9,1342.72L30693.9,1336.41ZM30688.9,1337.46C30686.3,1335.13 30682.4,1334.03 30678.5,1334.01C30674.6,1333.98 30670.7,1335.05 30667.9,1337.33L30667.9,1340.22L30688.9,1340.22L30688.9,1337.46Z" style="fill:url(#_Linear14);"/>
                </g>
                <g transform="matrix(0.329586,0,0,0.192432,-7723.18,-181.307)">
                    <path d="M30627,1304.37L30630,1305.43C30631.3,1305.9 30631.9,1307.33 30631.5,1308.63C30631,1309.93 30629.6,1310.61 30628.3,1310.14L30624.7,1308.85C30624.3,1308.73 30624,1308.54 30623.8,1308.3C30623.1,1307.63 30622.6,1307.38 30622.3,1306.61C30622.1,1306 30621.8,1304.88 30622.1,1302.28C30622.1,1302.22 30622.1,1302.15 30622.1,1302.09L30628,1270.89C30628,1270.85 30628,1270.81 30628,1270.77C30628.9,1267.04 30632.9,1263.67 30639.8,1263.67C30639.8,1263.67 30639.8,1263.67 30639.8,1263.67C30639.8,1263.67 30654.6,1263.73 30654.6,1263.73C30660.7,1263.73 30664.9,1267.93 30666,1271.04C30666,1271.05 30666,1271.06 30666,1271.07L30668.4,1278.28L30672.4,1271.97C30674.6,1268.42 30678.3,1267.76 30681.3,1269.62C30683,1270.72 30684.4,1272.35 30685,1273.98C30685.6,1275.46 30685.6,1276.97 30685,1278.31C30684.9,1278.42 30684.9,1278.53 30684.8,1278.63L30675,1293.09C30673.5,1295.59 30671.5,1296.94 30669.3,1296.67L30666.2,1296.45C30664.9,1296.35 30663.8,1295.14 30663.9,1293.77C30664,1292.39 30665.2,1291.36 30666.6,1291.46L30669.7,1291.69L30669.8,1291.7C30669.9,1291.63 30670,1291.49 30670.1,1291.38C30670.3,1291.12 30670.5,1290.8 30670.7,1290.46C30670.8,1290.41 30670.8,1290.37 30670.8,1290.33L30680.5,1276.06C30680.5,1275.89 30680.4,1275.72 30680.3,1275.53C30679.9,1274.88 30679.3,1274.28 30678.6,1273.84C30677.9,1273.41 30677.1,1273.79 30676.6,1274.6L30669.8,1285.41C30669.3,1286.22 30668.3,1286.67 30667.4,1286.55C30666.4,1286.44 30665.6,1285.78 30665.3,1284.86C30665.3,1284.86 30661.2,1272.64 30661.2,1272.67C30660.6,1270.9 30658.1,1268.73 30654.6,1268.73C30654.6,1268.73 30654.6,1268.73 30654.6,1268.73C30654.6,1268.73 30639.8,1268.67 30639.8,1268.67C30637.7,1268.67 30635.9,1269.08 30634.7,1269.83C30633.8,1270.37 30633.1,1271.07 30632.9,1271.9L30627.1,1302.9C30627,1303.46 30627,1304 30627,1304.37Z" style="fill:url(#_Linear15);"/>
                </g>
                <g transform="matrix(0.329586,0,0,0.192432,-7723.18,-181.307)">
                    <path d="M30683,1274.37L30703.5,1251.86C30704.5,1250.84 30704.4,1249.26 30703.4,1248.33C30702.4,1247.4 30700.8,1247.47 30699.8,1248.49L30679.3,1271C30678.4,1272.02 30678.4,1273.6 30679.5,1274.53C30680.5,1275.46 30682.1,1275.39 30683,1274.37Z" style="fill:url(#_Linear16);"/>
                </g>
                <g transform="matrix(0.329586,0,0,0.192432,-7723.18,-181.307)">
                    <path d="M30655.1,1346.31L30655.1,1281.4C30655.1,1280.02 30656.2,1278.9 30657.6,1278.9C30659,1278.9 30660.1,1280.02 30660.1,1281.4L30660.1,1348.81C30660.1,1350.19 30659,1351.31 30657.6,1351.31L30636.4,1351.31C30635,1351.31 30633.9,1350.19 30633.9,1348.81L30633.9,1281.88C30633.9,1280.5 30635,1279.38 30636.4,1279.38C30637.7,1279.38 30638.9,1280.5 30638.9,1281.88L30638.9,1346.31L30655.1,1346.31Z" style="fill:url(#_Linear17);"/>
                </g>
                <g transform="matrix(0.329586,0,0,0.192432,-7723.18,-181.307)">
                    <path d="M30649.5,1348.81L30649.5,1307.79C30649.5,1306.41 30648.4,1305.29 30647,1305.29C30645.6,1305.29 30644.5,1306.41 30644.5,1307.79L30644.5,1348.81C30644.5,1350.19 30645.6,1351.31 30647,1351.31C30648.4,1351.31 30649.5,1350.19 30649.5,1348.81Z" style="fill:url(#_Linear18);"/>
                </g>
                <g transform="matrix(0.329586,0,0,0.192432,-7723.18,-181.341)">
                    <circle cx="30647" cy="1252.27" r="7.753" style="fill:url(#_Linear19);"/>
                </g>
                <g transform="matrix(0.329586,0,0,0.192432,-7723.18,-181.341)">
                    <path d="M30647,1242.02C30641.3,1242.02 30636.7,1246.61 30636.7,1252.27C30636.7,1257.93 30641.3,1262.52 30647,1262.52C30652.6,1262.52 30657.2,1257.93 30657.2,1252.27C30657.2,1246.61 30652.6,1242.02 30647,1242.02ZM30647,1247.02C30649.9,1247.02 30652.2,1249.37 30652.2,1252.27C30652.2,1255.17 30649.9,1257.52 30647,1257.52C30644.1,1257.52 30641.7,1255.17 30641.7,1252.27C30641.7,1249.37 30644.1,1247.02 30647,1247.02Z" style="fill:url(#_Linear20);"/>
                </g>
                <g transform="matrix(0.329586,0,0,0.192432,-7723.18,-181.307)">
                    <path d="M30737.1,1228.73L30654.7,1228.73C30653.6,1228.74 30652.7,1228.79 30652.3,1229.32C30652.1,1229.53 30652.1,1229.83 30652.1,1230.16C30652.1,1230.18 30652.1,1230.2 30652.1,1230.22L30652.1,1237.2C30652.1,1238.58 30651,1239.7 30649.6,1239.7C30648.2,1239.7 30647.1,1238.58 30647.1,1237.2C30647.1,1237.2 30647.1,1230.22 30647.1,1230.27C30647.1,1228.57 30647.6,1227.2 30648.4,1226.13C30649.6,1224.73 30651.6,1223.75 30654.7,1223.73C30654.7,1223.73 30654.7,1223.73 30654.7,1223.73L30737.2,1223.73C30737.2,1223.73 30737.2,1223.73 30737.3,1223.73C30739.5,1223.85 30741.5,1224.78 30742.8,1226.42C30743.7,1227.54 30744.2,1229 30744.2,1230.82C30744.2,1230.82 30744.2,1286.06 30744.2,1286.02C30744.2,1288.36 30743.6,1290.1 30742.6,1291.32C30741.5,1292.65 30739.9,1293.48 30737.7,1293.65C30737.7,1293.66 30737.6,1293.66 30737.5,1293.66L30683,1293.66C30681.6,1293.66 30680.5,1292.54 30680.5,1291.16C30680.5,1289.78 30681.6,1288.66 30683,1288.66L30737.4,1288.66C30738,1288.61 30738.5,1288.5 30738.8,1288.14C30739.1,1287.68 30739.2,1286.99 30739.2,1286.1C30739.2,1286.09 30739.2,1286.08 30739.2,1286.06C30739.2,1286.06 30739.2,1230.82 30739.2,1230.78C30739.2,1230.24 30739.1,1229.8 30738.9,1229.47C30738.5,1228.96 30737.8,1228.77 30737.1,1228.73Z" style="fill:url(#_Linear21);"/>
                </g>
            </g>
        </g>
    </g>
    <defs>
        <linearGradient id="_Linear1" x1="0" y1="0" x2="1" y2="0" gradientUnits="userSpaceOnUse" gradientTransform="matrix(91.0808,62.7267,-62.7267,91.0808,30650.1,1227.29)"><stop offset="0" style="stop-color:rgb(255,238,239);stop-opacity:1"/><stop offset="1" style="stop-color:rgb(255,198,201);stop-opacity:1"/></linearGradient>
        <linearGradient id="_Linear2" x1="0" y1="0" x2="1" y2="0" gradientUnits="userSpaceOnUse" gradientTransform="matrix(58.3616,-106.76,106.76,58.3616,30624.7,1349.57)"><stop offset="0" style="stop-color:rgb(255,224,225);stop-opacity:1"/><stop offset="1" style="stop-color:rgb(255,151,156);stop-opacity:1"/></linearGradient>
        <linearGradient id="_Linear3" x1="0" y1="0" x2="1" y2="0" gradientUnits="userSpaceOnUse" gradientTransform="matrix(83.028,-32.6176,32.6176,83.028,30665.4,1345.22)"><stop offset="0" style="stop-color:rgb(255,233,234);stop-opacity:1"/><stop offset="1" style="stop-color:rgb(255,166,170);stop-opacity:1"/></linearGradient>
        <linearGradient id="_Linear4" x1="0" y1="0" x2="1" y2="0" gradientUnits="userSpaceOnUse" gradientTransform="matrix(83.028,-32.6176,32.6176,83.028,30633.8,1345.22)"><stop offset="0" style="stop-color:rgb(255,233,234);stop-opacity:1"/><stop offset="1" style="stop-color:rgb(255,166,170);stop-opacity:1"/></linearGradient>
        <linearGradient id="_Linear5" x1="0" y1="0" x2="1" y2="0" gradientUnits="userSpaceOnUse" gradientTransform="matrix(83.028,-32.6176,32.6176,83.028,30602.1,1345.22)"><stop offset="0" style="stop-color:rgb(255,233,234);stop-opacity:1"/><stop offset="1" style="stop-color:rgb(255,166,170);stop-opacity:1"/></linearGradient>
        <linearGradient id="_Linear6" x1="0" y1="0" x2="1" y2="0" gradientUnits="userSpaceOnUse" gradientTransform="matrix(83.028,-32.6176,32.6176,83.028,30665.4,1345.22)"><stop offset="0" style="stop-color:rgb(255,233,234);stop-opacity:1"/><stop offset="1" style="stop-color:rgb(255,166,170);stop-opacity:1"/></linearGradient>
        <linearGradient id="_Linear7" x1="0" y1="0" x2="1" y2="0" gradientUnits="userSpaceOnUse" gradientTransform="matrix(132.693,-134.306,134.306,132.693,30618.5,1353.98)"><stop offset="0" style="stop-color:rgb(141,31,36);stop-opacity:1"/><stop offset="1" style="stop-color:rgb(255,37,47);stop-opacity:1"/></linearGradient>
        <linearGradient id="_Linear8" x1="0" y1="0" x2="1" y2="0" gradientUnits="userSpaceOnUse" gradientTransform="matrix(83.028,-32.6176,32.6176,83.028,30633.3,1345.22)"><stop offset="0" style="stop-color:rgb(255,233,234);stop-opacity:1"/><stop offset="1" style="stop-color:rgb(255,166,170);stop-opacity:1"/></linearGradient>
        <linearGradient id="_Linear9" x1="0" y1="0" x2="1" y2="0" gradientUnits="userSpaceOnUse" gradientTransform="matrix(132.693,-134.306,134.306,132.693,30586.3,1353.98)"><stop offset="0" style="stop-color:rgb(141,31,36);stop-opacity:1"/><stop offset="1" style="stop-color:rgb(255,37,47);stop-opacity:1"/></linearGradient>
        <linearGradient id="_Linear10" x1="0" y1="0" x2="1" y2="0" gradientUnits="userSpaceOnUse" gradientTransform="matrix(83.028,-32.6176,32.6176,83.028,30601.1,1345.22)"><stop offset="0" style="stop-color:rgb(255,233,234);stop-opacity:1"/><stop offset="1" style="stop-color:rgb(255,166,170);stop-opacity:1"/></linearGradient>
        <linearGradient id="_Linear11" x1="0" y1="0" x2="1" y2="0" gradientUnits="userSpaceOnUse" gradientTransform="matrix(132.693,-134.306,134.306,132.693,30554.2,1353.98)"><stop offset="0" style="stop-color:rgb(141,31,36);stop-opacity:1"/><stop offset="1" style="stop-color:rgb(255,37,47);stop-opacity:1"/></linearGradient>
        <linearGradient id="_Linear12" x1="0" y1="0" x2="1" y2="0" gradientUnits="userSpaceOnUse" gradientTransform="matrix(132.693,-134.306,134.306,132.693,30618.5,1353.98)"><stop offset="0" style="stop-color:rgb(141,31,36);stop-opacity:1"/><stop offset="1" style="stop-color:rgb(255,37,47);stop-opacity:1"/></linearGradient>
        <linearGradient id="_Linear13" x1="0" y1="0" x2="1" y2="0" gradientUnits="userSpaceOnUse" gradientTransform="matrix(132.693,-134.306,134.306,132.693,30586.3,1353.98)"><stop offset="0" style="stop-color:rgb(141,31,36);stop-opacity:1"/><stop offset="1" style="stop-color:rgb(255,37,47);stop-opacity:1"/></linearGradient>
        <linearGradient id="_Linear14" x1="0" y1="0" x2="1" y2="0" gradientUnits="userSpaceOnUse" gradientTransform="matrix(132.693,-134.306,134.306,132.693,30554.2,1353.98)"><stop offset="0" style="stop-color:rgb(141,31,36);stop-opacity:1"/><stop offset="1" style="stop-color:rgb(255,37,47);stop-opacity:1"/></linearGradient>
        <linearGradient id="_Linear15" x1="0" y1="0" x2="1" y2="0" gradientUnits="userSpaceOnUse" gradientTransform="matrix(132.693,-134.306,134.306,132.693,30618.5,1353.98)"><stop offset="0" style="stop-color:rgb(141,31,36);stop-opacity:1"/><stop offset="1" style="stop-color:rgb(255,37,47);stop-opacity:1"/></linearGradient>
        <linearGradient id="_Linear16" x1="0" y1="0" x2="1" y2="0" gradientUnits="userSpaceOnUse" gradientTransform="matrix(132.693,-134.306,134.306,132.693,30618.5,1353.98)"><stop offset="0" style="stop-color:rgb(141,31,36);stop-opacity:1"/><stop offset="1" style="stop-color:rgb(255,37,47);stop-opacity:1"/></linearGradient>
        <linearGradient id="_Linear17" x1="0" y1="0" x2="1" y2="0" gradientUnits="userSpaceOnUse" gradientTransform="matrix(132.693,-134.306,134.306,132.693,30618.5,1353.98)"><stop offset="0" style="stop-color:rgb(141,31,36);stop-opacity:1"/><stop offset="1" style="stop-color:rgb(255,37,47);stop-opacity:1"/></linearGradient>
        <linearGradient id="_Linear18" x1="0" y1="0" x2="1" y2="0" gradientUnits="userSpaceOnUse" gradientTransform="matrix(132.693,-134.306,134.306,132.693,30618.5,1353.98)"><stop offset="0" style="stop-color:rgb(141,31,36);stop-opacity:1"/><stop offset="1" style="stop-color:rgb(255,37,47);stop-opacity:1"/></linearGradient>
        <linearGradient id="_Linear19" x1="0" y1="0" x2="1" y2="0" gradientUnits="userSpaceOnUse" gradientTransform="matrix(58.3616,-106.76,106.76,58.3616,30624.7,1349.75)"><stop offset="0" style="stop-color:rgb(255,224,225);stop-opacity:1"/><stop offset="1" style="stop-color:rgb(255,151,156);stop-opacity:1"/></linearGradient>
        <linearGradient id="_Linear20" x1="0" y1="0" x2="1" y2="0" gradientUnits="userSpaceOnUse" gradientTransform="matrix(132.693,-134.306,134.306,132.693,30618.5,1354.16)"><stop offset="0" style="stop-color:rgb(141,31,36);stop-opacity:1"/><stop offset="1" style="stop-color:rgb(255,37,47);stop-opacity:1"/></linearGradient>
        <linearGradient id="_Linear21" x1="0" y1="0" x2="1" y2="0" gradientUnits="userSpaceOnUse" gradientTransform="matrix(132.693,-134.306,134.306,132.693,30618.5,1353.98)"><stop offset="0" style="stop-color:rgb(141,31,36);stop-opacity:1"/><stop offset="1" style="stop-color:rgb(255,37,47);stop-opacity:1"/></linearGradient>
    </defs>
</svg>
