<svg id="Calque_1" data-name="Calque 1" xmlns="http://www.w3.org/2000/svg" viewBox="0 0 291 230"><defs><style>.cls-1{fill:#e73327;}.cls-2{fill:#fff;}</style></defs><path class="cls-1" d="M183,85c0-28.42-25.06-51.55-55.87-51.55S71.27,56.62,71.27,85"/><path class="cls-1" d="M71.27,85A49.06,49.06,0,0,0,87,120.87v15.48a4.85,4.85,0,0,0,5,4.65H162.2a4.85,4.85,0,0,0,5-4.65V120.87A49.07,49.07,0,0,0,183,85"/><path class="cls-2" d="M158.71,115.57a4.49,4.49,0,0,0-1.55,3.36V131.7h-13.3V121.09a5.06,5.06,0,0,0-10.08,0V131.7H120.49V121.09a5.06,5.06,0,0,0-10.08,0V131.7H97.11V118.93a4.47,4.47,0,0,0-1.56-3.36C86.39,107.5,81.35,96.66,81.35,85c0-23.29,20.53-42.25,45.78-42.25s45.79,19,45.79,42.25C172.92,96.65,167.88,107.49,158.71,115.57Z"/><path class="cls-1" d="M129.44,92.53a2.84,2.84,0,0,0-4.62,0l-6.08,9a2.51,2.51,0,0,0,2.31,3.84h12.17a2.51,2.51,0,0,0,2.31-3.84Z"/><path class="cls-1" d="M109,72c-5.16,0-9.35,3.87-9.35,8.63s4.19,8.64,9.35,8.64,9.36-3.87,9.36-8.64S114.13,72,109,72Z"/><path class="cls-1" d="M145.3,72c-5.16,0-9.35,3.87-9.35,8.63s4.19,8.64,9.35,8.64,9.36-3.87,9.36-8.64S150.47,72,145.3,72Z"/></svg>