<svg id="Calque_1" data-name="Calque 1" xmlns="http://www.w3.org/2000/svg" viewBox="0 0 202 233"><defs><style>.cls-1{fill:#8d1f24;}.cls-2{fill:none;stroke-width:8px;}.cls-2,.cls-3,.cls-4{stroke:#1d1d1b;stroke-miterlimit:10;}.cls-3,.cls-4{fill:#1d1d1b;stroke-width:0.75px;}.cls-4{fill-rule:evenodd;}</style></defs><path class="cls-1" d="M161.75,156.77c1.7-8.93.37-18.13-4.39-25.5L120.78,74.63C111.26,59.88,91.61,58,76.9,70.52S58,105.06,67.5,119.81l36.58,56.65c9.53,14.74,29.18,16.58,43.89,4.1A41.59,41.59,0,0,0,161.75,156.77Z"/><path class="cls-2" d="M173.78,150.52c1.7-8.92.37-18.12-4.39-25.5L132.8,68.38c-9.52-14.75-29.17-16.59-43.88-4.11S70,98.82,79.53,113.57l36.58,56.64c9.52,14.75,29.17,16.58,43.88,4.11A41.57,41.57,0,0,0,173.78,150.52Z"/><line class="cls-2" x1="127.18" y1="159.28" x2="118.67" y2="146.12"/><path class="cls-2" d="M116.76,139.86l-24-36.56a17.48,17.48,0,0,1-2.27-12.73,20.88,20.88,0,0,1,6.82-11.95"/><path class="cls-2" d="M51.85,23.8l6-5.07c5.09-4.31,11.49-5.8,17.06-4,6,2,10.1,7.51,10.82,14.5a63.07,63.07,0,0,0,9.53,27.85l1.38,2.13"/><path class="cls-2" d="M46.87,49.94l4.7-1.24a24,24,0,0,1,14.78.76A22.76,22.76,0,0,1,78.09,60.14l5.3,9.9"/><line class="cls-2" x1="75.14" y1="88.07" x2="59.62" y2="86.61"/><line class="cls-2" x1="61.57" y1="117.84" x2="79.28" y2="113.16"/><line class="cls-2" x1="76.65" y1="143.7" x2="88.65" y2="131.36"/><line class="cls-2" x1="92.05" y1="165.04" x2="103.96" y2="151.43"/><line class="cls-2" x1="107.29" y1="188.64" x2="116.38" y2="170.6"/><line class="cls-2" x1="132.78" y1="199.9" x2="136.1" y2="182.47"/><line class="cls-2" x1="173.78" y1="150.52" x2="189.29" y2="151.97"/><line class="cls-2" x1="187.35" y1="120.75" x2="169.64" y2="125.43"/><line class="cls-2" x1="172.1" y1="97.15" x2="157.27" y2="106.22"/><line class="cls-2" x1="156.86" y1="73.55" x2="144.95" y2="87.15"/><line class="cls-2" x1="141.62" y1="49.94" x2="132.54" y2="67.99"/><line class="cls-2" x1="116.13" y1="38.69" x2="112.81" y2="56.12"/><g id="skell"><ellipse class="cls-3" cx="38.47" cy="180.68" rx="7.22" ry="5.78"/><ellipse class="cls-3" cx="64.51" cy="180.68" rx="7.22" ry="5.78"/><path class="cls-4" d="M33.79,208.26H27.68a2.36,2.36,0,0,1-1.5-.5A35,35,0,0,1,13,180.67c0-19.9,17.35-35.94,38.49-35.94S90,160.77,90,180.67A35,35,0,0,1,76.8,207.76a2.36,2.36,0,0,1-1.5.5H69.19v6.39c0,3.39-3.43,6.13-7.66,6.13H41.45c-4.23,0-7.66-2.74-7.66-6.13ZM62,217.4a3.06,3.06,0,0,0,3-2.75v-8.07a1.92,1.92,0,0,1,2.1-1.68H74.4a31.81,31.81,0,0,0,11.38-24.23c0-17.9-15.26-32.57-34.29-32.57S17.2,162.77,17.2,180.67A31.81,31.81,0,0,0,28.58,204.9h7.31a1.92,1.92,0,0,1,2.1,1.68v8.07a3.06,3.06,0,0,0,3,2.75,1.34,1.34,0,0,1,0-.35v-6a2.15,2.15,0,0,1,4.2,0v6a1.15,1.15,0,0,1-.06.37h4.36a1.5,1.5,0,0,1,0-.37v-6a2.15,2.15,0,0,1,4.2,0v6a1.5,1.5,0,0,1-.05.37H57.9a1.15,1.15,0,0,1-.06-.37v-6a2.15,2.15,0,0,1,4.2,0v6A1.34,1.34,0,0,1,62,217.4Z"/><path class="cls-4" d="M50,190.32a1.83,1.83,0,0,1,3,0l3.28,5.91a1.13,1.13,0,0,1-.13,1.26,1.77,1.77,0,0,1-1.37.59H48.22a1.78,1.78,0,0,1-1.38-.59,1.11,1.11,0,0,1-.12-1.26Z"/></g></svg>