<svg id="Calque_1" data-name="Calque 1" xmlns="http://www.w3.org/2000/svg" viewBox="0 0 371 343"><defs><style>.cls-1{fill:#8d1f24;}.cls-2{fill:#e73327;}.cls-3{fill:none;}.cls-3,.cls-4{stroke:#1d1d1b;stroke-miterlimit:10;stroke-width:10px;}.cls-4{fill:#fff;}</style></defs><path class="cls-1" d="M331.32,141.52c-1.19-10.31-5.86-19.85-13.72-26.18L257.23,66.71C241.51,54,219,59,206.87,77.79s-9.15,44.28,6.57,56.94l60.37,48.64c15.72,12.66,38.26,7.7,50.36-11.09A47.27,47.27,0,0,0,331.32,141.52Z"/><path class="cls-2" d="M109.63,287.82a44.72,44.72,0,0,0,30.74,3.9l79.39-19.64c20.66-5.11,30.87-25.22,22.79-44.92s-31.38-31.52-52.05-26.41l-79.38,19.63c-20.66,5.12-30.87,25.23-22.79,44.93A44.69,44.69,0,0,0,109.63,287.82Z"/><path class="cls-3" d="M10.15,265.05c19.5-16.14,44.54-26,71.91-28.25l.28,0"/><path class="cls-3" d="M106.49,269a44.66,44.66,0,0,0,30.74,3.9l79.38-19.64c20.67-5.11,30.88-25.22,22.8-44.92s-31.38-31.52-52-26.41L108,201.57c-20.67,5.11-30.87,25.22-22.8,44.92A44.71,44.71,0,0,0,106.49,269Z"/><line class="cls-3" x1="190.85" y1="240.01" x2="209.3" y2="235.44"/><path class="cls-3" d="M181.45,242.33l-51.53,12.75a23.08,23.08,0,0,1-26-13.21"/><path class="cls-3" d="M88.27,252.47C69.13,258,53.78,270.27,45.32,287l-.39.75"/><line class="cls-3" x1="218.11" y1="185.83" x2="226.17" y2="169.95"/><line class="cls-3" x1="189.93" y1="161.55" x2="187.93" y2="181.8"/><line class="cls-3" x1="156.86" y1="169.73" x2="161.03" y2="188.42"/><line class="cls-3" x1="123.78" y1="177.91" x2="134.3" y2="195.04"/><line class="cls-3" x1="90.71" y1="186.1" x2="107.42" y2="201.72"/><line class="cls-3" x1="67.4" y1="209.22" x2="85.8" y2="218.56"/><line class="cls-3" x1="106.49" y1="269" x2="98.43" y2="284.88"/><line class="cls-3" x1="134.66" y1="293.28" x2="136.66" y2="273.03"/><line class="cls-3" x1="167.73" y1="285.1" x2="163.57" y2="266.41"/><line class="cls-3" x1="200.81" y1="276.92" x2="190.29" y2="259.8"/><line class="cls-3" x1="233.88" y1="268.74" x2="217.17" y2="253.11"/><line class="cls-3" x1="257.19" y1="245.61" x2="238.79" y2="236.27"/><path class="cls-3" d="M339.3,127.91c-1.19-10.31-5.85-19.85-13.71-26.18L265.21,53.1C249.5,40.43,227,45.4,214.86,64.18s-9.16,44.28,6.56,56.94l60.37,48.64c15.72,12.66,38.27,7.7,50.36-11.09A47.15,47.15,0,0,0,339.3,127.91Z"/><line class="cls-3" x1="290.36" y1="153.95" x2="276.33" y2="142.65"/><path class="cls-3" d="M272,136.53l-39.39-31.27a19.52,19.52,0,0,1-6.92-13,23.72,23.72,0,0,1,3.48-15.41"/><path class="cls-3" d="M159.53,33.31l4.91-7.64c4.19-6.49,10.81-10.38,17.66-10.34,7.35,0,13.86,4.59,17.08,11.93a70.77,70.77,0,0,0,20.26,26.92L221.7,56"/><path class="cls-3" d="M163,63.51l4.81-3a28.64,28.64,0,0,1,16.74-4.41,26.35,26.35,0,0,1,16.79,7.45l9.33,8.88"/><line class="cls-3" x1="207.71" y1="94.95" x2="189.9" y2="98.87"/><line class="cls-3" x1="202.87" y1="132.14" x2="221" y2="120.77"/><line class="cls-3" x1="228.02" y1="152.4" x2="241.43" y2="137.27"/><line class="cls-3" x1="253.18" y1="172.67" x2="261.76" y2="153.65"/><line class="cls-3" x1="278.33" y1="192.93" x2="282.23" y2="170.09"/><line class="cls-3" x1="310.65" y1="196.14" x2="308.33" y2="176.01"/><line class="cls-3" x1="339.3" y1="127.91" x2="357.1" y2="123.99"/><line class="cls-3" x1="344.14" y1="90.72" x2="326.01" y2="102.09"/><line class="cls-3" x1="318.99" y1="70.45" x2="305.58" y2="85.58"/><line class="cls-3" x1="293.83" y1="50.19" x2="285.25" y2="69.21"/><line class="cls-3" x1="268.67" y1="29.92" x2="264.78" y2="52.76"/><line class="cls-3" x1="236.36" y1="26.72" x2="238.68" y2="46.85"/><ellipse class="cls-4" cx="297.85" cy="175.15" rx="33.53" ry="28.94" transform="translate(62.03 427.69) rotate(-77.42)"/><line class="cls-3" x1="308.26" y1="206.28" x2="327.9" y2="261.05"/></svg>