<svg id="Calque_1" data-name="Calque 1" xmlns="http://www.w3.org/2000/svg" viewBox="0 0 291 230"><defs><style>.cls-1{fill:#e73327;stroke-miterlimit:10;}.cls-1,.cls-2,.cls-3{stroke:#e73327;}.cls-2,.cls-3{fill:none;stroke-linecap:round;stroke-linejoin:round;}.cls-2{stroke-width:3.61px;}.cls-3{stroke-width:4px;}</style></defs><path class="cls-1" d="M151.63,92.08C141.19,81.41,121.5,99,121.5,99c-16.6,14.94-8.07,34.39-1.19,34.39s1-7.11,7.12-15.89S162.06,102.75,151.63,92.08Z"/><path class="cls-1" d="M176.75,116a29.08,29.08,0,0,0-2.81-4.57c-10.33-14-11.69-10.39-17.85-4.27s-18,5.62-5,15.18a49.19,49.19,0,0,0,13.59,7.32A9.88,9.88,0,0,0,176.75,116Z"/><path class="cls-1" d="M132,131.32c.05.11.1.22.16.33,5.64,11.28,6.2,20,19.33,19.17,10-.6-2.68-15.32-8.81-25.29C138.66,119,128.7,124.37,132,131.32Z"/><line class="cls-2" x1="180.62" y1="162.13" x2="192.69" y2="180.18"/><line class="cls-2" x1="179.13" y1="182.41" x2="170.22" y2="169.09"/><path class="cls-3" d="M95.33,84.31A58.07,58.07,0,1,0,111,68.81q-2.53,1.71-4.85,3.62m63.66,84.31A47.74,47.74,0,1,1,183,90.51,47.74,47.74,0,0,1,169.81,156.74Z"/><path class="cls-2" d="M121.5,99s19.69-17.55,30.13-6.88-18,16.6-24.2,25.38-.24,15.89-7.12,15.89S104.9,113.9,121.5,99Z"/><path class="cls-2" d="M164.73,129.63a9.88,9.88,0,0,0,12-13.66,29.08,29.08,0,0,0-2.81-4.57c-10.33-14-11.69-10.39-17.85-4.27s-18,5.62-5,15.18A49.19,49.19,0,0,0,164.73,129.63Z"/><path class="cls-2" d="M142.68,125.53c-4-6.55-14-1.16-10.68,5.79.05.11.1.22.16.33,5.64,11.28,6.2,20,19.33,19.17C161.47,150.22,148.81,135.5,142.68,125.53Z"/></svg>