<svg id="Calque_1" data-name="Calque 1" xmlns="http://www.w3.org/2000/svg" viewBox="0 0 1920 1080"><defs><style>.cls-1,.cls-2,.cls-4{fill:none;stroke-linecap:round;stroke-width:3px;}.cls-1,.cls-4{stroke:#1d1d1b;}.cls-1,.cls-2{stroke-linejoin:round;}.cls-2{stroke:#344154;}.cls-3{fill:#e73327;}.cls-4{stroke-miterlimit:10;}</style></defs><path class="cls-1" d="M1008.09,606.6a55.2,55.2,0,0,0,29.59-15.41"/><line class="cls-2" x1="1032.16" y1="585.67" x2="1037.68" y2="591.19"/><line class="cls-2" x1="959.2" y1="512.7" x2="964.82" y2="518.32"/><ellipse class="cls-1" cx="998.44" cy="551.96" rx="40.26" ry="40.18"/><path class="cls-3" d="M1006.52,543.9a26.9,26.9,0,0,0,26.54,6.78,34.65,34.65,0,0,0-33.33-33.26A26.75,26.75,0,0,0,1006.52,543.9Z"/><path class="cls-3" d="M966,539.85A34.28,34.28,0,0,0,963.8,552a34.63,34.63,0,0,0,46.78,32.38A52.32,52.32,0,0,0,966,539.85Z"/><path class="cls-4" d="M959.2,512.7a55.5,55.5,0,0,0,39.46,94.74V619.6"/><path class="cls-4" d="M1020.89,627.88a8.84,8.84,0,0,1,8.84,8.84v.56H967.3v-.56a8.84,8.84,0,0,1,8.84-8.84h3.16a8.28,8.28,0,0,1,8.28-8.28h22.2a8.28,8.28,0,0,1,8.28,8.28Z"/></svg>