<svg id="Calque_1" data-name="Calque 1" xmlns="http://www.w3.org/2000/svg" viewBox="0 0 291 230"><defs><style>.cls-1{fill:#e73327;}.cls-2,.cls-3{fill:none;stroke-linecap:round;stroke-linejoin:round;stroke-width:3.61px;}.cls-2{stroke:#1d1d1b;}.cls-3{stroke:#483d54;}</style></defs><path class="cls-1" d="M176.62,93.56h0a4.63,4.63,0,0,1-3.27-7.9,5.05,5.05,0,0,0,0-7.14l-2.1-2.1a5,5,0,0,0-7.13,0,4.62,4.62,0,0,1-7.9-3.27h0a5,5,0,0,0-5.05-5h-3a5,5,0,0,0-5.05,5h0a4.63,4.63,0,0,1-7.9,3.28h0a5,5,0,0,0-7.13,0l-2.1,2.1a5.05,5.05,0,0,0,0,7.14h0a4.63,4.63,0,0,1-3.27,7.9,5,5,0,0,0-5.05,5v3a5,5,0,0,0,5.05,5h0a4.63,4.63,0,0,1,3.27,7.9h0a5,5,0,0,0,0,7.13l2.1,2.1a5,5,0,0,0,7.13,0h0a4.63,4.63,0,0,1,7.9,3.27h0a5,5,0,0,0,5.05,5h3a5,5,0,0,0,5.05-5,4.63,4.63,0,0,1,7.9-3.28h0a5,5,0,0,0,7.13,0l2.1-2.09a5.05,5.05,0,0,0,0-7.14h0a4.63,4.63,0,0,1,3.27-7.9h0a5,5,0,0,0,5-5v-3A5,5,0,0,0,176.62,93.56ZM149.69,112a11.93,11.93,0,1,1,11.93-11.93A11.93,11.93,0,0,1,149.69,112Z"/><path class="cls-2" d="M179.46,144.67a5.21,5.21,0,0,1,.57-1.39c5.19-8.46,21.52-17.52,21.52-40.19,0-54.93-50.8-58.22-71.46-52.15-16.25,4.78-32.56,11.1-34,39.67-.2,3.75.19,11.1-.3,13.84-1.53,6.34-5.69,14.16-12.43,18-5,3.57-1.11,11.3,4.88,11,3.43-.2,4.94,3.1,2.85,7.8-.74,1.66-2,3.45-.21,6.28,1.56,2.41,4.23,3.26,4.52,4.32,2,7.44-.1,14.34,7.81,18.44,6.41,3.33,10,2.61,20.56-1.05,8.17-2.83,16.35,5.7,18.75,14a42,42,0,0,1,1.18,5.36"/><path class="cls-2" d="M197.28,174.57c4.14,4.72-6.39-12.29-14.31-33.35"/><path class="cls-3" d="M177.68,93.56h0a4.63,4.63,0,0,1-3.27-7.9,5.05,5.05,0,0,0,0-7.14l-2.1-2.1a5,5,0,0,0-7.13,0,4.62,4.62,0,0,1-7.9-3.27h0a5,5,0,0,0-5-5h-3a5,5,0,0,0-5,5h0a4.63,4.63,0,0,1-7.9,3.28h0a5.05,5.05,0,0,0-7.14,0l-2.1,2.1a5.05,5.05,0,0,0,0,7.14h0a4.63,4.63,0,0,1-3.27,7.9,5,5,0,0,0-5,5v3a5,5,0,0,0,5,5h0a4.62,4.62,0,0,1,3.27,7.9h0a5,5,0,0,0,0,7.13l2.1,2.1a5,5,0,0,0,7.13,0h0a4.63,4.63,0,0,1,7.9,3.27h0a5,5,0,0,0,5,5h3a5,5,0,0,0,5-5,4.63,4.63,0,0,1,7.9-3.28h0a5,5,0,0,0,7.13,0l2.1-2.09a5.05,5.05,0,0,0,0-7.14h0a4.63,4.63,0,0,1,3.27-7.9h0a5,5,0,0,0,5-5v-3A5,5,0,0,0,177.68,93.56ZM150.75,112a11.93,11.93,0,1,1,11.93-11.93A11.93,11.93,0,0,1,150.75,112Z"/><path class="cls-2" d="M177.68,93.56h0a4.63,4.63,0,0,1-3.27-7.9,5.05,5.05,0,0,0,0-7.14l-2.1-2.1a5,5,0,0,0-7.13,0,4.62,4.62,0,0,1-7.9-3.27h0a5,5,0,0,0-5-5h-3a5,5,0,0,0-5,5h0a4.63,4.63,0,0,1-7.9,3.28h0a5.05,5.05,0,0,0-7.14,0l-2.1,2.1a5.05,5.05,0,0,0,0,7.14h0a4.63,4.63,0,0,1-3.27,7.9,5,5,0,0,0-5,5v3a5,5,0,0,0,5,5h0a4.62,4.62,0,0,1,3.27,7.9h0a5,5,0,0,0,0,7.13l2.1,2.1a5,5,0,0,0,7.13,0h0a4.63,4.63,0,0,1,7.9,3.27h0a5,5,0,0,0,5,5h3a5,5,0,0,0,5-5,4.63,4.63,0,0,1,7.9-3.28h0a5,5,0,0,0,7.13,0l2.1-2.09a5.05,5.05,0,0,0,0-7.14h0a4.63,4.63,0,0,1,3.27-7.9h0a5,5,0,0,0,5-5v-3A5,5,0,0,0,177.68,93.56ZM150.75,112a11.93,11.93,0,1,1,11.93-11.93A11.93,11.93,0,0,1,150.75,112Z"/><path class="cls-2" d="M100.68,148a41.57,41.57,0,0,1,6.9-.24"/><path class="cls-2" d="M88.17,64.39S89.25,58.4,97,55"/><path class="cls-2" d="M210.49,114.79s1.33,5.94-4.5,12.09"/></svg>