<?xml version="1.0" encoding="UTF-8" standalone="no"?>
<!DOCTYPE svg PUBLIC "-//W3C//DTD SVG 1.1//EN" "http://www.w3.org/Graphics/SVG/1.1/DTD/svg11.dtd">
<svg width="100%" height="100%" viewBox="0 0 351 185" version="1.1" xmlns="http://www.w3.org/2000/svg" xmlns:xlink="http://www.w3.org/1999/xlink" xml:space="preserve" xmlns:serif="http://www.serif.com/" style="fill-rule:evenodd;clip-rule:evenodd;stroke-linejoin:round;stroke-miterlimit:2;">
    <g transform="matrix(1,0,0,1,-749,-5901)">
        <g transform="matrix(1,0,0,6.05938,0,922.869)">
            <g id="medal-home" transform="matrix(0.725207,0,0,0.725207,332.731,223.485)">
                <g transform="matrix(1,0,0,0.165033,-86,-148.673)">
                    <path d="M1081.5,6073L1144,6073L1118,6111.76L1144,6146L1053,6146L1053,6116.53L1007.9,6116.53C1022.46,6099.71 1033.08,6079.38 1038.32,6057L1081.5,6057L1081.5,6073Z" style="fill:white;fill-opacity:0.8;"/>
                </g>
                <g transform="matrix(1,0,0,0.165033,-86,-148.673)">
                    <path d="M722.5,6073L722.5,6057L765.68,6057C770.923,6079.38 781.542,6099.71 796.102,6116.53L751,6116.53L751,6146L660,6146L686,6111.76L660,6073L722.5,6073Z" style="fill:white;fill-opacity:0.8;"/>
                </g>
                <g transform="matrix(1,0,0,0.165033,-86,-148.673)">
                    <path d="M902,5898C972.093,5898 1029,5954.91 1029,6025C1029,6095.09 972.093,6152 902,6152C831.907,6152 775,6095.09 775,6025C775,5954.91 831.907,5898 902,5898ZM895.893,6049.3C892.341,6049.3 889.147,6048.54 886.31,6047.03C883.473,6045.51 881.242,6043.34 879.618,6040.53C877.994,6037.71 877.182,6034.42 877.182,6030.65C877.182,6026.93 878.005,6023.65 879.651,6020.81C881.296,6017.97 883.549,6015.8 886.407,6014.28C889.266,6012.76 892.471,6012.01 896.023,6012.01C899.574,6012.01 902.78,6012.76 905.638,6014.28C908.497,6015.8 910.749,6017.97 912.395,6020.81C914.041,6023.65 914.864,6026.93 914.864,6030.65C914.864,6034.38 914.03,6037.66 912.363,6040.49C910.695,6043.33 908.421,6045.51 905.541,6047.03C902.661,6048.54 899.445,6049.3 895.893,6049.3ZM937.733,6030.59C937.733,6026.86 938.437,6023.59 939.845,6020.78C941.252,6017.96 943.169,6015.8 945.594,6014.28C948.02,6012.76 950.727,6012.01 953.716,6012.01C956.098,6012.01 958.274,6012.5 960.245,6013.5C962.216,6014.5 963.764,6015.84 964.89,6017.53L964.89,6000.7L976,6000.7L976,6048.78L964.89,6048.78L964.89,6043.58C963.851,6045.31 962.367,6046.7 960.44,6047.74C958.512,6048.78 956.271,6049.3 953.716,6049.3C950.727,6049.3 948.02,6048.53 945.594,6046.99C943.169,6045.45 941.252,6043.27 939.845,6040.43C938.437,6037.59 937.733,6034.31 937.733,6030.59ZM860.16,6017.59C859.337,6016.08 858.157,6014.92 856.619,6014.12C855.081,6013.32 853.273,6012.92 851.194,6012.92C847.599,6012.92 844.719,6014.1 842.553,6016.46C840.387,6018.82 839.305,6021.97 839.305,6025.91C839.305,6030.11 840.442,6033.39 842.716,6035.75C844.989,6038.11 848.119,6039.29 852.104,6039.29C854.832,6039.29 857.139,6038.6 859.023,6037.21C860.907,6035.83 862.282,6033.84 863.148,6031.24L849.05,6031.24L849.05,6023.05L873.219,6023.05L873.219,6033.38C872.396,6036.15 870.999,6038.73 869.028,6041.11C867.057,6043.49 864.556,6045.42 861.524,6046.9C858.492,6048.37 855.071,6049.1 851.259,6049.1C846.754,6049.1 842.737,6048.12 839.207,6046.15C835.677,6044.18 832.927,6041.44 830.956,6037.93C828.985,6034.42 828,6030.41 828,6025.91C828,6021.4 828.985,6017.39 830.956,6013.86C832.927,6010.33 835.666,6007.58 839.175,6005.61C842.683,6003.64 846.689,6002.65 851.194,6002.65C856.651,6002.65 861.253,6003.97 865,6006.61C868.747,6009.26 871.226,6012.92 872.439,6017.59L860.16,6017.59ZM931.886,6000.7L931.886,6048.78L920.776,6048.78L920.776,6000.7L931.886,6000.7ZM895.893,6039.68C898.015,6039.68 899.824,6038.9 901.318,6037.34C902.812,6035.78 903.559,6033.55 903.559,6030.65C903.559,6027.75 902.834,6025.52 901.383,6023.96C899.932,6022.4 898.145,6021.62 896.023,6021.62C893.857,6021.62 892.06,6022.39 890.63,6023.93C889.201,6025.47 888.486,6027.71 888.486,6030.65C888.486,6033.55 889.19,6035.78 890.598,6037.34C892.006,6038.9 893.771,6039.68 895.893,6039.68ZM964.89,6030.65C964.89,6027.88 964.121,6025.69 962.584,6024.09C961.046,6022.49 959.173,6021.69 956.964,6021.69C954.755,6021.69 952.882,6022.48 951.344,6024.06C949.807,6025.64 949.038,6027.82 949.038,6030.59C949.038,6033.36 949.807,6035.56 951.344,6037.18C952.882,6038.81 954.755,6039.62 956.964,6039.62C959.173,6039.62 961.046,6038.82 962.584,6037.21C964.121,6035.61 964.89,6033.42 964.89,6030.65Z" style="fill:white;fill-opacity:0.7;"/>
                </g>
                <g transform="matrix(0.978738,0,0,0.161524,-143.269,-127.575)">
                    <circle cx="881.108" cy="5942" r="46.493" style="fill:rgb(255,210,45);"/>
                </g>
            </g>
        </g>
    </g>
</svg>
