<svg width="1059" height="525" xmlns="http://www.w3.org/2000/svg" xmlns:xlink="http://www.w3.org/1999/xlink" overflow="hidden"><defs><clipPath id="clip0"><rect x="110" y="143" width="1059" height="525"/></clipPath></defs><g clip-path="url(#clip0)" transform="translate(-110 -143)"><path d="M437 517.75 543.5 517.75 543.5 486 607 549.5 543.5 613 543.5 581.25 437 581.25Z" fill="#E9C592" fill-rule="evenodd"/><text fill="#FFFFFF" font-family="Calibri,Calibri_MSFontService,sans-serif" font-style="italic" font-weight="400" font-size="24" transform="translate(478.244 557)">mcpD</text><path d="M721 517.75 827.5 517.75 827.5 486 891 549.5 827.5 613 827.5 581.25 721 581.25Z" fill="#E9E885" fill-rule="evenodd"/><text fill="#FFFFFF" font-family="Calibri,Calibri_MSFontService,sans-serif" font-style="italic" font-weight="400" font-size="24" transform="translate(763.143 557)">mcpB</text><path d="M329.81 580.455C323.406 554.553 340.213 529.016 367.348 523.416 394.483 517.816 421.671 534.274 428.074 560.176 429.624 566.449 429.841 572.93 428.711 579.237Z" fill="#DBDBDB" fill-rule="evenodd"/><text font-family="Calibri,Calibri_MSFontService,sans-serif" font-weight="400" font-size="24" transform="translate(355.782 488)">RBS<tspan font-size="16" x="-21" y="22">BBa_J61118</tspan></text><path d="M613.584 580.455C607.181 554.553 623.987 529.016 651.122 523.416 678.257 517.816 705.445 534.274 711.848 560.176 713.399 566.449 713.615 572.93 712.485 579.237Z" fill="#DBDBDB" fill-rule="evenodd"/><text font-family="Calibri,Calibri_MSFontService,sans-serif" font-weight="400" font-size="24" transform="translate(639.156 491)">RBS<tspan font-size="16" x="-21" y="22">BBa_J61109</tspan></text><path d="M263 583 263 503.25C263 482.954 279.454 466.5 299.75 466.5L326 466.5 326 456 347 477 326 498 326 487.5 299.75 487.5C291.052 487.5 284 494.552 284 503.25L284 583Z" fill-rule="evenodd"/><text font-family="Calibri,Calibri_MSFontService,sans-serif" font-weight="400" font-size="24" transform="translate(265.665 421)">Promoter<tspan font-size="16" x="5.58002" y="22">BBa_J23118 </tspan></text><rect x="904" y="523" width="12" height="59" fill="#8497B0"/><rect x="878" y="519" width="64" height="12" fill="#8497B0"/><rect x="970" y="523" width="12" height="60" fill="#8497B0"/><rect x="944" y="519" width="64" height="12" fill="#8497B0"/><text font-family="Calibri,Calibri_MSFontService,sans-serif" font-weight="400" font-size="24" transform="translate(851.377 480)">Double Terminator<tspan font-size="16" x="53.5" y="22">BBa_B0015 </tspan><tspan font-family="Poppins,Poppins_MSFontService,sans-serif" font-style="oblique" font-weight="300" font-size="16" x="-449.695" y="174">Figure 3: Our constructs for the expression and secretion of McpM</tspan></text><path d="M289 269.75 395.5 269.75 395.5 238 459 301.5 395.5 365 395.5 333.25 289 333.25Z" fill="#6B7AEB" fill-rule="evenodd"/><text fill="#FFFFFF" font-family="Calibri,Calibri_MSFontService,sans-serif" font-style="italic" font-weight="400" font-size="24" transform="translate(327.115 309)">mcpM</text><path d="M566 269.75 672.5 269.75 672.5 238 736 301.5 672.5 365 672.5 333.25 566 333.25Z" fill="#7AC9EB" fill-rule="evenodd"/><text fill="#FFFFFF" font-family="Calibri,Calibri_MSFontService,sans-serif" font-style="italic" font-weight="400" font-size="24" transform="translate(611.556 309)">mcpI</text><path d="M843 269.75 949.5 269.75 949.5 238 1013 301.5 949.5 365 949.5 333.25 843 333.25Z" fill="#92EBB8" fill-rule="evenodd"/><text fill="#FFFFFF" font-family="Calibri,Calibri_MSFontService,sans-serif" font-style="italic" font-weight="400" font-size="24" transform="translate(884.195 309)">mcpA</text><path d="M122 335 122 255.25C122 234.954 138.454 218.5 158.75 218.5L185 218.5 185 208 206 229 185 250 185 239.5 158.75 239.5C150.052 239.5 143 246.552 143 255.25L143 335Z" fill-rule="evenodd"/><text font-family="Calibri,Calibri_MSFontService,sans-serif" font-weight="400" font-size="24" transform="translate(124.587 173)">Promoter<tspan font-size="16" x="5.58" y="22">BBa_J23111 </tspan></text><path d="M184.272 333.043C178.656 306.959 196.228 281.942 223.52 277.166 250.812 272.39 277.489 289.664 283.105 315.748 284.465 322.065 284.486 328.55 283.165 334.82Z" fill="#DBDBDB" fill-rule="evenodd"/><text font-family="Calibri,Calibri_MSFontService,sans-serif" font-weight="400" font-size="24" transform="translate(214.658 244)">RBS<tspan font-size="16" x="-21" y="22">BBa_J61127</tspan></text><path d="M463.956 333.386C457.553 307.484 474.359 281.947 501.494 276.347 528.629 270.746 555.817 287.204 562.22 313.107 563.771 319.38 563.987 325.861 562.857 332.167Z" fill="#DBDBDB" fill-rule="evenodd"/><text font-family="Calibri,Calibri_MSFontService,sans-serif" font-weight="400" font-size="24" transform="translate(489.929 241)">RBS<tspan font-size="16" x="-21" y="22">BBa_J61130</tspan></text><path d="M738.737 333.386C732.334 307.484 749.141 281.946 776.276 276.346 803.41 270.746 830.598 287.204 837.001 313.106 838.552 319.379 838.769 325.861 837.638 332.167Z" fill="#DBDBDB" fill-rule="evenodd"/><text font-family="Calibri,Calibri_MSFontService,sans-serif" font-weight="400" font-size="24" transform="translate(764.71 241)">RBS<tspan font-size="16" x="-21" y="22">BBa_J61118</tspan></text><rect x="1023" y="267" width="12" height="59" fill="#8497B0"/><rect x="997" y="264" width="64" height="11" fill="#8497B0"/><rect x="1089" y="267" width="12" height="60" fill="#8497B0"/><rect x="1063" y="264" width="64" height="11" fill="#8497B0"/><text font-family="Calibri,Calibri_MSFontService,sans-serif" font-weight="400" font-size="24" transform="translate(970.357 224)">Double Terminator<tspan font-size="16" x="53.5" y="22">BBa_B0015 </tspan></text><path d="M393 300C393 284.536 405.536 272 421 272 436.464 272 449 284.536 449 300 449 315.464 436.464 328 421 328 405.536 328 393 315.464 393 300Z" fill="#8FAADC" fill-rule="evenodd"/><text fill="#FFFFFF" font-family="Calibri,Calibri_MSFontService,sans-serif" font-weight="400" font-size="16" transform="translate(410.835 305)">His</text></g></svg>