<svg width="1194" height="470" xmlns="http://www.w3.org/2000/svg" xmlns:xlink="http://www.w3.org/1999/xlink" overflow="hidden"><defs><clipPath id="clip0"><rect x="63" y="153" width="1194" height="470"/></clipPath></defs><g clip-path="url(#clip0)" transform="translate(-63 -153)"><path d="M247 269.75 302.5 269.75 302.5 238 358 301.5 302.5 365 302.5 333.25 247 333.25Z" fill="#6B7AEB" fill-rule="evenodd"/><text fill="#FFFFFF" font-family="Calibri,Calibri_MSFontService,sans-serif" font-style="italic" font-weight="400" font-size="24" transform="translate(257.646 309)">mcpM</text><path d="M358 273.75 403.5 273.75 403.5 242 449 305.5 403.5 369 403.5 337.25 358 337.25Z" fill="#7AC9EB" fill-rule="evenodd"/><text fill="#FFFFFF" font-family="Calibri,Calibri_MSFontService,sans-serif" font-style="italic" font-weight="400" font-size="24" transform="translate(368.375 313)">mcpI</text><path d="M449 273.75 532.5 273.75 532.5 242 596 305.5 532.5 369 532.5 337.25 449 337.25Z" fill="#92EBB8" fill-rule="evenodd"/><text fill="#FFFFFF" font-family="Calibri,Calibri_MSFontService,sans-serif" font-style="italic" font-weight="400" font-size="24" transform="translate(478.893 313)">mcpA</text><path d="M68 322 68 242.25C68 221.954 84.4535 205.5 104.75 205.5L131 205.5 131 195 152 216 131 237 131 226.5 104.75 226.5C96.0515 226.5 89 233.552 89 242.25L89 322Z" fill-rule="evenodd"/><text font-family="Calibri,Calibri_MSFontService,sans-serif" font-weight="400" font-size="24" transform="translate(78.0816 183)">Promoter</text><rect x="91" y="283" width="154" height="39" fill="#AFABAB"/><text fill="#FFFFFF" font-family="Calibri,Calibri_MSFontService,sans-serif" font-weight="400" font-size="16" transform="translate(114.304 298)">Native promoter <tspan x="5.07333" y="19">region </tspan><tspan font-family="Cambria Math,Cambria Math_MSFontService,sans-serif" x="50.0267" y="19">∼</tspan><tspan x="61.36" y="19">200bp</tspan></text><path d="M596 322 596 242.25C596 221.954 612.454 205.5 632.75 205.5L659 205.5 659 195 680 216 659 237 659 226.5 632.75 226.5C624.052 226.5 617 233.552 617 242.25L617 322Z" fill-rule="evenodd"/><text font-family="Calibri,Calibri_MSFontService,sans-serif" font-weight="400" font-size="24" transform="translate(605.641 183)">Promoter</text><path d="M774 270.75 907.5 270.75 907.5 239 971 302.5 907.5 366 907.5 334.25 774 334.25Z" fill="#E9C592" fill-rule="evenodd"/><text fill="#FFFFFF" font-family="Calibri,Calibri_MSFontService,sans-serif" font-style="italic" font-weight="400" font-size="24" transform="translate(828.437 310)">mcpD</text><path d="M971 269.75 1180.5 269.75 1180.5 238 1244 301.5 1180.5 365 1180.5 333.25 971 333.25Z" fill="#E9E885" fill-rule="evenodd"/><text fill="#FFFFFF" font-family="Calibri,Calibri_MSFontService,sans-serif" font-style="italic" font-weight="400" font-size="24" transform="translate(1064.59 309)">mcpB</text><rect x="618" y="283" width="155" height="39" fill="#AFABAB"/><text fill="#FFFFFF" font-family="Calibri,Calibri_MSFontService,sans-serif" font-weight="400" font-size="16" transform="translate(641.645 298)">Native promoter <tspan x="5.07336" y="19">region </tspan><tspan font-family="Cambria Math,Cambria Math_MSFontService,sans-serif" x="50.0267" y="19">∼</tspan><tspan x="61.36" y="19">100bp</tspan></text><path d="M68.5001 385.667C68.5001 375.081 77.0815 366.5 87.6671 366.5L286.333 366.5C296.919 366.5 305.5 375.081 305.5 385.667L305.5 462.333C305.5 472.919 296.919 481.5 286.333 481.5L87.6671 481.5C77.0815 481.5 68.5001 472.919 68.5001 462.333Z" stroke="#6B7AEB" stroke-width="3" stroke-miterlimit="8" fill="none" fill-rule="evenodd"/><text font-family="Poppins,Poppins_MSFontService,sans-serif" font-style="oblique" font-weight="300" font-size="16" transform="translate(161.391 390)">mcpM<tspan font-style="normal" x="-74.6667" y="19">Encodes the microcin PDI </tspan><tspan font-style="normal" x="-54.1667" y="38">which has two N</tspan><tspan font-style="normal" x="74.8333" y="38">-</tspan><tspan font-style="normal" x="83.1667" y="38">ter</tspan><tspan font-style="normal" x="-76.6667" y="57">signal peptides which are </tspan><tspan font-style="normal" x="-67.92" y="77">cleaved when secreted </tspan></text><path d="M989.5 458.501C989.5 442.484 1002.48 429.5 1018.5 429.5L1226.5 429.5C1242.52 429.5 1255.5 442.484 1255.5 458.501L1255.5 574.5C1255.5 590.516 1242.52 603.5 1226.5 603.5L1018.5 603.5C1002.48 603.5 989.5 590.516 989.5 574.5Z" stroke="#E9E885" stroke-width="3" stroke-miterlimit="8" fill="none" fill-rule="evenodd"/><text font-family="Poppins,Poppins_MSFontService,sans-serif" font-weight="300" font-size="16" transform="translate(1100.02 445)">McpB<tspan x="-81.5" y="19">Contains transmembrane </tspan><tspan x="-54" y="38">domains as well as </tspan><tspan x="-89.92" y="57">nucleotide binding domains </tspan><tspan x="-49.4199" y="77">which have highly </tspan><tspan x="-47" y="96">conserved motifs </tspan><tspan x="-76.42" y="115">characteristic of the ABC </tspan><tspan x="-81.5" y="134">transporter superfamily of </tspan><tspan x="-15.1666" y="153">proteins</tspan><tspan font-size="11" x="49.5" y="148">4</tspan><tspan x="56" y="153">. </tspan></text><path d="M558.5 390.667C558.5 380.081 567.081 371.5 577.667 371.5L737.333 371.5C747.919 371.5 756.5 380.081 756.5 390.667L756.5 467.333C756.5 477.919 747.919 486.5 737.333 486.5L577.667 486.5C567.081 486.5 558.5 477.919 558.5 467.333Z" stroke="#92EBB8" stroke-width="3" stroke-miterlimit="8" fill="none" fill-rule="evenodd"/><text font-family="Poppins,Poppins_MSFontService,sans-serif" font-style="oblique" font-weight="300" font-size="16" transform="translate(633.496 385)">mcpA<tspan font-style="normal" x="-22.58" y="19">Encodes an </tspan><tspan font-style="normal" x="-55.2467" y="38">activator protein for </tspan><tspan font-style="normal" x="-54.7467" y="57">McpM</tspan><tspan font-style="normal" x="-2.7467" y="57">and contains </tspan><tspan font-style="normal" x="-43.5" y="77">a </tspan><tspan font-style="normal" x="-28.3334" y="77">CaaX</tspan><tspan font-style="normal" x="19.3333" y="77">protease </tspan><tspan font-style="normal" x="-7.33337" y="96">domain</tspan></text><path d="M314.5 389.334C314.5 378.932 322.932 370.5 333.334 370.5L532.666 370.5C543.068 370.5 551.5 378.932 551.5 389.334L551.5 464.666C551.5 475.068 543.068 483.5 532.666 483.5L333.334 483.5C322.932 483.5 314.5 475.068 314.5 464.666Z" stroke="#7AC9EB" stroke-width="3" stroke-miterlimit="8" fill="none" fill-rule="evenodd"/><text font-family="Poppins,Poppins_MSFontService,sans-serif" font-style="oblique" font-weight="300" font-size="16" transform="translate(412.033 403)">mcpI<tspan font-style="normal" x="-67.92" y="19">Encodes the immunity </tspan><tspan font-style="normal" x="-66.8333" y="38">protein of </tspan><tspan font-style="normal" x="13.8333" y="38">McpI</tspan><tspan font-style="normal" x="56" y="38">for the </tspan><tspan font-style="normal" x="-45.2533" y="57">producing strain </tspan></text><path d="M767.5 450.667C767.5 438.977 776.977 429.5 788.667 429.5L955.333 429.5C967.023 429.5 976.5 438.977 976.5 450.667L976.5 535.333C976.5 547.023 967.023 556.5 955.333 556.5L788.667 556.5C776.977 556.5 767.5 547.023 767.5 535.333Z" stroke="#E9C592" stroke-width="3" stroke-miterlimit="8" fill="none" fill-rule="evenodd"/><text font-family="Poppins,Poppins_MSFontService,sans-serif" font-weight="300" font-size="16" transform="translate(848.662 450)">McpD<tspan x="-60.9133" y="19">Acts as a membrane </tspan><tspan x="-31.5" y="38">fusion protein </tspan><tspan x="-52.8333" y="57">creating a channel </tspan><tspan x="-66.1666" y="77">through the periplasm </tspan><tspan x="-63.5" y="96">and connects to </tspan><tspan x="71.5" y="96">TolC</tspan><tspan x="106.167" y="96">.</tspan><tspan font-size="15" x="-40.0211" y="-68">Encode homologs of the </tspan><tspan font-size="15" x="140.812" y="-68">HlyB</tspan><tspan font-size="15" x="174.979" y="-68">and </tspan><tspan font-size="15" x="207.979" y="-68">HlyD</tspan><tspan font-size="15" x="243.646" y="-68">proteins of type I </tspan><tspan font-size="15" x="-43.2677" y="-50">secretion system that interact with </tspan><tspan font-size="15" x="212.066" y="-50">TolC</tspan><tspan font-size="15" x="247.732" y="-50">(chromosomally </tspan><tspan font-size="15" x="126.232" y="-32">encoded)</tspan><tspan font-weight="700" x="-480.933" y="159">Fig. 1. Native </tspan><tspan font-weight="700" x="-380.6" y="159">MccPDI</tspan><tspan font-weight="700" x="-314.767" y="159">gene  cluster  found  in </tspan><tspan font-style="oblique" font-weight="700" x="-129.6" y="159">E</tspan><tspan font-style="oblique" font-weight="700" x="-121.6" y="159">. coli </tspan><tspan font-weight="700" x="-78.0999" y="159">25.</tspan></text></g></svg>