<svg width="969" height="313" xmlns="http://www.w3.org/2000/svg" xmlns:xlink="http://www.w3.org/1999/xlink" overflow="hidden"><defs><clipPath id="clip0"><rect x="180" y="197" width="969" height="313"/></clipPath><clipPath id="clip1"><rect x="758" y="145" width="223" height="135"/></clipPath></defs><g clip-path="url(#clip0)" transform="translate(-180 -197)"><path d="M270.377 197.99 344.129 197.99 344.129 245.99 270.377 245.99Z" fill="#891724" fill-rule="evenodd"/><path d="M344.129 197.99 536.426 197.99 536.426 245.99 344.129 245.99Z" fill="#891724" fill-rule="evenodd"/><path d="M536.426 197.99 758.841 197.99 758.841 245.99 536.426 245.99Z" fill="#891724" fill-rule="evenodd"/><path d="M758.841 197.99 980.87 197.99 980.87 245.99 758.841 245.99Z" fill="#891724" fill-rule="evenodd"/><path d="M270.377 245.99 344.129 245.99 344.129 284.924 270.377 284.924Z" fill="#E07575" fill-rule="evenodd" fill-opacity="0.501961"/><path d="M344.129 245.99 536.426 245.99 536.426 284.924 344.129 284.924Z" fill="#E07575" fill-rule="evenodd" fill-opacity="0.501961"/><path d="M536.426 245.99 758.841 245.99 758.841 284.924 536.426 284.924Z" fill="#E07575" fill-rule="evenodd" fill-opacity="0.501961"/><path d="M758.841 245.99 980.87 245.99 980.87 284.924 758.841 284.924Z" fill="#E07575" fill-rule="evenodd" fill-opacity="0.501961"/><path d="M270.377 284.924 344.129 284.924 344.129 323.857 270.377 323.857Z" fill="#C11F21" fill-rule="evenodd" fill-opacity="0.501961"/><path d="M344.129 284.924 536.426 284.924 536.426 323.857 344.129 323.857Z" fill="#C11F21" fill-rule="evenodd" fill-opacity="0.501961"/><path d="M536.426 284.924 758.841 284.924 758.841 323.857 536.426 323.857Z" fill="#C11F21" fill-rule="evenodd" fill-opacity="0.501961"/><path d="M758.841 284.924 980.87 284.924 980.87 323.857 758.841 323.857Z" fill="#C11F21" fill-rule="evenodd" fill-opacity="0.501961"/><path d="M270.377 323.857 344.129 323.857 344.129 362.79 270.377 362.79Z" fill="#E07575" fill-rule="evenodd" fill-opacity="0.501961"/><path d="M344.129 323.857 536.426 323.857 536.426 362.79 344.129 362.79Z" fill="#E07575" fill-rule="evenodd" fill-opacity="0.501961"/><path d="M536.426 323.857 758.841 323.857 758.841 362.79 536.426 362.79Z" fill="#E07575" fill-rule="evenodd" fill-opacity="0.501961"/><path d="M758.841 323.857 980.87 323.857 980.87 362.79 758.841 362.79Z" fill="#E07575" fill-rule="evenodd" fill-opacity="0.501961"/><path d="M270.377 362.79 344.129 362.79 344.129 401.724 270.377 401.724Z" fill="#C11F21" fill-rule="evenodd" fill-opacity="0.501961"/><path d="M344.129 362.79 536.426 362.79 536.426 401.724 344.129 401.724Z" fill="#C11F21" fill-rule="evenodd" fill-opacity="0.501961"/><path d="M536.426 362.79 758.841 362.79 758.841 401.724 536.426 401.724Z" fill="#C11F21" fill-rule="evenodd" fill-opacity="0.501961"/><path d="M758.841 362.79 980.87 362.79 980.87 401.724 758.841 401.724Z" fill="#C11F21" fill-rule="evenodd" fill-opacity="0.501961"/><path d="M270.377 401.724 344.129 401.724 344.129 440.657 270.377 440.657Z" fill="#DD7474" fill-rule="evenodd" fill-opacity="0.501961"/><path d="M344.129 401.724 536.426 401.724 536.426 440.657 344.129 440.657Z" fill="#DD7474" fill-rule="evenodd" fill-opacity="0.501961"/><path d="M536.426 401.724 758.841 401.724 758.841 440.657 536.426 440.657Z" fill="#DD7474" fill-rule="evenodd" fill-opacity="0.501961"/><path d="M758.841 401.724 980.87 401.724 980.87 440.657 758.841 440.657Z" fill="#DD7474" fill-rule="evenodd" fill-opacity="0.501961"/><path d="M344.129 197.324 344.129 441.324" stroke="#FFFFFF" stroke-width="1.33333" stroke-linejoin="round" stroke-miterlimit="10" fill="none" fill-rule="evenodd"/><path d="M536.426 197.324 536.426 441.324" stroke="#FFFFFF" stroke-width="1.33333" stroke-linejoin="round" stroke-miterlimit="10" fill="none" fill-rule="evenodd"/><path d="M758.841 197.324 758.841 441.324" stroke="#FFFFFF" stroke-width="1.33333" stroke-linejoin="round" stroke-miterlimit="10" fill="none" fill-rule="evenodd"/><path d="M269.71 245.99 981.536 245.99" stroke="#FFFFFF" stroke-width="4" stroke-linejoin="round" stroke-miterlimit="10" fill="none" fill-rule="evenodd"/><path d="M269.71 284.924 981.536 284.924" stroke="#FFFFFF" stroke-width="1.33333" stroke-linejoin="round" stroke-miterlimit="10" fill="none" fill-rule="evenodd"/><path d="M269.71 323.857 981.536 323.857" stroke="#FFFFFF" stroke-width="1.33333" stroke-linejoin="round" stroke-miterlimit="10" fill="none" fill-rule="evenodd"/><path d="M269.71 362.79 981.536 362.79" stroke="#FFFFFF" stroke-width="1.33333" stroke-linejoin="round" stroke-miterlimit="10" fill="none" fill-rule="evenodd"/><path d="M269.71 401.724 981.536 401.724" stroke="#FFFFFF" stroke-width="1.33333" stroke-linejoin="round" stroke-miterlimit="10" fill="none" fill-rule="evenodd"/><path d="M270.377 197.324 270.377 441.324" stroke="#FFFFFF" stroke-width="1.33333" stroke-linejoin="round" stroke-miterlimit="10" fill="none" fill-rule="evenodd"/><path d="M980.87 197.324 980.87 441.324" stroke="#FFFFFF" stroke-width="1.33333" stroke-linejoin="round" stroke-miterlimit="10" fill="none" fill-rule="evenodd"/><path d="M269.71 197.99 981.536 197.99" stroke="#FFFFFF" stroke-width="1.33333" stroke-linejoin="round" stroke-miterlimit="10" fill="none" fill-rule="evenodd"/><path d="M269.71 440.657 981.536 440.657" stroke="#FFFFFF" stroke-width="1.33333" stroke-linejoin="round" stroke-miterlimit="10" fill="none" fill-rule="evenodd"/><text fill="#FFFFFF" font-family="Poppins,Poppins_MSFontService,sans-serif" font-weight="700" font-size="16" transform="translate(285.92 218)">Gene<tspan x="83.2744" y="0">Ribosome Binding </tspan><tspan x="140.108" y="19">Site </tspan><tspan x="309.797" y="0">TIR Construct </tspan><tspan x="485.269" y="0">TIR Native </tspan><tspan x="565.269" y="0">MccPDI</tspan></text><g clip-path="url(#clip1)"><text fill="#FFFFFF" font-family="Poppins,Poppins_MSFontService,sans-serif" font-weight="700" font-size="16" transform="translate(912.688 218)">Cluster </text></g><text font-family="Poppins,Poppins_MSFontService,sans-serif" font-style="oblique" font-weight="300" font-size="16" transform="translate(282.003 266)">mcpM<tspan font-style="normal" x="97.6077" y="0">Part BBa_J61127</tspan><tspan font-style="normal" x="346.713" y="0">3769 </tspan><tspan font-style="normal" x="560.352" y="0">4379.15 </tspan><tspan x="4.91666" y="39">mcpI</tspan><tspan font-style="normal" x="96.8577" y="39">Part BBa_J61130</tspan><tspan font-style="normal" x="340.13" y="39">253.09 </tspan><tspan font-style="normal" x="566.602" y="39">84.48 </tspan><tspan x="1.5" y="78">mcpA</tspan><tspan font-style="normal" x="99.1077" y="78">Part BBa_J61118</tspan><tspan font-style="normal" x="339.297" y="78">849.96 </tspan><tspan font-style="normal" x="561.935" y="78">680.43 </tspan><tspan x="1.08337" y="117">mcpD</tspan><tspan font-style="normal" x="99.1077" y="117">Part BBa_J61118</tspan><tspan font-style="normal" x="340.38" y="117">365.79 </tspan><tspan font-style="normal" x="562.602" y="117">365.79 </tspan><tspan x="2" y="156">mcpB</tspan><tspan font-style="normal" x="101.524" y="156">Part BBa_J1109</tspan><tspan font-style="normal" x="344.713" y="156">1491.4 </tspan><tspan font-style="normal" x="566.935" y="156">1491.4 </tspan><tspan font-style="normal" font-weight="700" x="-91.3551" y="230">Fig. 2. Comparison </tspan><tspan font-style="normal" font-weight="700" x="62.3116" y="230">of  the  TIR  of  our  construct  with  the  native  </tspan><tspan font-style="normal" font-weight="700" x="427.978" y="230">MccPDI</tspan><tspan font-style="normal" font-weight="700" x="493.812" y="230">cluster  using  </tspan><tspan font-style="normal" font-weight="700" x="607.478" y="230">the </tspan><tspan font-style="normal" font-weight="700" x="641.978" y="230">Salis</tspan><tspan font-style="normal" font-weight="700" x="686.145" y="230">Lab  </tspan><tspan font-style="normal" font-weight="700" x="723.312" y="230">RBS </tspan><tspan font-style="normal" font-weight="700" x="759.978" y="230">Calculator   </tspan></text></g></svg>