<svg width="1194" height="490" xmlns="http://www.w3.org/2000/svg" xmlns:xlink="http://www.w3.org/1999/xlink" overflow="hidden"><defs><clipPath id="clip0"><rect x="63" y="153" width="1194" height="490"/></clipPath></defs><g clip-path="url(#clip0)" transform="translate(-63 -153)"><path d="M247 269.75 302.5 269.75 302.5 238 358 301.5 302.5 365 302.5 333.25 247 333.25Z" fill="#6B7AEB" fill-rule="evenodd"/><text fill="#FFFFFF" font-family="Calibri,Calibri_MSFontService,sans-serif" font-style="italic" font-weight="400" font-size="24" transform="translate(257.646 309)">mcpM</text><path d="M358 273.75 403.5 273.75 403.5 242 449 305.5 403.5 369 403.5 337.25 358 337.25Z" fill="#7AC9EB" fill-rule="evenodd"/><text fill="#FFFFFF" font-family="Calibri,Calibri_MSFontService,sans-serif" font-style="italic" font-weight="400" font-size="24" transform="translate(368.375 313)">mcpI</text><path d="M449 273.75 532.5 273.75 532.5 242 596 305.5 532.5 369 532.5 337.25 449 337.25Z" fill="#92EBB8" fill-rule="evenodd"/><text fill="#FFFFFF" font-family="Calibri,Calibri_MSFontService,sans-serif" font-style="italic" font-weight="400" font-size="24" transform="translate(478.893 313)">mcpA</text><path d="M68 322 68 242.25C68 221.954 84.4535 205.5 104.75 205.5L131 205.5 131 195 152 216 131 237 131 226.5 104.75 226.5C96.0515 226.5 89 233.552 89 242.25L89 322Z" fill-rule="evenodd"/><text font-family="Calibri,Calibri_MSFontService,sans-serif" font-weight="400" font-size="24" transform="translate(78.0816 183)">Promoter</text><rect x="91" y="283" width="154" height="39" fill="#AFABAB"/><text fill="#FFFFFF" font-family="Calibri,Calibri_MSFontService,sans-serif" font-weight="400" font-size="16" transform="translate(114.304 298)">Native promoter <tspan x="5.07333" y="19">region </tspan><tspan font-family="Cambria Math,Cambria Math_MSFontService,sans-serif" x="50.0267" y="19">∼</tspan><tspan x="61.36" y="19">200bp</tspan></text><path d="M596 322 596 242.25C596 221.954 612.454 205.5 632.75 205.5L659 205.5 659 195 680 216 659 237 659 226.5 632.75 226.5C624.052 226.5 617 233.552 617 242.25L617 322Z" fill-rule="evenodd"/><text font-family="Calibri,Calibri_MSFontService,sans-serif" font-weight="400" font-size="24" transform="translate(605.641 183)">Promoter</text><path d="M774 270.75 907.5 270.75 907.5 239 971 302.5 907.5 366 907.5 334.25 774 334.25Z" fill="#E9C592" fill-rule="evenodd"/><text fill="#FFFFFF" font-family="Calibri,Calibri_MSFontService,sans-serif" font-style="italic" font-weight="400" font-size="24" transform="translate(828.437 310)">mcpD</text><path d="M971 269.75 1180.5 269.75 1180.5 238 1244 301.5 1180.5 365 1180.5 333.25 971 333.25Z" fill="#E9E885" fill-rule="evenodd"/><text fill="#FFFFFF" font-family="Calibri,Calibri_MSFontService,sans-serif" font-style="italic" font-weight="400" font-size="24" transform="translate(1064.59 309)">mcpB</text><rect x="618" y="283" width="155" height="39" fill="#AFABAB"/><text fill="#FFFFFF" font-family="Calibri,Calibri_MSFontService,sans-serif" font-weight="400" font-size="16" transform="translate(641.645 298)">Native promoter <tspan x="5.07336" y="19">region </tspan><tspan font-family="Cambria Math,Cambria Math_MSFontService,sans-serif" x="50.0267" y="19">∼</tspan><tspan x="61.36" y="19">100bp</tspan></text><path d="M68.5001 385.667C68.5001 375.081 77.0815 366.5 87.6671 366.5L286.333 366.5C296.919 366.5 305.5 375.081 305.5 385.667L305.5 462.333C305.5 472.919 296.919 481.5 286.333 481.5L87.6671 481.5C77.0815 481.5 68.5001 472.919 68.5001 462.333Z" stroke="#6B7AEB" stroke-width="3" stroke-miterlimit="8" fill="none" fill-rule="evenodd"/><text font-family="Poppins,Poppins_MSFontService,sans-serif" font-style="oblique" font-weight="300" font-size="16" transform="translate(161.367 390)">mcpM<tspan font-style="normal" x="-77.6667" y="19">Encodes</tspan><tspan font-style="normal" x="-4" y="19">the</tspan><tspan font-style="normal" x="28.1667" y="19">microcin</tspan><tspan font-style="normal" x="104.167" y="19">PDI</tspan><tspan font-style="normal" x="-77.6667" y="38">which</tspan><tspan font-style="normal" x="-10.8333" y="38">has</tspan><tspan font-style="normal" x="38.3333" y="38">two</tspan><tspan font-style="normal" x="87.3333" y="38">N</tspan><tspan font-style="normal" x="98.3333" y="38">-</tspan><tspan font-style="normal" x="106.667" y="38">ter</tspan><tspan font-style="normal" x="-77.6667" y="57">signal</tspan><tspan font-style="normal" x="-25.3333" y="57">peptides</tspan><tspan font-style="normal" x="49.6667" y="57">which</tspan><tspan font-style="normal" x="101.5" y="57">are</tspan><tspan font-style="normal" x="-77.6667" y="77">cleaved</tspan><tspan font-style="normal" x="-9.33334" y="77">when</tspan><tspan font-style="normal" x="38.3333" y="77">secreted</tspan></text><path d="M989.5 444.667C989.5 428.559 1002.56 415.5 1018.67 415.5L1226.33 415.5C1242.44 415.5 1255.5 428.559 1255.5 444.667L1255.5 561.333C1255.5 577.441 1242.44 590.5 1226.33 590.5L1018.67 590.5C1002.56 590.5 989.5 577.441 989.5 561.333Z" stroke="#E9E885" stroke-width="3" stroke-miterlimit="8" fill="none" fill-rule="evenodd"/><text font-family="Poppins,Poppins_MSFontService,sans-serif" font-weight="300" font-size="16" transform="translate(1099.98 431)">McpB<tspan x="-93.1666" y="19">Contains</tspan><tspan x="5.83337" y="19">transmembrane</tspan><tspan x="-93.1666" y="38">domains</tspan><tspan x="7.6134" y="38">as</tspan><tspan x="57.0601" y="38">well</tspan><tspan x="117.833" y="38">as</tspan><tspan x="-93.1666" y="57">nucleotide</tspan><tspan x="-1.2533" y="57">binding</tspan><tspan x="66.5" y="57">domains</tspan><tspan x="-93.1666" y="77">which</tspan><tspan x="1.75342" y="77">have</tspan><tspan x="89.6667" y="77">highly</tspan><tspan x="-93.1666" y="96">conserved</tspan><tspan x="87.5" y="96">motifs</tspan><tspan x="-93.1666" y="115">characteristic</tspan><tspan x="32.1667" y="115">of</tspan><tspan x="63.1667" y="115">the</tspan><tspan x="104.5" y="115">ABC</tspan><tspan x="-93.1666" y="134">transporter</tspan><tspan x="12" y="134">superfamily</tspan><tspan x="121.333" y="134">of</tspan><tspan x="-93.1666" y="153">proteins</tspan><tspan font-size="11" x="-28.5" y="148">4</tspan><tspan x="-22" y="153">.</tspan></text><path d="M558.5 390.667C558.5 380.081 567.081 371.5 577.667 371.5L737.333 371.5C747.919 371.5 756.5 380.081 756.5 390.667L756.5 467.333C756.5 477.919 747.919 486.5 737.333 486.5L577.667 486.5C567.081 486.5 558.5 477.919 558.5 467.333Z" stroke="#92EBB8" stroke-width="3" stroke-miterlimit="8" fill="none" fill-rule="evenodd"/><text font-family="Poppins,Poppins_MSFontService,sans-serif" font-style="oblique" font-weight="300" font-size="16" transform="translate(633.465 385)">mcpA<tspan font-style="normal" x="-59.7466" y="19">Encodes</tspan><tspan font-style="normal" x="86.2534" y="19">an</tspan><tspan font-style="normal" x="-59.7466" y="38">activator</tspan><tspan font-style="normal" x="20.5867" y="38">protein</tspan><tspan font-style="normal" x="85.92" y="38">for</tspan><tspan font-style="normal" x="-59.7466" y="57">McpM</tspan><tspan font-style="normal" x="-2.74664" y="57">and</tspan><tspan font-style="normal" x="38.42" y="57">contains</tspan><tspan font-style="normal" x="-59.7466" y="77">a</tspan><tspan font-style="normal" x="-28.3267" y="77">CaaX</tspan><tspan font-style="normal" x="35.5867" y="77">protease</tspan><tspan font-style="normal" x="-59.7466" y="96">domain</tspan></text><path d="M314.5 389.334C314.5 378.932 322.932 370.5 333.334 370.5L532.666 370.5C543.068 370.5 551.5 378.932 551.5 389.334L551.5 464.666C551.5 475.068 543.068 483.5 532.666 483.5L333.334 483.5C322.932 483.5 314.5 475.068 314.5 464.666Z" stroke="#7AC9EB" stroke-width="3" stroke-miterlimit="8" fill="none" fill-rule="evenodd"/><text font-family="Poppins,Poppins_MSFontService,sans-serif" font-style="oblique" font-weight="300" font-size="16" transform="translate(411.986 403)">mcpI<tspan font-style="normal" x="-82.6667" y="19">Encodes</tspan><tspan font-style="normal" x="3.75336" y="19">the</tspan><tspan font-style="normal" x="48.6667" y="19">immunity</tspan><tspan font-style="normal" x="-82.6667" y="38">protein</tspan><tspan font-style="normal" x="-13.9133" y="38">of</tspan><tspan font-style="normal" x="13.84" y="38">McpI</tspan><tspan font-style="normal" x="63.92" y="38">for</tspan><tspan font-style="normal" x="97.5" y="38">the</tspan><tspan font-style="normal" x="-82.6667" y="57">producing</tspan><tspan font-style="normal" x="4.16669" y="57">strain</tspan></text><path d="M768.5 436.667C768.5 424.977 777.977 415.5 789.667 415.5L957.333 415.5C969.023 415.5 978.5 424.977 978.5 436.667L978.5 521.333C978.5 533.023 969.023 542.5 957.333 542.5L789.667 542.5C777.977 542.5 768.5 533.023 768.5 521.333Z" stroke="#E9C592" stroke-width="3" stroke-miterlimit="8" fill="none" fill-rule="evenodd"/><text font-family="Poppins,Poppins_MSFontService,sans-serif" font-weight="300" font-size="16" transform="translate(850.507 436)">McpD<tspan x="-66.2466" y="19">Acts</tspan><tspan x="-24.1933" y="19">as</tspan><tspan x="2.69336" y="19">a</tspan><tspan x="21.42" y="19">membrane</tspan><tspan x="-66.2466" y="38">fusion</tspan><tspan x="55.2534" y="38">protein</tspan><tspan x="-66.2466" y="57">creating</tspan><tspan x="18.34" y="57">a</tspan><tspan x="46.92" y="57">channel</tspan><tspan x="-66.2466" y="77">through</tspan><tspan x="1.33331" y="77">the</tspan><tspan x="31.5867" y="77">periplasm</tspan><tspan x="-66.2466" y="96">and</tspan><tspan x="-30.08" y="96">connects</tspan><tspan x="48.42" y="96">to</tspan><tspan x="68.7534" y="96">TolC</tspan><tspan x="103.42" y="96">.</tspan><tspan font-size="15" x="-74.2961" y="-54">Encode homologs of the </tspan><tspan font-size="15" x="106.537" y="-54">HlyB</tspan><tspan font-size="15" x="140.704" y="-54">and </tspan><tspan font-size="15" x="173.704" y="-54">HlyD</tspan><tspan font-size="15" x="209.371" y="-54">proteins of type I </tspan><tspan font-size="15" x="-74.2961" y="-36">secretion system that interact with </tspan><tspan font-size="15" x="181.037" y="-36">TolC</tspan><tspan font-size="15" x="216.704" y="-36">(chromosomally </tspan><tspan font-size="15" x="-74.2961" y="-18">encoded)</tspan><tspan font-style="oblique" x="-429.893" y="192">Figure 1: Native </tspan><tspan font-style="oblique" x="-310.893" y="192">MccPDI</tspan><tspan font-style="oblique" x="-249.393" y="192">gene cluster found in E. coli 25</tspan></text></g></svg>