<svg width="1203" height="541" xmlns="http://www.w3.org/2000/svg" xmlns:xlink="http://www.w3.org/1999/xlink" overflow="hidden"><defs><clipPath id="clip0"><rect x="34" y="78" width="1203" height="541"/></clipPath></defs><g clip-path="url(#clip0)" transform="translate(-34 -78)"><path d="M214 204.75 320.5 204.75 320.5 173 384 236.5 320.5 300 320.5 268.25 214 268.25Z" fill="#A9D18E" fill-rule="evenodd"/><text fill="#FFFFFF" font-family="Calibri,Calibri_MSFontService,sans-serif" font-style="italic" font-weight="400" font-size="24" transform="translate(231.276 244)">Lpp<tspan x="34.8333" y="0">-</tspan><tspan x="42.1667" y="0">OmpA</tspan></text><path d="M535 426.75 641.5 426.75 641.5 395 705 458.5 641.5 522 641.5 490.25 535 490.25Z" fill="#7AC9EB" fill-rule="evenodd"/><text fill="#FFFFFF" font-family="Calibri,Calibri_MSFontService,sans-serif" font-style="italic" font-weight="400" font-size="24" transform="translate(545.797 466)">T4<tspan x="23.8334" y="0">-</tspan><tspan x="31.1667" y="0">LTF gp38</tspan></text><path d="M734 432.5 856 432.5 856 401 919 464 856 527 856 495.5 734 495.5Z" fill="#92EBB8" fill-rule="evenodd"/><text fill="#FFFFFF" font-family="Calibri,Calibri_MSFontService,sans-serif" font-style="italic" font-weight="400" font-size="24" transform="translate(745.429 472)">T4<tspan x="23.8333" y="0">-</tspan><tspan x="31.1667" y="0">LTF gp57A</tspan></text><path d="M47 270 47 190.25C47 169.954 63.4535 153.5 83.75 153.5L110 153.5 110 143 131 164 110 185 110 174.5 83.75 174.5C75.0515 174.5 68 181.552 68 190.25L68 270Z" fill-rule="evenodd"/><text font-family="Calibri,Calibri_MSFontService,sans-serif" font-weight="400" font-size="24" transform="translate(49.3324 108)">Promoter Strong</text><path d="M109.017 268.052C103.401 241.968 120.973 216.951 148.265 212.175 175.557 207.399 202.234 224.672 207.85 250.756 209.21 257.074 209.231 263.559 207.91 269.828Z" fill="#DBDBDB" fill-rule="evenodd"/><text font-family="Calibri,Calibri_MSFontService,sans-serif" font-weight="400" font-size="16" transform="translate(123.625 186)">RBS_Strong<tspan x="0.286667" y="19">BBa_B0030</tspan></text><path d="M432.85 490.578C426.447 464.676 443.254 439.138 470.389 433.538 497.524 427.938 524.711 444.396 531.115 470.298 532.665 476.571 532.882 483.053 531.752 489.359Z" fill="#DBDBDB" fill-rule="evenodd"/><text font-family="Calibri,Calibri_MSFontService,sans-serif" font-weight="400" font-size="24" transform="translate(458.823 398)">RBS<tspan font-size="16" x="-18.6667" y="22">BBa_B0032</tspan></text><rect x="929" y="430" width="12" height="59" fill="#8497B0"/><rect x="903" y="426" width="64" height="12" fill="#8497B0"/><text font-family="Calibri,Calibri_MSFontService,sans-serif" font-weight="400" font-size="24" transform="translate(876.555 387)">Terminator<tspan font-size="16" x="17" y="22">BBa_B1005</tspan></text><path d="M558 239.5C558 218.237 575.237 201 596.5 201 617.763 201 635 218.237 635 239.5 635 260.763 617.763 278 596.5 278 575.237 278 558 260.763 558 239.5Z" fill="#8FAADC" fill-rule="evenodd"/><text fill="#FFFFFF" font-family="Calibri,Calibri_MSFontService,sans-serif" font-weight="400" font-size="24" transform="translate(581.47 247)">His</text><path d="M387 235.5 430 193 473 235.5 430 278Z" fill="#FFD966" fill-rule="evenodd"/><text fill="#FFFFFF" font-family="Calibri,Calibri_MSFontService,sans-serif" font-weight="400" font-size="27" transform="translate(399.673 241)">Linker</text><rect x="472" y="215" width="82" height="51"/><text fill="#FFFFFF" font-family="Calibri,Calibri_MSFontService,sans-serif" font-weight="400" font-size="24" transform="translate(494.609 233)">TEV <tspan x="1.21332" y="29">site</tspan></text><path d="M639 208.75 745.5 208.75 745.5 177 809 240.5 745.5 304 745.5 272.25 639 272.25Z" fill="#FF2600" fill-rule="evenodd" fill-opacity="0.709804"/><text fill="#FFFFFF" font-family="Calibri,Calibri_MSFontService,sans-serif" font-style="italic" font-weight="400" font-size="24" transform="translate(680.196 248)">mRFP</text><path d="M812 240.5 854.5 198 897 240.5 854.5 283Z" fill="#FFD966" fill-rule="evenodd"/><text fill="#FFFFFF" font-family="Calibri,Calibri_MSFontService,sans-serif" font-weight="400" font-size="27" transform="translate(824.322 246)">Linker</text><path d="M900 208.75 1006.5 208.75 1006.5 177 1070 240.5 1006.5 304 1006.5 272.25 900 272.25Z" fill="#D883FF" fill-rule="evenodd" fill-opacity="0.45098"/><text fill="#FFFFFF" font-family="Calibri,Calibri_MSFontService,sans-serif" font-style="italic" font-weight="400" font-size="24" transform="translate(911.32 248)">T4<tspan x="23.8333" y="0">-</tspan><tspan x="31.1666" y="0">LTF gp37</tspan></text><rect x="1091" y="215" width="13" height="59" fill="#8497B0"/><rect x="1065" y="211" width="64" height="12" fill="#8497B0"/><rect x="1157" y="215" width="13" height="59" fill="#8497B0"/><rect x="1131" y="211" width="64" height="12" fill="#8497B0"/><text font-family="Calibri,Calibri_MSFontService,sans-serif" font-weight="400" font-size="24" transform="translate(1038.81 172)">Double Terminator<tspan font-size="16" x="53.5" y="22">BBa_B0015 </tspan></text><path d="M362 490 362 411.25C362 390.954 378.454 374.5 398.75 374.5L425 374.5 425 364 446 385 425 406 425 395.5 398.75 395.5C390.052 395.5 383 402.552 383 411.25L383 490Z" fill-rule="evenodd"/><text font-family="Calibri,Calibri_MSFontService,sans-serif" font-weight="400" font-size="24" transform="translate(321.147 328)">Promoter Medium<tspan font-size="16" x="49.0933" y="22">BBa_J23107 </tspan><tspan font-size="16" x="-103.599" y="-132">BBa_K1694002</tspan><tspan font-size="16" x="57.7722" y="-144">BBa_K243004</tspan><tspan font-size="16" x="333.842" y="-124">BBa_E1010</tspan><tspan font-size="16" x="485.152" y="-140">BBa_K243004</tspan><tspan font-size="19" x="-271.299" y="-194">BBa_J23104</tspan><tspan font-size="16" x="156.252" y="-129">BBa_J18918</tspan><tspan font-size="16" x="231.307" y="-171">10x</tspan><tspan font-size="16" x="254.64" y="-171">-</tspan><tspan font-size="16" x="259.473" y="-171">Histidine </tspan><tspan font-size="16" x="225.8" y="-152">(BBa_K844000)</tspan><tspan font-family="Poppins,Poppins_MSFontService,sans-serif" font-style="oblique" font-weight="300" font-size="16" x="-176.954" y="252">Figure 3: Our </tspan><tspan font-family="Poppins,Poppins_MSFontService,sans-serif" font-style="oblique" font-weight="300" font-size="16" x="-74.6207" y="252">constructs</tspan><tspan font-family="Poppins,Poppins_MSFontService,sans-serif" font-style="oblique" font-weight="300" font-size="16" x="13.546" y="252">for the expression and </tspan><tspan font-family="Poppins,Poppins_MSFontService,sans-serif" font-style="oblique" font-weight="300" font-size="16" x="194.379" y="252">localization</tspan><tspan font-family="Poppins,Poppins_MSFontService,sans-serif" font-style="oblique" font-weight="300" font-size="16" x="288.379" y="252">of the T4 </tspan><tspan font-family="Poppins,Poppins_MSFontService,sans-serif" font-style="oblique" font-weight="300" font-size="16" x="360.879" y="252">bacteriophage</tspan><tspan font-family="Poppins,Poppins_MSFontService,sans-serif" font-style="oblique" font-weight="300" font-size="16" x="484.879" y="252">gp37 to the </tspan><tspan font-family="Poppins,Poppins_MSFontService,sans-serif" font-style="oblique" font-weight="300" font-size="16" x="579.213" y="252">outer</tspan><tspan font-family="Poppins,Poppins_MSFontService,sans-serif" font-style="oblique" font-weight="300" font-size="16" x="625.546" y="252">membrane of </tspan><tspan font-family="Poppins,Poppins_MSFontService,sans-serif" font-style="oblique" font-weight="300" font-size="16" x="740.046" y="252">our</tspan><tspan font-family="Poppins,Poppins_MSFontService,sans-serif" font-style="oblique" font-weight="300" font-size="16" x="770.713" y="252">chassis</tspan></text></g></svg>