<svg xmlns="http://www.w3.org/2000/svg" viewBox="0 0 191.79 280.19"><defs><style>.cls-1{fill:none;stroke:#1d1d1b;stroke-linecap:round;stroke-miterlimit:10;stroke-width:10px;}.cls-2{fill:#8d1f24;}</style></defs><g id="Calque_2" data-name="Calque 2"><g id="Calque_1-2" data-name="Calque 1"><line class="cls-1" x1="15.77" y1="108.9" x2="40.78" y2="108.9"/><line class="cls-1" x1="15.77" y1="89.86" x2="32.9" y2="89.86"/><line class="cls-1" x1="15.77" y1="70.81" x2="40.78" y2="70.81"/><line class="cls-1" x1="15.77" y1="32.71" x2="40.78" y2="32.71"/><line class="cls-1" x1="15.77" y1="51.76" x2="32.9" y2="51.76"/><path class="cls-1" d="M5,15.66v6.41A10.55,10.55,0,0,0,15.43,32.73h0V239.65c0,19.63,15.57,35.54,34.78,35.54h0c19.21,0,34.78-15.91,34.78-35.54V32.73h0A10.55,10.55,0,0,0,95.42,22.07V15.66A10.55,10.55,0,0,0,85,5H15.43A10.55,10.55,0,0,0,5,15.66Z"/><line class="cls-1" x1="127.24" y1="93.92" x2="145.94" y2="93.92"/><path class="cls-1" d="M119.19,81.17V86a7.88,7.88,0,0,0,7.8,8h0V248.62c0,14.68,11.64,26.57,26,26.57h0c14.36,0,26-11.89,26-26.57V93.93h0a7.88,7.88,0,0,0,7.8-8v-4.8a7.88,7.88,0,0,0-7.8-8H127A7.88,7.88,0,0,0,119.19,81.17Z"/><path class="cls-2" d="M139.44,172v76.62a13.55,13.55,0,1,0,27.1,0V165.13a32.56,32.56,0,0,1-27.1,6.87Z"/></g></g></svg>