<svg xmlns="http://www.w3.org/2000/svg" viewBox="0 0 242.79 335.19"><defs><style>.cls-1{fill:none;stroke:#1d1d1b;stroke-linecap:round;stroke-miterlimit:10;stroke-width:3px;}.cls-2{fill:#8d1f24;}</style></defs><g id="Calque_2" data-name="Calque 2"><g id="Calque_1-2" data-name="Calque 1"><line class="cls-1" x1="15.7" y1="129.25" x2="48.7" y2="129.25"/><line class="cls-1" x1="15.7" y1="105.83" x2="38.31" y2="105.83"/><line class="cls-1" x1="15.7" y1="82.41" x2="48.7" y2="82.41"/><line class="cls-1" x1="15.7" y1="35.57" x2="48.7" y2="35.57"/><line class="cls-1" x1="15.7" y1="58.99" x2="38.31" y2="58.99"/><path class="cls-1" d="M1.5,14.6v7.89c0,7.23,6.16,13.1,13.75,13.1h0V290c0,24.14,20.55,43.7,45.89,43.7h0c25.33,0,45.88-19.56,45.88-43.7V35.59h0c7.59,0,13.75-5.87,13.75-13.1V14.6c0-7.23-6.16-13.1-13.75-13.1H15.25C7.66,1.5,1.5,7.37,1.5,14.6Z"/><line class="cls-1" x1="162.75" y1="110.83" x2="187.41" y2="110.83"/><path class="cls-1" d="M152.13,95.15v5.9a10,10,0,0,0,10.28,9.79h0V301c0,18.05,15.36,32.67,34.3,32.67h0c18.94,0,34.3-14.62,34.3-32.67V110.84h0a10,10,0,0,0,10.28-9.79v-5.9A10,10,0,0,0,231,85.36h-68.6A10,10,0,0,0,152.13,95.15Z"/><path class="cls-2" d="M178.84,206.82V301c0,9.39,8,17,17.87,17s17.87-7.63,17.87-17V198.37a45,45,0,0,1-27.46,9.22A46,46,0,0,1,178.84,206.82Z"/></g></g></svg>