<svg id="Calque_1" data-name="Calque 1" xmlns="http://www.w3.org/2000/svg" viewBox="0 0 291 230"><defs><style>.cls-1{fill:#e73327;}.cls-2{fill:none;stroke:#1d1d1b;stroke-linecap:round;stroke-linejoin:round;stroke-width:3.61px;}</style></defs><path class="cls-1" d="M177.36,158.18,157.71,128c-12.66-1.68-9.49,7.5-24.63,0l-19.66,30.19a8.6,8.6,0,0,0,7.21,13.29h49.53A8.6,8.6,0,0,0,177.36,158.18Z"/><path class="cls-2" d="M128.11,76.31v44.38l-27.59,42.38a12.06,12.06,0,0,0,10.12,18.65h69.51a12.07,12.07,0,0,0,10.12-18.65l-27.6-42.38V70.91"/><path class="cls-2" d="M164,65.1H126.09a5.82,5.82,0,0,1-5.81-5.81h0a5.82,5.82,0,0,1,5.81-5.8H164a5.82,5.82,0,0,1,5.81,5.8h0A5.82,5.82,0,0,1,164,65.1Z"/><line class="cls-2" x1="135.71" y1="88.39" x2="143.74" y2="88.39"/><line class="cls-2" x1="135.71" y1="98.14" x2="143.74" y2="98.14"/><line class="cls-2" x1="135.71" y1="107.9" x2="143.74" y2="107.9"/><path class="cls-2" d="M141.72,157.42a7.21,7.21,0,1,1-7.21-7.21A7.21,7.21,0,0,1,141.72,157.42Z"/><circle class="cls-2" cx="150.15" cy="144.13" r="4.75"/></svg>