<svg id="Calque_1" data-name="Calque 1" xmlns="http://www.w3.org/2000/svg" viewBox="0 0 1920 1080"><defs><style>.cls-1{fill:none;stroke:#1d1d1b;stroke-linecap:round;stroke-miterlimit:10;stroke-width:3px;}.cls-2{fill:#90252a;}</style></defs><line class="cls-1" x1="921.22" y1="525.65" x2="933.27" y2="525.65"/><line class="cls-1" x1="921.22" y1="516.67" x2="929.47" y2="516.67"/><line class="cls-1" x1="921.22" y1="507.69" x2="933.27" y2="507.69"/><line class="cls-1" x1="921.22" y1="489.73" x2="933.27" y2="489.73"/><line class="cls-1" x1="921.22" y1="498.71" x2="929.47" y2="498.71"/><path class="cls-1" d="M916,481.69v3a5,5,0,0,0,5,5h0v97.55a16.76,16.76,0,0,0,16.76,16.76h0a16.76,16.76,0,0,0,16.76-16.76V489.74h0a5,5,0,0,0,5-5v-3a5,5,0,0,0-5-5H921.05A5,5,0,0,0,916,481.69Z"/><line class="cls-1" x1="974.92" y1="518.59" x2="983.93" y2="518.59"/><path class="cls-1" d="M971,512.58v2.26a3.77,3.77,0,0,0,3.76,3.76h0v72.92a12.53,12.53,0,0,0,12.53,12.53h0a12.52,12.52,0,0,0,12.52-12.53V518.6h0a3.76,3.76,0,0,0,3.76-3.76v-2.26a3.76,3.76,0,0,0-3.76-3.76H974.8A3.77,3.77,0,0,0,971,512.58Z"/><path class="cls-2" d="M980.8,555.4v36.12a6.53,6.53,0,1,0,13.05,0V552.16a16,16,0,0,1-13.05,3.24Z"/></svg>