<svg id="Calque_1" data-name="Calque 1" xmlns="http://www.w3.org/2000/svg" viewBox="0 0 1327 1593"><defs><style>.cls-1,.cls-2,.cls-20,.cls-21,.cls-24,.cls-3,.cls-30,.cls-31,.cls-32,.cls-4,.cls-43,.cls-7{fill:none;}.cls-1{stroke:#f6d2d0;}.cls-1,.cls-15,.cls-2,.cls-20,.cls-21,.cls-22,.cls-23,.cls-24,.cls-3,.cls-30,.cls-31,.cls-32,.cls-37,.cls-38,.cls-4,.cls-43,.cls-7,.cls-8{stroke-miterlimit:10;}.cls-1,.cls-2,.cls-38,.cls-4,.cls-43{stroke-width:9px;}.cls-2{stroke:#e73327;}.cls-15,.cls-20,.cls-23,.cls-3,.cls-38,.cls-4,.cls-7,.cls-8{stroke:#1d1d1b;}.cls-3,.cls-37{stroke-width:7px;}.cls-15,.cls-37,.cls-41,.cls-42,.cls-5,.cls-8{fill:#1d1d1b;}.cls-16,.cls-6{fill:#e73327;}.cls-31,.cls-32,.cls-7{stroke-width:5px;}.cls-20,.cls-30,.cls-8{stroke-width:4px;}.cls-9{font-size:30.76px;}.cls-10,.cls-11,.cls-22,.cls-23,.cls-9{fill:#fff;}.cls-11,.cls-9{font-family:ArialRoundedMTBold, Arial Rounded MT Bold;}.cls-11{font-size:16.87px;}.cls-12{letter-spacing:-0.05em;}.cls-13{letter-spacing:0em;}.cls-14{letter-spacing:-0.01em;}.cls-15,.cls-23{stroke-width:3px;}.cls-16,.cls-26{font-size:26px;}.cls-16,.cls-26,.cls-40{font-family:Poppins-Light, Poppins;font-weight:300;}.cls-17,.cls-18,.cls-19,.cls-27{fill:#333;}.cls-17{letter-spacing:0em;}.cls-18{font-family:Poppins-LightItalic, Poppins;font-style:italic;letter-spacing:0em;}.cls-21{stroke:#f0f;}.cls-22,.cls-37{stroke:#333;}.cls-24,.cls-43{stroke:#8d1f24;}.cls-24{stroke-width:29px;}.cls-25,.cls-26{fill:#8d1f24;}.cls-27{letter-spacing:0em;}.cls-28{fill:#ad1457;}.cls-29{fill:#880e4f;}.cls-30,.cls-31{stroke:#ed1e79;}.cls-32{stroke:#9e005d;}.cls-33{fill:#9e005d;}.cls-34{fill:#ed1e79;}.cls-35{fill:#f1c40f;}.cls-36{fill:#f48fb1;}.cls-38,.cls-39,.cls-40{fill:#f6d2d0;}.cls-40{font-size:27px;}.cls-41{letter-spacing:0em;}.cls-42{font-size:28.81px;letter-spacing:0em;}</style></defs><path class="cls-1" d="M641.55,1402.63c-12.95-1.47-26.63-5.23-31-15-5.12-11.46,5.87-23.83,0-32-3-4.19-10.34-7.11-28-4"/><path class="cls-2" d="M1164.55,284c-13-1.47-26.63-5.22-31-15-5.12-11.46,5.87-23.83,0-32-3-4.18-10.34-7.1-28-4"/><path class="cls-3" d="M343,309.78h0c-42.29.5-76-35.17-75.24-79.67l.68-40.93c.73-44.5,35.61-81,77.89-81.47h0c42.29-.5,76,35.17,75.24,79.67l-.67,40.93C420.16,272.81,385.29,309.29,343,309.78Z"/><path class="cls-4" d="M334.34,177.69c.41,6,4.27,11.23,8.79,12,6.05,1.07,11.74-5.05,12.23-14.09"/><path class="cls-5" d="M313.91,326.62h0a5.77,5.77,0,0,1-5.34-6.35l1.05-15.06,11.53.55-1,15.06A6.11,6.11,0,0,1,313.91,326.62Z"/><path class="cls-5" d="M330,330.72h0a5.78,5.78,0,0,1-5.34-6.35l1.06-15.06,11.53.55-1.06,15.06A6.09,6.09,0,0,1,330,330.72Z"/><path class="cls-5" d="M348.79,330.37h0a5.64,5.64,0,0,1-6.45-5.09l-1.79-14.9L352,308.52l1.79,14.91A6.25,6.25,0,0,1,348.79,330.37Z"/><path class="cls-5" d="M361.73,327.37h0A5.77,5.77,0,0,1,356.4,321L357.45,306l11.53.55-1.06,15.07A6.1,6.1,0,0,1,361.73,327.37Z"/><path class="cls-5" d="M378.82,323.33h0a5.65,5.65,0,0,1-6.46-5.08l-1.78-14.9,11.47-1.86,1.78,14.9A6.23,6.23,0,0,1,378.82,323.33Z"/><path class="cls-6" d="M783.09,297.27c-.92,1.7-2.57,2-3.67.61l-47.67-58.31-30.31,19.77c-1,.63-2.1,0-2.5-1.49l-.54-1.92a3.58,3.58,0,0,1,1-3.79l31.4-20.48a1.27,1.27,0,0,1,1-.2.9.9,0,0,1,.32-.09,2,2,0,0,1,1.91.83l48.69,59.56A5.34,5.34,0,0,1,783.09,297.27Z"/><path class="cls-6" d="M562.89,283c.62,1.84,2.17,2.38,3.49,1.21L623,234.09l26.22,24.66c.84.79,2.05.31,2.69-1.07l.86-1.83a3.64,3.64,0,0,0-.36-3.93l-27.17-25.54a1.23,1.23,0,0,0-.94-.37,1.05,1.05,0,0,0-.3-.15,2,2,0,0,0-2,.52l-57.78,51.23A5.51,5.51,0,0,0,562.89,283Z"/><ellipse class="cls-7" cx="669.36" cy="280.25" rx="21.61" ry="24.8"/><path class="cls-8" d="M673.23,280.2h-2c-6.84,0-12.39-6-12.39-13.49,8.16-19.1,6.1-42.82,0-68.36,0-7.45,5.55-13.48,12.39-13.48h2c6.84,0,12.39,6,12.39,13.48,3.91,25.37,5.11,49,0,68.36C685.62,274.16,680.07,280.2,673.23,280.2Z"/><path class="cls-7" d="M710,144.19l-27.33,28a18,18,0,0,1-18.37,4.6l-34.49-11a18,18,0,0,1-12.17-13.35l-8.87-40.71a18,18,0,0,1,4.71-16.44l27.32-28a18,18,0,0,1,18.37-4.59l34.5,11A18,18,0,0,1,705.83,87l8.88,40.71A18.06,18.06,0,0,1,710,144.19Z"/><path class="cls-5" d="M657.2,156.1l-29.83-41.56a13.3,13.3,0,0,1,7.46-20.64l38.86-10.13A13.31,13.31,0,0,1,690.16,99l-9,51.68A13.31,13.31,0,0,1,657.2,156.1Z"/><rect class="cls-5" x="473.58" y="192.02" width="30.66" height="78.88" rx="15.25"/><rect class="cls-5" x="448.88" y="216.44" width="79.92" height="30.26" rx="15.13"/><rect class="cls-5" x="819.46" y="185.21" width="79.92" height="30.26" rx="15.13"/><rect class="cls-5" x="819.47" y="239.78" width="79.92" height="30.26" rx="15.13"/><text class="cls-9" transform="translate(520.53 22.26) scale(1.01 1)">STEP 1</text><rect class="cls-10" x="792.29" y="344.34" width="8.92" height="85.39" rx="2.26" transform="translate(1183.78 -409.71) rotate(90)"/><text class="cls-11" transform="translate(623 391.03) scale(1.01 1)">Long <tspan class="cls-12" x="45.33" y="0">T</tspan><tspan class="cls-13" x="55.03" y="0">ail </tspan><tspan class="cls-14" x="78.41" y="0">F</tspan><tspan x="88.38" y="0">iber</tspan></text><polygon class="cls-10" points="302.61 72.67 279.01 43.37 304.06 35.27 302.61 72.67"/><path class="cls-15" d="M319.75,151.28c5.41,0,10,2.85,11.32,6.72a7.29,7.29,0,0,0,.43-2.42c0-5.05-5.26-9.14-11.75-9.14S308,150.53,308,155.58a7.29,7.29,0,0,0,.43,2.42C309.79,154.13,314.34,151.28,319.75,151.28Z"/><path class="cls-15" d="M371.89,151.11c4.66,0,8.57,2.77,9.74,6.53a8,8,0,0,0,.37-2.35c0-4.9-4.52-8.88-10.11-8.88s-10.1,4-10.1,8.88a7.7,7.7,0,0,0,.37,2.35C363.33,153.88,367.24,151.11,371.89,151.11Z"/><path class="cls-6" d="M787.33,240.14c-.36,1.9-1.84,2.66-3.31,1.7l-63.23-40.92L698,229c-.73.9-2,.61-2.83-.65l-1.1-1.67a3.56,3.56,0,0,1-.18-3.92l23.63-29.11a1.29,1.29,0,0,1,.89-.5,1.34,1.34,0,0,1,.28-.18,2,2,0,0,1,2.07.21L785.32,235A5.36,5.36,0,0,1,787.33,240.14Z"/><path class="cls-6" d="M559.45,236.14c.36,1.9,1.84,2.66,3.31,1.7L626,196.92,648.79,225c.74.9,2,.61,2.84-.65l1.1-1.67a3.58,3.58,0,0,0,.17-3.92l-23.62-29.11a1.31,1.31,0,0,0-.89-.5,1.34,1.34,0,0,0-.28-.18,2,2,0,0,0-2.07.21L561.46,231A5.36,5.36,0,0,0,559.45,236.14Z"/><path class="cls-2" d="M1165,131.47c-13,1.48-26.64,5.23-31,15-5.13,11.47,5.87,23.84,0,32-3,4.19-10.34,7.11-28,4"/><text class="cls-16" transform="translate(96.7 418.91)">Step one:<tspan class="cls-17" x="119.1" y="0" xml:space="preserve"> manage to insert and direct bacteriophage T4 LTFs into </tspan><tspan class="cls-18" x="846.65" y="0">E.coli</tspan><tspan class="cls-19" x="909" y="0" xml:space="preserve">’s outer  membranes.</tspan></text><ellipse class="cls-5" cx="720.56" cy="715.18" rx="17.17" ry="15.89"/><ellipse class="cls-5" cx="716" cy="765.3" rx="19.8" ry="18.32"/><ellipse class="cls-5" cx="898.33" cy="746.78" rx="29.39" ry="26.14"/><ellipse class="cls-5" cx="899.72" cy="672.05" rx="19.8" ry="18.32"/><ellipse class="cls-5" cx="725.32" cy="650.47" rx="19.8" ry="18.32"/><ellipse class="cls-5" cx="776.21" cy="611.33" rx="33.84" ry="31.32"/><ellipse class="cls-5" cx="866.18" cy="612.61" rx="19.8" ry="18.32"/><rect class="cls-5" x="720.77" y="597.64" width="177.56" height="253.1" rx="80.34" transform="translate(1619.1 1448.38) rotate(180)"/><rect class="cls-10" x="735.79" y="612.61" width="147.52" height="230" rx="69.54" transform="translate(1619.1 1455.22) rotate(-180)"/><rect class="cls-20" x="745.08" y="625.48" width="128.87" height="207.61" rx="60.75" transform="translate(1619.02 1458.56) rotate(180)"/><line class="cls-21" x1="874.62" y1="771.65" x2="874.62" y2="771.65"/><rect class="cls-8" x="793.04" y="678.28" width="35.22" height="56.29" rx="16.6" transform="translate(1621.3 1412.84) rotate(-180)"/><path class="cls-10" d="M814.94,698.77l8.27-12.29c-2.08-2-4.28-5.85-8.13-4.09Z"/><path class="cls-22" d="M806.21,698.77l-8.27-12.29c2.08-2,4.28-5.85,8.13-4.09Z"/><ellipse class="cls-23" cx="845.09" cy="680.85" rx="14.37" ry="5.39"/><ellipse class="cls-23" cx="771.65" cy="675.46" rx="14.37" ry="7.94"/><path class="cls-7" d="M855.49,672.09c-1.12,1.44-7.34,2.83-13.92,3.26-5.08.33-9.8,0-12.08-.7"/><path class="cls-7" d="M858,688.51c-1.12-1.43-7.35-2.82-13.92-3.25-5.08-.33-9.8,0-12.08.7"/><path class="cls-7" d="M788.74,670.52c-1.74.94-8.42-.16-15-2.33-5.07-1.67-9.53-3.8-11.39-5.42"/><path class="cls-7" d="M784.48,687.39c-1.08-2.83-7.59-5.21-14.56-5.62-5.38-.31-10.43.58-12.92,2.26"/><ellipse class="cls-5" cx="829.28" cy="674.34" rx="3.07" ry="2.61"/><ellipse class="cls-5" cx="856.57" cy="671.57" rx="3.07" ry="2.61"/><ellipse class="cls-5" cx="857.57" cy="688.57" rx="3.07" ry="2.61"/><ellipse class="cls-5" cx="832.57" cy="685.57" rx="3.07" ry="2.61"/><ellipse class="cls-5" cx="784.57" cy="686.57" rx="3.07" ry="2.61"/><ellipse class="cls-5" cx="758.57" cy="683.57" rx="3.07" ry="2.61"/><ellipse class="cls-5" cx="788.57" cy="670.57" rx="3.07" ry="2.61"/><ellipse class="cls-5" cx="763.57" cy="663.57" rx="3.07" ry="2.61"/><ellipse class="cls-24" cx="808.44" cy="708.5" rx="189.16" ry="189"/><rect class="cls-25" x="772.56" y="893.16" width="84.5" height="24.67" rx="9.74" transform="translate(1720.3 90.68) rotate(90)"/><rect class="cls-25" x="766.48" y="506.34" width="84.5" height="24.67" rx="9.74" transform="translate(1327.4 -290.06) rotate(90)"/><rect class="cls-25" x="571.48" y="690.34" width="84.5" height="24.67" rx="9.74"/><rect class="cls-25" x="960.48" y="690.34" width="84.5" height="24.67" rx="9.74"/><text class="cls-26" transform="translate(122.85 1041.75) rotate(0.06) scale(1.04 1)">Step two:<tspan class="cls-27" x="116.92" y="0" xml:space="preserve"> trigger the recognition and bind the target pathogenic bacteria.</tspan></text><ellipse class="cls-19" cx="900.53" cy="1305.33" rx="15.89" ry="17.17" transform="translate(-474.47 2095.4) rotate(-85.28)"/><ellipse class="cls-19" cx="900.96" cy="1355.66" rx="18.32" ry="19.8" transform="translate(-524.24 2142.01) rotate(-85.28)"/><ellipse class="cls-19" cx="665.95" cy="1361.79" rx="29.39" ry="26.14" transform="translate(-343.21 230.61) rotate(-15.68)"/><ellipse class="cls-19" cx="644.42" cy="1290.21" rx="19.8" ry="18.32" transform="translate(-324.67 222.13) rotate(-15.68)"/><ellipse class="cls-19" cx="901.12" cy="1240.45" rx="18.32" ry="19.8" transform="translate(-409.28 2036.43) rotate(-85.28)"/><ellipse class="cls-19" cx="853.63" cy="1197.26" rx="31.32" ry="33.84" transform="translate(-409.82 1949.47) rotate(-85.28)"/><ellipse class="cls-19" cx="660.65" cy="1223.92" rx="19.8" ry="18.32" transform="translate(-306.15 224.05) rotate(-15.68)"/><path class="cls-19" d="M784.91,1340.85c2.72-20.84,18.07-36.63,27.61-54.91,7.3-15.45,12.68-32.07,9-48.42-4.18-19.47-10.41-38.44-12.84-57.58,1.46,0,2.94.12,4.42.24l16.82,1.39a80.34,80.34,0,0,1,73.46,86.68l-7.6,92.1a80.34,80.34,0,0,1-84.88,73.56C794.22,1405.29,778.91,1374.74,784.91,1340.85Z"/><path class="cls-19" d="M698.78,1197.81c9,17.09,21.39,32.7,32.1,49.48,9.14,14.06,9.88,31.51,8.43,48.53-2.57,20.46-11.45,40.61-6.74,61.1,6.19,33.85,31.19,57.15,56.81,78.15-.58.18-1.15.37-1.73.54l-16.26,4.56a80.34,80.34,0,0,1-99.06-55.64l-25-89A80.33,80.33,0,0,1,698.78,1197.81Z"/><path class="cls-5" d="M784.91,1340.85c2.72-20.84,18.07-36.63,27.61-54.91,7.3-15.45,12.68-32.07,9-48.42-3.07-14.28-7.23-28.29-10.2-42.29,1.58,0,3.16.08,4.76.21l8.4.7a69.54,69.54,0,0,1,63.59,75l-7.48,90.6A69.55,69.55,0,0,1,806,1425.38C791.41,1399.23,779.5,1371.4,784.91,1340.85Z"/><path class="cls-5" d="M706.58,1211.22c7.66,12.09,16.45,23.76,24.3,36.07,9.14,14.06,9.88,31.51,8.43,48.53-2.57,20.46-11.45,40.61-6.74,61.1,5.58,30.51,26.44,52.45,49.26,71.86l-.45.14-8.12,2.28A69.54,69.54,0,0,1,687.51,1383L663,1295.51A69.53,69.53,0,0,1,706.58,1211.22Z"/><path class="cls-28" d="M681.56,1247.54c1.9,6.76-2.49,13.91-9.8,16s19-7.11,17.14-13.88,2.49-13.91,9.8-16S679.66,1240.77,681.56,1247.54Z"/><path class="cls-28" d="M830.54,1212.35c-6.35-.52-11.1-5.71-10.62-11.59s6-10.22,12.38-9.7,11.11,5.72,10.62,11.6S836.9,1212.88,830.54,1212.35Z"/><path class="cls-10" d="M784.91,1340.85c2.72-20.84,18.07-36.63,27.61-54.91,7.3-15.45,12.68-32.07,9-48.42-2.12-9.86-4.76-19.59-7.17-29.28l1.24.07,7.35.61a60.75,60.75,0,0,1,55.54,65.54l-7.09,85.82a60.75,60.75,0,0,1-65.54,55.55l-5.21-.43C788.68,1392.16,780.18,1367.54,784.91,1340.85Z"/><path class="cls-10" d="M714,1222.36c5.63,8.24,11.5,16.43,16.92,24.93,9.14,14.06,9.88,31.51,8.43,48.53-2.57,20.46-11.45,40.61-6.74,61.1,4.87,26.66,21.42,46.78,40.74,64.38l-2.06.58a60.76,60.76,0,0,1-74.91-42.08l-23.27-82.91A60.73,60.73,0,0,1,714,1222.36Z"/><ellipse class="cls-29" cx="853.53" cy="1225.38" rx="11.1" ry="11.99" transform="translate(-437.94 1975.18) rotate(-85.28)"/><line class="cls-21" x1="729.31" y1="1373.99" x2="729.31" y2="1373.99"/><path class="cls-30" d="M731.06,1373.47c-7.32,3-11.28,9.16-9.66,13.93,1.25,3.68,5.68,6.15,11.27,6.33"/><path class="cls-31" d="M863,1224.9c.76-4.34-2.31-8.6-6.72-10a10.31,10.31,0,0,0-9.74,2"/><path class="cls-32" d="M701.22,1235c-8.25,2-13.56,8-12.76,13.4.61,4.2,4.8,7.63,10.63,8.79"/><ellipse class="cls-33" cx="699.38" cy="1257.33" rx="2.72" ry="2.5" transform="translate(-313.74 235.76) rotate(-15.68)"/><ellipse class="cls-34" cx="846.36" cy="1216.74" rx="2.61" ry="2.65" transform="translate(-435.91 1960.1) rotate(-85.28)"/><ellipse class="cls-33" cx="687.59" cy="1209.33" rx="7.6" ry="7.03" transform="translate(-301.21 230.79) rotate(-15.68)"/><ellipse class="cls-35" cx="686.29" cy="1207.89" rx="4.16" ry="4.48" transform="translate(-653.83 1574.04) rotate(-75.68)"/><ellipse class="cls-33" cx="701.15" cy="1235.25" rx="3.04" ry="2.72" transform="translate(-307.71 235.42) rotate(-15.68)"/><ellipse class="cls-34" cx="863.05" cy="1224.48" rx="2.61" ry="2.65" transform="translate(-428.29 1983.84) rotate(-85.28)"/><ellipse class="cls-36" cx="829.03" cy="1433.22" rx="2.64" ry="3.35" transform="translate(-667.55 2141.5) rotate(-85.28)"/><path class="cls-37" d="M791.89,1182c-16.19,6.4-16.71,23.26-32.66,25.64-17.08,2.55-22.34-15.9-41.26-15.78-18.24.12-38.07,17.41-43,37.47-4.77,19.49,8.4,25.83,6.87,53.25-1.51,27.24-15,30.79-13.75,53.26,1.13,19.75,12.89,39.38,27.51,49.3,21.71,14.73,36-1.26,55,13.81,17.64,14,12,33.17,27.51,41.42,18,9.52,43.4-6.59,56.73-23.67,3.36-4.31,19.69-25.24,15.47-47.34-3-15.88-13.59-16.17-18.91-35.5-.74-2.68-7.07-26.78,3.44-43.39,8.81-13.92,21.25-9.58,29.22-23.66,6.93-12.24,4.22-27.28,3.44-31.56C861.11,1199.67,818.52,1171.44,791.89,1182Z"/><path class="cls-38" d="M840.61,1104.34c-25.3,1.73-41.74,58.35-31.14,66.4s61.35-24.08,56.18-48.13C863.45,1112.39,851.15,1103.61,840.61,1104.34Z"/><path class="cls-38" d="M885.11,1299.43c-3.7-25.1-61.44-37.07-68.64-25.88s28.79,59.29,52.36,52.26C878.86,1322.82,886.65,1309.87,885.11,1299.43Z"/><path class="cls-38" d="M829.68,1433.55c12.35-22.16-26.16-66.81-38.68-62.32s-13.27,64.56,9.71,73.34C810.48,1448.3,824.54,1442.77,829.68,1433.55Z"/><path class="cls-38" d="M658.84,1429.12c25,4.9,66.82-44.41,60.4-54.76s-69.78,6.92-75.92,31C640.71,1415.6,648.43,1427.08,658.84,1429.12Z"/><path class="cls-38" d="M651.78,1165.47c-4.68,24.93,46,55.08,56.44,46.85s-7.88-65.44-32.45-66.48C665.31,1145.4,653.73,1155.1,651.78,1165.47Z"/><path class="cls-39" d="M890.1,1196.68c-19.19.14-60.57,38.45-57.12,44.44s56.88-14,65.67-30.81C902.4,1203.17,898.08,1196.62,890.1,1196.68Z"/><path class="cls-39" d="M883.38,1412.64c-4.75-18.58-51.89-49.55-56.86-44.75s27.29,51.83,45.69,56.34C880,1426.14,885.36,1420.38,883.38,1412.64Z"/><path class="cls-19" d="M772.33,1241.78c-8.14,3-8.41,10.78-16.43,11.88-8.59,1.18-11.23-7.36-20.75-7.31-9.18.05-19.15,8.07-21.62,17.37-2.4,9,4.22,12,3.46,24.68s-7.57,14.27-6.92,24.68c.57,9.15,6.48,18.25,13.83,22.85,10.93,6.82,18.14-.59,27.68,6.39,8.87,6.5,6,15.38,13.83,19.2,9,4.41,21.84-3,28.54-11,1.69-2,9.91-11.7,7.78-21.94-1.52-7.36-6.83-7.49-9.51-16.45-.37-1.24-3.55-12.41,1.73-20.11,4.43-6.45,10.69-4.44,14.7-11,3.49-5.66,2.12-12.64,1.73-14.62C807.15,1250,785.73,1236.9,772.33,1241.78Z"/><path class="cls-10" d="M787.18,1229.75c-8.14,3-8.4,10.78-16.43,11.88-8.59,1.18-11.23-7.36-20.75-7.31-9.17.06-19.15,8.07-21.62,17.37-2.4,9,4.22,12,3.46,24.68s-7.57,14.27-6.92,24.68c.57,9.15,6.48,18.25,13.84,22.85,10.92,6.82,18.13-.59,27.67,6.39,8.87,6.5,6,15.38,13.84,19.2,9,4.41,21.83-3,28.53-11,1.7-2,9.91-11.7,7.79-21.94-1.53-7.36-6.84-7.49-9.52-16.45-.37-1.24-3.55-12.41,1.73-20.11,4.44-6.45,10.69-4.44,14.7-11,3.49-5.66,2.12-12.64,1.73-14.62C822,1238,800.58,1224.87,787.18,1229.75Z"/><path class="cls-39" d="M726.52,1183.23c-2.07,19.07,31.21,64.59,37.56,61.85s-7.39-58.11-23-68.78C734.38,1171.76,727.38,1175.29,726.52,1183.23Z"/><path class="cls-1" d="M641.6,1255.77c-13,1.47-26.64,5.22-31,15-5.13,11.46,5.87,23.83,0,32-3,4.18-10.34,7.1-28,4"/><text class="cls-40" transform="translate(122.7 1532.79) rotate(-0.18) scale(1.01 1)">Step three:<tspan class="cls-41" x="142.53" y="0"> </tspan><tspan class="cls-42" x="149.93" y="0">develop a mechanism to attack the target bacteria.</tspan></text><text/><path class="cls-3" d="M343.12,298.18h0c-34.51.44-62-31-61.39-70.17l.56-36.06c.6-39.19,29.07-71.33,63.59-71.78h0c34.51-.45,62,31,61.39,70.17l-.56,36C406.1,265.59,377.63,297.73,343.12,298.18Z"/><ellipse class="cls-15" cx="363" cy="268" rx="15.5" ry="12.5"/><ellipse class="cls-15" cx="354" cy="242" rx="23.5" ry="15.5"/><path class="cls-3" d="M1027.4,308h0c-42.29.5-76-35.17-75.24-79.67l.67-40.93c.74-44.5,35.61-81,77.9-81.47h0c42.29-.5,76,35.17,75.24,79.67l-.67,40.93C1104.56,271,1069.68,307.49,1027.4,308Z"/><path class="cls-4" d="M1018.74,175.89c.41,6,4.27,11.23,8.79,12,6,1.07,11.74-5,12.22-14.09"/><path class="cls-5" d="M998.31,324.82h0a5.77,5.77,0,0,1-5.34-6.35l1-15.06,11.53.55-1,15.06A6.11,6.11,0,0,1,998.31,324.82Z"/><path class="cls-5" d="M1014.43,328.92h0a5.78,5.78,0,0,1-5.34-6.35l1.06-15.06,11.53.55-1.06,15.06A6.1,6.1,0,0,1,1014.43,328.92Z"/><path class="cls-5" d="M1033.19,328.57h0a5.66,5.66,0,0,1-6.46-5.09l-1.78-14.9,11.47-1.86,1.78,14.91A6.24,6.24,0,0,1,1033.19,328.57Z"/><path class="cls-5" d="M1046.13,325.57h0a5.79,5.79,0,0,1-5.34-6.35l1.06-15.07,11.53.55-1.06,15.07A6.1,6.1,0,0,1,1046.13,325.57Z"/><path class="cls-5" d="M1063.22,321.53h0a5.65,5.65,0,0,1-6.46-5.08l-1.78-14.9,11.47-1.86,1.78,14.9A6.24,6.24,0,0,1,1063.22,321.53Z"/><path class="cls-15" d="M1004.15,149.48c5.41,0,10,2.85,11.32,6.72a7.29,7.29,0,0,0,.43-2.42c0-5.05-5.26-9.14-11.75-9.14s-11.75,4.09-11.75,9.14a7,7,0,0,0,.43,2.42C994.19,152.33,998.74,149.48,1004.15,149.48Z"/><path class="cls-15" d="M1056.29,149.31c4.65,0,8.56,2.77,9.74,6.53a8,8,0,0,0,.37-2.35c0-4.9-4.53-8.88-10.11-8.88s-10.11,4-10.11,8.88a8,8,0,0,0,.37,2.35C1047.73,152.08,1051.64,149.31,1056.29,149.31Z"/><path class="cls-3" d="M1027.52,296.38h0c-34.51.44-62-31-61.39-70.17l.56-36.06c.6-39.19,29.07-71.33,63.58-71.78h0c34.52-.45,62,31,61.4,70.17l-.56,36.05C1090.5,263.79,1062,295.93,1027.52,296.38Z"/><ellipse class="cls-15" cx="1047.4" cy="266.2" rx="15.5" ry="12.5"/><ellipse class="cls-15" cx="1038.4" cy="240.2" rx="23.5" ry="15.5"/><path class="cls-6" d="M772.81,343.63c-1.18,1.54-2.85,1.55-3.72,0l-37.9-65.09-33,14.74c-1.07.48-2.07-.35-2.24-1.86l-.23-2a3.58,3.58,0,0,1,1.62-3.58l34.23-15.28a1.26,1.26,0,0,1,1,0,1.86,1.86,0,0,1,.34-.05,2,2,0,0,1,1.75,1.13l38.7,66.49A5.33,5.33,0,0,1,772.81,343.63Z"/><path class="cls-6" d="M562.92,344.05c1.18,1.54,2.85,1.55,3.72,0L604.54,279l33,14.74c1.07.47,2.07-.36,2.24-1.86l.23-2a3.59,3.59,0,0,0-1.62-3.58L604.19,271a1.23,1.23,0,0,0-1,0,1.86,1.86,0,0,0-.34-.05,2,2,0,0,0-1.75,1.13l-38.7,66.49A5.33,5.33,0,0,0,562.92,344.05Z"/><path class="cls-43" d="M502.53,789.06c-13-1.47-26.63-5.22-31-15-5.12-11.46,5.87-23.83,0-32-3-4.19-10.34-7.11-28-4"/><path class="cls-43" d="M503,636.57c-13,1.47-26.64,5.23-31,15-5.13,11.47,5.87,23.83,0,32-3,4.19-10.35,7.11-28,4"/><path class="cls-3" d="M365.38,813.08h0c-42.29.5-76-35.17-75.24-79.67l.67-40.93c.74-44.5,35.61-81,77.9-81.47h0c42.29-.5,76,35.17,75.24,79.67l-.68,40.93C442.54,776.11,407.66,812.58,365.38,813.08Z"/><path class="cls-4" d="M356.72,681c.41,6,4.27,11.23,8.79,12,6.05,1.07,11.74-5.06,12.22-14.09"/><path class="cls-5" d="M336.28,829.92h0a5.79,5.79,0,0,1-5.34-6.35L332,808.51l11.53.54-1.06,15.07A6.1,6.1,0,0,1,336.28,829.92Z"/><path class="cls-5" d="M352.41,834h0a5.78,5.78,0,0,1-5.34-6.35l1.06-15.06,11.52.55-1,15.06A6.1,6.1,0,0,1,352.41,834Z"/><path class="cls-5" d="M371.17,833.66h0a5.64,5.64,0,0,1-6.46-5.08l-1.78-14.9,11.47-1.86,1.78,14.9A6.24,6.24,0,0,1,371.17,833.66Z"/><path class="cls-5" d="M384.11,830.67h0a5.79,5.79,0,0,1-5.34-6.35l1.06-15.07,11.52.55-1.05,15.06A6.11,6.11,0,0,1,384.11,830.67Z"/><path class="cls-5" d="M401.19,826.63h0a5.65,5.65,0,0,1-6.45-5.08L393,806.64l11.47-1.85,1.78,14.9A6.24,6.24,0,0,1,401.19,826.63Z"/><path class="cls-15" d="M342.13,654.58c5.41,0,9.95,2.85,11.32,6.72a7.29,7.29,0,0,0,.43-2.42c0-5-5.27-9.14-11.75-9.14s-11.75,4.09-11.75,9.14a7,7,0,0,0,.43,2.42C332.17,657.43,336.71,654.58,342.13,654.58Z"/><path class="cls-15" d="M394.27,654.41c4.65,0,8.56,2.77,9.74,6.53a8,8,0,0,0,.37-2.35c0-4.9-4.53-8.88-10.11-8.88s-10.11,4-10.11,8.88a8,8,0,0,0,.37,2.35C385.71,657.18,389.62,654.41,394.27,654.41Z"/><path class="cls-3" d="M365.5,801.47h0c-34.52.45-62-31-61.39-70.16l.55-36.06c.61-39.2,29.08-71.33,63.59-71.78h0c34.52-.45,62,31,61.39,70.17l-.55,36.05C428.48,768.89,400,801,365.5,801.47Z"/><ellipse class="cls-15" cx="385.38" cy="771.3" rx="15.5" ry="12.5"/><ellipse class="cls-15" cx="376.38" cy="745.3" rx="23.5" ry="15.5"/><path class="cls-3" d="M508.4,1418.3h0c-42.29.5-76-35.17-75.24-79.67l.67-40.93c.74-44.5,35.61-81,77.9-81.47h0c42.29-.5,76,35.17,75.24,79.67l-.67,40.93C585.56,1381.33,550.68,1417.81,508.4,1418.3Z"/><path class="cls-4" d="M499.74,1286.21c.41,6,4.27,11.23,8.79,12,6.05,1.07,11.74-5,12.22-14.09"/><path class="cls-5" d="M479.31,1435.14h0a5.77,5.77,0,0,1-5.34-6.35l1-15.06,11.53.55-1.05,15.06A6.11,6.11,0,0,1,479.31,1435.14Z"/><path class="cls-5" d="M495.43,1439.24h0a5.78,5.78,0,0,1-5.34-6.35l1.06-15.06,11.53.55-1.06,15.06A6.09,6.09,0,0,1,495.43,1439.24Z"/><path class="cls-5" d="M514.19,1438.89h0a5.66,5.66,0,0,1-6.46-5.09L506,1418.9l11.47-1.86L519.2,1432A6.24,6.24,0,0,1,514.19,1438.89Z"/><path class="cls-5" d="M527.13,1435.89h0a5.79,5.79,0,0,1-5.34-6.35l1.06-15.07,11.53.55-1.06,15.07A6.1,6.1,0,0,1,527.13,1435.89Z"/><path class="cls-5" d="M544.22,1431.85h0a5.65,5.65,0,0,1-6.46-5.08l-1.78-14.9,11.47-1.86,1.78,14.9A6.24,6.24,0,0,1,544.22,1431.85Z"/><path class="cls-15" d="M485.15,1259.8c5.41,0,10,2.85,11.32,6.72a7.29,7.29,0,0,0,.43-2.42c0-5-5.26-9.14-11.75-9.14s-11.75,4.09-11.75,9.14a7,7,0,0,0,.43,2.42C475.19,1262.65,479.74,1259.8,485.15,1259.8Z"/><path class="cls-15" d="M537.29,1259.63c4.65,0,8.56,2.77,9.74,6.53a8,8,0,0,0,.37-2.35c0-4.9-4.53-8.88-10.11-8.88s-10.11,4-10.11,8.88a8,8,0,0,0,.37,2.35C528.73,1262.4,532.64,1259.63,537.29,1259.63Z"/><path class="cls-3" d="M508.52,1406.7h0c-34.51.44-62-31-61.39-70.17l.56-36.06c.6-39.19,29.07-71.33,63.58-71.78h0c34.52-.45,62,31,61.4,70.17l-.56,36.05C571.5,1374.11,543,1406.25,508.52,1406.7Z"/><ellipse class="cls-15" cx="528.4" cy="1376.52" rx="15.5" ry="12.5"/><ellipse class="cls-15" cx="519.4" cy="1350.52" rx="23.5" ry="15.5"/></svg>