<svg id="Calque_1" data-name="Calque 1" xmlns="http://www.w3.org/2000/svg" viewBox="0 0 291 230"><defs><style>.cls-1{fill:none;stroke:#1d1d1b;stroke-linecap:round;stroke-linejoin:round;stroke-width:3px;}.cls-2{fill:#e73327;}</style></defs><polygon class="cls-1" points="197.44 169.66 197.44 80.17 197.44 65.55 93.34 65.55 93.34 169.66 107.95 169.66 197.44 169.66"/><path class="cls-1" d="M180.24,97.27V77.63h-69.7V97.27h0a6.83,6.83,0,0,0-6.83,6.83v27a6.83,6.83,0,0,0,6.83,6.83h0v19.63h69.7V137.94h0a6.83,6.83,0,0,0,6.83-6.83v-27a6.83,6.83,0,0,0-6.83-6.83Z"/><line class="cls-1" x1="104.27" y1="65.55" x2="104.27" y2="55.78"/><line class="cls-1" x1="116.02" y1="65.55" x2="116.02" y2="55.78"/><line class="cls-1" x1="127.77" y1="65.55" x2="127.77" y2="55.78"/><line class="cls-1" x1="139.52" y1="65.55" x2="139.52" y2="55.78"/><line class="cls-1" x1="151.26" y1="65.55" x2="151.26" y2="55.78"/><line class="cls-1" x1="163.01" y1="65.55" x2="163.01" y2="55.78"/><line class="cls-1" x1="174.76" y1="65.55" x2="174.76" y2="55.78"/><line class="cls-1" x1="186.51" y1="65.55" x2="186.51" y2="55.78"/><line class="cls-1" x1="197.45" y1="76.49" x2="207.22" y2="76.49"/><line class="cls-1" x1="197.45" y1="88.24" x2="207.22" y2="88.24"/><line class="cls-1" x1="197.45" y1="99.98" x2="207.22" y2="99.98"/><line class="cls-1" x1="197.45" y1="111.73" x2="207.22" y2="111.73"/><line class="cls-1" x1="197.45" y1="123.48" x2="207.22" y2="123.48"/><line class="cls-1" x1="197.45" y1="135.22" x2="207.22" y2="135.22"/><line class="cls-1" x1="197.45" y1="146.97" x2="207.22" y2="146.97"/><line class="cls-1" x1="197.45" y1="158.72" x2="207.22" y2="158.72"/><line class="cls-1" x1="93.34" y1="76.49" x2="83.56" y2="76.49"/><line class="cls-1" x1="93.34" y1="88.24" x2="83.56" y2="88.24"/><line class="cls-1" x1="93.34" y1="99.98" x2="83.56" y2="99.98"/><line class="cls-1" x1="93.34" y1="111.73" x2="83.56" y2="111.73"/><line class="cls-1" x1="93.34" y1="123.48" x2="83.56" y2="123.48"/><line class="cls-1" x1="93.34" y1="135.22" x2="83.56" y2="135.22"/><line class="cls-1" x1="93.34" y1="146.97" x2="83.56" y2="146.97"/><line class="cls-1" x1="93.34" y1="158.72" x2="83.56" y2="158.72"/><line class="cls-1" x1="104.27" y1="169.66" x2="104.27" y2="179.44"/><line class="cls-1" x1="116.02" y1="169.66" x2="116.02" y2="179.44"/><line class="cls-1" x1="127.77" y1="169.66" x2="127.77" y2="179.44"/><line class="cls-1" x1="139.52" y1="169.66" x2="139.52" y2="179.44"/><line class="cls-1" x1="151.26" y1="169.66" x2="151.26" y2="179.44"/><line class="cls-1" x1="163.01" y1="169.66" x2="163.01" y2="179.44"/><line class="cls-1" x1="174.76" y1="169.66" x2="174.76" y2="179.44"/><line class="cls-1" x1="186.51" y1="169.66" x2="186.51" y2="179.44"/><path class="cls-2" d="M145.39,95.33c-17.36,0-31,9.84-31,22.4s13.6,22.4,31,22.4,31-9.84,31-22.4S162.75,95.33,145.39,95.33Z"/></svg>