<svg id="Calque_1" data-name="Calque 1" xmlns="http://www.w3.org/2000/svg" viewBox="0 0 1920 1080"><defs><style>.cls-1{fill:#e97c79;}.cls-2,.cls-3{fill:none;stroke:#1d1d1b;stroke-width:3px;}.cls-2{stroke-miterlimit:10;}.cls-3{stroke-linecap:round;stroke-linejoin:round;}</style></defs><path class="cls-1" d="M1020.41,565.8a2,2,0,0,0-1.46-1.67l-3.3-.72a4.84,4.84,0,0,1-7.85,0l-3.3.72a2.05,2.05,0,0,0-1.46,1.67l-.72,3.43h18.81Z"/><path class="cls-1" d="M1015.89,558.22a4.18,4.18,0,1,1-4.16-4.52A4.34,4.34,0,0,1,1015.89,558.22Z"/><rect class="cls-2" x="998.83" y="546.69" width="25.79" height="25.79"/><rect class="cls-1" x="947.68" y="546.92" width="32.46" height="16.12"/><line class="cls-3" x1="947.68" y1="570.45" x2="980.13" y2="570.45"/><line class="cls-3" x1="947.68" y1="578.94" x2="980.13" y2="578.94"/><line class="cls-3" x1="947.68" y1="587.44" x2="980.13" y2="587.44"/><path class="cls-3" d="M923.79,608.15h130.16a0,0,0,0,1,0,0v5.47a4.58,4.58,0,0,1-4.58,4.58h-121a4.58,4.58,0,0,1-4.58-4.58v-5.47A0,0,0,0,1,923.79,608.15Z"/><path class="cls-3" d="M936.59,530.85h104.56a4.32,4.32,0,0,1,4.32,4.32v73a0,0,0,0,1,0,0H932.27a0,0,0,0,1,0,0v-73A4.32,4.32,0,0,1,936.59,530.85Z"/></svg>