<svg id="Calque_1" data-name="Calque 1" xmlns="http://www.w3.org/2000/svg" viewBox="0 0 963 379"><defs><style>.cls-1{fill:#fff;}.cls-17,.cls-18,.cls-2,.cls-7,.cls-8,.cls-9{fill:none;}.cls-2{stroke:#f6d2d0;}.cls-14,.cls-15,.cls-17,.cls-18,.cls-19,.cls-2,.cls-7,.cls-8,.cls-9{stroke-miterlimit:10;}.cls-15,.cls-18,.cls-2{stroke-width:9px;}.cls-3{fill:#333;}.cls-14,.cls-19,.cls-4{fill:#1d1d1b;}.cls-5{fill:#ad1457;}.cls-6{fill:#880e4f;}.cls-7,.cls-8{stroke:#ed1e79;}.cls-7{stroke-width:4px;}.cls-8,.cls-9{stroke-width:5px;}.cls-9{stroke:#9e005d;}.cls-10{fill:#9e005d;}.cls-11{fill:#ed1e79;}.cls-12{fill:#f1c40f;}.cls-13{fill:#f48fb1;}.cls-14{stroke:#333;}.cls-14,.cls-17{stroke-width:7px;}.cls-15,.cls-16{fill:#f6d2d0;}.cls-15,.cls-17,.cls-18,.cls-19{stroke:#1d1d1b;}.cls-19{stroke-width:3px;}</style></defs><polygon class="cls-1" points="81.73 62.03 58.13 32.73 83.18 24.63 81.73 62.03"/><path class="cls-2" d="M423.89,286.15c-12.95-1.47-26.63-5.23-31-15-5.12-11.46,5.87-23.83,0-32-3-4.19-10.34-7.11-28-4"/><ellipse class="cls-3" cx="682.87" cy="188.86" rx="15.89" ry="17.17" transform="translate(438.46 853.87) rotate(-85.28)"/><ellipse class="cls-3" cx="683.3" cy="239.18" rx="18.32" ry="19.8" transform="translate(388.7 900.48) rotate(-85.28)"/><ellipse class="cls-3" cx="448.34" cy="245.26" rx="29.39" ry="26.14" transform="translate(-49.6 130.3) rotate(-15.68)"/><ellipse class="cls-3" cx="426.8" cy="173.68" rx="19.8" ry="18.32" transform="translate(-31.06 121.81) rotate(-15.68)"/><ellipse class="cls-3" cx="683.45" cy="123.96" rx="18.32" ry="19.8" transform="translate(503.67 794.89) rotate(-85.28)"/><ellipse class="cls-3" cx="635.96" cy="80.77" rx="31.32" ry="33.84" transform="translate(503.13 707.93) rotate(-85.28)"/><ellipse class="cls-3" cx="443.03" cy="107.39" rx="19.8" ry="18.32" transform="translate(-12.54 123.73) rotate(-15.68)"/><path class="cls-3" d="M567.25,224.37c2.72-20.84,18.07-36.63,27.61-54.91,7.3-15.45,12.68-32.07,9-48.42C599.68,101.57,593.45,82.6,591,63.46c1.46,0,2.94.12,4.42.24l16.82,1.39a80.34,80.34,0,0,1,73.46,86.68h0l-7.6,92.1a80.34,80.34,0,0,1-84.88,73.56C576.56,288.81,561.25,258.26,567.25,224.37Z"/><path class="cls-3" d="M481.12,81.33c9,17.09,21.39,32.7,32.1,49.48,9.14,14.06,9.88,31.51,8.43,48.53-2.57,20.46-11.45,40.61-6.74,61.1,6.19,33.85,31.19,57.15,56.81,78.15-.58.18-1.15.37-1.73.54l-16.26,4.56a80.34,80.34,0,0,1-99.06-55.64l-25-89A80.33,80.33,0,0,1,481.12,81.33Z"/><path class="cls-4" d="M567.25,224.37c2.72-20.84,18.07-36.63,27.61-54.91,7.3-15.45,12.68-32.07,9-48.42-3.07-14.28-7.23-28.29-10.2-42.29,1.58,0,3.16.08,4.76.21l8.4.7a69.55,69.55,0,0,1,63.59,75l-7.48,90.6a69.55,69.55,0,0,1-74.59,63.64C573.75,282.75,561.84,254.92,567.25,224.37Z"/><path class="cls-4" d="M488.92,94.74c7.66,12.09,16.45,23.76,24.3,36.07,9.14,14.06,9.88,31.51,8.43,48.53-2.57,20.46-11.45,40.61-6.74,61.1,5.58,30.51,26.44,52.45,49.26,71.86l-.45.14-8.12,2.28a69.53,69.53,0,0,1-85.74-48.17v0L445.34,179A69.53,69.53,0,0,1,488.92,94.74Z"/><path class="cls-5" d="M463.9,131.06c1.9,6.76-2.49,13.91-9.8,16s19-7.11,17.14-13.88,2.49-13.91,9.8-16S462,124.29,463.9,131.06Z"/><path class="cls-5" d="M612.88,95.87c-6.35-.52-11.1-5.71-10.62-11.59s6-10.22,12.38-9.7,11.11,5.72,10.62,11.6S619.24,96.4,612.88,95.87Z"/><path class="cls-1" d="M567.25,224.37c2.72-20.84,18.07-36.63,27.61-54.91,7.3-15.45,12.68-32.07,9-48.42-2.12-9.86-4.76-19.59-7.17-29.28l1.24.07,7.35.61A60.75,60.75,0,0,1,660.82,158l-7.09,85.82a60.75,60.75,0,0,1-65.54,55.55h0l-5.21-.43C571,275.68,562.52,251.06,567.25,224.37Z"/><path class="cls-1" d="M496.34,105.88c5.63,8.24,11.5,16.43,16.92,24.93,9.14,14.06,9.88,31.51,8.43,48.53-2.57,20.46-11.45,40.61-6.74,61.1,4.87,26.66,21.42,46.78,40.74,64.38l-2.06.58a60.76,60.76,0,0,1-74.91-42.08l-23.27-82.91A60.72,60.72,0,0,1,496.34,105.88Z"/><ellipse class="cls-6" cx="635.86" cy="108.9" rx="11.1" ry="11.99" transform="translate(475 733.64) rotate(-85.28)"/><path class="cls-7" d="M513.4,257c-7.32,3-11.28,9.16-9.66,13.93,1.25,3.68,5.68,6.15,11.27,6.33"/><path class="cls-8" d="M645.34,108.42c.76-4.34-2.31-8.6-6.72-10a10.33,10.33,0,0,0-9.74,2"/><path class="cls-9" d="M483.56,118.52c-8.25,2-13.56,8-12.76,13.4.61,4.2,4.8,7.63,10.63,8.79"/><ellipse class="cls-10" cx="481.76" cy="140.8" rx="2.72" ry="2.5" transform="translate(-20.13 135.44) rotate(-15.68)"/><ellipse class="cls-11" cx="628.68" cy="100.25" rx="2.61" ry="2.65" transform="translate(477.04 718.56) rotate(-85.28)"/><ellipse class="cls-10" cx="469.97" cy="92.81" rx="7.6" ry="7.03" transform="translate(-7.59 130.47) rotate(-15.68)"/><ellipse class="cls-12" cx="468.61" cy="91.35" rx="4.16" ry="4.48" transform="translate(264.19 522.81) rotate(-75.68)"/><ellipse class="cls-10" cx="483.53" cy="118.73" rx="3.04" ry="2.72" transform="translate(-14.09 135.1) rotate(-15.68)"/><ellipse class="cls-11" cx="645.39" cy="108" rx="2.61" ry="2.65" transform="translate(484.65 742.31) rotate(-85.28)"/><ellipse class="cls-13" cx="611.36" cy="316.74" rx="2.64" ry="3.35" transform="translate(245.39 899.97) rotate(-85.28)"/><path class="cls-14" d="M574.23,65.52c-16.19,6.4-16.71,23.26-32.66,25.64-17.08,2.55-22.34-15.9-41.26-15.78-18.24.12-38.07,17.41-43,37.47-4.77,19.49,8.4,25.83,6.87,53.25-1.51,27.24-15,30.79-13.75,53.26,1.13,19.75,12.89,39.38,27.51,49.3,21.71,14.73,36-1.26,55,13.81,17.64,14,12,33.17,27.51,41.42,18,9.52,43.4-6.59,56.73-23.67,3.36-4.31,19.69-25.24,15.47-47.34-3-15.88-13.59-16.17-18.91-35.5-.74-2.68-7.07-26.78,3.44-43.39,8.81-13.92,21.25-9.58,29.22-23.66,6.93-12.24,4.22-27.28,3.44-31.56C643.45,83.19,600.86,55,574.23,65.52Z"/><path class="cls-15" d="M626.46,23c-12.84,1-21.18,34.92-15.8,39.74S641.79,48.36,639.17,34C638.05,27.84,631.81,22.59,626.46,23Z"/><path class="cls-15" d="M667.45,183c-3.7-25.1-61.44-37.07-68.64-25.88s28.79,59.29,52.36,52.26C661.2,206.34,669,193.39,667.45,183Z"/><path class="cls-15" d="M612,317.07c12.35-22.16-26.16-66.81-38.68-62.32s-13.27,64.56,9.71,73.34C592.82,331.82,606.88,326.29,612,317.07Z"/><path class="cls-15" d="M441.18,312.64c25,4.9,66.82-44.41,60.4-54.76s-69.78,6.92-75.92,31C423.05,299.12,430.77,310.6,441.18,312.64Z"/><path class="cls-15" d="M434.12,49c-4.68,24.93,46,55.08,56.44,46.85s-7.88-65.44-32.45-66.48C447.65,28.92,436.07,38.62,434.12,49Z"/><path class="cls-16" d="M672.44,80.2c-19.19.14-60.57,38.45-57.12,44.44s56.88-14,65.67-30.81C684.74,86.69,680.42,80.14,672.44,80.2Z"/><path class="cls-16" d="M665.72,296.16c-4.75-18.58-51.89-49.55-56.86-44.75s27.29,51.83,45.69,56.34C662.34,309.66,667.7,303.9,665.72,296.16Z"/><path class="cls-3" d="M554.67,125.3c-8.14,3-8.41,10.78-16.43,11.88-8.59,1.18-11.23-7.36-20.75-7.31-9.18,0-19.15,8.07-21.62,17.37-2.4,9,4.22,12,3.46,24.68s-7.57,14.27-6.92,24.68c.57,9.15,6.48,18.25,13.83,22.85,10.93,6.82,18.14-.59,27.68,6.39,8.87,6.5,6,15.38,13.83,19.2,9,4.41,21.84-3,28.54-11,1.69-2,9.91-11.7,7.78-21.94-1.52-7.36-6.83-7.49-9.51-16.45-.37-1.24-3.55-12.41,1.73-20.11,4.43-6.45,10.69-4.44,14.7-11,3.49-5.66,2.12-12.64,1.73-14.62C589.49,133.52,568.07,120.42,554.67,125.3Z"/><path class="cls-1" d="M569.52,113.27c-8.14,3-8.4,10.78-16.43,11.88-8.59,1.18-11.23-7.36-20.75-7.31-9.17.06-19.15,8.07-21.62,17.37-2.4,9,4.22,12,3.46,24.68s-7.57,14.27-6.92,24.68c.57,9.15,6.48,18.25,13.84,22.85,10.92,6.82,18.13-.59,27.67,6.39,8.87,6.5,6,15.38,13.84,19.2,9,4.41,21.83-3,28.53-11,1.7-2,9.91-11.7,7.79-21.94-1.53-7.36-6.84-7.49-9.52-16.45-.37-1.24-3.55-12.41,1.73-20.11,4.44-6.45,10.69-4.44,14.7-11,3.49-5.66,2.12-12.64,1.73-14.62C604.34,121.52,582.92,108.39,569.52,113.27Z"/><path class="cls-16" d="M508.86,66.75c-2.07,19.07,31.21,64.59,37.56,61.85s-7.39-58.11-23-68.78C516.72,55.28,509.72,58.81,508.86,66.75Z"/><path class="cls-2" d="M423.94,139.29c-13,1.47-26.64,5.22-31,15-5.13,11.46,5.87,23.83,0,32-3,4.18-10.34,7.1-28,4"/><path class="cls-17" d="M290.74,301.82h0c-42.29.5-76-35.17-75.24-79.67l.67-40.93c.74-44.5,35.61-81,77.9-81.47h0c42.29-.5,76,35.17,75.24,79.67l-.67,40.93C367.9,264.85,333,301.33,290.74,301.82Z"/><path class="cls-18" d="M282.08,169.73c.41,6,4.27,11.23,8.79,12,6.05,1.07,11.74-5,12.22-14.09"/><path class="cls-4" d="M261.65,318.66h0a5.77,5.77,0,0,1-5.36-6.15,1.36,1.36,0,0,1,0-.2l1-15.06,11.53.55-1,15.06A6.11,6.11,0,0,1,261.65,318.66Z"/><path class="cls-4" d="M277.77,322.76h0a5.78,5.78,0,0,1-5.36-6.17c0-.06,0-.12,0-.18l1.06-15.06,11.53.55L284,317A6.09,6.09,0,0,1,277.77,322.76Z"/><path class="cls-4" d="M296.53,322.41h0a5.66,5.66,0,0,1-6.43-4.78l0-.31-1.73-14.9,11.47-1.86,1.73,15A6.24,6.24,0,0,1,296.53,322.41Z"/><path class="cls-4" d="M309.47,319.41h0a5.8,5.8,0,0,1-5.36-6.19c0-.06,0-.11,0-.16L305.19,298l11.53.55-1.06,15.07A6.1,6.1,0,0,1,309.47,319.41Z"/><path class="cls-4" d="M326.56,315.37h0a5.65,5.65,0,0,1-6.42-4.75c0-.11,0-.22,0-.33l-1.78-14.9,11.47-1.86,1.78,14.9A6.24,6.24,0,0,1,326.56,315.37Z"/><path class="cls-19" d="M267.49,143.32c5.41,0,10,2.85,11.32,6.72a7.39,7.39,0,0,0,.43-2.42c0-5-5.26-9.14-11.75-9.14s-11.75,4.09-11.75,9.14a6.86,6.86,0,0,0,.43,2.42C257.53,146.17,262.08,143.32,267.49,143.32Z"/><path class="cls-19" d="M319.63,143.15c4.65,0,8.56,2.77,9.74,6.53a8.13,8.13,0,0,0,.37-2.35c0-4.9-4.53-8.88-10.11-8.88s-10.11,4-10.11,8.88a7.8,7.8,0,0,0,.37,2.35C311.07,145.92,315,143.15,319.63,143.15Z"/><path class="cls-17" d="M290.86,290.22h0c-34.51.44-62-31-61.39-70.17L230,184c.6-39.19,29.07-71.33,63.58-71.78h0c34.52-.45,62,31,61.4,70.17l-.56,36.05C353.84,257.63,325.34,289.77,290.86,290.22Z"/><ellipse class="cls-19" cx="310.74" cy="260.04" rx="15.5" ry="12.5"/><ellipse class="cls-19" cx="301.74" cy="234.04" rx="23.5" ry="15.5"/></svg>