<?xml version="1.0" encoding="UTF-8" standalone="no"?>
<!DOCTYPE svg PUBLIC "-//W3C//DTD SVG 1.1//EN" "http://www.w3.org/Graphics/SVG/1.1/DTD/svg11.dtd">
<svg width="100%" height="100%" viewBox="0 0 213 307" version="1.1" xmlns="http://www.w3.org/2000/svg" xmlns:xlink="http://www.w3.org/1999/xlink" xml:space="preserve" xmlns:serif="http://www.serif.com/" style="fill-rule:evenodd;clip-rule:evenodd;stroke-linejoin:round;stroke-miterlimit:2;">
    <g transform="matrix(1,0,0,1,-1521,-4000)">
        <g transform="matrix(1,0,0,4.66871,0,922.869)">
            <g transform="matrix(0.539123,0,0,0.408489,1100.27,451.786)">
                <g id="homePhase3">
                    <g>
                        <g transform="matrix(1.85486,0,0,0.524351,-1886.93,-1410.09)">
                            <path d="M1488.51,3867.42C1493.8,3872.1 1496.6,3876.74 1497.72,3881.26C1499.17,3887.1 1497.88,3892.88 1494.86,3898.68C1492.2,3903.81 1488.15,3908.98 1483.82,3914.25C1478.1,3921.24 1471.83,3928.42 1468.21,3936.1C1464.95,3943 1463.95,3950.33 1468.13,3958.31C1469.1,3960.16 1468.38,3962.46 1466.52,3963.43C1464.66,3964.41 1462.37,3963.69 1461.39,3961.83C1455.95,3951.42 1457.09,3941.87 1461.34,3932.86C1465.21,3924.64 1471.82,3916.9 1477.95,3909.43C1481.92,3904.59 1485.68,3899.88 1488.12,3895.18C1490.22,3891.14 1491.35,3887.15 1490.35,3883.09C1489.47,3879.57 1487.04,3876.1 1482.72,3872.47L1488.51,3867.42ZM1538.03,3858.98C1557.72,3865.81 1559.56,3882.19 1561.5,3897.51C1563.81,3915.86 1566.37,3932.83 1588.41,3937.16C1590.47,3937.56 1592.47,3936.22 1592.87,3934.16C1593.28,3932.1 1591.93,3930.11 1589.88,3929.7C1571.87,3926.17 1570.93,3911.55 1569.03,3896.56C1566.76,3878.54 1563.68,3859.84 1540.52,3851.81C1538.54,3851.12 1536.38,3852.17 1535.69,3854.15C1535,3856.13 1536.05,3858.3 1538.03,3858.98ZM1460.89,3848.54C1461.1,3846.55 1460.89,3843.97 1460.27,3840.62C1459.89,3838.56 1461.26,3836.58 1463.32,3836.2C1465.38,3835.82 1467.36,3837.19 1467.74,3839.25C1468.02,3840.77 1468.22,3842.18 1468.34,3843.48L1460.89,3848.54ZM1571.46,3815.63C1590.19,3814.21 1598.62,3818.87 1607.1,3823.58C1616.57,3828.85 1626.09,3834.17 1647.21,3832.83C1649.3,3832.69 1650.89,3830.89 1650.76,3828.79C1650.63,3826.7 1648.82,3825.11 1646.73,3825.24C1627.8,3826.45 1619.28,3821.66 1610.79,3816.94C1601.3,3811.67 1591.86,3806.46 1570.88,3808.05C1568.79,3808.21 1567.22,3810.03 1567.38,3812.12C1567.54,3814.22 1569.37,3815.78 1571.46,3815.63ZM1495.92,3795.8C1501.09,3796.34 1507.16,3796.15 1514.41,3795.05C1516.48,3794.73 1518.42,3796.16 1518.74,3798.23C1519.05,3800.3 1517.62,3802.24 1515.55,3802.56C1509.64,3803.46 1504.41,3803.79 1499.76,3803.65L1495.92,3795.8ZM1572.03,3744.11C1592.97,3739.24 1599.85,3724.89 1606.64,3711.18C1612.4,3699.56 1618.07,3688.43 1636.28,3687.27C1638.38,3687.14 1639.97,3685.33 1639.83,3683.24C1639.7,3681.15 1637.89,3679.56 1635.8,3679.69C1613.97,3681.08 1606.74,3693.87 1599.83,3707.81C1593.96,3719.66 1588.42,3732.5 1570.31,3736.71C1568.27,3737.18 1567,3739.22 1567.47,3741.27C1567.94,3743.31 1569.99,3744.58 1572.03,3744.11ZM1538.14,3737.07C1529.68,3732.48 1525.12,3727.85 1522.99,3723.01C1519.75,3715.66 1522.09,3708.12 1523.66,3700.68C1525.27,3693.02 1526.26,3685.46 1522.89,3678.18C1519.61,3671.09 1512.09,3664.01 1495.9,3657.68C1493.94,3656.91 1491.74,3657.88 1490.98,3659.83C1490.21,3661.78 1491.18,3663.99 1493.13,3664.75C1506.63,3670.03 1513.26,3675.45 1516,3681.37C1518.65,3687.11 1517.5,3693.08 1516.23,3699.11C1514.33,3708.09 1512.13,3717.19 1516.03,3726.07C1518.67,3732.06 1524.05,3738.07 1534.52,3743.75C1536.36,3744.75 1538.67,3744.06 1539.67,3742.22C1540.67,3740.38 1539.99,3738.07 1538.14,3737.07Z" style="fill:url(#_Linear1);"/>
                        </g>
                        <g transform="matrix(1.85486,0,0,0.524351,-1886.93,-1410.09)">
                            <path d="M1506.02,3852.15L1528.12,3880.58C1524.49,3882.88 1520.72,3884.96 1516.83,3886.77C1501.94,3893.73 1484.95,3890.81 1473.26,3880.72L1506.02,3852.15ZM1518.24,3841.5L1543.45,3819.52L1564.87,3842.9C1556.81,3855.75 1546.7,3867.03 1535,3875.82L1518.24,3841.5ZM1477.96,3816.06L1488.6,3829.74L1459.29,3849.62C1459.47,3836.28 1466.28,3823.5 1477.96,3816.06ZM1585.28,3783.05C1584.12,3795.08 1581.31,3806.95 1577.08,3818.2L1561.64,3803.66L1585.28,3783.05ZM1497.83,3799.7C1501.9,3793.31 1504.45,3785.65 1505.19,3777.77L1528.21,3802.88L1506.55,3817.57L1497.83,3799.7ZM1547.17,3790.02L1501.67,3747.16C1501.81,3729.93 1513.04,3714.03 1530.38,3708.78C1551.74,3702.3 1574.34,3714.39 1580.81,3735.74C1583.6,3744.95 1585.19,3754.4 1585.7,3763.9L1547.17,3790.02Z" style="fill:url(#_Linear2);"/>
                        </g>
                        <g transform="matrix(1.85486,0,0,0.524351,-1886.93,-1410.09)">
                            <path d="M1526.1,3877.97L1530.15,3883.18C1529.18,3883.79 1528.22,3884.39 1527.24,3884.97L1532.08,3892.35C1533.07,3893.87 1532.65,3895.91 1531.13,3896.9C1529.61,3897.89 1527.58,3897.47 1526.58,3895.95L1521.47,3888.16C1520.4,3888.71 1519.32,3889.24 1518.22,3889.75C1506.94,3895.02 1494.55,3895.05 1483.79,3890.84L1475.87,3906.74C1475.07,3908.36 1473.09,3909.03 1471.47,3908.22C1469.85,3907.41 1469.19,3905.44 1469.99,3903.81L1477.87,3887.99C1475.35,3886.55 1472.97,3884.84 1470.76,3882.89L1475.76,3878.53C1486.49,3887.57 1501.91,3890.12 1515.44,3883.8C1517.31,3882.93 1519.14,3881.99 1520.95,3881.01C1520.99,3880.98 1521.03,3880.96 1521.07,3880.94C1522.78,3880 1524.45,3879.01 1526.1,3877.97ZM1533.53,3872.83C1543.36,3865.36 1552.03,3856.09 1559.23,3845.58C1559.35,3845.32 1559.51,3845.07 1559.71,3844.84C1559.74,3844.81 1559.78,3844.77 1559.81,3844.73C1560.76,3843.32 1561.69,3841.88 1562.59,3840.42L1567.13,3845.38C1566.93,3845.7 1566.72,3846.03 1566.51,3846.35L1573.57,3852.4L1583.52,3863.26C1583.4,3863.76 1583.17,3864.24 1582.82,3864.66C1581.63,3866.03 1579.56,3866.19 1578.18,3865.01L1562.79,3851.81C1555.31,3862.21 1546.44,3871.39 1536.46,3878.82L1533.53,3872.83ZM1475.94,3813.45L1479.99,3818.66C1474.12,3822.33 1469.57,3827.45 1466.6,3833.33L1466.57,3833.39C1464.38,3837.72 1463.06,3842.46 1462.68,3847.32L1456.03,3851.83C1455.79,3845.48 1456.95,3839.2 1459.34,3833.41L1440.56,3824.22C1438.93,3823.43 1438.25,3821.46 1439.05,3819.83C1439.85,3818.2 1441.81,3817.53 1443.44,3818.32L1462.3,3827.55C1465.64,3821.99 1470.25,3817.13 1475.94,3813.45ZM1588.81,3779.97C1588.41,3785.46 1587.68,3790.92 1586.63,3796.32L1598.13,3799.01C1599.9,3799.42 1601,3801.19 1600.59,3802.96C1600.17,3804.72 1598.4,3805.82 1596.64,3805.41L1585.23,3802.74C1583.76,3808.82 1581.88,3814.79 1579.63,3820.6L1574.52,3815.79C1576.56,3810.18 1578.24,3804.43 1579.53,3798.58C1579.54,3798.41 1579.57,3798.23 1579.61,3798.06C1579.64,3797.92 1579.68,3797.78 1579.73,3797.65C1580.54,3793.87 1581.18,3790.05 1581.65,3786.2L1588.81,3779.97ZM1496.14,3796.25C1499.83,3789.81 1501.92,3782.16 1502.14,3774.43L1508.09,3780.92C1506.88,3788.97 1503.91,3796.68 1499.47,3803.07L1496.14,3796.25ZM1582.52,3766.05C1582.24,3758.66 1581.3,3751.29 1579.62,3744.04C1579.61,3743.99 1579.6,3743.95 1579.59,3743.91C1579.03,3741.49 1578.39,3739.09 1577.67,3736.69C1574.33,3725.68 1566.32,3717.35 1556.46,3713.21L1556.42,3713.19C1548.74,3709.98 1539.93,3709.32 1531.34,3711.92C1514.34,3717.07 1503.73,3733.34 1505.07,3750.36L1498.51,3744.18C1499.23,3734.82 1502.96,3725.96 1509,3718.93L1493.87,3700.45C1492.72,3699.05 1492.93,3696.97 1494.33,3695.83C1495.73,3694.68 1497.8,3694.88 1498.95,3696.29L1513.67,3714.26C1518.13,3710.43 1523.45,3707.45 1529.43,3705.63C1538.47,3702.89 1547.72,3703.23 1556.05,3706.04L1560.47,3696.55C1561.23,3694.91 1563.19,3694.2 1564.83,3694.96C1566.48,3695.73 1567.19,3697.68 1566.42,3699.33L1562.1,3708.6C1572.26,3713.83 1580.38,3723 1583.95,3734.79C1584.39,3736.23 1584.8,3737.67 1585.17,3739.12L1608.34,3732.34C1610.08,3731.83 1611.91,3732.83 1612.42,3734.57C1612.93,3736.31 1611.93,3738.13 1610.19,3738.64L1586.66,3745.53C1587.76,3750.9 1588.48,3756.32 1588.85,3761.76L1582.52,3766.05Z" style="fill:url(#_Linear3);"/>
                        </g>
                        <g transform="matrix(1.85486,0,0,0.524351,-1886.93,-1410.09)">
                            <path d="M1523.83,3780.73C1534.49,3789.21 1544.77,3787.59 1554.88,3780.9C1556.39,3779.9 1556.81,3777.86 1555.81,3776.35C1554.81,3774.84 1552.77,3774.43 1551.26,3775.43C1543.66,3780.45 1535.93,3781.97 1527.92,3775.59C1526.5,3774.47 1524.43,3774.7 1523.31,3776.12C1522.18,3777.54 1522.41,3779.61 1523.83,3780.73ZM1519.07,3749.09C1522.95,3743.88 1529.75,3743.98 1532.5,3748.82C1533.24,3750.11 1534.89,3750.56 1536.18,3749.83C1537.47,3749.09 1537.92,3747.44 1537.19,3746.15C1532.58,3738.07 1521.22,3737.16 1514.74,3745.88C1513.86,3747.07 1514.1,3748.76 1515.3,3749.65C1516.49,3750.53 1518.18,3750.28 1519.07,3749.09ZM1549,3749.09C1552.88,3743.88 1559.67,3743.98 1562.43,3748.82C1563.17,3750.11 1564.81,3750.56 1566.11,3749.83C1567.4,3749.09 1567.85,3747.44 1567.11,3746.15C1562.51,3738.07 1551.15,3737.16 1544.67,3745.88C1543.78,3747.07 1544.03,3748.76 1545.23,3749.65C1546.42,3750.53 1548.11,3750.28 1549,3749.09Z" style="fill:rgb(91,19,22);"/>
                        </g>
                        <g transform="matrix(1.47604,0,0,0.417263,-542.153,-815.523)">
                            <path d="M1043.26,3212.09L1043.26,3202.01C1043.26,3199.7 1045.14,3197.82 1047.45,3197.82C1049.76,3197.82 1051.64,3199.7 1051.64,3202.01L1051.64,3212.09C1073.75,3214.08 1091.37,3231.71 1093.37,3253.81L1103.44,3253.81C1105.76,3253.81 1107.63,3255.69 1107.63,3258.01C1107.63,3260.32 1105.76,3262.2 1103.44,3262.2L1093.37,3262.2C1091.37,3284.3 1073.75,3301.93 1051.64,3303.92L1051.64,3314C1051.64,3316.31 1049.76,3318.19 1047.45,3318.19C1045.14,3318.19 1043.26,3316.31 1043.26,3314L1043.26,3303.92C1021.15,3301.93 1003.53,3284.3 1001.53,3262.2L991.459,3262.2C989.144,3262.2 987.265,3260.32 987.265,3258.01C987.265,3255.69 989.144,3253.81 991.459,3253.81L1001.53,3253.81C1003.53,3231.71 1021.15,3214.08 1043.26,3212.09ZM1051.64,3220.52L1051.64,3231.07C1051.64,3233.38 1049.76,3235.26 1047.45,3235.26C1045.14,3235.26 1043.26,3233.38 1043.26,3231.07L1043.26,3220.52C1025.79,3222.45 1011.9,3236.34 1009.96,3253.81L1020.51,3253.81C1022.83,3253.81 1024.7,3255.69 1024.7,3258.01C1024.7,3260.32 1022.83,3262.2 1020.51,3262.2L1009.96,3262.2C1011.9,3279.67 1025.79,3293.56 1043.26,3295.49L1043.26,3284.94C1043.26,3282.63 1045.14,3280.75 1047.45,3280.75C1049.76,3280.75 1051.64,3282.63 1051.64,3284.94L1051.64,3295.49C1069.11,3293.56 1083,3279.67 1084.94,3262.2L1074.39,3262.2C1072.07,3262.2 1070.19,3260.32 1070.19,3258.01C1070.19,3255.69 1072.07,3253.81 1074.39,3253.81L1084.94,3253.81C1083,3236.34 1069.12,3222.45 1051.64,3220.52Z"/>
                        </g>
                    </g>
                </g>
            </g>
        </g>
    </g>
    <defs>
        <linearGradient id="_Linear1" x1="0" y1="0" x2="1" y2="0" gradientUnits="userSpaceOnUse" gradientTransform="matrix(330.092,-356.753,356.753,330.092,1389.91,3333.91)"><stop offset="0" style="stop-color:rgb(255,118,0);stop-opacity:1"/><stop offset="1" style="stop-color:rgb(255,157,0);stop-opacity:1"/></linearGradient>
        <linearGradient id="_Linear2" x1="0" y1="0" x2="1" y2="0" gradientUnits="userSpaceOnUse" gradientTransform="matrix(120.763,-180.626,180.626,120.763,1460.05,3891.11)"><stop offset="0" style="stop-color:rgb(255,129,115);stop-opacity:1"/><stop offset="1" style="stop-color:rgb(255,16,43);stop-opacity:1"/></linearGradient>
        <linearGradient id="_Linear3" x1="0" y1="0" x2="1" y2="0" gradientUnits="userSpaceOnUse" gradientTransform="matrix(341.63,-358.467,358.467,341.63,769.13,3154.78)"><stop offset="0" style="stop-color:rgb(132,29,34);stop-opacity:1"/><stop offset="1" style="stop-color:rgb(141,31,36);stop-opacity:1"/></linearGradient>
    </defs>
</svg>
