<svg id="Calque_1" data-name="Calque 1" xmlns="http://www.w3.org/2000/svg" viewBox="0 0 963 379"><defs><style>.cls-1,.cls-2,.cls-3,.cls-6{fill:none;}.cls-1{stroke:#e73327;}.cls-1,.cls-10,.cls-2,.cls-3,.cls-6,.cls-7{stroke-miterlimit:10;}.cls-1,.cls-3{stroke-width:9px;}.cls-10,.cls-2,.cls-3,.cls-6,.cls-7{stroke:#1d1d1b;}.cls-2{stroke-width:7px;}.cls-10,.cls-4,.cls-7{fill:#1d1d1b;}.cls-5{fill:#e73327;}.cls-6{stroke-width:5px;}.cls-7{stroke-width:4px;}.cls-8{isolation:isolate;font-size:30.76px;font-family:ArialRoundedMTBold, Arial Rounded MT Bold;}.cls-8,.cls-9{fill:#fff;}.cls-10{stroke-width:3px;}</style></defs><path class="cls-1" d="M943.67,273.36c-13-1.47-26.63-5.22-31-15-5.12-11.46,5.87-23.83,0-32-3-4.18-10.34-7.1-28-4"/><path class="cls-2" d="M122.12,299.14h0c-42.29.5-76-35.17-75.24-79.67l.68-40.93c.73-44.5,35.61-81,77.89-81.47h0c42.29-.5,76,35.17,75.24,79.67L200,217.67C199.28,262.17,164.41,298.65,122.12,299.14Z"/><path class="cls-3" d="M113.46,167.05c.41,6,4.27,11.23,8.79,12C128.3,180.12,134,174,134.48,165"/><path class="cls-4" d="M93,316h0a5.78,5.78,0,0,1-5.36-6.16,1.23,1.23,0,0,0,0-.19l1-15.06,11.53.55-1,15.06A6.12,6.12,0,0,1,93,316Z"/><path class="cls-4" d="M109.12,320.08h0a5.78,5.78,0,0,1-5.35-6.18c0-.06,0-.11,0-.17l1.06-15.06,11.53.55-1.06,15.06A6.08,6.08,0,0,1,109.12,320.08Z"/><path class="cls-4" d="M127.91,319.73h0A5.64,5.64,0,0,1,121.5,315c0-.11,0-.23,0-.34l-1.79-14.9,11.45-1.86,1.79,14.91A6.24,6.24,0,0,1,127.91,319.73Z"/><path class="cls-4" d="M140.85,316.73h0a5.78,5.78,0,0,1-5.35-6.16c0-.07,0-.14,0-.21l1-15,11.53.55L147,311A6.1,6.1,0,0,1,140.85,316.73Z"/><path class="cls-4" d="M157.94,312.69h0a5.65,5.65,0,0,1-6.42-4.76,3.11,3.11,0,0,1,0-.32l-1.78-14.9,11.47-1.86,1.78,14.9A6.23,6.23,0,0,1,157.94,312.69Z"/><path class="cls-5" d="M562.21,286.63c-.92,1.7-2.57,2-3.67.61l-47.67-58.31L480.56,248.7c-1,.63-2.1,0-2.5-1.49l-.54-1.92a3.59,3.59,0,0,1,1-3.79L509.92,221a1.27,1.27,0,0,1,1-.2.9.9,0,0,1,.32-.09,2,2,0,0,1,1.91.83l48.69,59.56A5.33,5.33,0,0,1,562.21,286.63Z"/><path class="cls-5" d="M342,272.36c.62,1.84,2.17,2.38,3.49,1.21l56.62-50.12,26.22,24.66c.84.79,2.05.31,2.69-1.07l.86-1.83a3.65,3.65,0,0,0-.36-3.93l-27.17-25.54a1.22,1.22,0,0,0-.94-.37.85.85,0,0,0-.3-.15,2,2,0,0,0-2,.52L343.34,267A5.51,5.51,0,0,0,342,272.36Z"/><ellipse class="cls-6" cx="448.48" cy="269.61" rx="21.61" ry="24.8"/><path class="cls-7" d="M452.35,269.56h-2c-6.84,0-12.39-6-12.39-13.49,8.16-19.1,6.1-42.82,0-68.36,0-7.45,5.55-13.48,12.39-13.48h2c6.84,0,12.39,6,12.39,13.48,3.91,25.37,5.11,49,0,68.36C464.74,263.52,459.19,269.56,452.35,269.56Z"/><path class="cls-6" d="M489.12,133.55l-27.33,28a18,18,0,0,1-18.37,4.6l-34.49-11a18,18,0,0,1-12.17-13.35l-8.87-40.71a18,18,0,0,1,4.71-16.44l27.32-28a18,18,0,0,1,18.37-4.59l34.5,11A18,18,0,0,1,485,76.36l8.88,40.71A18.08,18.08,0,0,1,489.12,133.55Z"/><path class="cls-4" d="M436.32,145.46,406.49,103.9A13.3,13.3,0,0,1,414,83.26l38.86-10.13a13.3,13.3,0,0,1,16.47,15.23l-9,51.68a13.31,13.31,0,0,1-24,5.42Z"/><rect class="cls-4" x="252.7" y="181.38" width="30.66" height="78.88" rx="15.25"/><path class="cls-4" d="M243.13,205.8h49.66a15.12,15.12,0,0,1,15.13,15.13h0a15.13,15.13,0,0,1-15.13,15.13H243.13A15.14,15.14,0,0,1,228,220.93h0A15.13,15.13,0,0,1,243.13,205.8Z"/><path class="cls-4" d="M613.71,174.57h49.66A15.12,15.12,0,0,1,678.5,189.7h0a15.13,15.13,0,0,1-15.13,15.13H613.71a15.14,15.14,0,0,1-15.13-15.13h0A15.13,15.13,0,0,1,613.71,174.57Z"/><path class="cls-4" d="M613.72,229.14h49.66a15.12,15.12,0,0,1,15.13,15.13h0a15.13,15.13,0,0,1-15.13,15.13H613.72a15.14,15.14,0,0,1-15.13-15.13h0A15.13,15.13,0,0,1,613.72,229.14Z"/><text class="cls-8" transform="translate(300.65 40.62) scale(1.01 1)">STEP 1</text><polygon class="cls-9" points="81.73 62.03 58.13 32.73 83.18 24.63 81.73 62.03"/><path class="cls-10" d="M98.87,140.64c5.41,0,10,2.85,11.32,6.72a7.18,7.18,0,0,0,.43-2.42c0-5.05-5.26-9.14-11.75-9.14s-11.75,4.09-11.75,9.14a7.43,7.43,0,0,0,.43,2.42C88.91,143.49,93.46,140.64,98.87,140.64Z"/><path class="cls-10" d="M151,140.47c4.66,0,8.57,2.77,9.74,6.53a7.8,7.8,0,0,0,.37-2.35c0-4.9-4.52-8.88-10.11-8.88s-10.1,4-10.1,8.88a7.8,7.8,0,0,0,.37,2.35C142.45,143.24,146.36,140.47,151,140.47Z"/><path class="cls-5" d="M566.45,229.5c-.36,1.9-1.84,2.66-3.31,1.7l-63.23-40.92-22.79,28.08c-.73.9-2,.61-2.83-.65l-1.1-1.67a3.56,3.56,0,0,1-.18-3.92L496.64,183a1.32,1.32,0,0,1,.89-.5,1.67,1.67,0,0,1,.28-.18,2,2,0,0,1,2.07.21l64.56,41.82A5.36,5.36,0,0,1,566.45,229.5Z"/><path class="cls-5" d="M338.57,225.5c.36,1.9,1.84,2.66,3.31,1.7l63.24-40.92,22.79,28.08c.74.9,2,.61,2.84-.65l1.1-1.67a3.58,3.58,0,0,0,.17-3.92L408.4,179a1.32,1.32,0,0,0-.89-.5,1.34,1.34,0,0,0-.28-.18,2,2,0,0,0-2.07.21l-64.58,41.82A5.36,5.36,0,0,0,338.57,225.5Z"/><path class="cls-1" d="M944.12,120.83c-13,1.48-26.64,5.23-31,15-5.13,11.47,5.87,23.84,0,32-3,4.19-10.34,7.11-28,4"/><path class="cls-2" d="M122.24,287.54h0c-34.51.44-62-31-61.39-70.17l.56-36.06C62,142.12,90.48,110,125,109.53h0c34.51-.45,62,31,61.39,70.17l-.56,36C185.22,255,156.75,287.09,122.24,287.54Z"/><ellipse class="cls-10" cx="142.12" cy="257.36" rx="15.5" ry="12.5"/><ellipse class="cls-10" cx="133.12" cy="231.36" rx="23.5" ry="15.5"/><path class="cls-2" d="M806.52,297.36h0c-42.29.5-76-35.17-75.24-79.67l.67-40.93c.74-44.5,35.61-81,77.9-81.47h0c42.29-.5,76,35.17,75.24,79.67l-.67,40.93C883.68,260.36,848.8,296.85,806.52,297.36Z"/><path class="cls-3" d="M797.86,165.25c.41,6,4.27,11.23,8.79,12,6,1.07,11.74-5,12.22-14.09"/><path class="cls-4" d="M777.43,314.18h0a5.78,5.78,0,0,1-5.36-6.16,1.23,1.23,0,0,0,0-.19l1-15.06,11.53.55-1,15.06A6.11,6.11,0,0,1,777.43,314.18Z"/><path class="cls-4" d="M793.55,318.28h0a5.78,5.78,0,0,1-5.35-6.18c0-.06,0-.11,0-.17l1.06-15.06,11.53.55-1.06,15.06A6.11,6.11,0,0,1,793.55,318.28Z"/><path class="cls-4" d="M812.31,317.93h0a5.66,5.66,0,0,1-6.42-4.78c0-.1,0-.21,0-.31l-1.78-14.9,11.47-1.86L817.32,311A6.24,6.24,0,0,1,812.31,317.93Z"/><path class="cls-4" d="M825.25,314.93h0a5.79,5.79,0,0,1-5.35-6.2c0-.05,0-.1,0-.15L821,293.51l11.53.55-1.06,15.07A6.11,6.11,0,0,1,825.25,314.93Z"/><path class="cls-4" d="M842.34,310.89h0a5.65,5.65,0,0,1-6.42-4.76,3.11,3.11,0,0,1,0-.32l-1.78-14.9,11.47-1.86,1.78,14.9A6.24,6.24,0,0,1,842.34,310.89Z"/><path class="cls-10" d="M783.27,138.84c5.41,0,10,2.85,11.32,6.72a7.18,7.18,0,0,0,.43-2.42c0-5-5.26-9.14-11.75-9.14s-11.75,4.09-11.75,9.14a7.18,7.18,0,0,0,.43,2.42C773.31,141.69,777.86,138.84,783.27,138.84Z"/><path class="cls-10" d="M835.41,138.67c4.65,0,8.56,2.77,9.74,6.53a7.8,7.8,0,0,0,.37-2.35c0-4.9-4.53-8.88-10.11-8.88s-10.11,4-10.11,8.88a8.13,8.13,0,0,0,.37,2.35C826.85,141.44,830.76,138.67,835.41,138.67Z"/><path class="cls-2" d="M806.64,285.74h0c-34.51.44-62-31-61.39-70.17l.56-36.06c.6-39.19,29.07-71.33,63.58-71.78h0c34.52-.45,62,31,61.4,70.17l-.56,36C869.62,253.15,841.12,285.29,806.64,285.74Z"/><ellipse class="cls-10" cx="826.52" cy="255.56" rx="15.5" ry="12.5"/><ellipse class="cls-10" cx="817.52" cy="229.56" rx="23.5" ry="15.5"/><path class="cls-5" d="M551.93,333c-1.18,1.54-2.85,1.55-3.72,0l-37.9-65.09-33,14.74c-1.07.48-2.07-.35-2.24-1.86l-.23-2a3.59,3.59,0,0,1,1.62-3.58l34.23-15.28a1.24,1.24,0,0,1,1,0,1.33,1.33,0,0,1,.34-.05,2,2,0,0,1,1.75,1.13l38.7,66.49A5.31,5.31,0,0,1,551.93,333Z"/><path class="cls-5" d="M342,333.41c1.18,1.54,2.85,1.55,3.72,0l37.9-65.05,33,14.74c1.07.47,2.07-.36,2.24-1.86l.23-2a3.59,3.59,0,0,0-1.62-3.58l-34.2-15.3a1.24,1.24,0,0,0-1,0,1.27,1.27,0,0,0-.34-.05,2,2,0,0,0-1.75,1.13l-38.7,66.49A5.36,5.36,0,0,0,342,333.41Z"/></svg>