<svg id="Calque_1" data-name="Calque 1" xmlns="http://www.w3.org/2000/svg" viewBox="0 0 963 379"><defs><style>.cls-1{isolation:isolate;font-size:30.76px;font-family:ArialRoundedMTBold, Arial Rounded MT Bold;}.cls-1,.cls-2,.cls-6,.cls-7{fill:#fff;}.cls-13,.cls-3,.cls-5{fill:#1d1d1b;}.cls-10,.cls-11,.cls-12,.cls-4,.cls-8,.cls-9{fill:none;}.cls-11,.cls-12,.cls-13,.cls-4,.cls-5,.cls-7,.cls-8{stroke:#1d1d1b;}.cls-10,.cls-11,.cls-12,.cls-13,.cls-4,.cls-5,.cls-6,.cls-7,.cls-8,.cls-9{stroke-miterlimit:10;}.cls-4,.cls-5{stroke-width:4px;}.cls-6{stroke:#333;}.cls-13,.cls-7{stroke-width:3px;}.cls-8{stroke-width:5px;}.cls-10,.cls-9{stroke:#8d1f24;}.cls-9{stroke-width:15px;}.cls-10,.cls-12{stroke-width:9px;}.cls-11{stroke-width:7px;}</style></defs><text class="cls-1" transform="translate(300.65 40.62) scale(1.01 1)">STEP 1</text><polygon class="cls-2" points="81.73 62.03 58.13 32.73 83.18 24.63 81.73 62.03"/><ellipse class="cls-3" cx="540.76" cy="195.6" rx="17.17" ry="15.89"/><ellipse class="cls-3" cx="536.2" cy="245.72" rx="19.8" ry="18.32"/><ellipse class="cls-3" cx="718.53" cy="227.2" rx="29.39" ry="26.14"/><ellipse class="cls-3" cx="719.92" cy="152.47" rx="19.8" ry="18.32"/><ellipse class="cls-3" cx="545.52" cy="130.89" rx="19.8" ry="18.32"/><ellipse class="cls-3" cx="596.41" cy="91.75" rx="33.84" ry="31.32"/><ellipse class="cls-3" cx="686.38" cy="93.03" rx="19.8" ry="18.32"/><rect class="cls-3" x="540.97" y="78.06" width="177.56" height="253.1" rx="80.34"/><rect class="cls-2" x="555.99" y="93.03" width="147.52" height="230" rx="69.54"/><rect class="cls-4" x="565.27" y="105.89" width="128.87" height="207.61" rx="60.75"/><rect class="cls-5" x="613.24" y="158.69" width="35.22" height="56.29" rx="16.6"/><path class="cls-2" d="M635.14,179.19l8.27-12.29c-2.08-2-4.28-5.85-8.13-4.09Z"/><path class="cls-6" d="M626.41,179.19l-8.27-12.29c2.08-2,4.28-5.85,8.13-4.09Z"/><ellipse class="cls-7" cx="665.29" cy="161.27" rx="14.37" ry="5.39"/><ellipse class="cls-7" cx="591.85" cy="155.88" rx="14.37" ry="7.94"/><path class="cls-8" d="M675.69,152.51c-1.12,1.44-7.34,2.83-13.92,3.26-5.08.33-9.8,0-12.08-.7"/><path class="cls-8" d="M678.2,168.93c-1.12-1.43-7.35-2.82-13.92-3.25-5.08-.33-9.8,0-12.08.7"/><path class="cls-8" d="M608.94,150.94c-1.74.94-8.42-.16-15-2.33-5.07-1.67-9.53-3.8-11.39-5.42"/><path class="cls-8" d="M604.68,167.81c-1.08-2.83-7.59-5.21-14.56-5.62-5.38-.31-10.43.58-12.92,2.26"/><ellipse class="cls-3" cx="649.48" cy="154.76" rx="3.07" ry="2.61"/><ellipse class="cls-3" cx="676.77" cy="151.99" rx="3.07" ry="2.61"/><ellipse class="cls-3" cx="677.77" cy="168.99" rx="3.07" ry="2.61"/><ellipse class="cls-3" cx="652.77" cy="165.99" rx="3.07" ry="2.61"/><ellipse class="cls-3" cx="604.77" cy="166.99" rx="3.07" ry="2.61"/><ellipse class="cls-3" cx="578.77" cy="163.99" rx="3.07" ry="2.61"/><ellipse class="cls-3" cx="608.77" cy="150.99" rx="3.07" ry="2.61"/><ellipse class="cls-3" cx="583.77" cy="143.99" rx="3.07" ry="2.61"/><ellipse class="cls-9" cx="723.4" cy="137.96" rx="56.4" ry="52.96"/><path class="cls-10" d="M324.73,277.48c-13-1.47-26.63-5.22-31-15-5.12-11.46,5.87-23.83,0-32-3-4.19-10.34-7.11-28-4"/><path class="cls-10" d="M325.2,125c-13,1.47-26.64,5.23-31,15-5.13,11.47,5.87,23.83,0,32-3,4.19-10.35,7.11-28,4"/><path class="cls-11" d="M187.58,301.5h0c-42.29.5-76-35.17-75.24-79.67L113,180.9c.74-44.5,35.61-81,77.9-81.47h0c42.29-.5,76,35.17,75.24,79.67L265.47,220C264.74,264.53,229.86,301,187.58,301.5Z"/><path class="cls-12" d="M178.92,169.42c.41,6,4.27,11.23,8.79,12,6,1.07,11.74-5.06,12.22-14.09"/><path class="cls-3" d="M158.48,318.34h0a5.8,5.8,0,0,1-5.36-6.2c0-.05,0-.1,0-.15l1.06-15.06,11.53.54-1.06,15.07A6.1,6.1,0,0,1,158.48,318.34Z"/><path class="cls-3" d="M174.61,322.42h0a5.78,5.78,0,0,1-5.36-6.18c0-.05,0-.11,0-.17L170.33,301l11.52.55-1,15.06A6.1,6.1,0,0,1,174.61,322.42Z"/><path class="cls-3" d="M193.37,322.08h0a5.64,5.64,0,0,1-6.42-4.73c0-.12,0-.23,0-.35l-1.78-14.9,11.47-1.86,1.78,14.9A6.24,6.24,0,0,1,193.37,322.08Z"/><path class="cls-3" d="M206.31,319.09h0a5.8,5.8,0,0,1-5.36-6.2c0-.05,0-.1,0-.15L202,297.67l11.52.55-1.05,15.06A6.11,6.11,0,0,1,206.31,319.09Z"/><path class="cls-3" d="M223.39,315.05h0a5.66,5.66,0,0,1-6.42-4.77l0-.31-1.74-14.91,11.47-1.85,1.78,14.9A6.25,6.25,0,0,1,223.39,315.05Z"/><path class="cls-13" d="M164.33,143c5.41,0,9.95,2.85,11.32,6.72a7.39,7.39,0,0,0,.43-2.42c0-5-5.27-9.14-11.75-9.14s-11.75,4.09-11.75,9.14a6.86,6.86,0,0,0,.43,2.42C154.37,145.85,158.91,143,164.33,143Z"/><path class="cls-13" d="M216.47,142.83c4.65,0,8.56,2.77,9.74,6.53a8.13,8.13,0,0,0,.37-2.35c0-4.9-4.53-8.88-10.11-8.88s-10.11,4-10.11,8.88a7.8,7.8,0,0,0,.37,2.35C207.91,145.6,211.82,142.83,216.47,142.83Z"/><path class="cls-11" d="M187.7,289.89h0c-34.52.45-62-31-61.39-70.16l.55-36.06c.61-39.2,29.08-71.33,63.59-71.78h0c34.52-.45,62,31,61.39,70.17l-.55,36.05C250.68,257.31,222.2,289.42,187.7,289.89Z"/><ellipse class="cls-13" cx="207.58" cy="259.72" rx="15.5" ry="12.5"/><ellipse class="cls-13" cx="198.58" cy="233.72" rx="23.5" ry="15.5"/><line class="cls-9" x1="762" y1="130.5" x2="805" y2="130.5"/><line class="cls-9" x1="642" y1="135.5" x2="685" y2="135.5"/><line class="cls-9" x1="723.5" y1="100" x2="723.5" y2="57"/><line class="cls-9" x1="724.5" y1="212" x2="724.5" y2="169"/></svg>