<?xml version="1.0" encoding="UTF-8" standalone="no"?>
<!DOCTYPE svg PUBLIC "-//W3C//DTD SVG 1.1//EN" "http://www.w3.org/Graphics/SVG/1.1/DTD/svg11.dtd">
<svg width="100%" height="100%" viewBox="0 0 53 66" version="1.1" xmlns="http://www.w3.org/2000/svg" xmlns:xlink="http://www.w3.org/1999/xlink" xml:space="preserve" xmlns:serif="http://www.serif.com/" style="fill-rule:evenodd;clip-rule:evenodd;stroke-linejoin:round;stroke-miterlimit:2;">
    <g transform="matrix(1,0,0,1,-21032,-1150)">
        <g transform="matrix(3.03411,0,0,5.19663,13839.2,942.188)">
            <g id="HP1" transform="matrix(0.329586,0,0,0.192432,-4556.6,-178.942)">
                <path d="M21070.6,1145.25C21070.6,1141.38 21067.5,1138.25 21063.6,1138.25L21025.9,1138.25C21022,1138.25 21018.9,1141.38 21018.9,1145.25L21018.9,1196.25C21018.9,1200.11 21022,1203.25 21025.9,1203.25C21025.9,1203.25 21063.6,1203.25 21063.6,1203.25C21067.5,1203.25 21070.6,1200.11 21070.6,1196.25L21070.6,1145.25ZM21066.6,1145.25L21066.6,1196.25C21066.6,1197.9 21065.3,1199.25 21063.6,1199.25L21025.9,1199.25C21024.2,1199.25 21022.9,1197.9 21022.9,1196.25C21022.9,1196.25 21022.9,1145.25 21022.9,1145.25C21022.9,1143.59 21024.2,1142.25 21025.9,1142.25C21025.9,1142.25 21063.6,1142.25 21063.6,1142.25C21065.3,1142.25 21066.6,1143.59 21066.6,1145.25ZM21031.6,1184.74C21033.2,1184.74 21034.5,1186.04 21034.5,1187.65C21034.5,1189.25 21033.2,1190.56 21031.6,1190.56C21030,1190.56 21028.7,1189.25 21028.7,1187.65C21028.7,1186.04 21030,1184.74 21031.6,1184.74ZM21060.7,1187.65C21060.7,1186.84 21060,1186.19 21059.2,1186.19L21041.5,1186.19C21040.7,1186.19 21040.1,1186.84 21040.1,1187.65C21040.1,1188.45 21040.7,1189.1 21041.5,1189.1L21059.2,1189.1C21060,1189.1 21060.7,1188.45 21060.7,1187.65ZM21031.6,1173.47C21033.2,1173.47 21034.5,1174.78 21034.5,1176.38C21034.5,1177.99 21033.2,1179.29 21031.6,1179.29C21030,1179.29 21028.7,1177.99 21028.7,1176.38C21028.7,1174.78 21030,1173.47 21031.6,1173.47ZM21060.7,1176.38C21060.7,1175.58 21060,1174.93 21059.2,1174.93L21041.5,1174.93C21040.7,1174.93 21040.1,1175.58 21040.1,1176.38C21040.1,1177.18 21040.7,1177.84 21041.5,1177.84L21059.2,1177.84C21060,1177.84 21060.7,1177.18 21060.7,1176.38ZM21031.6,1162.21C21033.2,1162.21 21034.5,1163.51 21034.5,1165.11C21034.5,1166.72 21033.2,1168.02 21031.6,1168.02C21030,1168.02 21028.7,1166.72 21028.7,1165.11C21028.7,1163.51 21030,1162.21 21031.6,1162.21ZM21060.7,1165.11C21060.7,1164.31 21060,1163.66 21059.2,1163.66L21041.5,1163.66C21040.7,1163.66 21040.1,1164.31 21040.1,1165.11C21040.1,1165.92 21040.7,1166.57 21041.5,1166.57L21059.2,1166.57C21060,1166.57 21060.7,1165.92 21060.7,1165.11ZM21031.6,1150.94C21033.2,1150.94 21034.5,1152.24 21034.5,1153.85C21034.5,1155.45 21033.2,1156.76 21031.6,1156.76C21030,1156.76 21028.7,1155.45 21028.7,1153.85C21028.7,1152.24 21030,1150.94 21031.6,1150.94ZM21060.7,1153.85C21060.7,1153.05 21060,1152.39 21059.2,1152.39L21041.5,1152.39C21040.7,1152.39 21040.1,1153.05 21040.1,1153.85C21040.1,1154.65 21040.7,1155.3 21041.5,1155.3L21059.2,1155.3C21060,1155.3 21060.7,1154.65 21060.7,1153.85Z" style="fill:white;"/>
            </g>
        </g>
    </g>
</svg>
