<?xml version="1.0" encoding="UTF-8" standalone="no"?>
<!DOCTYPE svg PUBLIC "-//W3C//DTD SVG 1.1//EN" "http://www.w3.org/Graphics/SVG/1.1/DTD/svg11.dtd">
<svg width="100%" height="100%" viewBox="0 0 59 67" version="1.1" xmlns="http://www.w3.org/2000/svg" xmlns:xlink="http://www.w3.org/1999/xlink" xml:space="preserve" xmlns:serif="http://www.serif.com/" style="fill-rule:evenodd;clip-rule:evenodd;stroke-linejoin:round;stroke-miterlimit:2;">
    <g transform="matrix(1,0,0,1,-21329,-1151)">
        <g transform="matrix(3.03411,0,0,5.19663,13839.2,942.188)">
            <g id="HP2" transform="matrix(0.363356,0,0,0.212149,-5271.28,-202.706)">
                <path d="M21329.6,1201.25L21343.8,1201.25C21344.9,1201.25 21345.8,1202.14 21345.8,1203.25C21345.8,1204.35 21344.9,1205.25 21343.8,1205.25L21311.4,1205.25C21310.3,1205.25 21309.4,1204.35 21309.4,1203.25C21309.4,1202.14 21310.3,1201.25 21311.4,1201.25L21325.6,1201.25L21325.6,1160.9C21324.6,1160.43 21323.8,1159.61 21323.3,1158.59L21313.6,1158.59L21319.8,1182.81C21320.6,1182.89 21321.3,1182.99 21322,1183.09C21318,1188.83 21305,1188.04 21301.4,1183.09C21302.2,1182.97 21303.1,1182.86 21303.9,1182.77L21310.4,1158.59L21303.5,1158.59C21302.4,1158.59 21301.5,1157.69 21301.5,1156.59C21301.5,1155.49 21302.4,1154.59 21303.5,1154.59L21323.3,1154.59C21323.8,1153.57 21324.6,1152.75 21325.6,1152.28L21325.6,1147.02C21325.6,1145.92 21326.5,1145.02 21327.6,1145.02C21328.7,1145.02 21329.6,1145.92 21329.6,1147.02L21329.6,1152.3C21330.6,1152.78 21331.4,1153.59 21331.9,1154.59L21351.7,1154.59C21352.9,1154.59 21353.7,1155.49 21353.7,1156.59C21353.7,1157.69 21352.9,1158.59 21351.7,1158.59L21345.4,1158.59L21351.7,1182.81C21352.4,1182.89 21353.2,1182.99 21353.9,1183.09C21349.9,1188.83 21336.8,1188.04 21333.3,1183.09C21334.1,1182.97 21334.9,1182.86 21335.7,1182.77L21342.3,1158.59L21331.9,1158.59C21331.4,1159.59 21330.6,1160.4 21329.6,1160.88L21329.6,1201.25ZM21306.1,1182.09L21317.6,1182.09L21312,1160.5L21306.1,1182.09ZM21338,1182.09L21349.4,1182.09L21343.9,1160.5L21338,1182.09Z" style="fill:white;"/>
            </g>
        </g>
    </g>
</svg>
