<?xml version="1.0" encoding="UTF-8" standalone="no"?>
<!DOCTYPE svg PUBLIC "-//W3C//DTD SVG 1.1//EN" "http://www.w3.org/Graphics/SVG/1.1/DTD/svg11.dtd">
<svg width="100%" height="100%" viewBox="0 0 45 66" version="1.1" xmlns="http://www.w3.org/2000/svg" xmlns:xlink="http://www.w3.org/1999/xlink" xml:space="preserve" xmlns:serif="http://www.serif.com/" style="fill-rule:evenodd;clip-rule:evenodd;stroke-linejoin:round;stroke-miterlimit:2;">
    <g transform="matrix(1,0,0,1,-21106,-1150)">
        <g transform="matrix(3.03411,0,0,5.19663,13839.2,942.188)">
            <g id="HP3" transform="matrix(0.402432,0,0,0.234964,-6116.78,-228.448)">
                <path d="M21174.3,1146.03C21174.3,1145.97 21174.3,1145.9 21174.3,1145.84L21175.4,1143.62C21175.7,1143 21176.4,1142.73 21177,1143.02L21179.8,1144.33C21180.4,1144.62 21180.7,1145.35 21180.4,1145.96L21179.4,1148.13L21181,1148.76C21181.4,1148.92 21181.7,1149.22 21181.8,1149.6C21182,1149.99 21181.9,1150.41 21181.8,1150.79L21177,1160.93C21182.5,1166.1 21185,1171.4 21184.9,1176.76C21184.9,1181.56 21182.7,1186.47 21178.5,1191.42L21186.3,1191.42C21186.9,1191.42 21187.5,1191.95 21187.5,1192.6L21187.5,1194.96C21187.5,1195.61 21186.9,1196.14 21186.3,1196.14L21152.8,1196.14C21152.2,1196.14 21151.6,1195.61 21151.6,1194.96L21151.6,1192.6C21151.6,1191.95 21152.2,1191.42 21152.8,1191.42L21166,1191.42C21166.1,1191.36 21166.2,1191.3 21166.3,1191.26C21173.6,1187.6 21177.3,1182.17 21177.1,1174.86L21170.3,1175.34L21168.7,1178.7C21168.6,1179.06 21168.3,1179.34 21167.9,1179.47C21167.5,1179.61 21167.1,1179.59 21166.7,1179.42L21159.5,1176.02C21158.7,1175.67 21158.4,1174.8 21158.8,1174.05L21171.2,1146.34C21171.5,1145.6 21172.4,1145.26 21173.1,1145.57L21174.3,1146.03ZM21175.4,1164.95C21175.8,1165.5 21176,1166.17 21176,1166.89C21176,1168.66 21174.6,1170.11 21172.9,1170.28L21172,1172.21L21178.4,1171.76C21179.2,1171.7 21179.9,1172.31 21180,1173.12C21180.7,1180.69 21178.1,1186.69 21172.3,1191.1L21174.7,1191.1C21179.3,1186.21 21181.9,1181.44 21181.9,1176.71C21182,1172.38 21180,1168.15 21175.8,1163.96L21175.4,1164.95ZM21167.7,1183C21168,1182.54 21167.8,1181.98 21167.3,1181.76L21157,1176.72C21156.5,1176.5 21156,1176.69 21155.7,1177.15L21154.9,1178.82C21154.7,1179.28 21154.9,1179.83 21155.4,1180.06L21165.7,1185.1C21166.1,1185.32 21166.7,1185.13 21166.9,1184.67L21167.7,1183ZM21172.5,1163.49L21178.4,1150.94L21173.3,1148.89L21162.1,1173.93L21166.6,1176.07L21169.9,1169.02C21169.5,1168.44 21169.2,1167.69 21169.2,1166.89C21169.2,1165.03 21170.7,1163.52 21172.5,1163.49Z" style="fill:white;"/>
            </g>
        </g>
    </g>
</svg>
