<?xml version="1.0" encoding="UTF-8" standalone="no"?>
<!DOCTYPE svg PUBLIC "-//W3C//DTD SVG 1.1//EN" "http://www.w3.org/Graphics/SVG/1.1/DTD/svg11.dtd">
<svg width="100%" height="100%" viewBox="0 0 76 68" version="1.1" xmlns="http://www.w3.org/2000/svg" xmlns:xlink="http://www.w3.org/1999/xlink" xml:space="preserve" xmlns:serif="http://www.serif.com/" style="fill-rule:evenodd;clip-rule:evenodd;stroke-linejoin:round;stroke-miterlimit:2;">
    <g transform="matrix(1,0,0,1,-21234,-1150)">
        <g transform="matrix(3.03411,0,0,5.19663,13839.2,942.188)">
            <g id="HP4" transform="matrix(0.379259,0,0,0.221434,-5610.71,-213.897)">
                <path d="M21246.8,1160.23L21262.1,1147.49C21262.8,1146.88 21263.9,1146.87 21264.6,1147.47L21264.7,1147.53C21264.9,1147.63 21265,1147.76 21265.2,1147.91L21265.2,1147.93L21280.3,1160.13L21280.3,1160.14L21280.3,1160.14L21285.1,1164.08C21286,1164.77 21286.1,1166.03 21285.4,1166.89C21284.7,1167.75 21283.5,1167.88 21282.6,1167.19L21281,1165.88L21281,1189.88C21281,1190.98 21280.1,1191.88 21279,1191.88L21274,1191.88C21278.3,1194.44 21280.4,1197.3 21280.4,1197.3C21281,1198.19 21280.8,1199.44 21279.9,1200.1C21279,1200.75 21277.8,1200.56 21277.1,1199.67C21277.1,1199.67 21271.3,1191.88 21258.8,1191.88C21252.5,1191.88 21248.8,1195.1 21244.3,1198.21C21239.2,1201.74 21233.3,1205.25 21222.9,1205.25C21221.8,1205.25 21220.9,1204.35 21220.9,1203.25C21220.9,1202.14 21221.8,1201.25 21222.9,1201.25C21234.2,1201.25 21239.5,1196.6 21244.9,1192.94C21245.6,1192.42 21246.4,1191.92 21247.1,1191.45C21246.7,1191.09 21246.4,1190.53 21246.4,1189.9L21246.1,1165.98L21244.7,1167.17C21243.9,1167.88 21242.6,1167.76 21241.9,1166.91C21241.2,1166.07 21241.3,1164.8 21242.1,1164.1L21246.8,1160.23ZM21250.4,1187.88L21277,1187.88L21277,1162.98C21272.4,1160.66 21266.4,1154.88 21263.7,1152.12C21260.9,1154.85 21254.9,1160.59 21250.1,1163.03L21250.4,1187.88ZM21231.9,1147.55C21236.9,1147.55 21241,1151.6 21241,1156.59C21241,1161.58 21236.9,1165.63 21231.9,1165.63C21226.9,1165.63 21222.9,1161.58 21222.9,1156.59C21222.9,1151.6 21226.9,1147.55 21231.9,1147.55Z" style="fill:white;"/>
            </g>
        </g>
    </g>
</svg>
