<?xml version="1.0" encoding="UTF-8" standalone="no"?>
<!DOCTYPE svg PUBLIC "-//W3C//DTD SVG 1.1//EN" "http://www.w3.org/Graphics/SVG/1.1/DTD/svg11.dtd">
<svg width="100%" height="100%" viewBox="0 0 50 66" version="1.1" xmlns="http://www.w3.org/2000/svg" xmlns:xlink="http://www.w3.org/1999/xlink" xml:space="preserve" xmlns:serif="http://www.serif.com/" style="fill-rule:evenodd;clip-rule:evenodd;stroke-linejoin:round;stroke-miterlimit:2;">
    <g transform="matrix(1,0,0,1,-21164,-1150)">
        <g transform="matrix(3.03411,0,0,5.19663,13839.2,942.188)">
            <g id="HP5" transform="matrix(0.323283,0,0,0.188752,-4433.27,-174.731)">
                <path d="M21184.7,1140.78C21185.3,1139.23 21186.8,1138.13 21188.5,1138.13C21190.8,1138.13 21192.6,1139.97 21192.6,1142.25C21192.6,1144.52 21190.8,1146.37 21188.5,1146.37C21187.7,1146.37 21186.9,1146.12 21186.3,1145.69C21186.1,1146.12 21186,1146.6 21185.9,1147.11C21184.9,1152.46 21185.4,1161.26 21185.4,1167.86C21185.4,1172.12 21188.9,1176.91 21196.4,1176.92L21196.4,1176.92L21196.4,1176.92C21203.8,1176.91 21206.9,1172.32 21206.9,1169.24C21207.1,1162.72 21207.3,1153.3 21206.2,1147.52C21206,1146.82 21205.9,1146.18 21205.7,1145.62C21205,1146.09 21204.2,1146.37 21203.3,1146.37C21201.1,1146.37 21199.2,1144.52 21199.2,1142.25C21199.2,1139.97 21201.1,1138.13 21203.3,1138.13C21205.1,1138.13 21206.5,1139.19 21207.1,1140.7C21208,1141.35 21208.7,1142.38 21209.3,1143.79C21211.3,1149.17 21211.1,1161.32 21210.9,1169.31C21210.9,1173.45 21207.4,1180.09 21198.2,1180.85C21198,1182.89 21197.8,1186.59 21198.5,1190.29C21199.4,1195.29 21202,1200.4 21209.1,1200.4C21214.7,1200.4 21217.6,1196.03 21219.2,1191.01C21222,1182.54 21221.1,1171.95 21221.1,1171.95C21221.1,1171.54 21221.2,1171.14 21221.4,1170.8C21217.8,1169.96 21215.1,1166.71 21215.1,1162.84C21215.1,1158.33 21218.8,1154.67 21223.3,1154.67C21227.8,1154.67 21231.4,1158.33 21231.4,1162.84C21231.4,1166.79 21228.6,1170.09 21224.9,1170.85C21225,1171.08 21225.1,1171.35 21225.1,1171.64C21225.1,1171.64 21226,1183.09 21223,1192.24C21220.8,1198.97 21216.6,1204.4 21209.1,1204.4C21201.4,1204.4 21197.5,1200.05 21195.6,1194.82C21193.8,1189.81 21193.9,1183.93 21194.2,1180.81C21185.3,1179.88 21181.4,1173.38 21181.4,1167.87C21181.4,1159.79 21180.9,1148.58 21182.7,1143.63C21183.2,1142.34 21183.9,1141.39 21184.7,1140.78ZM21223.3,1169.26C21219.7,1169.26 21216.8,1166.38 21216.8,1162.84C21216.8,1159.29 21219.7,1156.42 21223.3,1156.42C21226.8,1156.42 21229.7,1159.29 21229.7,1162.84C21229.7,1166.38 21226.8,1169.26 21223.3,1169.26ZM21223.3,1167.38C21220.8,1167.38 21218.7,1165.34 21218.7,1162.84C21218.7,1160.33 21220.8,1158.3 21223.3,1158.3C21225.8,1158.3 21227.8,1160.33 21227.8,1162.84C21227.8,1165.34 21225.8,1167.38 21223.3,1167.38ZM21223.3,1166.05C21221.5,1166.05 21220,1164.61 21220,1162.84C21220,1161.07 21221.5,1159.63 21223.3,1159.63C21225,1159.63 21226.5,1161.07 21226.5,1162.84C21226.5,1164.61 21225,1166.05 21223.3,1166.05Z" style="fill:white;"/>
            </g>
        </g>
    </g>
</svg>
