<?xml version="1.0" encoding="UTF-8" standalone="no"?>
<!DOCTYPE svg PUBLIC "-//W3C//DTD SVG 1.1//EN" "http://www.w3.org/Graphics/SVG/1.1/DTD/svg11.dtd">
<svg width="100%" height="100%" viewBox="0 0 68 66" version="1.1" xmlns="http://www.w3.org/2000/svg" xmlns:xlink="http://www.w3.org/1999/xlink" xml:space="preserve" xmlns:serif="http://www.serif.com/" style="fill-rule:evenodd;clip-rule:evenodd;stroke-linejoin:round;stroke-miterlimit:2;">
    <g transform="matrix(1,0,0,1,-21396,-1151)">
        <g transform="matrix(3.03411,0,0,5.19663,13839.2,942.188)">
            <g id="HP6" transform="matrix(0.332634,0,0,0.194212,-4617.19,-183.426)">
                <path d="M21403.8,1206.9L21404.6,1206.9C21402.8,1203.66 21402.1,1200.35 21402.3,1197C21402.3,1196.45 21402.8,1196.02 21403.4,1196.06C21403.9,1196.09 21404.3,1196.56 21404.3,1197.11C21404.1,1200.59 21404.9,1204 21407.2,1207.33C21407.4,1207.64 21407.4,1208.04 21407.3,1208.37C21407.1,1208.7 21406.7,1208.9 21406.4,1208.9L21404.7,1208.9L21404.7,1215.49C21404.7,1216.05 21404.3,1216.49 21403.7,1216.49C21403.2,1216.49 21402.7,1216.05 21402.7,1215.49L21402.7,1208.9L21401.5,1208.9L21401.5,1215.49C21401.5,1216.05 21401.1,1216.49 21400.5,1216.49C21400,1216.49 21399.5,1216.05 21399.5,1215.49L21399.5,1208.9L21398,1208.9C21397.6,1208.9 21397.3,1208.71 21397.1,1208.41C21396.9,1208.11 21396.9,1207.74 21397.1,1207.42C21398.7,1204.4 21399.6,1201.12 21399.7,1197.11C21399.7,1196.56 21400.2,1196.12 21400.7,1196.13C21401.3,1196.14 21401.7,1196.6 21401.7,1197.15C21401.6,1200.87 21400.9,1204.01 21399.6,1206.9L21403.7,1206.9C21403.7,1206.9 21403.7,1206.9 21403.7,1206.9C21403.8,1206.9 21403.8,1206.9 21403.8,1206.9ZM21431.2,1206.9L21432,1206.9C21430.2,1203.66 21429.6,1200.35 21429.8,1197C21429.8,1196.45 21430.3,1196.02 21430.8,1196.06C21431.4,1196.09 21431.8,1196.56 21431.8,1197.11C21431.6,1200.59 21432.4,1204 21434.7,1207.33C21434.9,1207.64 21434.9,1208.04 21434.7,1208.37C21434.6,1208.7 21434.2,1208.9 21433.8,1208.9L21432.2,1208.9L21432.2,1215.49C21432.2,1216.05 21431.8,1216.49 21431.2,1216.49C21430.7,1216.49 21430.2,1216.05 21430.2,1215.49L21430.2,1208.9L21429,1208.9L21429,1215.49C21429,1216.05 21428.5,1216.49 21428,1216.49C21427.4,1216.49 21427,1216.05 21427,1215.49L21427,1208.9L21425.4,1208.9C21425.1,1208.9 21424.7,1208.71 21424.6,1208.41C21424.4,1208.11 21424.4,1207.74 21424.5,1207.42C21426.2,1204.4 21427.1,1201.12 21427.2,1197.11C21427.2,1196.56 21427.6,1196.12 21428.2,1196.13C21428.8,1196.14 21429.2,1196.6 21429.2,1197.15C21429.1,1200.87 21428.4,1204.01 21427,1206.9L21431.2,1206.9C21431.2,1206.9 21431.2,1206.9 21431.2,1206.9C21431.2,1206.9 21431.2,1206.9 21431.2,1206.9ZM21376.3,1206.9L21377.1,1206.9C21375.3,1203.66 21374.6,1200.35 21374.8,1197C21374.9,1196.45 21375.3,1196.02 21375.9,1196.06C21376.4,1196.09 21376.9,1196.56 21376.8,1197.11C21376.6,1200.59 21377.4,1204 21379.7,1207.33C21379.9,1207.64 21380,1208.04 21379.8,1208.37C21379.6,1208.7 21379.3,1208.9 21378.9,1208.9L21377.3,1208.9L21377.3,1215.49C21377.3,1216.05 21376.8,1216.49 21376.3,1216.49C21375.7,1216.49 21375.3,1216.05 21375.3,1215.49L21375.3,1208.9L21374.1,1208.9L21374.1,1215.49C21374.1,1216.05 21373.6,1216.49 21373.1,1216.49C21372.5,1216.49 21372.1,1216.05 21372.1,1215.49L21372.1,1208.9L21370.5,1208.9C21370.1,1208.9 21369.8,1208.71 21369.6,1208.41C21369.4,1208.11 21369.4,1207.74 21369.6,1207.42C21371.2,1204.4 21372.2,1201.12 21372.2,1197.11C21372.3,1196.56 21372.7,1196.12 21373.3,1196.13C21373.8,1196.14 21374.3,1196.6 21374.2,1197.15C21374.2,1200.87 21373.4,1204.01 21372.1,1206.9L21376.3,1206.9C21376.3,1206.9 21376.3,1206.9 21376.3,1206.9C21376.3,1206.9 21376.3,1206.9 21376.3,1206.9ZM21388.8,1203.64L21388.8,1199.29C21388.8,1198.74 21389.2,1198.29 21389.8,1198.29C21390.3,1198.29 21390.8,1198.74 21390.8,1199.29L21390.8,1215.41C21390.8,1215.97 21390.3,1216.41 21389.8,1216.41C21389.2,1216.41 21388.8,1215.97 21388.8,1215.41L21388.8,1205.64L21387.8,1205.64L21387.8,1215.41C21387.8,1215.97 21387.3,1216.41 21386.8,1216.41C21386.2,1216.41 21385.8,1215.97 21385.8,1215.41L21385.8,1199.29C21385.8,1198.74 21386.2,1198.29 21386.8,1198.29C21387.3,1198.29 21387.8,1198.74 21387.8,1199.29L21387.8,1203.64L21388.8,1203.64ZM21416.2,1203.64L21416.2,1199.29C21416.2,1198.74 21416.7,1198.29 21417.2,1198.29C21417.8,1198.29 21418.2,1198.74 21418.2,1199.29L21418.2,1215.41C21418.2,1215.97 21417.8,1216.41 21417.2,1216.41C21416.7,1216.41 21416.2,1215.97 21416.2,1215.41L21416.2,1205.64L21415.2,1205.64L21415.2,1215.41C21415.2,1215.97 21414.8,1216.41 21414.2,1216.41C21413.7,1216.41 21413.2,1215.97 21413.2,1215.41L21413.2,1199.29C21413.2,1198.74 21413.7,1198.29 21414.2,1198.29C21414.8,1198.29 21415.2,1198.74 21415.2,1199.29L21415.2,1203.64L21416.2,1203.64ZM21398.1,1203.67C21398.1,1199.9 21398.9,1197.24 21400,1195.73C21400.6,1194.94 21401.3,1194.5 21402,1194.5C21402.8,1194.5 21403.5,1194.94 21404.1,1195.73C21405.2,1197.24 21406,1199.9 21406,1203.67C21406,1204.22 21406.5,1204.67 21407,1204.67C21407.6,1204.67 21408,1204.22 21408,1203.67C21408,1199.3 21407,1196.26 21405.7,1194.51C21404.6,1193.13 21403.3,1192.5 21402,1192.5C21400.8,1192.5 21399.5,1193.13 21398.4,1194.51C21397.1,1196.26 21396.1,1199.3 21396.1,1203.67C21396.1,1204.22 21396.5,1204.67 21397.1,1204.67C21397.6,1204.67 21398.1,1204.22 21398.1,1203.67ZM21370.6,1203.67C21370.6,1199.9 21371.4,1197.24 21372.5,1195.73C21373.2,1194.94 21373.9,1194.5 21374.6,1194.5C21375.3,1194.5 21376,1194.94 21376.6,1195.73C21377.8,1197.24 21378.5,1199.9 21378.5,1203.67C21378.5,1204.22 21379,1204.67 21379.5,1204.67C21380.1,1204.67 21380.5,1204.22 21380.5,1203.67C21380.5,1199.3 21379.5,1196.26 21378.2,1194.51C21377.1,1193.13 21375.8,1192.5 21374.6,1192.5C21373.3,1192.5 21372,1193.13 21371,1194.51C21369.6,1196.26 21368.6,1199.3 21368.6,1203.67C21368.6,1204.22 21369.1,1204.67 21369.6,1204.67C21370.2,1204.67 21370.6,1204.22 21370.6,1203.67ZM21425.5,1203.67C21425.5,1199.9 21426.3,1197.24 21427.5,1195.73C21428.1,1194.94 21428.8,1194.5 21429.5,1194.5C21430.2,1194.5 21430.9,1194.94 21431.5,1195.73C21432.7,1197.24 21433.5,1199.9 21433.5,1203.67C21433.5,1204.22 21433.9,1204.67 21434.5,1204.67C21435,1204.67 21435.5,1204.22 21435.5,1203.67C21435.5,1199.3 21434.5,1196.26 21433.1,1194.51C21432.1,1193.13 21430.8,1192.5 21429.5,1192.5C21428.3,1192.5 21427,1193.13 21425.9,1194.51C21424.6,1196.26 21423.5,1199.3 21423.5,1203.67C21423.5,1204.22 21424,1204.67 21424.5,1204.67C21425.1,1204.67 21425.5,1204.22 21425.5,1203.67ZM21411.8,1203.66C21411.8,1199.89 21412.6,1197.23 21413.8,1195.72C21414.4,1194.93 21415.1,1194.48 21415.8,1194.48C21416.5,1194.48 21417.2,1194.93 21417.8,1195.72C21419,1197.23 21419.8,1199.89 21419.8,1203.66C21419.8,1204.21 21420.2,1204.66 21420.8,1204.66C21421.3,1204.66 21421.8,1204.21 21421.8,1203.66C21421.8,1199.29 21420.7,1196.25 21419.4,1194.5C21418.3,1193.12 21417,1192.48 21415.8,1192.48C21414.5,1192.48 21413.2,1193.12 21412.2,1194.5C21410.8,1196.25 21409.8,1199.29 21409.8,1203.66C21409.8,1204.21 21410.3,1204.66 21410.8,1204.66C21411.4,1204.66 21411.8,1204.21 21411.8,1203.66ZM21384.3,1203.66C21384.3,1199.89 21385.1,1197.23 21386.3,1195.72C21386.9,1194.93 21387.6,1194.48 21388.3,1194.48C21389,1194.48 21389.7,1194.93 21390.3,1195.72C21391.5,1197.23 21392.3,1199.89 21392.3,1203.66C21392.3,1204.21 21392.7,1204.66 21393.3,1204.66C21393.8,1204.66 21394.3,1204.21 21394.3,1203.66C21394.3,1199.29 21393.3,1196.25 21391.9,1194.5C21390.9,1193.12 21389.6,1192.48 21388.3,1192.48C21387,1192.48 21385.8,1193.12 21384.7,1194.5C21383.4,1196.25 21382.3,1199.29 21382.3,1203.66C21382.3,1204.21 21382.8,1204.66 21383.3,1204.66C21383.9,1204.66 21384.3,1204.21 21384.3,1203.66ZM21388.3,1184.83C21390.1,1184.83 21391.6,1186.31 21391.6,1188.14C21391.6,1189.96 21390.1,1191.45 21388.3,1191.45C21386.5,1191.45 21385,1189.96 21385,1188.14C21385,1186.31 21386.5,1184.83 21388.3,1184.83ZM21374.6,1184.83C21376.4,1184.83 21377.9,1186.31 21377.9,1188.14C21377.9,1189.96 21376.4,1191.45 21374.6,1191.45C21372.8,1191.45 21371.3,1189.96 21371.3,1188.14C21371.3,1186.31 21372.8,1184.83 21374.6,1184.83ZM21429.5,1184.83C21431.3,1184.83 21432.8,1186.31 21432.8,1188.14C21432.8,1189.96 21431.3,1191.45 21429.5,1191.45C21427.7,1191.45 21426.2,1189.96 21426.2,1188.14C21426.2,1186.31 21427.7,1184.83 21429.5,1184.83ZM21402,1184.83C21403.9,1184.83 21405.4,1186.31 21405.4,1188.14C21405.4,1189.96 21403.9,1191.45 21402,1191.45C21400.2,1191.45 21398.7,1189.96 21398.7,1188.14C21398.7,1186.31 21400.2,1184.83 21402,1184.83ZM21415.8,1184.83C21417.6,1184.83 21419.1,1186.31 21419.1,1188.14C21419.1,1189.96 21417.6,1191.45 21415.8,1191.45C21414,1191.45 21412.5,1189.96 21412.5,1188.14C21412.5,1186.31 21414,1184.83 21415.8,1184.83ZM21403.8,1172.96L21404.6,1172.96C21402.8,1169.72 21402.1,1166.41 21402.3,1163.06C21402.3,1162.51 21402.8,1162.08 21403.4,1162.11C21403.9,1162.14 21404.3,1162.62 21404.3,1163.17C21404.1,1166.64 21404.9,1170.06 21407.2,1173.39C21407.4,1173.7 21407.4,1174.1 21407.3,1174.43C21407.1,1174.75 21406.7,1174.96 21406.4,1174.96L21404.7,1174.96L21404.7,1181.55C21404.7,1182.11 21404.3,1182.55 21403.7,1182.55C21403.2,1182.55 21402.7,1182.11 21402.7,1181.55L21402.7,1174.96L21401.5,1174.96L21401.5,1181.55C21401.5,1182.11 21401.1,1182.55 21400.5,1182.55C21400,1182.55 21399.5,1182.11 21399.5,1181.55L21399.5,1174.96L21398,1174.96C21397.6,1174.96 21397.3,1174.77 21397.1,1174.47C21396.9,1174.17 21396.9,1173.79 21397.1,1173.48C21398.7,1170.46 21399.6,1167.18 21399.7,1163.17C21399.7,1162.62 21400.2,1162.18 21400.7,1162.19C21401.3,1162.2 21401.7,1162.66 21401.7,1163.21C21401.6,1166.93 21400.9,1170.07 21399.6,1172.96L21403.7,1172.96C21403.7,1172.96 21403.7,1172.96 21403.7,1172.96C21403.8,1172.96 21403.8,1172.96 21403.8,1172.96ZM21388.8,1169.71L21388.8,1165.36C21388.8,1164.81 21389.2,1164.36 21389.8,1164.36C21390.3,1164.36 21390.8,1164.81 21390.8,1165.36L21390.8,1181.48C21390.8,1182.04 21390.3,1182.48 21389.8,1182.48C21389.2,1182.48 21388.8,1182.04 21388.8,1181.48L21388.8,1171.71L21387.8,1171.71L21387.8,1181.48C21387.8,1182.04 21387.3,1182.48 21386.8,1182.48C21386.2,1182.48 21385.8,1182.04 21385.8,1181.48L21385.8,1165.36C21385.8,1164.81 21386.2,1164.36 21386.8,1164.36C21387.3,1164.36 21387.8,1164.81 21387.8,1165.36L21387.8,1169.71L21388.8,1169.71ZM21416.2,1169.71L21416.2,1165.36C21416.2,1164.81 21416.6,1164.36 21417.2,1164.36C21417.7,1164.36 21418.2,1164.81 21418.2,1165.36L21418.2,1181.48C21418.2,1182.04 21417.7,1182.48 21417.2,1182.48C21416.6,1182.48 21416.2,1182.04 21416.2,1181.48L21416.2,1171.71L21415.2,1171.71L21415.2,1181.48C21415.2,1182.04 21414.7,1182.48 21414.2,1182.48C21413.6,1182.48 21413.2,1182.04 21413.2,1181.48L21413.2,1165.36C21413.2,1164.81 21413.6,1164.36 21414.2,1164.36C21414.7,1164.36 21415.2,1164.81 21415.2,1165.36L21415.2,1169.71L21416.2,1169.71ZM21384.3,1169.73C21384.3,1165.96 21385.1,1163.3 21386.3,1161.79C21386.9,1161 21387.6,1160.55 21388.3,1160.55C21389,1160.55 21389.7,1161 21390.3,1161.79C21391.5,1163.3 21392.3,1165.96 21392.3,1169.73C21392.3,1170.28 21392.7,1170.73 21393.3,1170.73C21393.8,1170.73 21394.3,1170.28 21394.3,1169.73C21394.3,1165.36 21393.3,1162.32 21391.9,1160.57C21390.9,1159.19 21389.6,1158.55 21388.3,1158.55C21387,1158.55 21385.8,1159.19 21384.7,1160.57C21383.4,1162.32 21382.3,1165.36 21382.3,1169.73C21382.3,1170.28 21382.8,1170.73 21383.3,1170.73C21383.9,1170.73 21384.3,1170.28 21384.3,1169.73ZM21398.1,1169.73C21398.1,1165.96 21398.9,1163.3 21400,1161.79C21400.6,1161 21401.3,1160.55 21402,1160.55C21402.8,1160.55 21403.5,1161 21404.1,1161.79C21405.2,1163.3 21406,1165.96 21406,1169.73C21406,1170.28 21406.5,1170.73 21407,1170.73C21407.6,1170.73 21408,1170.28 21408,1169.73C21408,1165.36 21407,1162.32 21405.7,1160.57C21404.6,1159.19 21403.3,1158.55 21402,1158.55C21400.8,1158.55 21399.5,1159.19 21398.4,1160.57C21397.1,1162.32 21396.1,1165.36 21396.1,1169.73C21396.1,1170.28 21396.5,1170.73 21397.1,1170.73C21397.6,1170.73 21398.1,1170.28 21398.1,1169.73ZM21411.8,1169.73C21411.8,1165.96 21412.5,1163.3 21413.7,1161.79C21414.3,1161 21415,1160.55 21415.7,1160.55C21416.5,1160.55 21417.1,1161 21417.8,1161.79C21418.9,1163.3 21419.7,1165.96 21419.7,1169.73C21419.7,1170.28 21420.1,1170.73 21420.7,1170.73C21421.2,1170.73 21421.7,1170.28 21421.7,1169.73C21421.7,1165.36 21420.7,1162.32 21419.3,1160.57C21418.3,1159.19 21417,1158.55 21415.7,1158.55C21414.5,1158.55 21413.2,1159.19 21412.1,1160.57C21410.8,1162.32 21409.8,1165.36 21409.8,1169.73C21409.8,1170.28 21410.2,1170.73 21410.8,1170.73C21411.3,1170.73 21411.8,1170.28 21411.8,1169.73ZM21402,1151.5C21403.9,1151.5 21405.4,1152.99 21405.4,1154.81C21405.4,1156.64 21403.9,1158.12 21402,1158.12C21400.2,1158.12 21398.7,1156.64 21398.7,1154.81C21398.7,1152.99 21400.2,1151.5 21402,1151.5ZM21388.3,1151.5C21390.1,1151.5 21391.6,1152.99 21391.6,1154.81C21391.6,1156.64 21390.1,1158.12 21388.3,1158.12C21386.5,1158.12 21385,1156.64 21385,1154.81C21385,1152.99 21386.5,1151.5 21388.3,1151.5ZM21415.8,1151.5C21417.6,1151.5 21419.1,1152.99 21419.1,1154.81C21419.1,1156.64 21417.6,1158.12 21415.8,1158.12C21414,1158.12 21412.5,1156.64 21412.5,1154.81C21412.5,1152.99 21414,1151.5 21415.8,1151.5Z" style="fill:white;"/>
            </g>
        </g>
    </g>
</svg>
