<?xml version="1.0" encoding="UTF-8" standalone="no"?>
<!DOCTYPE svg PUBLIC "-//W3C//DTD SVG 1.1//EN" "http://www.w3.org/Graphics/SVG/1.1/DTD/svg11.dtd">
<svg width="100%" height="100%" viewBox="0 0 96 144" version="1.1" xmlns="http://www.w3.org/2000/svg" xmlns:xlink="http://www.w3.org/1999/xlink" xml:space="preserve" xmlns:serif="http://www.serif.com/" style="fill-rule:evenodd;clip-rule:evenodd;stroke-linejoin:round;stroke-miterlimit:2;">
    <g transform="matrix(1,0,0,1,-26037,-2031)">
        <g transform="matrix(3.03411,0,0,5.19663,18709.1,942.188)">
            <g id="phase4-15" transform="matrix(1.0881,0,0,1.0881,-257.49,-16.7321)">
                <g transform="matrix(0.329586,0,0,0.183722,-6166.27,-162.556)">
                    <rect x="26163.3" y="2143.92" width="85.084" height="8.822" style="fill:url(#_Linear1);"/>
                </g>
                <g transform="matrix(0.329586,0,0,0.183722,-6166.27,-162.556)">
                    <path d="M26249.9,2143.92C26249.9,2143.05 26249.2,2142.35 26248.4,2142.35L26163.3,2142.35C26162.4,2142.35 26161.8,2143.05 26161.8,2143.92L26161.8,2152.74C26161.8,2153.61 26162.4,2154.31 26163.3,2154.31L26248.4,2154.31C26249.2,2154.31 26249.9,2153.61 26249.9,2152.74L26249.9,2143.92ZM26164.8,2145.49L26164.8,2151.17L26246.9,2151.17L26246.9,2145.49L26164.8,2145.49Z" style="fill:url(#_Linear2);"/>
                </g>
                <g transform="matrix(0.329586,0,0,0.192432,-6166.27,-181.307)">
                    <path d="M26219.4,2069.32C26247.6,2087.74 26244,2126.66 26220.4,2144.32L26201.8,2144.32C26224.8,2134.06 26232.7,2118.03 26228.4,2097.37L26207.9,2097.37L26219.4,2069.32Z" style="fill:url(#_Linear3);"/>
                </g>
                <g transform="matrix(0.329586,0,0,0.192432,-6166.27,-181.307)">
                    <path d="M26227.2,2098.87L26207.9,2098.87C26207.4,2098.87 26206.9,2098.62 26206.7,2098.2C26206.4,2097.79 26206.3,2097.26 26206.5,2096.8L26218,2068.75C26218.2,2068.34 26218.6,2068.02 26219,2067.89C26219.4,2067.76 26219.9,2067.82 26220.3,2068.07C26249.3,2087.09 26245.7,2127.28 26221.3,2145.52C26221.1,2145.71 26220.7,2145.82 26220.4,2145.82L26201.8,2145.82C26201.1,2145.82 26200.5,2145.32 26200.4,2144.63C26200.2,2143.94 26200.6,2143.24 26201.2,2142.95C26212.3,2137.98 26219.8,2131.65 26224,2124.03C26228,2116.76 26228.9,2108.33 26227.2,2098.87ZM26220.1,2071.61L26210.1,2095.87L26228.4,2095.87C26229.1,2095.87 26229.7,2096.37 26229.9,2097.06C26232.1,2107.78 26231.1,2117.3 26226.6,2125.47C26223,2132.19 26216.9,2138.01 26208.2,2142.82L26219.9,2142.82C26242,2125.93 26245.6,2089.7 26220.1,2071.61Z" style="fill:url(#_Linear4);"/>
                </g>
                <g transform="matrix(0.329586,0,0,0.192432,-6166.27,-181.307)">
                    <path d="M26188.8,2103.83L26186.9,2109.08L26195.2,2113.11L26197.9,2107.54L26188.8,2103.83Z" style="fill:white;"/>
                </g>
                <g transform="matrix(0.329586,0,0,0.192432,-6166.27,-181.307)">
                    <path d="M26189.4,2102.44C26189,2102.28 26188.6,2102.29 26188.2,2102.45C26187.8,2102.61 26187.6,2102.92 26187.4,2103.3L26185.5,2108.55C26185.2,2109.28 26185.5,2110.09 26186.2,2110.43L26194.5,2114.46C26194.9,2114.63 26195.3,2114.65 26195.7,2114.52C26196,2114.39 26196.4,2114.12 26196.5,2113.76L26199.2,2108.19C26199.4,2107.82 26199.4,2107.39 26199.3,2107.01C26199.1,2106.62 26198.8,2106.31 26198.4,2106.16L26189.4,2102.44ZM26188.7,2108.32L26194.5,2111.1L26195.8,2108.32L26189.7,2105.8L26188.7,2108.32Z" style="fill:url(#_Linear5);"/>
                </g>
                <g transform="matrix(0.329586,0,0,0.192432,-6166.27,-181.307)">
                    <path d="M26175.4,2116.08L26198.6,2126.16C26199.4,2126.49 26200.3,2126.14 26200.6,2125.38C26200.9,2124.62 26200.6,2123.74 26199.8,2123.41L26176.6,2113.33C26175.9,2113 26175,2113.34 26174.7,2114.1C26174.3,2114.86 26174.7,2115.75 26175.4,2116.08Z" style="fill:url(#_Linear6);"/>
                </g>
                <g transform="matrix(0.329586,0,0,0.192432,-6166.27,-181.307)">
                    <path d="M26218.7,2032.44L26222.2,2024.7L26230.7,2028.28L26227.3,2036.19L26218.7,2032.44Z" style="fill:white;"/>
                </g>
                <g transform="matrix(0.329586,0,0,0.192432,-6166.27,-181.307)">
                    <path d="M26217.3,2031.82C26217.2,2032.19 26217.1,2032.6 26217.3,2032.98C26217.4,2033.35 26217.7,2033.65 26218.1,2033.81L26226.7,2037.56C26227.1,2037.72 26227.5,2037.73 26227.8,2037.58C26228.2,2037.43 26228.5,2037.14 26228.7,2036.78L26232.1,2028.87C26232.2,2028.5 26232.2,2028.08 26232.1,2027.71C26231.9,2027.34 26231.6,2027.05 26231.3,2026.89L26222.8,2023.32C26222,2023.01 26221.1,2023.35 26220.8,2024.09L26217.3,2031.82ZM26220.7,2031.67L26226.5,2034.21L26228.7,2029.07L26222.9,2026.65L26220.7,2031.67Z" style="fill:url(#_Linear7);"/>
                </g>
                <g transform="matrix(0.329586,0,0,0.192432,-6166.27,-181.307)">
                    <path d="M26232.2,2038.32L26214.8,2030.75L26188.5,2093.3C26186.3,2098.51 26186.2,2102.52 26189.3,2104.13L26197.9,2107.54C26201,2108.83 26204,2106.55 26206.3,2101.34L26232.2,2038.32Z" style="fill:url(#_Linear8);"/>
                </g>
                <g transform="matrix(0.329586,0,0,0.192432,-6166.27,-181.307)">
                    <path d="M26233.6,2038.89C26233.9,2038.13 26233.5,2037.27 26232.8,2036.94L26215.4,2029.38C26215,2029.21 26214.6,2029.21 26214.3,2029.36C26213.9,2029.51 26213.6,2029.8 26213.4,2030.17L26187.1,2092.72C26185.9,2095.57 26185.3,2098.11 26185.4,2100.14C26185.5,2102.59 26186.6,2104.41 26188.7,2105.47L26188.8,2105.52L26197.3,2108.93C26201,2110.47 26204.9,2108.17 26207.6,2101.95L26207.7,2101.91L26233.6,2038.89ZM26215.6,2032.73L26189.9,2093.89C26188.9,2096.24 26188.3,2098.31 26188.4,2099.99C26188.5,2101.24 26188.9,2102.21 26190,2102.76L26198.4,2106.16C26199.5,2106.59 26200.5,2106.39 26201.5,2105.68C26202.7,2104.73 26203.9,2103.05 26204.9,2100.74L26230.2,2039.11L26215.6,2032.73Z" style="fill:url(#_Linear9);"/>
                </g>
                <g transform="matrix(0.329586,0,0,0.192432,-6166.53,-181.328)">
                    <circle cx="26214" cy="2082.51" r="7.196" style="fill:white;"/>
                </g>
                <g transform="matrix(0.329586,0,0,0.192432,-6166.53,-181.328)">
                    <path d="M26214,2073.82C26209.2,2073.82 26205.3,2077.72 26205.3,2082.51C26205.3,2087.31 26209.2,2091.21 26214,2091.21C26218.8,2091.21 26222.7,2087.31 26222.7,2082.51C26222.7,2077.72 26218.8,2073.82 26214,2073.82ZM26214,2076.82C26217.2,2076.82 26219.7,2079.37 26219.7,2082.51C26219.7,2085.66 26217.2,2088.21 26214,2088.21C26210.9,2088.21 26208.3,2085.66 26208.3,2082.51C26208.3,2079.37 26210.9,2076.82 26214,2076.82Z" style="fill:url(#_Linear10);"/>
                </g>
            </g>
        </g>
    </g>
    <defs>
        <linearGradient id="_Linear1" x1="0" y1="0" x2="1" y2="0" gradientUnits="userSpaceOnUse" gradientTransform="matrix(85.0843,-128.094,122.296,89.1182,26163.3,2152.74)"><stop offset="0" style="stop-color:rgb(141,31,36);stop-opacity:0.1"/><stop offset="1" style="stop-color:rgb(141,31,36);stop-opacity:0.1"/></linearGradient>
        <linearGradient id="_Linear2" x1="0" y1="0" x2="1" y2="0" gradientUnits="userSpaceOnUse" gradientTransform="matrix(89.1356,-134.108,128.037,93.3616,26163.3,2152.74)"><stop offset="0" style="stop-color:rgb(141,31,36);stop-opacity:1"/><stop offset="1" style="stop-color:rgb(255,33,43);stop-opacity:1"/></linearGradient>
        <linearGradient id="_Linear3" x1="0" y1="0" x2="1" y2="0" gradientUnits="userSpaceOnUse" gradientTransform="matrix(85.0843,-122.296,122.296,85.0843,26163.3,2152.74)"><stop offset="0" style="stop-color:rgb(141,31,36);stop-opacity:0.1"/><stop offset="1" style="stop-color:rgb(141,31,36);stop-opacity:0.1"/></linearGradient>
        <linearGradient id="_Linear4" x1="0" y1="0" x2="1" y2="0" gradientUnits="userSpaceOnUse" gradientTransform="matrix(89.1356,-128.037,128.037,89.1356,26163.3,2152.74)"><stop offset="0" style="stop-color:rgb(141,31,36);stop-opacity:1"/><stop offset="1" style="stop-color:rgb(255,33,43);stop-opacity:1"/></linearGradient>
        <linearGradient id="_Linear5" x1="0" y1="0" x2="1" y2="0" gradientUnits="userSpaceOnUse" gradientTransform="matrix(89.1356,-128.037,128.037,89.1356,26163.3,2152.74)"><stop offset="0" style="stop-color:rgb(141,31,36);stop-opacity:1"/><stop offset="1" style="stop-color:rgb(255,33,43);stop-opacity:1"/></linearGradient>
        <linearGradient id="_Linear6" x1="0" y1="0" x2="1" y2="0" gradientUnits="userSpaceOnUse" gradientTransform="matrix(89.1356,-128.037,128.037,89.1356,26163.3,2152.74)"><stop offset="0" style="stop-color:rgb(141,31,36);stop-opacity:1"/><stop offset="1" style="stop-color:rgb(255,33,43);stop-opacity:1"/></linearGradient>
        <linearGradient id="_Linear7" x1="0" y1="0" x2="1" y2="0" gradientUnits="userSpaceOnUse" gradientTransform="matrix(89.1356,-128.037,128.037,89.1356,26163.3,2152.74)"><stop offset="0" style="stop-color:rgb(141,31,36);stop-opacity:1"/><stop offset="1" style="stop-color:rgb(255,33,43);stop-opacity:1"/></linearGradient>
        <linearGradient id="_Linear8" x1="0" y1="0" x2="1" y2="0" gradientUnits="userSpaceOnUse" gradientTransform="matrix(85.0843,-122.296,122.296,85.0843,26163.3,2152.74)"><stop offset="0" style="stop-color:rgb(141,31,36);stop-opacity:0.1"/><stop offset="1" style="stop-color:rgb(141,31,36);stop-opacity:0.1"/></linearGradient>
        <linearGradient id="_Linear9" x1="0" y1="0" x2="1" y2="0" gradientUnits="userSpaceOnUse" gradientTransform="matrix(89.1356,-128.037,128.037,89.1356,26163.3,2152.74)"><stop offset="0" style="stop-color:rgb(141,31,36);stop-opacity:1"/><stop offset="1" style="stop-color:rgb(255,33,43);stop-opacity:1"/></linearGradient>
        <linearGradient id="_Linear10" x1="0" y1="0" x2="1" y2="0" gradientUnits="userSpaceOnUse" gradientTransform="matrix(89.1356,-128.037,128.037,89.1356,26164.1,2152.85)"><stop offset="0" style="stop-color:rgb(141,31,36);stop-opacity:1"/><stop offset="1" style="stop-color:rgb(255,33,43);stop-opacity:1"/></linearGradient>
    </defs>
</svg>
