<?xml version="1.0" encoding="UTF-8" standalone="no"?>
<!DOCTYPE svg PUBLIC "-//W3C//DTD SVG 1.1//EN" "http://www.w3.org/Graphics/SVG/1.1/DTD/svg11.dtd">
<svg width="100%" height="100%" viewBox="0 0 169 170" version="1.1" xmlns="http://www.w3.org/2000/svg" xmlns:xlink="http://www.w3.org/1999/xlink" xml:space="preserve" xmlns:serif="http://www.serif.com/" style="fill-rule:evenodd;clip-rule:evenodd;stroke-linejoin:round;stroke-miterlimit:2;">
    <g transform="matrix(1,0,0,1,-26140,-1739)">
        <g transform="matrix(3.03411,0,0,5.19663,18709.1,942.188)">
            <g id="phase4-11" transform="matrix(1.22497,0,0,1.22497,-548.74,-38.173)">
                <g transform="matrix(0.329586,0,0,0.192432,-6166.27,-181.307)">
                    <path d="M26261.5,1770.63C26236.5,1748.21 26209.6,1760.29 26181,1799.61C26147.8,1824.87 26125.6,1850.57 26147.4,1877.97C26166.3,1896.09 26191.2,1893.74 26228.8,1847.98C26268.1,1816.09 26276.2,1790.91 26261.5,1770.63Z" style="fill:url(#_Linear1);"/>
                </g>
                <g id="pill2" transform="matrix(0.329586,0,0,0.192432,-6166.27,-181.307)">
                    <path d="M26145.5,1829.03L26208.5,1766.01C26223.1,1751.41 26246.8,1751.41 26261.4,1766.01C26276,1780.61 26276,1804.31 26261.4,1818.91C26261.4,1818.91 26198.4,1881.93 26198.4,1881.93C26183.8,1896.53 26160.1,1896.53 26145.5,1881.93C26130.9,1867.33 26130.9,1843.62 26145.5,1829.03ZM26179.7,1805.61L26150.9,1834.42C26139.3,1846.04 26139.3,1864.91 26150.9,1876.53C26162.5,1888.15 26181.4,1888.15 26193,1876.53L26221.8,1847.72L26179.7,1805.61ZM26185.1,1800.22L26227.2,1842.33L26256,1813.52C26267.7,1801.89 26267.7,1783.03 26256,1771.41C26244.4,1759.79 26225.6,1759.79 26213.9,1771.41L26185.1,1800.22Z" style="fill:url(#_Linear2);"/>
                </g>
                <g id="pig" transform="matrix(0.0208284,0,0,0.0121609,2450.21,168.167)">
                    <g transform="matrix(1.0022,0,0,0.952225,38.8989,-15830.5)">
                        <path d="M400.293,17451.9L599.707,17451.9C615.073,17451.9 625.314,17447.1 632.093,17439.8C638.828,17432.5 642.81,17421.7 642.81,17406.4C642.929,17401.5 641.399,17392.7 638.113,17382.3C631.789,17362.2 619.148,17334.3 606.69,17316.1C600.103,17306.4 593.238,17299.3 587.341,17295.7C582.603,17292.7 577.985,17291.5 573.791,17291.5L426.209,17291.5C422.015,17291.5 417.397,17292.7 412.659,17295.7C406.762,17299.3 399.897,17306.4 393.31,17316.1C380.852,17334.3 368.211,17362.2 361.887,17382.3C358.601,17392.7 357.071,17401.5 357.195,17406.8C357.19,17421.7 361.172,17432.5 367.907,17439.8C374.686,17447.1 384.927,17451.9 400.293,17451.9ZM571.561,17325.6L428.439,17325.6C426.921,17327.1 422.337,17331.9 419.57,17335.9C410.355,17349.4 401.098,17369 395.19,17385.3C391.934,17394.2 389.417,17401.8 389.519,17406.4C389.519,17410.7 389.245,17414.1 391.125,17416.1C392.963,17418.1 396.128,17417.8 400.293,17417.8L599.707,17417.8C603.872,17417.8 607.037,17418.1 608.875,17416.1C610.755,17414.1 610.481,17410.7 610.486,17406C610.583,17401.8 608.066,17394.2 604.81,17385.3C598.902,17369 589.645,17349.4 580.43,17335.9C577.663,17331.9 573.079,17327.1 571.561,17325.6Z"/>
                    </g>
                    <g transform="matrix(1.91493,1.01683,-0.65905,1.24114,11070.7,-21298.6)">
                        <ellipse cx="448.571" cy="17366.1" rx="10.248" ry="22.618"/>
                    </g>
                    <g transform="matrix(-1.91493,1.01683,0.65905,1.24114,-9990.7,-21298.6)">
                        <ellipse cx="448.571" cy="17366.1" rx="10.248" ry="22.618"/>
                    </g>
                    <g transform="matrix(1.65406,0,0,1.65406,-237.149,-27912)">
                        <circle cx="421.663" cy="17205.6" r="16.922"/>
                    </g>
                    <g transform="matrix(1.65406,0,0,1.65406,-77.7606,-27912)">
                        <circle cx="421.663" cy="17205.6" r="16.922"/>
                    </g>
                    <g transform="matrix(1.08,0,0,1.08,0,-18042)">
                        <path d="M645.37,16956.6C646.908,16954.3 648.514,16952.1 650.192,16949.9C656.521,16941.5 667.702,16936.5 682.985,16935.8C706.113,16934.6 741.614,16942.9 773.429,16942C781.674,16941.8 788.546,16948.3 788.811,16956.6L792.17,17060.8L792.178,17061.3C792.178,17078.3 782.568,17099 768.052,17115.1C753.108,17131.7 733.272,17143 715.907,17143L661.545,17143.4C670.749,17172.8 682.927,17201.7 694.745,17228.6C710.358,17264.1 725.394,17296.2 733.1,17321.9C739.252,17342.3 740.573,17359.4 736.412,17371.9C723.45,17410.7 695.304,17442.4 660.786,17466.3C610.408,17501.1 546.588,17519 500,17519C453.412,17519 389.592,17501.1 339.214,17466.3C304.696,17442.4 276.55,17410.7 263.588,17371.9C259.427,17359.4 260.748,17342.3 266.9,17321.9C274.606,17296.2 289.642,17264.1 305.255,17228.6C317.073,17201.7 329.251,17172.8 338.455,17143.4L284.219,17143C266.728,17143 246.892,17131.7 231.948,17115.1C217.432,17099 207.822,17078.3 207.822,17061.3C207.822,17061.2 207.824,17061 207.83,17060.8L211.189,16956.6C211.454,16948.3 218.326,16941.8 226.571,16942C258.386,16942.9 293.887,16934.6 317.015,16935.8C332.298,16936.5 343.479,16941.5 349.808,16949.9C351.486,16952.1 353.092,16954.3 354.63,16956.6C375.78,16960.1 394.513,16976.4 412.978,16997C425.772,17011.2 438.802,17027.3 453.972,17039.7C467.063,17050.5 481.805,17058.5 500,17058.5C518.195,17058.5 532.937,17050.5 546.028,17039.7C561.198,17027.3 574.228,17011.2 587.022,16997C605.487,16976.4 624.22,16960.1 645.37,16956.6ZM376.04,17001.8C377.647,17007.2 378.975,17012.7 380.042,17018.2C385.074,17022.8 389.179,17027.8 392.165,17033.1C407.985,17061.3 404.409,17105.5 382.162,17137.3C379.33,17141.3 374.687,17143.7 369.747,17143.7L369.591,17143.7C364.566,17161 358.488,17178.2 351.88,17195C333.719,17241.2 311.942,17284.3 299.734,17318.2C293.024,17336.8 288.539,17351.9 292.044,17362.4C302.974,17395.1 327.169,17421.5 356.275,17441.6C401.333,17472.8 458.332,17489 500,17489C541.668,17489 598.667,17472.8 643.725,17441.6C672.831,17421.5 697.026,17395.1 707.956,17362.4C711.461,17351.9 706.976,17336.8 700.266,17318.2C688.058,17284.3 666.281,17241.2 648.12,17195C641.512,17178.2 635.434,17161 630.409,17143.7L630.253,17143.7C625.313,17143.7 620.67,17141.3 617.838,17137.3C595.591,17105.5 592.015,17061.3 607.835,17033.1C610.821,17027.8 614.926,17022.8 619.958,17018.2C621.025,17012.7 622.353,17007.2 623.96,17001.8C614.624,17010.5 605.533,17021.4 595.926,17032.1C570.285,17061 540.981,17088.5 500,17088.5C459.019,17088.5 429.715,17061 404.074,17032.1C394.467,17021.4 385.376,17010.5 376.04,17001.8ZM759.288,16971.8C736.138,16970.8 712.373,16966.6 693.656,16965.8C688.674,16965.5 684.126,16965.6 680.174,16966.1C677.631,16966.5 675.309,16966.4 674.143,16967.9C667.141,16977.2 661.647,16986.9 657.454,16996.9C677.572,16989.4 700.977,16984.8 721.996,16982.7C730.232,16981.8 737.603,16987.8 738.447,16996.1C739.292,17004.3 733.291,17011.7 725.055,17012.5C702.923,17014.8 677.709,17020 658.193,17029C654.382,17030.8 650.785,17032.6 647.534,17034.7C645.204,17053.4 646.13,17072.7 649.182,17092.1C650.304,17099.2 651.712,17106.3 653.361,17113.5L715.781,17113C726.096,17113 736.943,17104.8 745.756,17095C754.95,17084.8 762.114,17072.2 762.175,17061.5L759.288,16971.8ZM342.546,16996.9C338.353,16986.9 332.859,16977.2 325.857,16967.9C324.691,16966.4 322.369,16966.5 319.826,16966.1C315.874,16965.6 311.326,16965.5 306.344,16965.8C287.627,16966.6 263.862,16970.8 240.712,16971.8L237.825,17061.5C237.886,17072.2 245.05,17084.8 254.244,17095C263.057,17104.8 273.904,17113 284.219,17113C284.261,17113 284.303,17113 284.345,17113L346.639,17113.5C348.288,17106.3 349.696,17099.2 350.818,17092.1C353.87,17072.7 354.796,17053.4 352.466,17034.7C349.215,17032.6 345.618,17030.8 341.807,17029C322.291,17020 297.077,17014.8 274.945,17012.5C266.709,17011.7 260.708,17004.3 261.553,16996.1C262.397,16987.8 269.768,16981.8 278.004,16982.7C299.023,16984.8 322.428,16989.4 342.546,16996.9Z"/>
                    </g>
                </g>
                <g id="Leaf" transform="matrix(0.0256038,0,0,0.014949,2467.62,81.2069)">
                    <path d="M304.496,5750.7C281.206,5711.98 271.307,5676.84 271.149,5644.2C270.9,5592.85 294.874,5547.26 331.925,5503.1C389.508,5434.47 479.39,5368.88 548.168,5285.39C551.782,5281 557.567,5279.03 563.108,5280.31C568.648,5281.58 572.992,5285.88 574.326,5291.4C611.342,5444.72 605.379,5569.18 540.651,5652.81C498.435,5707.36 431.117,5745.25 332.978,5762C330.108,5780.37 329.209,5799.9 330.77,5820.81C331.386,5829.07 325.184,5836.27 316.928,5836.89C308.672,5837.51 301.469,5831.3 300.853,5823.05C298.917,5797.12 300.386,5773.11 304.496,5750.7ZM340.16,5730.19C422.656,5714.11 480.392,5681.65 516.927,5634.45C572.95,5562.06 578.941,5456.52 551.681,5327.25C486.087,5400.23 407.198,5460.06 354.907,5522.38C322.828,5560.62 300.933,5599.6 301.149,5644.06C301.246,5664.21 305.91,5685.39 315.964,5708.05C340.109,5640.34 387.733,5587.86 431.155,5539.2C436.667,5533.02 446.157,5532.48 452.334,5537.99C458.511,5543.5 459.052,5552.99 453.54,5559.17C410.088,5607.87 360.951,5660.16 340.16,5730.19Z"/>
                </g>
            </g>
        </g>
    </g>
    <defs>
        <linearGradient id="_Linear1" x1="0" y1="0" x2="1" y2="0" gradientUnits="userSpaceOnUse" gradientTransform="matrix(114.103,-107.339,107.339,114.103,26147.4,1877.97)"><stop offset="0" style="stop-color:rgb(141,31,36);stop-opacity:0.1"/><stop offset="1" style="stop-color:rgb(141,31,36);stop-opacity:0.2"/></linearGradient>
        <linearGradient id="_Linear2" x1="0" y1="0" x2="1" y2="0" gradientUnits="userSpaceOnUse" gradientTransform="matrix(133.784,-133.436,133.436,133.784,26134.6,1892.88)"><stop offset="0" style="stop-color:rgb(141,31,36);stop-opacity:1"/><stop offset="1" style="stop-color:rgb(255,51,60);stop-opacity:1"/></linearGradient>
    </defs>
</svg>
