<?xml version="1.0" encoding="UTF-8" standalone="no"?>
<!DOCTYPE svg PUBLIC "-//W3C//DTD SVG 1.1//EN" "http://www.w3.org/Graphics/SVG/1.1/DTD/svg11.dtd">
<svg width="100%" height="100%" viewBox="0 0 128 169" version="1.1" xmlns="http://www.w3.org/2000/svg" xmlns:xlink="http://www.w3.org/1999/xlink" xml:space="preserve" xmlns:serif="http://www.serif.com/" style="fill-rule:evenodd;clip-rule:evenodd;stroke-linejoin:round;stroke-miterlimit:2;">
    <g transform="matrix(1,0,0,1,-26302,-1149)">
        <g transform="matrix(3.03411,0,0,5.19663,18709.1,942.188)">
            <g id="phase4-2" transform="matrix(1,0,0,1,-1.56187,-0.139994)">
                <g transform="matrix(0.329586,0,0,0.192432,-6166.27,-181.307)">
                    <path d="M26324.5,1157.77L26325.4,1176.22L26329.3,1187.32L26314,1211.89L26314.5,1302.25L26398.8,1301.81L26400.9,1211.23L26384.2,1192.79L26383.9,1177.54L26391.8,1169.36L26389.5,1157.98L26324.5,1157.77Z" style="fill:url(#_Linear1);"/>
                </g>
                <g id="drug4" transform="matrix(0.113125,0,0,0.0660495,2460.38,18.3704)">
                    <g transform="matrix(1.08,0,0,1.08,-2556.33,-12399.5)">
                        <path d="M2768.49,11869C2758.92,11864.2 2752.34,11854.3 2752.34,11842.9C2752.34,11842.9 2752.34,11814.4 2752.34,11814.4C2752.34,11798.3 2765.43,11785.2 2781.56,11785.2L2936.44,11785.2C2952.57,11785.2 2965.67,11798.3 2965.67,11814.4C2965.67,11814.4 2965.67,11842.9 2965.67,11842.9C2965.67,11854.3 2959.09,11864.2 2949.52,11869L2949.52,11893.2L2988.77,11938.8C2991.12,11941.5 2992.41,11945 2992.41,11948.6L2992.41,12181.6C2992.41,12182 2992.38,12182.5 2992.34,12183C2990.68,12200.2 2976.4,12214.9 2959.09,12214.9L2758.92,12214.9C2741.61,12214.9 2727.32,12200.2 2725.67,12183C2725.62,12182.5 2725.6,12182 2725.6,12181.6L2725.6,11948.6C2725.6,11945 2726.89,11941.5 2729.24,11938.8L2768.49,11893.2L2768.49,11869ZM2919.52,11872.1L2798.49,11872.1L2798.49,11898.8C2798.49,11902.4 2797.2,11905.9 2794.85,11908.6L2755.6,11954.1L2755.6,12180.6C2755.89,12182.7 2756.89,12184.9 2758.92,12184.9C2758.92,12184.9 2959.09,12184.9 2959.09,12184.9C2961.12,12184.9 2962.11,12182.7 2962.41,12180.6L2962.41,11954.1L2923.15,11908.6C2920.81,11905.9 2919.52,11902.4 2919.52,11898.8L2919.52,11872.1ZM2782.34,11842.1L2935.67,11842.1L2935.67,11815.2L2782.34,11815.2L2782.34,11842.1Z" style="fill:url(#_Linear2);"/>
                    </g>
                    <g transform="matrix(2.91345,0,0,2.91345,-76243.5,-3021.03)">
                        <path d="M26331.5,1247.04C26325.4,1253.75 26328.5,1263.02 26338.5,1274.22C26351.8,1282.67 26363.5,1285.17 26372.2,1276.26C26372.5,1256.9 26364.2,1268.38 26351.2,1261.78C26343.6,1255.59 26346.6,1241.11 26331.5,1247.04Z" style="fill:white;"/>
                    </g>
                    <g id="bacteria1" transform="matrix(-0.257974,0.254739,-0.254739,-0.257974,741.901,691.44)">
                        <g transform="matrix(1.08,0,0,1.08,0,0)">
                            <path d="M268.847,387.576C308.627,412.307 328.783,470.942 294.246,522.039C271.066,556.333 280.089,602.995 314.384,626.175C348.679,649.355 395.341,640.332 418.521,606.037C507.603,474.241 450.649,323.976 348.043,260.187C312.889,238.332 266.605,249.129 244.75,284.283C222.895,319.437 233.693,365.721 268.847,387.576ZM279.406,370.591C253.627,354.564 245.709,320.622 261.735,294.843C277.762,269.063 311.704,261.145 337.483,277.172C431.712,335.753 483.76,473.802 401.951,594.837C384.952,619.987 350.733,626.604 325.584,609.605C300.434,592.607 293.817,558.388 310.816,533.238C352.624,471.383 327.562,400.529 279.406,370.591Z" style="fill:url(#_Linear3);"/>
                        </g>
                        <g transform="matrix(1.08,0,0,1.08,2.95704,-9.10227)">
                            <path d="M304.226,304.329C287.539,304.329 273.991,317.876 273.991,334.563C273.991,351.25 287.539,364.798 304.226,364.798C320.913,364.798 334.461,351.25 334.461,334.563C334.461,317.876 320.913,304.329 304.226,304.329ZM304.226,324.329C309.874,324.329 314.461,328.915 314.461,334.563C314.461,340.212 309.874,344.798 304.226,344.798C298.577,344.798 293.991,340.212 293.991,334.563C293.991,328.915 298.577,324.329 304.226,324.329Z" style="fill:url(#_Linear4);"/>
                        </g>
                        <g transform="matrix(0.816211,0,0,0.816211,182.973,171.721)">
                            <path d="M304.226,304.405C287.581,304.405 274.067,317.918 274.067,334.563C274.067,351.208 287.581,364.722 304.226,364.722C320.871,364.722 334.384,351.208 334.384,334.563C334.384,317.918 320.871,304.405 304.226,304.405ZM304.226,324.252C309.916,324.252 314.537,328.873 314.537,334.563C314.537,340.254 309.916,344.874 304.226,344.874C298.535,344.874 293.915,340.254 293.915,334.563C293.915,328.873 298.535,324.252 304.226,324.252Z" style="fill:url(#_Linear5);"/>
                        </g>
                        <g transform="matrix(1.08,0,0,1.08,65.5609,250.835)">
                            <path d="M304.226,304.329C287.539,304.329 273.991,317.876 273.991,334.563C273.991,351.25 287.539,364.798 304.226,364.798C320.913,364.798 334.461,351.25 334.461,334.563C334.461,317.876 320.913,304.329 304.226,304.329ZM304.226,324.329C309.874,324.329 314.461,328.915 314.461,334.563C314.461,340.212 309.874,344.798 304.226,344.798C298.577,344.798 293.991,340.212 293.991,334.563C293.991,328.915 298.577,324.329 304.226,324.329Z" style="fill:url(#_Linear6);"/>
                        </g>
                        <g transform="matrix(0.637196,0,0,0.637196,213.167,302.406)">
                            <path d="M304.226,305.854C288.381,305.854 275.516,318.718 275.516,334.563C275.516,350.409 288.381,363.273 304.226,363.273C320.071,363.273 332.935,350.409 332.935,334.563C332.935,318.718 320.071,305.854 304.226,305.854ZM304.226,322.803C310.716,322.803 315.986,328.073 315.986,334.563C315.986,341.054 310.716,346.324 304.226,346.324C297.735,346.324 292.465,341.054 292.465,334.563C292.465,328.073 297.735,322.803 304.226,322.803Z" style="fill:url(#_Linear7);"/>
                        </g>
                        <g transform="matrix(0.473372,0,0,0.473372,228.259,269.906)">
                            <path d="M304.226,302.921C286.762,302.921 272.583,317.1 272.583,334.563C272.583,352.027 286.762,366.206 304.226,366.206C321.69,366.206 335.868,352.027 335.868,334.563C335.868,317.1 321.69,302.921 304.226,302.921ZM304.226,325.736C309.098,325.736 313.053,329.691 313.053,334.563C313.053,339.435 309.098,343.391 304.226,343.391C299.354,343.391 295.398,339.435 295.398,334.563C295.398,329.691 299.354,325.736 304.226,325.736Z" style="fill:url(#_Linear8);"/>
                        </g>
                        <g transform="matrix(1.08,0,0,1.08,0,0)">
                            <path d="M278.182,265.482L249.474,226.713C247.011,223.387 242.31,222.686 238.983,225.149C235.657,227.612 234.956,232.313 237.419,235.64L266.127,274.409C268.59,277.735 273.291,278.436 276.617,275.973C279.944,273.51 280.645,268.809 278.182,265.482Z" style="fill:url(#_Linear9);"/>
                        </g>
                        <g transform="matrix(1.08,0,0,1.08,0,0)">
                            <path d="M370.638,289.316L391.28,265.099C393.966,261.948 393.588,257.211 390.438,254.526C387.288,251.84 382.55,252.218 379.865,255.368L359.222,279.586C356.537,282.736 356.915,287.474 360.065,290.159C363.215,292.844 367.953,292.466 370.638,289.316Z" style="fill:url(#_Linear10);"/>
                        </g>
                        <g transform="matrix(1.08,0,0,1.08,0,0)">
                            <path d="M246.362,338.952L209.954,344.383C205.86,344.994 203.032,348.813 203.643,352.907C204.253,357.001 208.073,359.829 212.167,359.219L248.575,353.788C252.669,353.178 255.497,349.358 254.887,345.264C254.276,341.17 250.456,338.342 246.362,338.952Z" style="fill:url(#_Linear11);"/>
                        </g>
                        <g transform="matrix(1.08,0,0,1.08,0,0)">
                            <path d="M298.994,398.431L242.924,423.427C239.144,425.112 237.443,429.55 239.128,433.331C240.814,437.111 245.251,438.812 249.032,437.127L305.101,412.131C308.882,410.446 310.583,406.008 308.897,402.227C307.212,398.447 302.774,396.745 298.994,398.431Z" style="fill:url(#_Linear12);"/>
                        </g>
                        <g transform="matrix(1.08,0,0,1.08,0,0)">
                            <path d="M318.59,492.834L280.84,481.167C276.885,479.945 272.682,482.164 271.46,486.118C270.237,490.073 272.456,494.276 276.411,495.499L314.16,507.166C318.115,508.388 322.318,506.169 323.541,502.215C324.763,498.26 322.544,494.057 318.59,492.834Z" style="fill:url(#_Linear13);"/>
                        </g>
                        <g transform="matrix(1.08,0,0,1.08,0,0)">
                            <path d="M291.206,560.264L255.715,561.65C251.578,561.812 248.352,565.301 248.513,569.437C248.675,573.573 252.164,576.8 256.3,576.639L291.791,575.253C295.927,575.091 299.154,571.602 298.993,567.466C298.831,563.33 295.342,560.103 291.206,560.264Z" style="fill:url(#_Linear14);"/>
                        </g>
                        <g transform="matrix(1.08,0,0,1.08,0,0)">
                            <path d="M304.151,606.979L279.172,655.55C277.279,659.231 278.73,663.757 282.412,665.65C286.093,667.543 290.618,666.091 292.511,662.41L317.491,613.839C319.384,610.158 317.932,605.633 314.251,603.74C310.57,601.846 306.044,603.298 304.151,606.979Z" style="fill:url(#_Linear15);"/>
                        </g>
                        <g transform="matrix(1.08,0,0,1.08,0,0)">
                            <path d="M358.529,629.688L364.246,660.601C364.999,664.671 368.914,667.364 372.985,666.612C377.055,665.859 379.748,661.943 378.996,657.873L373.279,626.961C372.526,622.89 368.611,620.197 364.54,620.95C360.47,621.702 357.776,625.618 358.529,629.688Z" style="fill:url(#_Linear16);"/>
                        </g>
                        <g transform="matrix(1.08,0,0,1.08,0,0)">
                            <path d="M411.129,598.298L459.515,633.746C462.854,636.192 467.551,635.467 469.997,632.128C472.444,628.789 471.719,624.092 468.38,621.646L419.994,586.198C416.654,583.752 411.957,584.477 409.511,587.816C407.065,591.155 407.79,595.852 411.129,598.298Z" style="fill:url(#_Linear17);"/>
                        </g>
                        <g transform="matrix(1.08,0,0,1.08,0,0)">
                            <path d="M437.669,537.377L484.114,550.819C488.09,551.97 492.252,549.676 493.403,545.7C494.554,541.724 492.26,537.561 488.284,536.411L441.839,522.969C437.863,521.818 433.701,524.112 432.55,528.088C431.399,532.064 433.693,536.226 437.669,537.377Z" style="fill:url(#_Linear18);"/>
                        </g>
                        <g transform="matrix(1.08,0,0,1.08,0,0)">
                            <path d="M451.899,475.117L525.788,482.496C529.907,482.908 533.585,479.898 533.996,475.779C534.407,471.66 531.397,467.982 527.278,467.571L453.39,460.191C449.271,459.78 445.593,462.79 445.182,466.909C444.77,471.027 447.78,474.705 451.899,475.117Z" style="fill:url(#_Linear19);"/>
                        </g>
                        <g transform="matrix(1.08,0,0,1.08,0,0)">
                            <path d="M449.392,419.667L475.292,407.245C479.025,405.454 480.602,400.971 478.812,397.239C477.022,393.506 472.538,391.93 468.806,393.72L442.906,406.142C439.173,407.932 437.596,412.415 439.386,416.147C441.177,419.88 445.66,421.457 449.392,419.667Z" style="fill:url(#_Linear20);"/>
                        </g>
                        <g transform="matrix(1.08,0,0,1.08,0,0)">
                            <path d="M419.884,347.45L491.815,296.715C495.198,294.329 496.007,289.645 493.621,286.263C491.236,282.88 486.552,282.071 483.17,284.457L411.238,335.192C407.856,337.578 407.047,342.261 409.432,345.644C411.818,349.027 416.502,349.836 419.884,347.45Z" style="fill:url(#_Linear21);"/>
                        </g>
                    </g>
                    <g transform="matrix(2.91345,0,0,2.91345,-76243.5,-3021.03)">
                        <path d="M26362.6,1212.1C26371.9,1202.59 26378.9,1203.14 26382.9,1217.46C26381.2,1229.67 26373.8,1238.55 26362.1,1245C26350.8,1238.64 26343.7,1229.4 26341.4,1216.77C26344.7,1204.58 26351.5,1202.34 26362.6,1212.1Z" style="fill:white;"/>
                    </g>
                    <g id="heart_rate" transform="matrix(0.204649,0,0,0.204649,459.378,-3264.4)">
                        <path d="M500,18415.6C571.589,18313.9 694.328,18319.5 757.72,18378.7C795.631,18414.2 813.149,18469.2 808.555,18533.2C807.88,18542.7 799.691,18549.7 790.279,18549.1C780.868,18548.4 773.775,18540.2 774.45,18530.8C778.214,18478.3 765.428,18432.8 734.37,18403.7C679.442,18352.4 569.985,18354.1 515.057,18456.2C512.077,18461.8 506.293,18465.2 500,18465.2C493.707,18465.2 487.923,18461.8 484.943,18456.2C430.015,18354.1 320.558,18352.4 265.63,18403.7C243.786,18424.1 230.988,18452.9 226.62,18486.4C219.624,18540 234.053,18605.3 269.03,18670.7L269.251,18671.1C309.727,18752.2 412.16,18832.8 500,18888.6C587.84,18832.8 690.273,18752.2 730.749,18671.1L730.97,18670.7C737.657,18658.2 743.589,18645.7 748.763,18633.3L682.259,18633.3C674.898,18633.3 668.363,18628.5 666.038,18621.6L652.592,18581.2L602.128,18707.2C599.535,18713.7 593.268,18717.9 586.292,18718C579.316,18718 573.031,18713.7 570.411,18707.3L540.413,18633.3L500.631,18633.3C491.196,18633.3 483.535,18625.6 483.535,18616.2C483.535,18606.7 491.196,18599.1 500.631,18599.1L551.932,18599.1C558.894,18599.1 565.162,18603.3 567.776,18609.7L586.159,18655.1L638.199,18525.1C640.866,18518.4 647.408,18514.2 654.579,18514.4C661.751,18514.6 668.027,18519.3 670.292,18526.1L694.588,18599.1L773.566,18599.1C779.095,18599.1 784.282,18601.7 787.49,18606.2C790.698,18610.7 791.531,18616.5 789.725,18621.7C782.332,18643.1 772.825,18664.9 761.193,18686.7C716.85,18775.2 603.743,18864.2 509.042,18923.3C503.508,18926.7 496.492,18926.7 490.958,18923.3C396.248,18864.2 283.128,18775.2 238.794,18686.6C172.97,18563.5 176.394,18440.3 242.28,18378.7C305.672,18319.5 428.411,18313.9 500,18415.6Z" style="fill:url(#_Linear22);"/>
                    </g>
                </g>
                <g transform="matrix(0.334556,0,0,0.165987,-6300.11,-146.502)">
                    <path d="M26439.6,1301.08C26439.6,1292 26433.3,1284.64 26425.6,1284.64L26391.6,1284.64C26383.8,1284.64 26377.6,1292 26377.6,1301.08C26377.6,1310.16 26383.8,1317.53 26391.6,1317.53L26425.6,1317.53C26433.3,1317.53 26439.6,1310.16 26439.6,1301.08Z" style="fill:white;"/>
                </g>
                <g id="pill3" transform="matrix(0.0339014,0,0,0.0197937,2434.61,-244.824)">
                    <path d="M3284.72,15875.1C3284.72,15794 3218.84,15728.1 3137.68,15728.1L2787.38,15728.1C2706.22,15728.1 2640.33,15794 2640.33,15875.1C2640.33,15956.3 2706.22,16022.2 2787.38,16022.2C2787.38,16022.2 3137.68,16022.2 3137.68,16022.2C3218.84,16022.2 3284.72,15956.3 3284.72,15875.1ZM2979.6,15758.1L2787.38,15758.1C2722.78,15758.1 2670.33,15810.5 2670.33,15875.1C2670.33,15939.7 2722.78,15992.2 2787.38,15992.2L2979.6,15992.2L2979.6,15758.1Z" style="fill:url(#_Linear23);"/>
                </g>
            </g>
        </g>
    </g>
    <defs>
        <linearGradient id="_Linear1" x1="0" y1="0" x2="1" y2="0" gradientUnits="userSpaceOnUse" gradientTransform="matrix(74.218,-144.271,144.271,74.218,26314.5,1302.25)"><stop offset="0" style="stop-color:rgb(141,31,36);stop-opacity:0.1"/><stop offset="1" style="stop-color:rgb(141,31,36);stop-opacity:0.1"/></linearGradient>
        <linearGradient id="_Linear2" x1="0" y1="0" x2="1" y2="0" gradientUnits="userSpaceOnUse" gradientTransform="matrix(337.345,450.232,-450.232,337.345,2725.6,11785.2)"><stop offset="0" style="stop-color:rgb(255,50,59);stop-opacity:1"/><stop offset="1" style="stop-color:rgb(141,31,36);stop-opacity:1"/></linearGradient>
        <linearGradient id="_Linear3" x1="0" y1="0" x2="1" y2="0" gradientUnits="userSpaceOnUse" gradientTransform="matrix(210.479,-1537.42,1537.42,210.479,-6.78099,1295.71)"><stop offset="0" style="stop-color:rgb(255,50,59);stop-opacity:1"/><stop offset="1" style="stop-color:rgb(141,31,36);stop-opacity:1"/></linearGradient>
        <linearGradient id="_Linear4" x1="0" y1="0" x2="1" y2="0" gradientUnits="userSpaceOnUse" gradientTransform="matrix(210.479,-1537.42,1537.42,210.479,-9.51899,1304.14)"><stop offset="0" style="stop-color:rgb(255,50,59);stop-opacity:1"/><stop offset="1" style="stop-color:rgb(141,31,36);stop-opacity:1"/></linearGradient>
        <linearGradient id="_Linear5" x1="0" y1="0" x2="1" y2="0" gradientUnits="userSpaceOnUse" gradientTransform="matrix(278.503,-2034.3,2034.3,278.503,-233.146,1504.08)"><stop offset="0" style="stop-color:rgb(255,50,59);stop-opacity:1"/><stop offset="1" style="stop-color:rgb(141,31,36);stop-opacity:1"/></linearGradient>
        <linearGradient id="_Linear6" x1="0" y1="0" x2="1" y2="0" gradientUnits="userSpaceOnUse" gradientTransform="matrix(210.479,-1537.42,1537.42,210.479,-67.4855,1063.45)"><stop offset="0" style="stop-color:rgb(255,50,59);stop-opacity:1"/><stop offset="1" style="stop-color:rgb(141,31,36);stop-opacity:1"/></linearGradient>
        <linearGradient id="_Linear7" x1="0" y1="0" x2="1" y2="0" gradientUnits="userSpaceOnUse" gradientTransform="matrix(356.746,-2605.82,2605.82,356.746,-346.032,1721.54)"><stop offset="0" style="stop-color:rgb(255,50,59);stop-opacity:1"/><stop offset="1" style="stop-color:rgb(141,31,36);stop-opacity:1"/></linearGradient>
        <linearGradient id="_Linear8" x1="0" y1="0" x2="1" y2="0" gradientUnits="userSpaceOnUse" gradientTransform="matrix(480.208,-3507.64,3507.64,480.208,-497.669,2385.98)"><stop offset="0" style="stop-color:rgb(255,50,59);stop-opacity:1"/><stop offset="1" style="stop-color:rgb(141,31,36);stop-opacity:1"/></linearGradient>
        <linearGradient id="_Linear9" x1="0" y1="0" x2="1" y2="0" gradientUnits="userSpaceOnUse" gradientTransform="matrix(210.479,-1537.42,1537.42,210.479,-6.78099,1295.71)"><stop offset="0" style="stop-color:rgb(255,50,59);stop-opacity:1"/><stop offset="1" style="stop-color:rgb(141,31,36);stop-opacity:1"/></linearGradient>
        <linearGradient id="_Linear10" x1="0" y1="0" x2="1" y2="0" gradientUnits="userSpaceOnUse" gradientTransform="matrix(210.479,-1537.42,1537.42,210.479,-6.78099,1295.71)"><stop offset="0" style="stop-color:rgb(255,50,59);stop-opacity:1"/><stop offset="1" style="stop-color:rgb(141,31,36);stop-opacity:1"/></linearGradient>
        <linearGradient id="_Linear11" x1="0" y1="0" x2="1" y2="0" gradientUnits="userSpaceOnUse" gradientTransform="matrix(210.479,-1537.42,1537.42,210.479,-6.78099,1295.71)"><stop offset="0" style="stop-color:rgb(255,50,59);stop-opacity:1"/><stop offset="1" style="stop-color:rgb(141,31,36);stop-opacity:1"/></linearGradient>
        <linearGradient id="_Linear12" x1="0" y1="0" x2="1" y2="0" gradientUnits="userSpaceOnUse" gradientTransform="matrix(210.479,-1537.42,1537.42,210.479,-6.78099,1295.71)"><stop offset="0" style="stop-color:rgb(255,50,59);stop-opacity:1"/><stop offset="1" style="stop-color:rgb(141,31,36);stop-opacity:1"/></linearGradient>
        <linearGradient id="_Linear13" x1="0" y1="0" x2="1" y2="0" gradientUnits="userSpaceOnUse" gradientTransform="matrix(210.479,-1537.42,1537.42,210.479,-6.78099,1295.71)"><stop offset="0" style="stop-color:rgb(255,50,59);stop-opacity:1"/><stop offset="1" style="stop-color:rgb(141,31,36);stop-opacity:1"/></linearGradient>
        <linearGradient id="_Linear14" x1="0" y1="0" x2="1" y2="0" gradientUnits="userSpaceOnUse" gradientTransform="matrix(210.479,-1537.42,1537.42,210.479,-6.78099,1295.71)"><stop offset="0" style="stop-color:rgb(255,50,59);stop-opacity:1"/><stop offset="1" style="stop-color:rgb(141,31,36);stop-opacity:1"/></linearGradient>
        <linearGradient id="_Linear15" x1="0" y1="0" x2="1" y2="0" gradientUnits="userSpaceOnUse" gradientTransform="matrix(210.479,-1537.42,1537.42,210.479,-6.78099,1295.71)"><stop offset="0" style="stop-color:rgb(255,50,59);stop-opacity:1"/><stop offset="1" style="stop-color:rgb(141,31,36);stop-opacity:1"/></linearGradient>
        <linearGradient id="_Linear16" x1="0" y1="0" x2="1" y2="0" gradientUnits="userSpaceOnUse" gradientTransform="matrix(210.479,-1537.42,1537.42,210.479,-6.78099,1295.71)"><stop offset="0" style="stop-color:rgb(255,50,59);stop-opacity:1"/><stop offset="1" style="stop-color:rgb(141,31,36);stop-opacity:1"/></linearGradient>
        <linearGradient id="_Linear17" x1="0" y1="0" x2="1" y2="0" gradientUnits="userSpaceOnUse" gradientTransform="matrix(210.479,-1537.42,1537.42,210.479,-6.78099,1295.71)"><stop offset="0" style="stop-color:rgb(255,50,59);stop-opacity:1"/><stop offset="1" style="stop-color:rgb(141,31,36);stop-opacity:1"/></linearGradient>
        <linearGradient id="_Linear18" x1="0" y1="0" x2="1" y2="0" gradientUnits="userSpaceOnUse" gradientTransform="matrix(210.479,-1537.42,1537.42,210.479,-6.78099,1295.71)"><stop offset="0" style="stop-color:rgb(255,50,59);stop-opacity:1"/><stop offset="1" style="stop-color:rgb(141,31,36);stop-opacity:1"/></linearGradient>
        <linearGradient id="_Linear19" x1="0" y1="0" x2="1" y2="0" gradientUnits="userSpaceOnUse" gradientTransform="matrix(210.479,-1537.42,1537.42,210.479,-6.78099,1295.71)"><stop offset="0" style="stop-color:rgb(255,50,59);stop-opacity:1"/><stop offset="1" style="stop-color:rgb(141,31,36);stop-opacity:1"/></linearGradient>
        <linearGradient id="_Linear20" x1="0" y1="0" x2="1" y2="0" gradientUnits="userSpaceOnUse" gradientTransform="matrix(210.479,-1537.42,1537.42,210.479,-6.78099,1295.71)"><stop offset="0" style="stop-color:rgb(255,50,59);stop-opacity:1"/><stop offset="1" style="stop-color:rgb(141,31,36);stop-opacity:1"/></linearGradient>
        <linearGradient id="_Linear21" x1="0" y1="0" x2="1" y2="0" gradientUnits="userSpaceOnUse" gradientTransform="matrix(210.479,-1537.42,1537.42,210.479,-6.78099,1295.71)"><stop offset="0" style="stop-color:rgb(255,50,59);stop-opacity:1"/><stop offset="1" style="stop-color:rgb(141,31,36);stop-opacity:1"/></linearGradient>
        <linearGradient id="_Linear22" x1="0" y1="0" x2="1" y2="0" gradientUnits="userSpaceOnUse" gradientTransform="matrix(1780.28,2376.03,-2376.03,1780.28,-352.123,17556.8)"><stop offset="0" style="stop-color:rgb(255,50,59);stop-opacity:1"/><stop offset="1" style="stop-color:rgb(141,31,36);stop-opacity:1"/></linearGradient>
        <linearGradient id="_Linear23" x1="0" y1="0" x2="1" y2="0" gradientUnits="userSpaceOnUse" gradientTransform="matrix(1215.74,1622.57,-1622.57,1215.74,2052.7,14393.3)"><stop offset="0" style="stop-color:rgb(255,50,59);stop-opacity:1"/><stop offset="1" style="stop-color:rgb(141,31,36);stop-opacity:1"/></linearGradient>
    </defs>
</svg>
