<?xml version="1.0" encoding="UTF-8" standalone="no"?>
<!DOCTYPE svg PUBLIC "-//W3C//DTD SVG 1.1//EN" "http://www.w3.org/Graphics/SVG/1.1/DTD/svg11.dtd">
<svg width="100%" height="100%" viewBox="0 0 73 144" version="1.1" xmlns="http://www.w3.org/2000/svg" xmlns:xlink="http://www.w3.org/1999/xlink" xml:space="preserve" xmlns:serif="http://www.serif.com/" style="fill-rule:evenodd;clip-rule:evenodd;stroke-linejoin:round;stroke-miterlimit:2;">
    <g transform="matrix(1,0,0,1,-26657,-2031)">
        <g transform="matrix(3.03411,0,0,5.19663,18709.1,942.188)">
            <g id="phase4-19">
                <g transform="matrix(0.329586,0,0,0.192432,-6166.27,-181.307)">
                    <path d="M26683.5,2031.49L26683.4,2065.54C26672.1,2068.65 26664.4,2075.62 26659.6,2085.87L26663.1,2168.8L26723.8,2169.55L26725.8,2082.97C26720.8,2074.05 26713.2,2068.59 26704.5,2064.39L26703.1,2031.49C26696.5,2036.79 26690,2036.96 26683.5,2031.49Z" style="fill:url(#_Linear1);"/>
                </g>
                <g id="bottle" transform="matrix(0.0731224,0,0,0.0426933,2594.91,36.6892)">
                    <path d="M440.788,4190.39L440.788,4065.46C440.788,4057.18 447.509,4050.46 455.788,4050.46C464.067,4050.46 470.788,4057.18 470.788,4065.46L470.788,4202.73C470.788,4210.17 465.332,4216.49 457.969,4217.57C409.157,4224.75 368.669,4263.06 367.492,4304.4L367.491,4646.12C367.468,4651.27 368.509,4655.74 371.204,4658.87C373.496,4661.53 376.972,4662.86 381.207,4663.12L618.793,4663.12C623.028,4662.86 626.504,4661.53 628.796,4658.87C631.491,4655.74 632.532,4651.27 632.509,4646.12C632.508,4646.09 632.508,4646.07 632.508,4646.05L632.508,4304.4C631.331,4263.06 590.843,4224.75 542.031,4217.57C534.668,4216.49 529.212,4210.17 529.212,4202.73L529.212,4065.46C529.212,4057.18 535.933,4050.46 544.212,4050.46C552.491,4050.46 559.212,4057.18 559.212,4065.46L559.212,4190.39C616.924,4204.4 661.161,4253.31 662.503,4303.73C662.507,4303.86 662.508,4303.99 662.508,4304.12C662.508,4304.12 662.508,4646.05 662.508,4645.98C662.57,4659.28 658.477,4670.38 651.521,4678.45C644.212,4686.94 633.63,4692.41 620.016,4693.1C619.765,4693.11 619.515,4693.12 619.264,4693.12L380.736,4693.12C380.485,4693.12 380.235,4693.11 379.984,4693.1C366.37,4692.41 355.788,4686.94 348.479,4678.45C341.523,4670.38 337.43,4659.28 337.492,4646.05L337.492,4304.12L337.497,4303.73C338.839,4253.31 383.076,4204.4 440.788,4190.39Z" style="fill:url(#_Linear2);"/>
                </g>
            </g>
        </g>
    </g>
    <defs>
        <linearGradient id="_Linear1" x1="0" y1="0" x2="1" y2="0" gradientUnits="userSpaceOnUse" gradientTransform="matrix(72.1089,-142.582,142.582,72.1089,26657.3,2174.07)"><stop offset="0" style="stop-color:rgb(141,31,36);stop-opacity:0.1"/><stop offset="1" style="stop-color:rgb(141,31,36);stop-opacity:0.2"/></linearGradient>
        <linearGradient id="_Linear2" x1="0" y1="0" x2="1" y2="0" gradientUnits="userSpaceOnUse" gradientTransform="matrix(352.468,-642.662,642.662,352.468,337.491,4693.12)"><stop offset="0" style="stop-color:rgb(141,31,36);stop-opacity:1"/><stop offset="1" style="stop-color:rgb(255,25,36);stop-opacity:1"/></linearGradient>
    </defs>
</svg>
