<?xml version="1.0" encoding="UTF-8" standalone="no"?>
<!DOCTYPE svg PUBLIC "-//W3C//DTD SVG 1.1//EN" "http://www.w3.org/Graphics/SVG/1.1/DTD/svg11.dtd">
<svg width="100%" height="100%" viewBox="0 0 127 144" version="1.1" xmlns="http://www.w3.org/2000/svg" xmlns:xlink="http://www.w3.org/1999/xlink" xml:space="preserve" xmlns:serif="http://www.serif.com/" style="fill-rule:evenodd;clip-rule:evenodd;stroke-linejoin:round;stroke-miterlimit:2;">
    <g transform="matrix(1,0,0,1,-25857,-2031)">
        <g transform="matrix(3.03411,0,0,5.19663,18709.1,942.188)">
            <g id="phase4-14" transform="matrix(1,0,0,1,1.81686,1.01267)">
                <g transform="matrix(0.329586,0,0,0.192432,-6166.27,-181.307)">
                    <path d="M25857.6,2032.31L25855.7,2142.88L25872.8,2164.19L25937.1,2164.47L25952.7,2148.7L25954.7,2099.03L25934.8,2086.1L25928,2064.49L25939.2,2048.76L25954.8,2041.94L25955,2030.19L25857.6,2032.31Z" style="fill:url(#_Linear1);"/>
                </g>
                <g transform="matrix(0.329586,0,0,0.192432,-6166.27,-181.307)">
                    <path d="M25920.6,2121.25C25916.1,2122.8 25911.6,2122.8 25907.2,2119.42C25895,2110.73 25888.9,2098.62 25893.9,2080.37C25898,2074.05 25902.7,2073.5 25907.8,2077.85C25913.4,2083.68 25907.5,2089.06 25910,2097.18C25914.2,2106.57 25925.4,2103.76 25925.9,2114.09C25925.2,2116.78 25923.4,2119.18 25920.6,2121.25Z" style="fill:white;"/>
                </g>
                <g transform="matrix(0.329586,0,0,0.192432,-6166.27,-181.307)">
                    <path d="M25877.4,2143.06C25874.5,2138.1 25879,2134.87 25887.8,2132.6C25895.9,2131.34 25903.1,2133.44 25908.6,2141.59C25909.9,2146.19 25908.6,2149.37 25903.3,2150.18C25897.2,2149.63 25900.3,2146.14 25893.5,2143.72C25885.8,2141.03 25883.3,2151.24 25877.4,2143.06Z" style="fill:white;"/>
                </g>
                <g id="sac" transform="matrix(0.0847938,0,0,0.0495078,2330.57,195.708)">
                    <g id="frozen3" transform="matrix(0.371442,0,0,0.371442,489.709,227.408)">
                        <g transform="matrix(1.27015,0,0,1.27015,-95.0769,-1788.49)">
                            <path d="M507.497,1755.06C503.027,1751.81 496.973,1751.81 492.503,1755.06L427.97,1801.95C423.5,1805.19 421.629,1810.95 423.337,1816.21L447.986,1892.07C449.694,1897.32 454.591,1900.88 460.116,1900.88L539.884,1900.88C545.409,1900.88 550.306,1897.32 552.014,1892.07L576.663,1816.21C578.371,1810.95 576.5,1805.19 572.03,1801.95L507.497,1755.06ZM450.46,1817.14L469.383,1875.37L530.617,1875.37L549.54,1817.14L500,1781.14L450.46,1817.14Z" style="fill:url(#_Linear2);"/>
                        </g>
                        <g transform="matrix(1.08,0,0,1.08,0,-1439.89)">
                            <path d="M515,1753.43L515,1640.79C515,1632.51 508.279,1625.79 500,1625.79C491.721,1625.79 485,1632.51 485,1640.79L485,1753.43C485,1761.71 491.721,1768.43 500,1768.43C508.279,1768.43 515,1761.71 515,1753.43Z" style="fill:url(#_Linear3);"/>
                        </g>
                        <g transform="matrix(1.08,0,0,1.08,0.227116,-1345.8)">
                            <path d="M489.32,1651.33L489.283,1651.29L429.073,1589.81C423.281,1583.89 423.38,1574.39 429.295,1568.6C435.209,1562.8 444.714,1562.9 450.507,1568.82L500,1619.36L549.493,1568.82C555.286,1562.9 564.791,1562.8 570.705,1568.6C576.62,1574.39 576.719,1583.89 570.927,1589.81L510.717,1651.29L510.68,1651.33L510.633,1651.37L510.606,1651.4L510.58,1651.43L510.532,1651.47L510.495,1651.51L510.475,1651.53L510.442,1651.56L510.382,1651.62L510.356,1651.64L510.341,1651.66L510.303,1651.69L510.233,1651.76L510.215,1651.78L510.206,1651.79L510.163,1651.83L510.084,1651.9L510.021,1651.95L509.935,1652.03L509.928,1652.04C509.45,1652.46 508.952,1652.85 508.436,1653.2L508.385,1653.23L508.285,1653.3L508.229,1653.34L508.133,1653.4L508.073,1653.44L507.981,1653.5L507.966,1653.51L507.958,1653.51L507.916,1653.54L507.829,1653.59L507.807,1653.6L507.797,1653.61L507.757,1653.63L507.676,1653.68L507.648,1653.7L507.634,1653.71L507.598,1653.73L507.523,1653.77L507.488,1653.79L507.471,1653.8L507.438,1653.82L507.369,1653.86L507.327,1653.88L507.306,1653.9L507.277,1653.91L507.214,1653.95L507.164,1653.98L507.141,1653.99L507.115,1654L507.059,1654.03L507.002,1654.06L506.975,1654.08L506.952,1654.09L506.904,1654.11L506.838,1654.15L506.807,1654.16L506.789,1654.17L506.747,1654.19L506.673,1654.23L506.639,1654.25L506.624,1654.25L506.59,1654.27L506.508,1654.31L506.471,1654.33L506.459,1654.33L506.432,1654.35L506.342,1654.39L506.301,1654.41L506.293,1654.41L506.273,1654.42L506.175,1654.47L506.131,1654.49L506.007,1654.54L505.953,1654.56C504.443,1655.22 502.849,1655.61 501.237,1655.74L501.103,1655.75L501.056,1655.75L501.041,1655.75L500.923,1655.76L500.884,1655.76L500.876,1655.77L500.852,1655.77L500.743,1655.77L500.707,1655.77L500.696,1655.77L500.663,1655.78L500.563,1655.78L500.53,1655.78L500.516,1655.78L500.474,1655.78L500.383,1655.79L500.354,1655.79L500.336,1655.79L500.284,1655.79L500.203,1655.79L500.177,1655.79L500.156,1655.79L500.095,1655.79L500.024,1655.79L500,1655.79L499.976,1655.79L499.905,1655.79L499.844,1655.79L499.823,1655.79L499.797,1655.79L499.716,1655.79L499.664,1655.79L499.646,1655.79L499.617,1655.79L499.526,1655.78L499.484,1655.78L499.47,1655.78L499.437,1655.78L499.337,1655.78L499.304,1655.77L499.293,1655.77L499.257,1655.77L499.148,1655.77L499.124,1655.77L499.116,1655.76L499.077,1655.76L498.959,1655.75L498.897,1655.75L498.771,1655.74L498.763,1655.74C497.151,1655.61 495.556,1655.22 494.047,1654.56L493.993,1654.54L493.886,1654.49L493.825,1654.47L493.727,1654.42L493.707,1654.41L493.699,1654.41L493.658,1654.39L493.568,1654.35L493.541,1654.33L493.529,1654.33L493.492,1654.31L493.41,1654.27L493.376,1654.25L493.361,1654.25L493.327,1654.23L493.253,1654.19L493.211,1654.17L493.193,1654.16L493.162,1654.15L493.096,1654.11L493.048,1654.09L493.025,1654.08L492.998,1654.06L492.941,1654.03L492.885,1654L492.859,1653.99L492.836,1653.98L492.786,1653.95L492.723,1653.91L492.694,1653.9L492.673,1653.88L492.631,1653.86L492.562,1653.82L492.529,1653.8L492.512,1653.79L492.477,1653.77L492.402,1653.73L492.366,1653.71L492.352,1653.7L492.324,1653.68L492.243,1653.63L492.203,1653.61L492.193,1653.6L492.171,1653.59L492.084,1653.54L492.042,1653.51L492.034,1653.51L492.019,1653.5L491.927,1653.44L491.882,1653.41L491.771,1653.34L491.615,1653.23L491.564,1653.2C491.048,1652.85 490.549,1652.46 490.072,1652.04L489.979,1651.95L489.932,1651.91L489.837,1651.83L489.794,1651.79L489.785,1651.78L489.767,1651.76L489.697,1651.69L489.659,1651.66L489.644,1651.64L489.618,1651.62L489.558,1651.56L489.525,1651.53L489.505,1651.51L489.468,1651.47L489.42,1651.43L489.394,1651.4L489.367,1651.37L489.32,1651.33Z" style="fill:url(#_Linear4);"/>
                        </g>
                        <g transform="matrix(0.333738,-1.02714,1.02714,0.333738,-1419.19,470.284)">
                            <path d="M489.32,1651.33L489.283,1651.29L429.073,1589.81C423.281,1583.89 423.38,1574.39 429.295,1568.6C435.209,1562.8 444.714,1562.9 450.507,1568.82L500,1619.36L549.493,1568.82C555.286,1562.9 564.791,1562.8 570.705,1568.6C576.62,1574.39 576.719,1583.89 570.927,1589.81L510.717,1651.29L510.68,1651.33L510.633,1651.37L510.606,1651.4L510.58,1651.43L510.532,1651.47L510.495,1651.51L510.475,1651.53L510.442,1651.56L510.382,1651.62L510.356,1651.64L510.341,1651.66L510.303,1651.69L510.233,1651.76L510.215,1651.78L510.206,1651.79L510.163,1651.83L510.084,1651.9L510.021,1651.95L509.935,1652.03L509.928,1652.04C509.45,1652.46 508.952,1652.85 508.436,1653.2L508.385,1653.23L508.285,1653.3L508.229,1653.34L508.133,1653.4L508.073,1653.44L507.981,1653.5L507.966,1653.51L507.958,1653.51L507.916,1653.54L507.829,1653.59L507.807,1653.6L507.797,1653.61L507.757,1653.63L507.676,1653.68L507.648,1653.7L507.634,1653.71L507.598,1653.73L507.523,1653.77L507.488,1653.79L507.471,1653.8L507.438,1653.82L507.369,1653.86L507.327,1653.88L507.306,1653.9L507.277,1653.91L507.214,1653.95L507.164,1653.98L507.141,1653.99L507.115,1654L507.059,1654.03L507.002,1654.06L506.975,1654.08L506.952,1654.09L506.904,1654.11L506.838,1654.15L506.807,1654.16L506.789,1654.17L506.747,1654.19L506.673,1654.23L506.639,1654.25L506.624,1654.25L506.59,1654.27L506.508,1654.31L506.471,1654.33L506.459,1654.33L506.432,1654.35L506.342,1654.39L506.301,1654.41L506.293,1654.41L506.273,1654.42L506.175,1654.47L506.131,1654.49L506.007,1654.54L505.953,1654.56C504.443,1655.22 502.849,1655.61 501.237,1655.74L501.103,1655.75L501.056,1655.75L501.041,1655.75L500.923,1655.76L500.884,1655.76L500.876,1655.77L500.852,1655.77L500.743,1655.77L500.707,1655.77L500.696,1655.77L500.663,1655.78L500.563,1655.78L500.53,1655.78L500.516,1655.78L500.474,1655.78L500.383,1655.79L500.354,1655.79L500.336,1655.79L500.284,1655.79L500.203,1655.79L500.177,1655.79L500.156,1655.79L500.095,1655.79L500.024,1655.79L500,1655.79L499.976,1655.79L499.905,1655.79L499.844,1655.79L499.823,1655.79L499.797,1655.79L499.716,1655.79L499.664,1655.79L499.646,1655.79L499.617,1655.79L499.526,1655.78L499.484,1655.78L499.47,1655.78L499.437,1655.78L499.337,1655.78L499.304,1655.77L499.293,1655.77L499.257,1655.77L499.148,1655.77L499.124,1655.77L499.116,1655.76L499.077,1655.76L498.959,1655.75L498.897,1655.75L498.771,1655.74L498.763,1655.74C497.151,1655.61 495.556,1655.22 494.047,1654.56L493.993,1654.54L493.886,1654.49L493.825,1654.47L493.727,1654.42L493.707,1654.41L493.699,1654.41L493.658,1654.39L493.568,1654.35L493.541,1654.33L493.529,1654.33L493.492,1654.31L493.41,1654.27L493.376,1654.25L493.361,1654.25L493.327,1654.23L493.253,1654.19L493.211,1654.17L493.193,1654.16L493.162,1654.15L493.096,1654.11L493.048,1654.09L493.025,1654.08L492.998,1654.06L492.941,1654.03L492.885,1654L492.859,1653.99L492.836,1653.98L492.786,1653.95L492.723,1653.91L492.694,1653.9L492.673,1653.88L492.631,1653.86L492.562,1653.82L492.529,1653.8L492.512,1653.79L492.477,1653.77L492.402,1653.73L492.366,1653.71L492.352,1653.7L492.324,1653.68L492.243,1653.63L492.203,1653.61L492.193,1653.6L492.171,1653.59L492.084,1653.54L492.042,1653.51L492.034,1653.51L492.019,1653.5L491.927,1653.44L491.882,1653.41L491.771,1653.34L491.615,1653.23L491.564,1653.2C491.048,1652.85 490.549,1652.46 490.072,1652.04L489.979,1651.95L489.932,1651.91L489.837,1651.83L489.794,1651.79L489.785,1651.78L489.767,1651.76L489.697,1651.69L489.659,1651.66L489.644,1651.64L489.618,1651.62L489.558,1651.56L489.525,1651.53L489.505,1651.51L489.468,1651.47L489.42,1651.43L489.394,1651.4L489.367,1651.37L489.32,1651.33Z" style="fill:url(#_Linear5);"/>
                        </g>
                        <g transform="matrix(-0.873738,-0.634808,0.634808,-0.873738,-130.668,2381.24)">
                            <path d="M489.32,1651.33L489.283,1651.29L429.073,1589.81C423.281,1583.89 423.38,1574.39 429.295,1568.6C435.209,1562.8 444.714,1562.9 450.507,1568.82L500,1619.36L549.493,1568.82C555.286,1562.9 564.791,1562.8 570.705,1568.6C576.62,1574.39 576.719,1583.89 570.927,1589.81L510.717,1651.29L510.68,1651.33L510.633,1651.37L510.606,1651.4L510.58,1651.43L510.532,1651.47L510.495,1651.51L510.475,1651.53L510.442,1651.56L510.382,1651.62L510.356,1651.64L510.341,1651.66L510.303,1651.69L510.233,1651.76L510.215,1651.78L510.206,1651.79L510.163,1651.83L510.084,1651.9L510.021,1651.95L509.935,1652.03L509.928,1652.04C509.45,1652.46 508.952,1652.85 508.436,1653.2L508.385,1653.23L508.285,1653.3L508.229,1653.34L508.133,1653.4L508.073,1653.44L507.981,1653.5L507.966,1653.51L507.958,1653.51L507.916,1653.54L507.829,1653.59L507.807,1653.6L507.797,1653.61L507.757,1653.63L507.676,1653.68L507.648,1653.7L507.634,1653.71L507.598,1653.73L507.523,1653.77L507.488,1653.79L507.471,1653.8L507.438,1653.82L507.369,1653.86L507.327,1653.88L507.306,1653.9L507.277,1653.91L507.214,1653.95L507.164,1653.98L507.141,1653.99L507.115,1654L507.059,1654.03L507.002,1654.06L506.975,1654.08L506.952,1654.09L506.904,1654.11L506.838,1654.15L506.807,1654.16L506.789,1654.17L506.747,1654.19L506.673,1654.23L506.639,1654.25L506.624,1654.25L506.59,1654.27L506.508,1654.31L506.471,1654.33L506.459,1654.33L506.432,1654.35L506.342,1654.39L506.301,1654.41L506.293,1654.41L506.273,1654.42L506.175,1654.47L506.131,1654.49L506.007,1654.54L505.953,1654.56C504.443,1655.22 502.849,1655.61 501.237,1655.74L501.103,1655.75L501.056,1655.75L501.041,1655.75L500.923,1655.76L500.884,1655.76L500.876,1655.77L500.852,1655.77L500.743,1655.77L500.707,1655.77L500.696,1655.77L500.663,1655.78L500.563,1655.78L500.53,1655.78L500.516,1655.78L500.474,1655.78L500.383,1655.79L500.354,1655.79L500.336,1655.79L500.284,1655.79L500.203,1655.79L500.177,1655.79L500.156,1655.79L500.095,1655.79L500.024,1655.79L500,1655.79L499.976,1655.79L499.905,1655.79L499.844,1655.79L499.823,1655.79L499.797,1655.79L499.716,1655.79L499.664,1655.79L499.646,1655.79L499.617,1655.79L499.526,1655.78L499.484,1655.78L499.47,1655.78L499.437,1655.78L499.337,1655.78L499.304,1655.77L499.293,1655.77L499.257,1655.77L499.148,1655.77L499.124,1655.77L499.116,1655.76L499.077,1655.76L498.959,1655.75L498.897,1655.75L498.771,1655.74L498.763,1655.74C497.151,1655.61 495.556,1655.22 494.047,1654.56L493.993,1654.54L493.886,1654.49L493.825,1654.47L493.727,1654.42L493.707,1654.41L493.699,1654.41L493.658,1654.39L493.568,1654.35L493.541,1654.33L493.529,1654.33L493.492,1654.31L493.41,1654.27L493.376,1654.25L493.361,1654.25L493.327,1654.23L493.253,1654.19L493.211,1654.17L493.193,1654.16L493.162,1654.15L493.096,1654.11L493.048,1654.09L493.025,1654.08L492.998,1654.06L492.941,1654.03L492.885,1654L492.859,1653.99L492.836,1653.98L492.786,1653.95L492.723,1653.91L492.694,1653.9L492.673,1653.88L492.631,1653.86L492.562,1653.82L492.529,1653.8L492.512,1653.79L492.477,1653.77L492.402,1653.73L492.366,1653.71L492.352,1653.7L492.324,1653.68L492.243,1653.63L492.203,1653.61L492.193,1653.6L492.171,1653.59L492.084,1653.54L492.042,1653.51L492.034,1653.51L492.019,1653.5L491.927,1653.44L491.882,1653.41L491.771,1653.34L491.615,1653.23L491.564,1653.2C491.048,1652.85 490.549,1652.46 490.072,1652.04L489.979,1651.95L489.932,1651.91L489.837,1651.83L489.794,1651.79L489.785,1651.78L489.767,1651.76L489.697,1651.69L489.659,1651.66L489.644,1651.64L489.618,1651.62L489.558,1651.56L489.525,1651.53L489.505,1651.51L489.468,1651.47L489.42,1651.43L489.394,1651.4L489.367,1651.37L489.32,1651.33Z" style="fill:url(#_Linear6);"/>
                        </g>
                        <g transform="matrix(-0.873738,0.634808,-0.634808,-0.873738,2084.9,1747.86)">
                            <path d="M489.32,1651.33L489.283,1651.29L429.073,1589.81C423.281,1583.89 423.38,1574.39 429.295,1568.6C435.209,1562.8 444.714,1562.9 450.507,1568.82L500,1619.36L549.493,1568.82C555.286,1562.9 564.791,1562.8 570.705,1568.6C576.62,1574.39 576.719,1583.89 570.927,1589.81L510.717,1651.29L510.68,1651.33L510.633,1651.37L510.606,1651.4L510.58,1651.43L510.532,1651.47L510.495,1651.51L510.475,1651.53L510.442,1651.56L510.382,1651.62L510.356,1651.64L510.341,1651.66L510.303,1651.69L510.233,1651.76L510.215,1651.78L510.206,1651.79L510.163,1651.83L510.084,1651.9L510.021,1651.95L509.935,1652.03L509.928,1652.04C509.45,1652.46 508.952,1652.85 508.436,1653.2L508.385,1653.23L508.285,1653.3L508.229,1653.34L508.133,1653.4L508.073,1653.44L507.981,1653.5L507.966,1653.51L507.958,1653.51L507.916,1653.54L507.829,1653.59L507.807,1653.6L507.797,1653.61L507.757,1653.63L507.676,1653.68L507.648,1653.7L507.634,1653.71L507.598,1653.73L507.523,1653.77L507.488,1653.79L507.471,1653.8L507.438,1653.82L507.369,1653.86L507.327,1653.88L507.306,1653.9L507.277,1653.91L507.214,1653.95L507.164,1653.98L507.141,1653.99L507.115,1654L507.059,1654.03L507.002,1654.06L506.975,1654.08L506.952,1654.09L506.904,1654.11L506.838,1654.15L506.807,1654.16L506.789,1654.17L506.747,1654.19L506.673,1654.23L506.639,1654.25L506.624,1654.25L506.59,1654.27L506.508,1654.31L506.471,1654.33L506.459,1654.33L506.432,1654.35L506.342,1654.39L506.301,1654.41L506.293,1654.41L506.273,1654.42L506.175,1654.47L506.131,1654.49L506.007,1654.54L505.953,1654.56C504.443,1655.22 502.849,1655.61 501.237,1655.74L501.103,1655.75L501.056,1655.75L501.041,1655.75L500.923,1655.76L500.884,1655.76L500.876,1655.77L500.852,1655.77L500.743,1655.77L500.707,1655.77L500.696,1655.77L500.663,1655.78L500.563,1655.78L500.53,1655.78L500.516,1655.78L500.474,1655.78L500.383,1655.79L500.354,1655.79L500.336,1655.79L500.284,1655.79L500.203,1655.79L500.177,1655.79L500.156,1655.79L500.095,1655.79L500.024,1655.79L500,1655.79L499.976,1655.79L499.905,1655.79L499.844,1655.79L499.823,1655.79L499.797,1655.79L499.716,1655.79L499.664,1655.79L499.646,1655.79L499.617,1655.79L499.526,1655.78L499.484,1655.78L499.47,1655.78L499.437,1655.78L499.337,1655.78L499.304,1655.77L499.293,1655.77L499.257,1655.77L499.148,1655.77L499.124,1655.77L499.116,1655.76L499.077,1655.76L498.959,1655.75L498.897,1655.75L498.771,1655.74L498.763,1655.74C497.151,1655.61 495.556,1655.22 494.047,1654.56L493.993,1654.54L493.886,1654.49L493.825,1654.47L493.727,1654.42L493.707,1654.41L493.699,1654.41L493.658,1654.39L493.568,1654.35L493.541,1654.33L493.529,1654.33L493.492,1654.31L493.41,1654.27L493.376,1654.25L493.361,1654.25L493.327,1654.23L493.253,1654.19L493.211,1654.17L493.193,1654.16L493.162,1654.15L493.096,1654.11L493.048,1654.09L493.025,1654.08L492.998,1654.06L492.941,1654.03L492.885,1654L492.859,1653.99L492.836,1653.98L492.786,1653.95L492.723,1653.91L492.694,1653.9L492.673,1653.88L492.631,1653.86L492.562,1653.82L492.529,1653.8L492.512,1653.79L492.477,1653.77L492.402,1653.73L492.366,1653.71L492.352,1653.7L492.324,1653.68L492.243,1653.63L492.203,1653.61L492.193,1653.6L492.171,1653.59L492.084,1653.54L492.042,1653.51L492.034,1653.51L492.019,1653.5L491.927,1653.44L491.882,1653.41L491.771,1653.34L491.615,1653.23L491.564,1653.2C491.048,1652.85 490.549,1652.46 490.072,1652.04L489.979,1651.95L489.932,1651.91L489.837,1651.83L489.794,1651.79L489.785,1651.78L489.767,1651.76L489.697,1651.69L489.659,1651.66L489.644,1651.64L489.618,1651.62L489.558,1651.56L489.525,1651.53L489.505,1651.51L489.468,1651.47L489.42,1651.43L489.394,1651.4L489.367,1651.37L489.32,1651.33Z" style="fill:url(#_Linear7);"/>
                        </g>
                        <g transform="matrix(0.333738,1.02714,-1.02714,0.333738,2165.69,-557.65)">
                            <path d="M489.32,1651.33L489.283,1651.29L429.073,1589.81C423.281,1583.89 423.38,1574.39 429.295,1568.6C435.209,1562.8 444.714,1562.9 450.507,1568.82L500,1619.36L549.493,1568.82C555.286,1562.9 564.791,1562.8 570.705,1568.6C576.62,1574.39 576.719,1583.89 570.927,1589.81L510.717,1651.29L510.68,1651.33L510.633,1651.37L510.606,1651.4L510.58,1651.43L510.532,1651.47L510.495,1651.51L510.475,1651.53L510.442,1651.56L510.382,1651.62L510.356,1651.64L510.341,1651.66L510.303,1651.69L510.233,1651.76L510.215,1651.78L510.206,1651.79L510.163,1651.83L510.084,1651.9L510.021,1651.95L509.935,1652.03L509.928,1652.04C509.45,1652.46 508.952,1652.85 508.436,1653.2L508.385,1653.23L508.285,1653.3L508.229,1653.34L508.133,1653.4L508.073,1653.44L507.981,1653.5L507.966,1653.51L507.958,1653.51L507.916,1653.54L507.829,1653.59L507.807,1653.6L507.797,1653.61L507.757,1653.63L507.676,1653.68L507.648,1653.7L507.634,1653.71L507.598,1653.73L507.523,1653.77L507.488,1653.79L507.471,1653.8L507.438,1653.82L507.369,1653.86L507.327,1653.88L507.306,1653.9L507.277,1653.91L507.214,1653.95L507.164,1653.98L507.141,1653.99L507.115,1654L507.059,1654.03L507.002,1654.06L506.975,1654.08L506.952,1654.09L506.904,1654.11L506.838,1654.15L506.807,1654.16L506.789,1654.17L506.747,1654.19L506.673,1654.23L506.639,1654.25L506.624,1654.25L506.59,1654.27L506.508,1654.31L506.471,1654.33L506.459,1654.33L506.432,1654.35L506.342,1654.39L506.301,1654.41L506.293,1654.41L506.273,1654.42L506.175,1654.47L506.131,1654.49L506.007,1654.54L505.953,1654.56C504.443,1655.22 502.849,1655.61 501.237,1655.74L501.103,1655.75L501.056,1655.75L501.041,1655.75L500.923,1655.76L500.884,1655.76L500.876,1655.77L500.852,1655.77L500.743,1655.77L500.707,1655.77L500.696,1655.77L500.663,1655.78L500.563,1655.78L500.53,1655.78L500.516,1655.78L500.474,1655.78L500.383,1655.79L500.354,1655.79L500.336,1655.79L500.284,1655.79L500.203,1655.79L500.177,1655.79L500.156,1655.79L500.095,1655.79L500.024,1655.79L500,1655.79L499.976,1655.79L499.905,1655.79L499.844,1655.79L499.823,1655.79L499.797,1655.79L499.716,1655.79L499.664,1655.79L499.646,1655.79L499.617,1655.79L499.526,1655.78L499.484,1655.78L499.47,1655.78L499.437,1655.78L499.337,1655.78L499.304,1655.77L499.293,1655.77L499.257,1655.77L499.148,1655.77L499.124,1655.77L499.116,1655.76L499.077,1655.76L498.959,1655.75L498.897,1655.75L498.771,1655.74L498.763,1655.74C497.151,1655.61 495.556,1655.22 494.047,1654.56L493.993,1654.54L493.886,1654.49L493.825,1654.47L493.727,1654.42L493.707,1654.41L493.699,1654.41L493.658,1654.39L493.568,1654.35L493.541,1654.33L493.529,1654.33L493.492,1654.31L493.41,1654.27L493.376,1654.25L493.361,1654.25L493.327,1654.23L493.253,1654.19L493.211,1654.17L493.193,1654.16L493.162,1654.15L493.096,1654.11L493.048,1654.09L493.025,1654.08L492.998,1654.06L492.941,1654.03L492.885,1654L492.859,1653.99L492.836,1653.98L492.786,1653.95L492.723,1653.91L492.694,1653.9L492.673,1653.88L492.631,1653.86L492.562,1653.82L492.529,1653.8L492.512,1653.79L492.477,1653.77L492.402,1653.73L492.366,1653.71L492.352,1653.7L492.324,1653.68L492.243,1653.63L492.203,1653.61L492.193,1653.6L492.171,1653.59L492.084,1653.54L492.042,1653.51L492.034,1653.51L492.019,1653.5L491.927,1653.44L491.882,1653.41L491.771,1653.34L491.615,1653.23L491.564,1653.2C491.048,1652.85 490.549,1652.46 490.072,1652.04L489.979,1651.95L489.932,1651.91L489.837,1651.83L489.794,1651.79L489.785,1651.78L489.767,1651.76L489.697,1651.69L489.659,1651.66L489.644,1651.64L489.618,1651.62L489.558,1651.56L489.525,1651.53L489.505,1651.51L489.468,1651.47L489.42,1651.43L489.394,1651.4L489.367,1651.37L489.32,1651.33Z" style="fill:url(#_Linear8);"/>
                        </g>
                        <g transform="matrix(0.333738,-1.02714,1.02714,0.333738,-1509.86,441.751)">
                            <path d="M515,1753.43L515,1640.79C515,1632.51 508.279,1625.79 500,1625.79C491.721,1625.79 485,1632.51 485,1640.79L485,1753.43C485,1761.71 491.721,1768.43 500,1768.43C508.279,1768.43 515,1761.71 515,1753.43Z" style="fill:url(#_Linear9);"/>
                        </g>
                        <g transform="matrix(-0.873738,-0.634808,0.634808,-0.873738,-186.882,2459.17)">
                            <path d="M515,1753.43L515,1640.79C515,1632.51 508.279,1625.79 500,1625.79C491.721,1625.79 485,1632.51 485,1640.79L485,1753.43C485,1761.71 491.721,1768.43 500,1768.43C508.279,1768.43 515,1761.71 515,1753.43Z" style="fill:url(#_Linear10);"/>
                        </g>
                        <g transform="matrix(-0.873738,0.634808,-0.634808,-0.873738,2140.62,1824.36)">
                            <path d="M515,1753.43L515,1640.79C515,1632.51 508.279,1625.79 500,1625.79C491.721,1625.79 485,1632.51 485,1640.79L485,1753.43C485,1761.71 491.721,1768.43 500,1768.43C508.279,1768.43 515,1761.71 515,1753.43Z" style="fill:url(#_Linear11);"/>
                        </g>
                        <g transform="matrix(0.333738,1.02714,-1.02714,0.333738,2256.12,-585.391)">
                            <path d="M515,1753.43L515,1640.79C515,1632.51 508.279,1625.79 500,1625.79C491.721,1625.79 485,1632.51 485,1640.79L485,1753.43C485,1761.71 491.721,1768.43 500,1768.43C508.279,1768.43 515,1761.71 515,1753.43Z" style="fill:url(#_Linear12);"/>
                        </g>
                    </g>
                    <g transform="matrix(1.08,0,0,1.08,0,-2848.14)">
                        <path d="M629.15,2950.46C637.434,2950.46 644.15,2943.75 644.15,2935.46L644.15,2893.36C644.15,2885.08 637.434,2878.36 629.15,2878.36L271.833,2878.36C263.549,2878.36 256.833,2885.08 256.833,2893.36L256.833,3287.18C256.833,3344.76 303.582,3391.51 361.162,3391.51C361.162,3391.51 538.14,3391.51 538.14,3391.51C596.648,3391.51 644.15,3344.01 644.15,3285.5L644.15,3134.93C644.389,3125.53 639.092,3119.93 629.15,3119.93C582.383,3119.93 544.414,3081.97 544.414,3035.2C544.414,2988.43 582.383,2950.46 629.15,2950.46ZM614.15,2921.44L614.15,2908.36L286.833,2908.36L286.833,3287.18C286.833,3328.2 320.139,3361.51 361.162,3361.51L538.14,3361.51C580.091,3361.51 614.15,3327.45 614.15,3285.5L614.15,3148.96C557.9,3141.6 514.414,3093.44 514.414,3035.2C514.414,2976.96 557.9,2928.8 614.15,2921.44Z" style="fill:url(#_Linear13);"/>
                    </g>
                    <g id="bacteria1" transform="matrix(-0.469122,0.125701,-0.125701,-0.469122,729.506,722.485)">
                        <g transform="matrix(1.08,0,0,1.08,0,0)">
                            <path d="M268.847,387.576C308.627,412.307 328.783,470.942 294.246,522.039C271.066,556.333 280.089,602.995 314.384,626.175C348.679,649.355 395.341,640.332 418.521,606.037C507.603,474.241 450.649,323.976 348.043,260.187C312.889,238.332 266.605,249.129 244.75,284.283C222.895,319.437 233.693,365.721 268.847,387.576ZM279.406,370.591C253.627,354.564 245.709,320.622 261.735,294.843C277.762,269.063 311.704,261.145 337.483,277.172C431.712,335.753 483.76,473.802 401.951,594.837C384.952,619.987 350.733,626.604 325.584,609.605C300.434,592.607 293.817,558.388 310.816,533.238C352.624,471.383 327.562,400.529 279.406,370.591Z" style="fill:url(#_Linear14);"/>
                        </g>
                        <g transform="matrix(1.08,0,0,1.08,2.95704,-9.10227)">
                            <path d="M304.226,304.329C287.539,304.329 273.991,317.876 273.991,334.563C273.991,351.25 287.539,364.798 304.226,364.798C320.913,364.798 334.461,351.25 334.461,334.563C334.461,317.876 320.913,304.329 304.226,304.329ZM304.226,324.329C309.874,324.329 314.461,328.915 314.461,334.563C314.461,340.212 309.874,344.798 304.226,344.798C298.577,344.798 293.991,340.212 293.991,334.563C293.991,328.915 298.577,324.329 304.226,324.329Z" style="fill:url(#_Linear15);"/>
                        </g>
                        <g transform="matrix(0.816211,0,0,0.816211,182.973,171.721)">
                            <path d="M304.226,304.405C287.581,304.405 274.067,317.918 274.067,334.563C274.067,351.208 287.581,364.722 304.226,364.722C320.871,364.722 334.384,351.208 334.384,334.563C334.384,317.918 320.871,304.405 304.226,304.405ZM304.226,324.252C309.916,324.252 314.537,328.873 314.537,334.563C314.537,340.254 309.916,344.874 304.226,344.874C298.535,344.874 293.915,340.254 293.915,334.563C293.915,328.873 298.535,324.252 304.226,324.252Z" style="fill:url(#_Linear16);"/>
                        </g>
                        <g transform="matrix(1.08,0,0,1.08,65.5609,250.835)">
                            <path d="M304.226,304.329C287.539,304.329 273.991,317.876 273.991,334.563C273.991,351.25 287.539,364.798 304.226,364.798C320.913,364.798 334.461,351.25 334.461,334.563C334.461,317.876 320.913,304.329 304.226,304.329ZM304.226,324.329C309.874,324.329 314.461,328.915 314.461,334.563C314.461,340.212 309.874,344.798 304.226,344.798C298.577,344.798 293.991,340.212 293.991,334.563C293.991,328.915 298.577,324.329 304.226,324.329Z" style="fill:url(#_Linear17);"/>
                        </g>
                        <g transform="matrix(0.637196,0,0,0.637196,213.167,302.406)">
                            <path d="M304.226,305.854C288.381,305.854 275.516,318.718 275.516,334.563C275.516,350.409 288.381,363.273 304.226,363.273C320.071,363.273 332.935,350.409 332.935,334.563C332.935,318.718 320.071,305.854 304.226,305.854ZM304.226,322.803C310.716,322.803 315.986,328.073 315.986,334.563C315.986,341.054 310.716,346.324 304.226,346.324C297.735,346.324 292.465,341.054 292.465,334.563C292.465,328.073 297.735,322.803 304.226,322.803Z" style="fill:url(#_Linear18);"/>
                        </g>
                        <g transform="matrix(0.473372,0,0,0.473372,228.259,269.906)">
                            <path d="M304.226,302.921C286.762,302.921 272.583,317.1 272.583,334.563C272.583,352.027 286.762,366.206 304.226,366.206C321.69,366.206 335.868,352.027 335.868,334.563C335.868,317.1 321.69,302.921 304.226,302.921ZM304.226,325.736C309.098,325.736 313.053,329.691 313.053,334.563C313.053,339.435 309.098,343.391 304.226,343.391C299.354,343.391 295.398,339.435 295.398,334.563C295.398,329.691 299.354,325.736 304.226,325.736Z" style="fill:url(#_Linear19);"/>
                        </g>
                        <g transform="matrix(1.08,0,0,1.08,0,0)">
                            <path d="M278.182,265.482L249.474,226.713C247.011,223.387 242.31,222.686 238.983,225.149C235.657,227.612 234.956,232.313 237.419,235.64L266.127,274.409C268.59,277.735 273.291,278.436 276.617,275.973C279.944,273.51 280.645,268.809 278.182,265.482Z" style="fill:url(#_Linear20);"/>
                        </g>
                        <g transform="matrix(1.08,0,0,1.08,0,0)">
                            <path d="M370.638,289.316L391.28,265.099C393.966,261.948 393.588,257.211 390.438,254.526C387.288,251.84 382.55,252.218 379.865,255.368L359.222,279.586C356.537,282.736 356.915,287.474 360.065,290.159C363.215,292.844 367.953,292.466 370.638,289.316Z" style="fill:url(#_Linear21);"/>
                        </g>
                        <g transform="matrix(1.08,0,0,1.08,0,0)">
                            <path d="M246.362,338.952L209.954,344.383C205.86,344.994 203.032,348.813 203.643,352.907C204.253,357.001 208.073,359.829 212.167,359.219L248.575,353.788C252.669,353.178 255.497,349.358 254.887,345.264C254.276,341.17 250.456,338.342 246.362,338.952Z" style="fill:url(#_Linear22);"/>
                        </g>
                        <g transform="matrix(1.08,0,0,1.08,0,0)">
                            <path d="M298.994,398.431L242.924,423.427C239.144,425.112 237.443,429.55 239.128,433.331C240.814,437.111 245.251,438.812 249.032,437.127L305.101,412.131C308.882,410.446 310.583,406.008 308.897,402.227C307.212,398.447 302.774,396.745 298.994,398.431Z" style="fill:url(#_Linear23);"/>
                        </g>
                        <g transform="matrix(1.08,0,0,1.08,0,0)">
                            <path d="M318.59,492.834L280.84,481.167C276.885,479.945 272.682,482.164 271.46,486.118C270.237,490.073 272.456,494.276 276.411,495.499L314.16,507.166C318.115,508.388 322.318,506.169 323.541,502.215C324.763,498.26 322.544,494.057 318.59,492.834Z" style="fill:url(#_Linear24);"/>
                        </g>
                        <g transform="matrix(1.08,0,0,1.08,0,0)">
                            <path d="M291.206,560.264L255.715,561.65C251.578,561.812 248.352,565.301 248.513,569.437C248.675,573.573 252.164,576.8 256.3,576.639L291.791,575.253C295.927,575.091 299.154,571.602 298.993,567.466C298.831,563.33 295.342,560.103 291.206,560.264Z" style="fill:url(#_Linear25);"/>
                        </g>
                        <g transform="matrix(1.08,0,0,1.08,0,0)">
                            <path d="M304.151,606.979L279.172,655.55C277.279,659.231 278.73,663.757 282.412,665.65C286.093,667.543 290.618,666.091 292.511,662.41L317.491,613.839C319.384,610.158 317.932,605.633 314.251,603.74C310.57,601.846 306.044,603.298 304.151,606.979Z" style="fill:url(#_Linear26);"/>
                        </g>
                        <g transform="matrix(1.08,0,0,1.08,0,0)">
                            <path d="M358.529,629.688L364.246,660.601C364.999,664.671 368.914,667.364 372.985,666.612C377.055,665.859 379.748,661.943 378.996,657.873L373.279,626.961C372.526,622.89 368.611,620.197 364.54,620.95C360.47,621.702 357.776,625.618 358.529,629.688Z" style="fill:url(#_Linear27);"/>
                        </g>
                        <g transform="matrix(1.08,0,0,1.08,0,0)">
                            <path d="M411.129,598.298L459.515,633.746C462.854,636.192 467.551,635.467 469.997,632.128C472.444,628.789 471.719,624.092 468.38,621.646L419.994,586.198C416.654,583.752 411.957,584.477 409.511,587.816C407.065,591.155 407.79,595.852 411.129,598.298Z" style="fill:url(#_Linear28);"/>
                        </g>
                        <g transform="matrix(1.08,0,0,1.08,0,0)">
                            <path d="M437.669,537.377L484.114,550.819C488.09,551.97 492.252,549.676 493.403,545.7C494.554,541.724 492.26,537.561 488.284,536.411L441.839,522.969C437.863,521.818 433.701,524.112 432.55,528.088C431.399,532.064 433.693,536.226 437.669,537.377Z" style="fill:url(#_Linear29);"/>
                        </g>
                        <g transform="matrix(1.08,0,0,1.08,0,0)">
                            <path d="M451.899,475.117L525.788,482.496C529.907,482.908 533.585,479.898 533.996,475.779C534.407,471.66 531.397,467.982 527.278,467.571L453.39,460.191C449.271,459.78 445.593,462.79 445.182,466.909C444.77,471.027 447.78,474.705 451.899,475.117Z" style="fill:url(#_Linear30);"/>
                        </g>
                        <g transform="matrix(1.08,0,0,1.08,0,0)">
                            <path d="M449.392,419.667L475.292,407.245C479.025,405.454 480.602,400.971 478.812,397.239C477.022,393.506 472.538,391.93 468.806,393.72L442.906,406.142C439.173,407.932 437.596,412.415 439.386,416.147C441.177,419.88 445.66,421.457 449.392,419.667Z" style="fill:url(#_Linear31);"/>
                        </g>
                        <g transform="matrix(1.08,0,0,1.08,0,0)">
                            <path d="M419.884,347.45L491.815,296.715C495.198,294.329 496.007,289.645 493.621,286.263C491.236,282.88 486.552,282.071 483.17,284.457L411.238,335.192C407.856,337.578 407.047,342.261 409.432,345.644C411.818,349.027 416.502,349.836 419.884,347.45Z" style="fill:url(#_Linear32);"/>
                        </g>
                    </g>
                    <g id="bacteria2" transform="matrix(0.116189,-0.296256,0.296256,0.116189,253.23,763.288)">
                        <g transform="matrix(1.08,0,0,1.08,0,0)">
                            <path d="M268.847,387.576C308.627,412.307 328.783,470.942 294.246,522.039C271.066,556.333 280.089,602.995 314.384,626.175C348.679,649.355 395.341,640.332 418.521,606.037C507.603,474.241 450.649,323.976 348.043,260.187C312.889,238.332 266.605,249.129 244.75,284.283C222.895,319.437 233.693,365.721 268.847,387.576ZM279.406,370.591C253.627,354.564 245.709,320.622 261.735,294.843C277.762,269.063 311.704,261.145 337.483,277.172C431.712,335.753 483.76,473.802 401.951,594.837C384.952,619.987 350.733,626.604 325.584,609.605C300.434,592.607 293.817,558.388 310.816,533.238C352.624,471.383 327.562,400.529 279.406,370.591Z" style="fill:url(#_Linear33);"/>
                        </g>
                        <g transform="matrix(0.584201,0,0,0.584201,-560.82,188.806)">
                            <path d="M1506.76,260.331C1487.51,260.331 1471.88,275.958 1471.88,295.207C1471.88,314.455 1487.51,330.082 1506.76,330.082C1526.01,330.082 1541.63,314.455 1541.63,295.207C1541.63,275.958 1526.01,260.331 1506.76,260.331ZM1506.76,275.331C1517.73,275.331 1526.63,284.237 1526.63,295.207C1526.63,306.176 1517.73,315.082 1506.76,315.082C1495.79,315.082 1486.88,306.176 1486.88,295.207C1486.88,284.237 1495.79,275.331 1506.76,275.331Z" style="fill:url(#_Linear34);"/>
                        </g>
                        <g transform="matrix(0.584201,0,0,0.584201,-465.957,204.799)">
                            <path d="M1506.76,260.331C1487.51,260.331 1471.88,275.958 1471.88,295.207C1471.88,314.455 1487.51,330.082 1506.76,330.082C1526.01,330.082 1541.63,314.455 1541.63,295.207C1541.63,275.958 1526.01,260.331 1506.76,260.331ZM1506.76,275.331C1517.73,275.331 1526.63,284.237 1526.63,295.207C1526.63,306.176 1517.73,315.082 1506.76,315.082C1495.79,315.082 1486.88,306.176 1486.88,295.207C1486.88,284.237 1495.79,275.331 1506.76,275.331Z" style="fill:url(#_Linear35);"/>
                        </g>
                        <g transform="matrix(0.584201,0,0,0.584201,-488.397,369.265)">
                            <path d="M1506.76,260.331C1487.51,260.331 1471.88,275.958 1471.88,295.207C1471.88,314.455 1487.51,330.082 1506.76,330.082C1526.01,330.082 1541.63,314.455 1541.63,295.207C1541.63,275.958 1526.01,260.331 1506.76,260.331ZM1506.76,275.331C1517.73,275.331 1526.63,284.237 1526.63,295.207C1526.63,306.176 1517.73,315.082 1506.76,315.082C1495.79,315.082 1486.88,306.176 1486.88,295.207C1486.88,284.237 1495.79,275.331 1506.76,275.331Z" style="fill:url(#_Linear36);"/>
                        </g>
                        <g transform="matrix(0.584201,0,0,0.584201,-472.405,458.984)">
                            <path d="M1506.76,260.331C1487.51,260.331 1471.88,275.958 1471.88,295.207C1471.88,314.455 1487.51,330.082 1506.76,330.082C1526.01,330.082 1541.63,314.455 1541.63,295.207C1541.63,275.958 1526.01,260.331 1506.76,260.331ZM1506.76,275.331C1517.73,275.331 1526.63,284.237 1526.63,295.207C1526.63,306.176 1517.73,315.082 1506.76,315.082C1495.79,315.082 1486.88,306.176 1486.88,295.207C1486.88,284.237 1495.79,275.331 1506.76,275.331Z" style="fill:url(#_Linear37);"/>
                        </g>
                        <g transform="matrix(0.819714,0,0,0.819714,-804.826,221.497)">
                            <path d="M1506.76,260.704C1487.72,260.704 1472.26,276.164 1472.26,295.207C1472.26,314.249 1487.72,329.709 1506.76,329.709C1525.8,329.709 1541.26,314.249 1541.26,295.207C1541.26,276.164 1525.8,260.704 1506.76,260.704ZM1506.76,274.958C1517.93,274.958 1527.01,284.031 1527.01,295.207C1527.01,306.382 1517.93,315.455 1506.76,315.455C1495.58,315.455 1486.51,306.382 1486.51,295.207C1486.51,284.031 1495.58,274.958 1506.76,274.958Z" style="fill:url(#_Linear38);"/>
                        </g>
                        <g transform="matrix(0.819714,0,0,0.819714,-896.803,351.026)">
                            <path d="M1506.76,260.704C1487.72,260.704 1472.26,276.164 1472.26,295.207C1472.26,314.249 1487.72,329.709 1506.76,329.709C1525.8,329.709 1541.26,314.249 1541.26,295.207C1541.26,276.164 1525.8,260.704 1506.76,260.704ZM1506.76,274.958C1517.93,274.958 1527.01,284.031 1527.01,295.207C1527.01,306.382 1517.93,315.455 1506.76,315.455C1495.58,315.455 1486.51,306.382 1486.51,295.207C1486.51,284.031 1495.58,274.958 1506.76,274.958Z" style="fill:url(#_Linear39);"/>
                        </g>
                        <g transform="matrix(0.819714,0,0,0.819714,-779.553,306.146)">
                            <path d="M1506.76,260.704C1487.72,260.704 1472.26,276.164 1472.26,295.207C1472.26,314.249 1487.72,329.709 1506.76,329.709C1525.8,329.709 1541.26,314.249 1541.26,295.207C1541.26,276.164 1525.8,260.704 1506.76,260.704ZM1506.76,274.958C1517.93,274.958 1527.01,284.031 1527.01,295.207C1527.01,306.382 1517.93,315.455 1506.76,315.455C1495.58,315.455 1486.51,306.382 1486.51,295.207C1486.51,284.031 1495.58,274.958 1506.76,274.958Z" style="fill:url(#_Linear40);"/>
                        </g>
                        <g transform="matrix(0.819714,0,0,0.819714,-881.691,176.617)">
                            <path d="M1506.76,260.704C1487.72,260.704 1472.26,276.164 1472.26,295.207C1472.26,314.249 1487.72,329.709 1506.76,329.709C1525.8,329.709 1541.26,314.249 1541.26,295.207C1541.26,276.164 1525.8,260.704 1506.76,260.704ZM1506.76,274.958C1517.93,274.958 1527.01,284.031 1527.01,295.207C1527.01,306.382 1517.93,315.455 1506.76,315.455C1495.58,315.455 1486.51,306.382 1486.51,295.207C1486.51,284.031 1495.58,274.958 1506.76,274.958Z" style="fill:url(#_Linear41);"/>
                        </g>
                        <g transform="matrix(0.819714,0,0,0.819714,-870.285,70.8484)">
                            <path d="M1506.76,260.704C1487.72,260.704 1472.26,276.164 1472.26,295.207C1472.26,314.249 1487.72,329.709 1506.76,329.709C1525.8,329.709 1541.26,314.249 1541.26,295.207C1541.26,276.164 1525.8,260.704 1506.76,260.704ZM1506.76,274.958C1517.93,274.958 1527.01,284.031 1527.01,295.207C1527.01,306.382 1517.93,315.455 1506.76,315.455C1495.58,315.455 1486.51,306.382 1486.51,295.207C1486.51,284.031 1495.58,274.958 1506.76,274.958Z" style="fill:url(#_Linear42);"/>
                        </g>
                        <g transform="matrix(0.584201,0,0,0.584201,-537.333,188.724)">
                            <path d="M1406.16,111.014C1354.3,131.692 1310.92,184.891 1305.47,247.083C1304.99,252.581 1309.06,257.436 1314.56,257.918C1320.06,258.4 1324.91,254.327 1325.4,248.829C1330.17,194.343 1368.13,147.707 1413.57,129.591C1418.69,127.547 1421.19,121.725 1419.15,116.599C1417.11,111.472 1411.28,108.97 1406.16,111.014Z" style="fill:url(#_Linear43);"/>
                        </g>
                        <g transform="matrix(0.584201,0,0,0.584201,-539.994,189.193)">
                            <path d="M1357.99,407.451C1394.66,426.746 1434.81,457.726 1440.51,497.091C1441.3,502.553 1446.38,506.346 1451.84,505.556C1457.3,504.765 1461.09,499.689 1460.3,494.226C1453.76,449.036 1409.4,411.902 1367.3,389.752C1362.42,387.182 1356.37,389.061 1353.8,393.945C1351.23,398.83 1353.11,404.881 1357.99,407.451Z" style="fill:url(#_Linear44);"/>
                        </g>
                        <g transform="matrix(0.584201,0,0,0.584201,-541.955,187.645)">
                            <path d="M1409.37,663.921C1389.76,719.423 1398.01,808.136 1462.22,855.31C1466.67,858.578 1472.93,857.62 1476.2,853.172C1479.47,848.724 1478.51,842.46 1474.06,839.192C1417.56,797.678 1410.97,719.425 1428.22,670.583C1430.06,665.379 1427.33,659.661 1422.13,657.823C1416.92,655.984 1411.2,658.717 1409.37,663.921Z" style="fill:url(#_Linear45);"/>
                        </g>
                        <g transform="matrix(0.584201,0,0,0.584201,-533.609,190.224)">
                            <path d="M1688.04,863.34C1740.55,818.265 1775.58,753.737 1789.81,687.468C1790.97,682.071 1787.52,676.75 1782.13,675.592C1776.73,674.433 1771.41,677.874 1770.25,683.27C1756.92,745.374 1724.22,805.923 1675.02,848.164C1670.83,851.759 1670.35,858.078 1673.94,862.266C1677.54,866.453 1683.86,866.935 1688.04,863.34Z" style="fill:url(#_Linear46);"/>
                        </g>
                        <g transform="matrix(0.584201,0,0,0.584201,-534.139,189.015)">
                            <path d="M1814.07,510.928C1814.34,456.543 1799.13,396.991 1769.91,332.912C1767.62,327.89 1761.69,325.672 1756.66,327.962C1751.64,330.252 1749.43,336.188 1751.72,341.21C1779.57,402.29 1794.33,458.989 1794.07,510.828C1794.05,516.347 1798.51,520.85 1804.02,520.878C1809.54,520.905 1814.05,516.447 1814.07,510.928Z" style="fill:url(#_Linear47);"/>
                        </g>
                        <g transform="matrix(0.584201,0,0,0.584201,-537.333,188.724)">
                            <path d="M1695.51,209.931C1626.42,128.833 1579.16,99.628 1529.87,94.871C1524.38,94.34 1519.48,98.37 1518.95,103.864C1518.42,109.357 1522.45,114.248 1527.95,114.778C1573.6,119.185 1616.29,147.784 1680.29,222.902C1683.87,227.103 1690.19,227.608 1694.39,224.028C1698.59,220.449 1699.09,214.132 1695.51,209.931Z" style="fill:url(#_Linear48);"/>
                        </g>
                    </g>
                    <g transform="matrix(0.879545,0,0,0.879545,54.4903,-2255.51)">
                        <path d="M271.833,2962.54L568.036,2962.54C571.425,2962.54 574.176,2959.79 574.176,2956.4C574.176,2953.01 571.425,2950.26 568.036,2950.26L271.833,2950.26C268.445,2950.26 265.694,2953.01 265.694,2956.4C265.694,2959.79 268.445,2962.54 271.833,2962.54Z" style="fill:url(#_Linear49);"/>
                    </g>
                    <g transform="matrix(0.935902,0,0,0.935902,39.1707,-2436.04)">
                        <path d="M271.833,3007.63L535.13,3007.63C538.315,3007.63 540.9,3005.05 540.9,3001.86C540.9,2998.68 538.315,2996.09 535.13,2996.09L271.833,2996.09C268.649,2996.09 266.063,2998.68 266.063,3001.86C266.063,3005.05 268.649,3007.63 271.833,3007.63Z" style="fill:url(#_Linear50);"/>
                    </g>
                </g>
            </g>
        </g>
    </g>
    <defs>
        <linearGradient id="_Linear1" x1="0" y1="0" x2="1" y2="0" gradientUnits="userSpaceOnUse" gradientTransform="matrix(99.3282,-130.277,130.277,99.3282,25855.7,2160.47)"><stop offset="0" style="stop-color:rgb(141,31,36);stop-opacity:0.1"/><stop offset="1" style="stop-color:rgb(141,31,36);stop-opacity:0.1"/></linearGradient>
        <linearGradient id="_Linear2" x1="0" y1="0" x2="1" y2="0" gradientUnits="userSpaceOnUse" gradientTransform="matrix(1060.06,1207.5,-1207.5,1060.06,-422.33,1478.21)"><stop offset="0" style="stop-color:rgb(255,37,47);stop-opacity:1"/><stop offset="1" style="stop-color:rgb(141,31,36);stop-opacity:1"/></linearGradient>
        <linearGradient id="_Linear3" x1="0" y1="0" x2="1" y2="0" gradientUnits="userSpaceOnUse" gradientTransform="matrix(1246.7,1420.11,-1420.11,1246.7,-584.724,1415.7)"><stop offset="0" style="stop-color:rgb(255,37,47);stop-opacity:1"/><stop offset="1" style="stop-color:rgb(141,31,36);stop-opacity:1"/></linearGradient>
        <linearGradient id="_Linear4" x1="0" y1="0" x2="1" y2="0" gradientUnits="userSpaceOnUse" gradientTransform="matrix(1246.7,1420.11,-1420.11,1246.7,-584.934,1328.58)"><stop offset="0" style="stop-color:rgb(255,37,47);stop-opacity:1"/><stop offset="1" style="stop-color:rgb(141,31,36);stop-opacity:1"/></linearGradient>
        <linearGradient id="_Linear5" x1="0" y1="0" x2="1" y2="0" gradientUnits="userSpaceOnUse" gradientTransform="matrix(-965.35,1624.52,-1624.52,-965.35,561.085,584.566)"><stop offset="0" style="stop-color:rgb(255,37,47);stop-opacity:1"/><stop offset="1" style="stop-color:rgb(141,31,36);stop-opacity:1"/></linearGradient>
        <linearGradient id="_Linear6" x1="0" y1="0" x2="1" y2="0" gradientUnits="userSpaceOnUse" gradientTransform="matrix(-1843.32,-416.097,416.097,-1843.32,1622.68,1444.47)"><stop offset="0" style="stop-color:rgb(255,37,47);stop-opacity:1"/><stop offset="1" style="stop-color:rgb(141,31,36);stop-opacity:1"/></linearGradient>
        <linearGradient id="_Linear7" x1="0" y1="0" x2="1" y2="0" gradientUnits="userSpaceOnUse" gradientTransform="matrix(-173.885,-1881.68,1881.68,-173.885,1132.03,2720.98)"><stop offset="0" style="stop-color:rgb(255,37,47);stop-opacity:1"/><stop offset="1" style="stop-color:rgb(141,31,36);stop-opacity:1"/></linearGradient>
        <linearGradient id="_Linear8" x1="0" y1="0" x2="1" y2="0" gradientUnits="userSpaceOnUse" gradientTransform="matrix(1735.85,-746.847,746.847,1735.85,-230.851,2648.27)"><stop offset="0" style="stop-color:rgb(255,37,47);stop-opacity:1"/><stop offset="1" style="stop-color:rgb(141,31,36);stop-opacity:1"/></linearGradient>
        <linearGradient id="_Linear9" x1="0" y1="0" x2="1" y2="0" gradientUnits="userSpaceOnUse" gradientTransform="matrix(-965.35,1624.52,-1624.52,-965.35,561.901,672.574)"><stop offset="0" style="stop-color:rgb(255,37,47);stop-opacity:1"/><stop offset="1" style="stop-color:rgb(141,31,36);stop-opacity:1"/></linearGradient>
        <linearGradient id="_Linear10" x1="0" y1="0" x2="1" y2="0" gradientUnits="userSpaceOnUse" gradientTransform="matrix(-1843.32,-416.097,416.097,-1843.32,1622.98,1533.44)"><stop offset="0" style="stop-color:rgb(255,37,47);stop-opacity:1"/><stop offset="1" style="stop-color:rgb(141,31,36);stop-opacity:1"/></linearGradient>
        <linearGradient id="_Linear11" x1="0" y1="0" x2="1" y2="0" gradientUnits="userSpaceOnUse" gradientTransform="matrix(-173.885,-1881.68,1881.68,-173.885,1132.14,2808.61)"><stop offset="0" style="stop-color:rgb(255,37,47);stop-opacity:1"/><stop offset="1" style="stop-color:rgb(141,31,36);stop-opacity:1"/></linearGradient>
        <linearGradient id="_Linear12" x1="0" y1="0" x2="1" y2="0" gradientUnits="userSpaceOnUse" gradientTransform="matrix(1735.85,-746.847,746.847,1735.85,-232.297,2735.84)"><stop offset="0" style="stop-color:rgb(255,37,47);stop-opacity:1"/><stop offset="1" style="stop-color:rgb(141,31,36);stop-opacity:1"/></linearGradient>
        <linearGradient id="_Linear13" x1="0" y1="0" x2="1" y2="0" gradientUnits="userSpaceOnUse" gradientTransform="matrix(463.077,527.487,-527.487,463.077,236.244,2878.36)"><stop offset="0" style="stop-color:rgb(255,37,47);stop-opacity:1"/><stop offset="1" style="stop-color:rgb(141,31,36);stop-opacity:1"/></linearGradient>
        <linearGradient id="_Linear14" x1="0" y1="0" x2="1" y2="0" gradientUnits="userSpaceOnUse" gradientTransform="matrix(-286.241,-525.461,525.461,-286.241,490.749,711.875)"><stop offset="0" style="stop-color:rgb(255,32,42);stop-opacity:1"/><stop offset="1" style="stop-color:rgb(141,31,36);stop-opacity:1"/></linearGradient>
        <linearGradient id="_Linear15" x1="0" y1="0" x2="1" y2="0" gradientUnits="userSpaceOnUse" gradientTransform="matrix(-286.241,-525.461,525.461,-286.241,488.011,720.303)"><stop offset="0" style="stop-color:rgb(255,32,42);stop-opacity:1"/><stop offset="1" style="stop-color:rgb(141,31,36);stop-opacity:1"/></linearGradient>
        <linearGradient id="_Linear16" x1="0" y1="0" x2="1" y2="0" gradientUnits="userSpaceOnUse" gradientTransform="matrix(-378.751,-695.284,695.284,-378.751,425.18,731.556)"><stop offset="0" style="stop-color:rgb(255,32,42);stop-opacity:1"/><stop offset="1" style="stop-color:rgb(141,31,36);stop-opacity:1"/></linearGradient>
        <linearGradient id="_Linear17" x1="0" y1="0" x2="1" y2="0" gradientUnits="userSpaceOnUse" gradientTransform="matrix(-286.241,-525.461,525.461,-286.241,430.045,479.62)"><stop offset="0" style="stop-color:rgb(255,32,42);stop-opacity:1"/><stop offset="1" style="stop-color:rgb(141,31,36);stop-opacity:1"/></linearGradient>
        <linearGradient id="_Linear18" x1="0" y1="0" x2="1" y2="0" gradientUnits="userSpaceOnUse" gradientTransform="matrix(-485.158,-890.617,890.617,-485.158,497.245,731.987)"><stop offset="0" style="stop-color:rgb(255,32,42);stop-opacity:1"/><stop offset="1" style="stop-color:rgb(141,31,36);stop-opacity:1"/></linearGradient>
        <linearGradient id="_Linear19" x1="0" y1="0" x2="1" y2="0" gradientUnits="userSpaceOnUse" gradientTransform="matrix(-653.061,-1198.84,1198.84,-653.061,637.449,1053.97)"><stop offset="0" style="stop-color:rgb(255,32,42);stop-opacity:1"/><stop offset="1" style="stop-color:rgb(141,31,36);stop-opacity:1"/></linearGradient>
        <linearGradient id="_Linear20" x1="0" y1="0" x2="1" y2="0" gradientUnits="userSpaceOnUse" gradientTransform="matrix(-286.241,-525.461,525.461,-286.241,490.749,711.875)"><stop offset="0" style="stop-color:rgb(255,32,42);stop-opacity:1"/><stop offset="1" style="stop-color:rgb(141,31,36);stop-opacity:1"/></linearGradient>
        <linearGradient id="_Linear21" x1="0" y1="0" x2="1" y2="0" gradientUnits="userSpaceOnUse" gradientTransform="matrix(-286.241,-525.461,525.461,-286.241,490.749,711.875)"><stop offset="0" style="stop-color:rgb(255,32,42);stop-opacity:1"/><stop offset="1" style="stop-color:rgb(141,31,36);stop-opacity:1"/></linearGradient>
        <linearGradient id="_Linear22" x1="0" y1="0" x2="1" y2="0" gradientUnits="userSpaceOnUse" gradientTransform="matrix(-286.241,-525.461,525.461,-286.241,490.749,711.875)"><stop offset="0" style="stop-color:rgb(255,32,42);stop-opacity:1"/><stop offset="1" style="stop-color:rgb(141,31,36);stop-opacity:1"/></linearGradient>
        <linearGradient id="_Linear23" x1="0" y1="0" x2="1" y2="0" gradientUnits="userSpaceOnUse" gradientTransform="matrix(-286.241,-525.461,525.461,-286.241,490.749,711.875)"><stop offset="0" style="stop-color:rgb(255,32,42);stop-opacity:1"/><stop offset="1" style="stop-color:rgb(141,31,36);stop-opacity:1"/></linearGradient>
        <linearGradient id="_Linear24" x1="0" y1="0" x2="1" y2="0" gradientUnits="userSpaceOnUse" gradientTransform="matrix(-286.241,-525.461,525.461,-286.241,490.749,711.875)"><stop offset="0" style="stop-color:rgb(255,32,42);stop-opacity:1"/><stop offset="1" style="stop-color:rgb(141,31,36);stop-opacity:1"/></linearGradient>
        <linearGradient id="_Linear25" x1="0" y1="0" x2="1" y2="0" gradientUnits="userSpaceOnUse" gradientTransform="matrix(-286.241,-525.461,525.461,-286.241,490.749,711.875)"><stop offset="0" style="stop-color:rgb(255,32,42);stop-opacity:1"/><stop offset="1" style="stop-color:rgb(141,31,36);stop-opacity:1"/></linearGradient>
        <linearGradient id="_Linear26" x1="0" y1="0" x2="1" y2="0" gradientUnits="userSpaceOnUse" gradientTransform="matrix(-286.241,-525.461,525.461,-286.241,490.749,711.875)"><stop offset="0" style="stop-color:rgb(255,32,42);stop-opacity:1"/><stop offset="1" style="stop-color:rgb(141,31,36);stop-opacity:1"/></linearGradient>
        <linearGradient id="_Linear27" x1="0" y1="0" x2="1" y2="0" gradientUnits="userSpaceOnUse" gradientTransform="matrix(-286.241,-525.461,525.461,-286.241,490.749,711.875)"><stop offset="0" style="stop-color:rgb(255,32,42);stop-opacity:1"/><stop offset="1" style="stop-color:rgb(141,31,36);stop-opacity:1"/></linearGradient>
        <linearGradient id="_Linear28" x1="0" y1="0" x2="1" y2="0" gradientUnits="userSpaceOnUse" gradientTransform="matrix(-286.241,-525.461,525.461,-286.241,490.749,711.875)"><stop offset="0" style="stop-color:rgb(255,32,42);stop-opacity:1"/><stop offset="1" style="stop-color:rgb(141,31,36);stop-opacity:1"/></linearGradient>
        <linearGradient id="_Linear29" x1="0" y1="0" x2="1" y2="0" gradientUnits="userSpaceOnUse" gradientTransform="matrix(-286.241,-525.461,525.461,-286.241,490.749,711.875)"><stop offset="0" style="stop-color:rgb(255,32,42);stop-opacity:1"/><stop offset="1" style="stop-color:rgb(141,31,36);stop-opacity:1"/></linearGradient>
        <linearGradient id="_Linear30" x1="0" y1="0" x2="1" y2="0" gradientUnits="userSpaceOnUse" gradientTransform="matrix(-286.241,-525.461,525.461,-286.241,490.749,711.875)"><stop offset="0" style="stop-color:rgb(255,32,42);stop-opacity:1"/><stop offset="1" style="stop-color:rgb(141,31,36);stop-opacity:1"/></linearGradient>
        <linearGradient id="_Linear31" x1="0" y1="0" x2="1" y2="0" gradientUnits="userSpaceOnUse" gradientTransform="matrix(-286.241,-525.461,525.461,-286.241,490.749,711.875)"><stop offset="0" style="stop-color:rgb(255,32,42);stop-opacity:1"/><stop offset="1" style="stop-color:rgb(141,31,36);stop-opacity:1"/></linearGradient>
        <linearGradient id="_Linear32" x1="0" y1="0" x2="1" y2="0" gradientUnits="userSpaceOnUse" gradientTransform="matrix(-286.241,-525.461,525.461,-286.241,490.749,711.875)"><stop offset="0" style="stop-color:rgb(255,32,42);stop-opacity:1"/><stop offset="1" style="stop-color:rgb(141,31,36);stop-opacity:1"/></linearGradient>
        <linearGradient id="_Linear33" x1="0" y1="0" x2="1" y2="0" gradientUnits="userSpaceOnUse" gradientTransform="matrix(55.494,-463.05,463.05,55.494,331.086,666.298)"><stop offset="0" style="stop-color:rgb(255,0,12);stop-opacity:1"/><stop offset="1" style="stop-color:rgb(141,31,36);stop-opacity:1"/></linearGradient>
        <linearGradient id="_Linear34" x1="0" y1="0" x2="1" y2="0" gradientUnits="userSpaceOnUse" gradientTransform="matrix(102.591,-856.031,856.031,102.591,1572.05,908.584)"><stop offset="0" style="stop-color:rgb(255,0,12);stop-opacity:1"/><stop offset="1" style="stop-color:rgb(141,31,36);stop-opacity:1"/></linearGradient>
        <linearGradient id="_Linear35" x1="0" y1="0" x2="1" y2="0" gradientUnits="userSpaceOnUse" gradientTransform="matrix(102.591,-856.031,856.031,102.591,1409.67,881.209)"><stop offset="0" style="stop-color:rgb(255,0,12);stop-opacity:1"/><stop offset="1" style="stop-color:rgb(141,31,36);stop-opacity:1"/></linearGradient>
        <linearGradient id="_Linear36" x1="0" y1="0" x2="1" y2="0" gradientUnits="userSpaceOnUse" gradientTransform="matrix(102.591,-856.031,856.031,102.591,1448.08,599.686)"><stop offset="0" style="stop-color:rgb(255,0,12);stop-opacity:1"/><stop offset="1" style="stop-color:rgb(141,31,36);stop-opacity:1"/></linearGradient>
        <linearGradient id="_Linear37" x1="0" y1="0" x2="1" y2="0" gradientUnits="userSpaceOnUse" gradientTransform="matrix(102.591,-856.031,856.031,102.591,1420.7,446.111)"><stop offset="0" style="stop-color:rgb(255,0,12);stop-opacity:1"/><stop offset="1" style="stop-color:rgb(141,31,36);stop-opacity:1"/></linearGradient>
        <linearGradient id="_Linear38" x1="0" y1="0" x2="1" y2="0" gradientUnits="userSpaceOnUse" gradientTransform="matrix(73.1152,-610.084,610.084,73.1152,1418.05,607.658)"><stop offset="0" style="stop-color:rgb(255,0,12);stop-opacity:1"/><stop offset="1" style="stop-color:rgb(141,31,36);stop-opacity:1"/></linearGradient>
        <linearGradient id="_Linear39" x1="0" y1="0" x2="1" y2="0" gradientUnits="userSpaceOnUse" gradientTransform="matrix(73.1152,-610.084,610.084,73.1152,1530.26,449.64)"><stop offset="0" style="stop-color:rgb(255,0,12);stop-opacity:1"/><stop offset="1" style="stop-color:rgb(141,31,36);stop-opacity:1"/></linearGradient>
        <linearGradient id="_Linear40" x1="0" y1="0" x2="1" y2="0" gradientUnits="userSpaceOnUse" gradientTransform="matrix(73.1152,-610.084,610.084,73.1152,1387.22,504.391)"><stop offset="0" style="stop-color:rgb(255,0,12);stop-opacity:1"/><stop offset="1" style="stop-color:rgb(141,31,36);stop-opacity:1"/></linearGradient>
        <linearGradient id="_Linear41" x1="0" y1="0" x2="1" y2="0" gradientUnits="userSpaceOnUse" gradientTransform="matrix(73.1152,-610.084,610.084,73.1152,1511.83,662.409)"><stop offset="0" style="stop-color:rgb(255,0,12);stop-opacity:1"/><stop offset="1" style="stop-color:rgb(141,31,36);stop-opacity:1"/></linearGradient>
        <linearGradient id="_Linear42" x1="0" y1="0" x2="1" y2="0" gradientUnits="userSpaceOnUse" gradientTransform="matrix(73.1152,-610.084,610.084,73.1152,1497.91,791.439)"><stop offset="0" style="stop-color:rgb(255,0,12);stop-opacity:1"/><stop offset="1" style="stop-color:rgb(141,31,36);stop-opacity:1"/></linearGradient>
        <linearGradient id="_Linear43" x1="0" y1="0" x2="1" y2="0" gradientUnits="userSpaceOnUse" gradientTransform="matrix(102.591,-856.031,856.031,102.591,1531.84,908.726)"><stop offset="0" style="stop-color:rgb(255,0,12);stop-opacity:1"/><stop offset="1" style="stop-color:rgb(141,31,36);stop-opacity:1"/></linearGradient>
        <linearGradient id="_Linear44" x1="0" y1="0" x2="1" y2="0" gradientUnits="userSpaceOnUse" gradientTransform="matrix(102.591,-856.031,856.031,102.591,1536.4,907.923)"><stop offset="0" style="stop-color:rgb(255,0,12);stop-opacity:1"/><stop offset="1" style="stop-color:rgb(141,31,36);stop-opacity:1"/></linearGradient>
        <linearGradient id="_Linear45" x1="0" y1="0" x2="1" y2="0" gradientUnits="userSpaceOnUse" gradientTransform="matrix(102.591,-856.031,856.031,102.591,1539.76,910.572)"><stop offset="0" style="stop-color:rgb(255,0,12);stop-opacity:1"/><stop offset="1" style="stop-color:rgb(141,31,36);stop-opacity:1"/></linearGradient>
        <linearGradient id="_Linear46" x1="0" y1="0" x2="1" y2="0" gradientUnits="userSpaceOnUse" gradientTransform="matrix(102.591,-856.031,856.031,102.591,1525.47,906.158)"><stop offset="0" style="stop-color:rgb(255,0,12);stop-opacity:1"/><stop offset="1" style="stop-color:rgb(141,31,36);stop-opacity:1"/></linearGradient>
        <linearGradient id="_Linear47" x1="0" y1="0" x2="1" y2="0" gradientUnits="userSpaceOnUse" gradientTransform="matrix(102.591,-856.031,856.031,102.591,1526.38,908.228)"><stop offset="0" style="stop-color:rgb(255,0,12);stop-opacity:1"/><stop offset="1" style="stop-color:rgb(141,31,36);stop-opacity:1"/></linearGradient>
        <linearGradient id="_Linear48" x1="0" y1="0" x2="1" y2="0" gradientUnits="userSpaceOnUse" gradientTransform="matrix(102.591,-856.031,856.031,102.591,1531.84,908.726)"><stop offset="0" style="stop-color:rgb(255,0,12);stop-opacity:1"/><stop offset="1" style="stop-color:rgb(141,31,36);stop-opacity:1"/></linearGradient>
        <linearGradient id="_Linear49" x1="0" y1="0" x2="1" y2="0" gradientUnits="userSpaceOnUse" gradientTransform="matrix(568.616,647.705,-647.705,568.616,228.133,2860.57)"><stop offset="0" style="stop-color:rgb(255,37,47);stop-opacity:1"/><stop offset="1" style="stop-color:rgb(141,31,36);stop-opacity:1"/></linearGradient>
        <linearGradient id="_Linear50" x1="0" y1="0" x2="1" y2="0" gradientUnits="userSpaceOnUse" gradientTransform="matrix(534.376,608.703,-608.703,534.376,230.764,2881.21)"><stop offset="0" style="stop-color:rgb(255,37,47);stop-opacity:1"/><stop offset="1" style="stop-color:rgb(141,31,36);stop-opacity:1"/></linearGradient>
    </defs>
</svg>
