<?xml version="1.0" encoding="UTF-8" standalone="no"?>
<!DOCTYPE svg PUBLIC "-//W3C//DTD SVG 1.1//EN" "http://www.w3.org/Graphics/SVG/1.1/DTD/svg11.dtd">
<svg width="100%" height="100%" viewBox="0 0 146 169" version="1.1" xmlns="http://www.w3.org/2000/svg" xmlns:xlink="http://www.w3.org/1999/xlink" xml:space="preserve" xmlns:serif="http://www.serif.com/" style="fill-rule:evenodd;clip-rule:evenodd;stroke-linejoin:round;stroke-miterlimit:2;">
    <g transform="matrix(1,0,0,1,-26559,-1149)">
        <g transform="matrix(3.03411,0,0,5.19663,18709.1,942.188)">
            <g id="phase4-3" transform="matrix(0.907441,0,0,0.907441,239.481,3.69614)">
                <g transform="matrix(0.329586,0,0,0.192432,-6166.27,-181.307)">
                    <path d="M26625.7,1153.66C26564.6,1158.44 26544.2,1228.37 26583.8,1281.94L26598.2,1281.94L26601.6,1306.35L26648,1306.35L26651.5,1281.94L26669.9,1276.94C26709.8,1213.92 26666,1150.5 26625.7,1153.66Z" style="fill:url(#_Linear1);"/>
                </g>
                <g id="skell" transform="matrix(0.0724129,0,0,0.0422791,2569.72,35.7962)">
                    <g transform="matrix(1.675,0,0,1.675,-186.745,-34516.8)">
                        <circle cx="373.899" cy="20872.3" r="33.247" style="fill:url(#_Linear2);"/>
                    </g>
                    <g transform="matrix(1.675,0,0,1.675,14.1831,-34516.8)">
                        <circle cx="373.899" cy="20872.3" r="33.247" style="fill:url(#_Linear3);"/>
                    </g>
                    <g transform="matrix(1.08,0,0,1.08,-0.181471,-22117.6)">
                        <path d="M373.702,21136.8L330.091,21136.8C326.064,21136.8 322.206,21135.2 319.386,21132.3C261.83,21073.6 225.215,20987.1 225.215,20890.6C225.215,20713 349.136,20569.9 500.168,20569.9C651.2,20569.9 775.121,20713 775.121,20890.6C775.121,20987.1 738.506,21073.6 680.95,21132.3C678.13,21135.2 674.272,21136.8 670.245,21136.8L626.634,21136.8L626.634,21193.8C626.634,21224 602.116,21248.5 571.917,21248.5C571.917,21248.5 428.419,21248.5 428.419,21248.5C398.22,21248.5 373.702,21224 373.702,21193.8L373.702,21136.8ZM575.234,21218.3C587.311,21216.7 596.634,21206.3 596.634,21193.8L596.634,21121.8C596.634,21113.5 603.35,21106.8 611.634,21106.8L663.842,21106.8C713.858,21053.4 745.121,20976.2 745.121,20890.6C745.121,20730.8 636.083,20599.9 500.168,20599.9C364.253,20599.9 255.215,20730.8 255.215,20890.6C255.215,20976.2 286.478,21053.4 336.494,21106.8L388.702,21106.8C396.986,21106.8 403.702,21113.5 403.702,21121.8C403.702,21121.8 403.702,21193.8 403.702,21193.8C403.702,21206.3 413.025,21216.7 425.102,21218.3C424.888,21217.3 424.775,21216.3 424.775,21215.2L424.775,21161.8C424.775,21153.6 431.497,21146.8 439.775,21146.8C448.054,21146.8 454.775,21153.6 454.775,21161.8L454.775,21215.2C454.775,21216.3 454.646,21217.5 454.4,21218.5L485.543,21218.5C485.298,21217.5 485.168,21216.3 485.168,21215.2L485.168,21161.8C485.168,21153.6 491.889,21146.8 500.168,21146.8C508.447,21146.8 515.168,21153.6 515.168,21161.8L515.168,21215.2C515.168,21216.3 515.038,21217.5 514.793,21218.5L545.936,21218.5C545.691,21217.5 545.561,21216.3 545.561,21215.2L545.561,21161.8C545.561,21153.6 552.282,21146.8 560.561,21146.8C568.84,21146.8 575.561,21153.6 575.561,21161.8L575.561,21215.2C575.561,21216.3 575.448,21217.3 575.234,21218.3Z" style="fill:url(#_Linear4);"/>
                    </g>
                    <g transform="matrix(1.23696,0,0,1.41382,-85.2437,-29149.8)">
                        <path d="M480.232,21029.1C484.658,21020.3 494.551,21014.7 505.47,21014.7C516.389,21014.7 526.281,21020.3 530.707,21029.1C530.707,21029.1 530.708,21029.1 530.709,21029.1C533.112,21033.8 532.611,21039.3 529.378,21043.7C526.145,21048 520.617,21050.6 514.688,21050.6C508.664,21050.6 502.275,21050.6 496.251,21050.6C490.322,21050.6 484.795,21048 481.561,21043.7C478.328,21039.3 477.827,21033.8 480.23,21029.1C480.231,21029.1 480.232,21029.1 480.232,21029.1Z" style="fill:url(#_Linear5);"/>
                    </g>
                </g>
                <g transform="matrix(0.493624,0,0,0.288208,-10534.7,-304.086)">
                    <circle cx="26630.7" cy="1281.94" r="11.482" style="fill:white;"/>
                </g>
                <g transform="matrix(0.493624,0,0,0.288208,-10512.5,-308.614)">
                    <circle cx="26630.7" cy="1281.94" r="11.482" style="fill:white;"/>
                </g>
                <g transform="matrix(0.476575,0,0,0.278253,-10066.4,-290.5)">
                    <circle cx="26630.7" cy="1281.94" r="11.482" style="fill:white;"/>
                </g>
                <g transform="matrix(0.329586,0,0,0.192432,-6166.27,-181.307)">
                    <path d="M26630.2,1286.92L26670,1291.2C26672.7,1291.5 26675.2,1289.51 26675.5,1286.77C26675.8,1284.02 26673.8,1281.56 26671,1281.26L26631.2,1276.97C26628.5,1276.68 26626,1278.66 26625.7,1281.41C26625.4,1284.15 26627.4,1286.62 26630.2,1286.92Z" style="fill:white;"/>
                </g>
                <g id="molecule" transform="matrix(0.0372868,0,0,0.0211619,2604.74,-402.525)">
                    <path d="M666.788,21975.2C648.948,21954 638.197,21926.7 638.197,21896.8C638.197,21829.5 692.854,21774.8 760.175,21774.8C827.496,21774.8 882.153,21829.5 882.153,21896.8C882.153,21964.1 827.496,22018.8 760.175,22018.8C733.522,22018.8 708.855,22010.2 688.782,21995.7L631.805,22062.9C654.264,22085 668.197,22115.7 668.197,22149.7C668.197,22177.6 658.865,22203.2 643.163,22223.7L747.065,22327.8C767.613,22312.1 793.308,22302.7 821.172,22302.7C888.494,22302.7 943.15,22357.4 943.15,22424.7C943.15,22492 888.494,22546.7 821.172,22546.7C753.851,22546.7 699.194,22492 699.194,22424.7C699.194,22396 709.094,22369.7 725.662,22348.8L622.162,22245.2C601.316,22261.8 574.918,22271.7 546.219,22271.7C539.433,22271.7 532.776,22271.2 526.284,22270.1L499.404,22359.1C536.309,22380.1 561.219,22419.8 561.219,22465.2C561.219,22532.5 506.563,22587.2 439.241,22587.2C371.92,22587.2 317.263,22532.5 317.263,22465.2C317.263,22397.9 371.92,22343.2 439.241,22343.2C450.423,22343.2 461.256,22344.7 471.55,22347.6L497.514,22261.6C456.229,22243.6 426.816,22203.3 424.402,22156L282.008,22139.5C269.06,22193 220.859,22232.7 163.447,22232.7C96.126,22232.7 41.469,22178.1 41.469,22110.8C41.469,22043.4 96.126,21988.8 163.447,21988.8C230.419,21988.8 284.856,22042.9 285.421,22109.7L426.536,22126.1C437.563,22070.1 486.99,22027.8 546.219,22027.8C568.752,22027.8 589.865,22033.9 607.991,22044.6L666.788,21975.2ZM439.241,22373.2C490.005,22373.2 531.219,22414.4 531.219,22465.2C531.219,22516 490.005,22557.2 439.241,22557.2C388.477,22557.2 347.263,22516 347.263,22465.2C347.263,22414.4 388.477,22373.2 439.241,22373.2ZM756.619,22359.2C739.692,22375.9 729.194,22399.1 729.194,22424.7C729.194,22475.5 770.408,22516.7 821.172,22516.7C871.936,22516.7 913.15,22475.5 913.15,22424.7C913.15,22373.9 871.936,22332.7 821.172,22332.7C796.217,22332.7 773.569,22342.7 756.987,22358.8L756.906,22358.9C756.811,22359 756.716,22359.1 756.619,22359.2ZM601.556,22076.3C586.156,22064.7 566.987,22057.8 546.219,22057.8C502.384,22057.8 465.67,22088.5 456.464,22129.6L501.897,22134.8C510.121,22135.8 516.022,22143.2 515.068,22151.5C514.114,22159.7 506.663,22165.6 498.439,22164.6L454.761,22159.6C459.673,22205.7 498.775,22241.7 546.219,22241.7C566.646,22241.7 585.528,22235 600.794,22223.8L575.598,22198.5C569.75,22192.7 569.758,22183.2 575.617,22177.3C581.476,22171.5 590.982,22171.5 596.83,22177.3L621.718,22202.3C632.104,22187.4 638.197,22169.3 638.197,22149.7C638.197,22119.9 623.948,22093.3 601.889,22076.5L601.833,22076.5C601.782,22076.5 601.731,22076.4 601.68,22076.4L601.556,22076.3ZM163.447,22018.8C214.211,22018.8 255.425,22060 255.425,22110.8C255.425,22161.5 214.211,22202.7 163.447,22202.7C112.683,22202.7 71.469,22161.5 71.469,22110.8C71.469,22060 112.683,22018.8 163.447,22018.8ZM697.372,21964C713.817,21979.4 735.905,21988.8 760.175,21988.8C810.939,21988.8 852.153,21947.6 852.153,21896.8C852.153,21846 810.939,21804.8 760.175,21804.8C709.411,21804.8 668.197,21846 668.197,21896.8C668.197,21923.1 679.264,21946.8 696.996,21963.6C697.124,21963.7 697.249,21963.9 697.372,21964Z" style="fill:url(#_Linear6);"/>
                </g>
            </g>
        </g>
    </g>
    <defs>
        <linearGradient id="_Linear1" x1="0" y1="0" x2="1" y2="0" gradientUnits="userSpaceOnUse" gradientTransform="matrix(139.763,-151.203,151.203,139.763,26563.4,1310.74)"><stop offset="0" style="stop-color:rgb(141,31,36);stop-opacity:0.1"/><stop offset="1" style="stop-color:rgb(141,31,36);stop-opacity:0.1"/></linearGradient>
        <linearGradient id="_Linear2" x1="0" y1="0" x2="1" y2="0" gradientUnits="userSpaceOnUse" gradientTransform="matrix(424.35,492.743,-492.743,424.35,256.594,20665.5)"><stop offset="0" style="stop-color:rgb(141,31,36);stop-opacity:1"/><stop offset="1" style="stop-color:rgb(255,46,55);stop-opacity:1"/></linearGradient>
        <linearGradient id="_Linear3" x1="0" y1="0" x2="1" y2="0" gradientUnits="userSpaceOnUse" gradientTransform="matrix(424.35,492.743,-492.743,424.35,136.637,20665.5)"><stop offset="0" style="stop-color:rgb(141,31,36);stop-opacity:1"/><stop offset="1" style="stop-color:rgb(255,46,55);stop-opacity:1"/></linearGradient>
        <linearGradient id="_Linear4" x1="0" y1="0" x2="1" y2="0" gradientUnits="userSpaceOnUse" gradientTransform="matrix(658.135,764.208,-764.208,658.135,225.215,20569.9)"><stop offset="0" style="stop-color:rgb(141,31,36);stop-opacity:1"/><stop offset="1" style="stop-color:rgb(255,46,55);stop-opacity:1"/></linearGradient>
        <linearGradient id="_Linear5" x1="0" y1="0" x2="1" y2="0" gradientUnits="userSpaceOnUse" gradientTransform="matrix(574.625,583.769,-667.238,502.741,265.405,20687)"><stop offset="0" style="stop-color:rgb(141,31,36);stop-opacity:1"/><stop offset="1" style="stop-color:rgb(255,46,55);stop-opacity:1"/></linearGradient>
        <linearGradient id="_Linear6" x1="0" y1="0" x2="1" y2="0" gradientUnits="userSpaceOnUse" gradientTransform="matrix(1380.38,1648.95,-1602.86,1420.07,-467.232,20908.2)"><stop offset="0" style="stop-color:rgb(141,31,36);stop-opacity:1"/><stop offset="1" style="stop-color:rgb(255,46,55);stop-opacity:1"/></linearGradient>
    </defs>
</svg>
