<?xml version="1.0" encoding="UTF-8" standalone="no"?>
<!DOCTYPE svg PUBLIC "-//W3C//DTD SVG 1.1//EN" "http://www.w3.org/Graphics/SVG/1.1/DTD/svg11.dtd">
<svg width="100%" height="100%" viewBox="0 0 72 161" version="1.1" xmlns="http://www.w3.org/2000/svg" xmlns:xlink="http://www.w3.org/1999/xlink" xml:space="preserve" xmlns:serif="http://www.serif.com/" style="fill-rule:evenodd;clip-rule:evenodd;stroke-linejoin:round;stroke-miterlimit:2;">
    <g transform="matrix(1,0,0,1,-26507,-1748)">
        <g transform="matrix(3.03411,0,0,5.19663,18709.1,942.188)">
            <g id="phase4-13">
                <g id="adn" transform="matrix(0.0789593,0,0,0.0461012,2542.43,-740.233)">
                    <path d="M575.023,19939.1C541.787,19905.5 495.563,19893.4 455.235,19878.8C397.417,19857.8 350.656,19832.3 350.656,19756.9C350.656,19689.2 390.011,19656.1 439.78,19631.8C447.216,19628.1 456.208,19631.2 459.848,19638.7C462.998,19645.1 461.113,19652.7 455.727,19657L500.168,19657C508.447,19657 515.168,19663.7 515.168,19672C515.168,19680.3 508.447,19687 500.168,19687L411.827,19687C411.11,19687 410.404,19686.9 409.715,19686.8C398.7,19697.2 390.074,19709.6 385.171,19725.2L581.876,19725.2C590.155,19725.2 596.876,19732 596.876,19740.2C596.876,19748.5 590.155,19755.2 581.876,19755.2L380.666,19755.2C380.659,19755.8 380.656,19756.3 380.656,19756.9C380.656,19771.4 382.991,19783.4 387.185,19793.5L538.766,19793.5C547.045,19793.5 553.766,19800.2 553.766,19808.5C553.766,19816.8 547.045,19823.5 538.766,19823.5L410.427,19823.5C416.481,19828.2 423.251,19832.3 430.536,19836C452.669,19847.2 479.045,19855 505.394,19864.8C541.322,19878.1 577.042,19895.1 603.988,19926.3C631.029,19957.5 649.68,20003.1 649.68,20074.7C649.68,20083 642.959,20089.7 634.68,20089.7C626.402,20089.7 619.68,20083 619.68,20074.7C619.68,20061.2 618.974,20048.8 617.627,20037.3L421.539,20037.3C413.26,20037.3 406.539,20030.6 406.539,20022.3C406.539,20014.1 413.26,20007.3 421.539,20007.3L612.164,20007.3C608.447,19992.8 603.448,19980.2 597.389,19969.1L476.42,19969.1C468.141,19969.1 461.42,19962.4 461.42,19954.1C461.42,19945.8 468.141,19939.1 476.42,19939.1L575.023,19939.1ZM441.039,19889.8C390.762,19919.3 350.656,19967.8 350.656,20074.7C350.656,20083 357.377,20089.7 365.656,20089.7C373.934,20089.7 380.656,20083 380.656,20074.7C380.656,19983.2 413.219,19940.9 456.233,19915.6C463.372,19911.4 465.763,19902.2 461.57,19895.1C457.377,19888 448.177,19885.6 441.039,19889.8ZM350.656,19439C350.656,19563.9 422.063,19604.4 494.182,19635.8C520.444,19647.2 546.74,19657.4 568.8,19670.7C598.349,19688.6 619.68,19712.8 619.68,19756.9C619.68,19810.9 587.068,19830.4 547.025,19846C539.312,19849 535.492,19857.7 538.5,19865.4C541.507,19873.1 550.211,19877 557.924,19873.9C609.724,19853.7 649.68,19826.7 649.68,19756.9C649.68,19682.2 603.318,19651.1 546.112,19625.5C473.344,19593 380.656,19570.3 380.656,19439C380.656,19430.8 373.934,19424 365.656,19424C357.377,19424 350.656,19430.8 350.656,19439ZM616.588,19477.9C618.602,19466.1 619.68,19453.2 619.68,19439C619.68,19430.8 626.402,19424 634.68,19424C642.959,19424 649.68,19430.8 649.68,19439C649.68,19532.5 609.374,19578.7 559.035,19609.3C551.963,19613.6 542.727,19611.4 538.422,19604.3C534.118,19597.2 536.364,19588 543.435,19583.7C551.129,19579 558.526,19573.9 565.486,19568.1L476.42,19568.1C468.141,19568.1 461.42,19561.4 461.42,19553.1C461.42,19544.9 468.141,19538.1 476.42,19538.1L593.193,19538.1C599.278,19529.2 604.513,19519.2 608.685,19507.9L432.054,19507.9C423.776,19507.9 417.054,19501.2 417.054,19492.9C417.054,19484.6 423.776,19477.9 432.054,19477.9L616.588,19477.9Z" style="fill:url(#_Linear1);"/>
                </g>
                <g id="adn1" serif:id="adn" transform="matrix(0.0789593,0,0,0.0461012,2542.43,-740.233)">
                    <path d="M575.023,19939.1C541.787,19905.5 495.563,19893.4 455.235,19878.8C397.417,19857.8 350.656,19832.3 350.656,19756.9C350.656,19689.2 390.011,19656.1 439.78,19631.8C447.216,19628.1 456.208,19631.2 459.848,19638.7C462.998,19645.1 461.113,19652.7 455.727,19657L411.827,19687C411.11,19687 410.404,19686.9 409.715,19686.8C398.7,19697.2 390.074,19709.6 385.171,19725.2L380.666,19755.2C380.659,19755.8 380.656,19756.3 380.656,19756.9C380.656,19771.4 382.991,19783.4 387.185,19793.5L410.427,19823.5C416.481,19828.2 423.251,19832.3 430.536,19836C452.669,19847.2 479.045,19855 505.394,19864.8C541.322,19878.1 577.042,19895.1 603.988,19926.3C631.029,19957.5 649.68,20003.1 649.68,20074.7C649.68,20083 642.959,20089.7 634.68,20089.7C626.402,20089.7 619.68,20083 619.68,20074.7C619.68,20061.2 618.974,20048.8 617.627,20037.3L612.164,20007.3C608.447,19992.8 603.448,19980.2 597.389,19969.1L575.023,19939.1ZM616.588,19477.9C618.602,19466.1 619.68,19453.2 619.68,19439C619.68,19430.8 626.402,19424 634.68,19424C642.959,19424 649.68,19430.8 649.68,19439C649.68,19532.5 609.374,19578.7 559.035,19609.3C551.963,19613.6 542.727,19611.4 538.422,19604.3C534.118,19597.2 536.364,19588 543.435,19583.7C551.129,19579 558.526,19573.9 565.486,19568.1L593.193,19538.1C599.278,19529.2 604.513,19519.2 608.685,19507.9L616.588,19477.9Z" style="fill:url(#_Linear2);"/>
                </g>
                <g id="adn2" serif:id="adn" transform="matrix(0.0789593,0,0,0.0461012,2542.43,-740.233)">
                    <path d="M441.039,19889.8C390.762,19919.3 350.656,19967.8 350.656,20074.7C350.656,20083 357.377,20089.7 365.656,20089.7C373.934,20089.7 380.656,20083 380.656,20074.7C380.656,19983.2 413.219,19940.9 456.233,19915.6C463.372,19911.4 465.763,19902.2 461.57,19895.1C457.377,19888 448.177,19885.6 441.039,19889.8ZM350.656,19439C350.656,19563.9 422.063,19604.4 494.182,19635.8C520.444,19647.2 546.74,19657.4 568.8,19670.7C598.349,19688.6 619.68,19712.8 619.68,19756.9C619.68,19810.9 587.068,19830.4 547.025,19846C539.312,19849 535.492,19857.7 538.5,19865.4C541.507,19873.1 550.211,19877 557.924,19873.9C609.724,19853.7 649.68,19826.7 649.68,19756.9C649.68,19682.2 603.318,19651.1 546.112,19625.5C473.344,19593 380.656,19570.3 380.656,19439C380.656,19430.8 373.934,19424 365.656,19424C357.377,19424 350.656,19430.8 350.656,19439Z" style="fill:url(#_Linear3);"/>
                </g>
            </g>
        </g>
    </g>
    <defs>
        <linearGradient id="_Linear1" x1="0" y1="0" x2="1" y2="0" gradientUnits="userSpaceOnUse" gradientTransform="matrix(33.1993,703.191,-703.191,33.1993,500.168,19405.3)"><stop offset="0" style="stop-color:rgb(97,16,20);stop-opacity:1"/><stop offset="1" style="stop-color:rgb(201,34,42);stop-opacity:1"/></linearGradient>
        <linearGradient id="_Linear2" x1="0" y1="0" x2="1" y2="0" gradientUnits="userSpaceOnUse" gradientTransform="matrix(2.28596e-05,665.653,-665.653,2.28596e-05,634.68,19424)"><stop offset="0" style="stop-color:rgb(141,31,36);stop-opacity:1"/><stop offset="1" style="stop-color:rgb(255,22,32);stop-opacity:1"/></linearGradient>
        <linearGradient id="_Linear3" x1="0" y1="0" x2="1" y2="0" gradientUnits="userSpaceOnUse" gradientTransform="matrix(4.4667e-06,-665.653,665.653,4.4667e-06,365.656,20089.7)"><stop offset="0" style="stop-color:rgb(141,31,36);stop-opacity:1"/><stop offset="1" style="stop-color:rgb(255,37,47);stop-opacity:1"/></linearGradient>
    </defs>
</svg>
