<?xml version="1.0" encoding="UTF-8" standalone="no"?>
<!DOCTYPE svg PUBLIC "-//W3C//DTD SVG 1.1//EN" "http://www.w3.org/Graphics/SVG/1.1/DTD/svg11.dtd">
<svg width="100%" height="100%" viewBox="0 0 191 170" version="1.1" xmlns="http://www.w3.org/2000/svg" xmlns:xlink="http://www.w3.org/1999/xlink" xml:space="preserve" xmlns:serif="http://www.serif.com/" style="fill-rule:evenodd;clip-rule:evenodd;stroke-linejoin:round;stroke-miterlimit:2;">
    <g transform="matrix(1,0,0,1,-26523,-1467)">
        <g transform="matrix(3.03411,0,0,5.19663,18709.1,942.188)">
            <g id="phase4-6">
                <g transform="matrix(0.329586,0,0,0.192432,-6166.27,-181.307)">
                    <path d="M26531.5,1518.24L26532.5,1591.21L26599.5,1630.72L26668.9,1591.08L26668.7,1516.47L26598.7,1475.5L26531.5,1518.24Z" style="fill:url(#_Linear1);"/>
                </g>
                <g transform="matrix(0.356212,0,0,0.207978,-6862.05,-209.84)">
                    <path d="M26497.9,1532.33C26499.6,1529.93 26501.9,1527.87 26504.5,1526.34C26504.5,1526.34 26504.5,1526.33 26504.6,1526.33C26504.6,1526.33 26554.1,1498.03 26554.1,1498.04C26560.6,1494.26 26568.7,1494.26 26575.3,1498.03C26575.3,1498.03 26624.8,1526.33 26624.8,1526.34C26627.5,1527.87 26629.7,1529.93 26631.4,1532.33C26631.9,1532.76 26632.2,1533.26 26632.6,1533.81C26632.8,1534.29 26633,1534.78 26633.2,1535.29C26634.6,1538.17 26635.4,1541.38 26635.4,1544.7L26635.4,1601.31L26635.4,1601.32C26635.4,1608.88 26631.4,1615.89 26624.8,1619.68C26624.8,1619.68 26624.8,1619.69 26624.8,1619.69C26624.8,1619.69 26575.3,1647.99 26575.3,1647.98C26573,1649.29 26570.5,1650.15 26568,1650.55C26567,1651.09 26565.9,1651.4 26564.7,1651.4C26563.5,1651.4 26562.3,1651.09 26561.3,1650.55C26558.8,1650.15 26556.3,1649.3 26554.1,1647.99C26554.1,1647.99 26504.6,1619.69 26504.5,1619.68C26498,1615.89 26493.9,1608.88 26493.9,1601.32L26493.9,1544.7C26493.9,1541.38 26494.7,1538.17 26496.1,1535.29C26496.3,1534.78 26496.5,1534.29 26496.8,1533.81C26497.1,1533.26 26497.5,1532.76 26497.9,1532.33ZM26508.1,1548.51L26508.1,1601.3C26508.1,1603.82 26509.4,1606.16 26511.6,1607.41L26557.6,1633.7L26557.6,1577.16L26508.1,1548.51ZM26621.3,1548.51L26571.7,1577.16L26571.7,1633.7L26617.7,1607.42C26619.9,1606.16 26621.3,1603.82 26621.3,1601.3L26621.3,1548.51ZM26582.7,1554.45L26533.9,1525.84L26515.4,1536.42L26564.7,1564.91L26582.7,1554.45ZM26613.9,1536.42L26568.2,1510.3C26566,1509.04 26563.3,1509.04 26561.1,1510.3C26561.1,1510.3 26561.1,1510.31 26561.1,1510.31L26547.6,1518.02L26596.3,1546.59L26613.9,1536.42Z" style="fill:url(#_Linear2);"/>
                </g>
                <g transform="matrix(1,0,0,1,2.34888,3.20619)">
                    <g transform="matrix(0.375498,0,0,0.234868,-7394.79,-244.853)">
                        <path d="M26711.1,1577.89C26711.1,1568.1 26702.5,1560.15 26692.1,1560.15L26640.3,1560.15C26629.8,1560.15 26621.3,1568.1 26621.3,1577.89C26621.3,1587.68 26629.8,1595.62 26640.3,1595.62L26692.1,1595.62C26702.5,1595.62 26711.1,1587.68 26711.1,1577.89Z" style="fill:white;"/>
                    </g>
                    <g id="pill3" transform="matrix(0.0543585,0,0,0.0317378,2457.26,-378.098)">
                        <path d="M3284.72,15875.1C3284.72,15794 3218.84,15728.1 3137.68,15728.1L2787.38,15728.1C2706.22,15728.1 2640.33,15794 2640.33,15875.1C2640.33,15956.3 2706.22,16022.2 2787.38,16022.2C2787.38,16022.2 3137.68,16022.2 3137.68,16022.2C3218.84,16022.2 3284.72,15956.3 3284.72,15875.1ZM2979.6,15758.1L2787.38,15758.1C2722.78,15758.1 2670.33,15810.5 2670.33,15875.1C2670.33,15939.7 2722.78,15992.2 2787.38,15992.2L2979.6,15992.2L2979.6,15758.1Z" style="fill:url(#_Linear3);"/>
                    </g>
                </g>
            </g>
        </g>
    </g>
    <defs>
        <linearGradient id="_Linear1" x1="0" y1="0" x2="1" y2="0" gradientUnits="userSpaceOnUse" gradientTransform="matrix(154.581,-161.034,161.034,154.581,26531.5,1636.54)"><stop offset="0" style="stop-color:rgb(141,31,36);stop-opacity:0.1"/><stop offset="1" style="stop-color:rgb(141,31,36);stop-opacity:0.1"/></linearGradient>
        <linearGradient id="_Linear2" x1="0" y1="0" x2="1" y2="0" gradientUnits="userSpaceOnUse" gradientTransform="matrix(168.494,156.199,-156.199,168.494,26501.6,1495.2)"><stop offset="0" style="stop-color:rgb(141,31,36);stop-opacity:1"/><stop offset="1" style="stop-color:rgb(233,37,46);stop-opacity:1"/></linearGradient>
        <linearGradient id="_Linear3" x1="0" y1="0" x2="1" y2="0" gradientUnits="userSpaceOnUse" gradientTransform="matrix(1104.14,1023.58,-1023.58,1104.14,2180.58,14998.6)"><stop offset="0" style="stop-color:rgb(141,31,36);stop-opacity:1"/><stop offset="1" style="stop-color:rgb(233,37,46);stop-opacity:1"/></linearGradient>
    </defs>
</svg>
