<?xml version="1.0" encoding="UTF-8" standalone="no"?>
<!DOCTYPE svg PUBLIC "-//W3C//DTD SVG 1.1//EN" "http://www.w3.org/Graphics/SVG/1.1/DTD/svg11.dtd">
<svg width="100%" height="100%" viewBox="0 0 191 165" version="1.1" xmlns="http://www.w3.org/2000/svg" xmlns:xlink="http://www.w3.org/1999/xlink" xml:space="preserve" xmlns:serif="http://www.serif.com/" style="fill-rule:evenodd;clip-rule:evenodd;stroke-linejoin:round;stroke-miterlimit:2;">
    <g transform="matrix(1,0,0,1,-25866,-1150)">
        <g transform="matrix(3.03411,0,0,5.19663,18709.1,942.188)">
            <g id="phase4-1" transform="matrix(0.117868,0,0,0.0688184,2325.65,19.6977)">
                <g transform="matrix(2.79623,0,0,2.79623,-72529,-3018.35)">
                    <path d="M26147.8,1185.33C26141.5,1185.85 26135.4,1185.87 26131.3,1185.36C26129.1,1185.1 26126,1187.06 26125.5,1190.22C26121.7,1213.96 26128.6,1229.92 26133.1,1242.7C26135.1,1248.61 26136.9,1253.59 26135.3,1258.52C26134.2,1261.69 26131.8,1264.7 26127.6,1268.01C26121.8,1272.61 26113.8,1274.07 26104.5,1274.47C26093.9,1274.93 26081.8,1273.89 26068.9,1273.21C26060.8,1272.78 26054.7,1274.7 26050.2,1278.21C26045.7,1281.71 26042.6,1286.9 26040.9,1293.64C26037.9,1304.85 26038.7,1320.87 26040.6,1339.45C26040.9,1342.86 26043.9,1344.86 26046.9,1344.62C26054.4,1341.96 26060.8,1343.38 26068.4,1344.64C26071.6,1344.47 26074,1341.74 26073.8,1338.54C26073.6,1333.88 26072.5,1328.1 26072.2,1322.9C26072.1,1320.99 26072.1,1319.18 26072.3,1317.6C26072.4,1316.72 26072.4,1315.87 26073,1315.47C26073.4,1315.22 26073.9,1315.29 26074.6,1315.34C26082.5,1315.91 26085.3,1319.48 26087.8,1323.64C26090.3,1327.79 26092.7,1332.29 26097,1336.23C26111.7,1349.8 26130.3,1351.66 26148.8,1345.73C26166.2,1340.15 26183.6,1327.54 26197.1,1311.87C26225.1,1279.43 26235.7,1234.54 26201.4,1211.39C26193.2,1205.87 26186.7,1204.05 26181.3,1204.01C26175.5,1203.97 26170.9,1206.02 26167,1208.68C26164.5,1210.36 26162.4,1212.31 26160.3,1213.85C26159,1214.76 26158,1215.88 26156.6,1215.19C26153.8,1213.87 26152.7,1211.32 26152.2,1208.25C26151.6,1203.67 26152.4,1198.13 26153.4,1192.19C26154.1,1187.94 26150.4,1185.11 26147.8,1185.33Z" style="fill:url(#_Linear1);"/>
                </g>
                <g transform="matrix(1.08,0,0,1.08,0,-15223.5)">
                    <path d="M485.184,14382.6C475.48,14444.1 493.287,14485.4 504.823,14518.5C510.153,14533.8 514.596,14546.7 510.464,14559.5C507.809,14567.7 501.517,14575.5 490.698,14584C475.62,14595.9 454.904,14599.7 430.751,14600.8C403.455,14601.9 372.069,14599.3 338.661,14597.5C317.649,14596.4 301.987,14601.4 290.287,14610.4C278.631,14619.5 270.659,14633 266.081,14650.4C258.469,14679.4 260.402,14720.9 265.364,14769C266.214,14777.2 273.59,14783.2 281.825,14782.4C290.06,14781.5 296.056,14774.2 295.206,14765.9C290.691,14722.2 288.173,14684.4 295.099,14658C297.791,14647.8 301.835,14639.5 308.69,14634.1C315.502,14628.8 324.837,14626.8 337.071,14627.5C378.709,14629.7 417.328,14633 449.205,14629.4C473.056,14626.7 493.411,14620.1 509.302,14607.6C526.088,14594.3 534.886,14581.4 539.006,14568.7C543.248,14555.6 542.629,14542.3 539.083,14528C530.923,14494.9 504.228,14454.4 514.816,14387.3C516.107,14379.1 510.517,14371.4 502.339,14370.1C494.162,14368.9 486.474,14374.5 485.184,14382.6Z" style="fill:url(#_Linear2);"/>
                </g>
                <g transform="matrix(1.08,0,0,1.08,0,-15223.5)">
                    <path d="M527.976,14382.2C524.436,14401.1 522.601,14419 524.73,14433.6C527.427,14452.2 535.983,14466.4 552.755,14474.4C567.8,14481.5 580.231,14477.4 592.983,14468C602.208,14461.2 611.491,14449.7 626.843,14448.4C636.761,14447.6 648.807,14451.5 664.903,14462.3C700.285,14486.2 711.461,14521.3 706.792,14558.7C701.754,14599.1 679.1,14641.9 647.984,14678C616.7,14714.3 576.746,14743.8 536.47,14756.7C499.095,14768.7 461.439,14766 431.705,14738.6C420.183,14728 415.508,14715.1 408.111,14704.6C397.976,14690.3 384.673,14678.7 355.462,14676.6C343.608,14675.8 335.329,14679.2 329.376,14684.4C323.647,14689.5 319.855,14696.8 318.163,14705.8C314.952,14723.1 320.44,14749.2 321.486,14768.3C321.939,14776.6 329.017,14782.9 337.283,14782.5C345.55,14782 351.894,14774.9 351.442,14766.7C350.782,14754.6 348.073,14739.6 347.237,14726.1C346.931,14721.2 346.871,14716.5 347.475,14712.4C347.808,14710.2 347.651,14707.9 349.226,14706.9C350.21,14706.3 351.588,14706.4 353.308,14706.6C373.841,14708 381.051,14717.3 387.579,14728.1C394.09,14738.8 400.315,14750.5 411.382,14760.7C449.55,14795.8 497.644,14800.6 545.62,14785.3C590.695,14770.8 635.69,14738.2 670.7,14697.6C743.131,14613.6 770.537,14497.4 681.674,14437.5C660.465,14423.2 643.531,14418.4 629.767,14418.3C614.726,14418.2 602.867,14423.5 592.714,14430.4C586.278,14434.8 580.655,14439.8 575.215,14443.8C572.024,14446.2 569.396,14449.1 565.632,14447.3C558.45,14443.9 555.573,14437.3 554.418,14429.3C552.696,14417.5 554.599,14403 557.465,14387.7C558.987,14379.6 553.616,14371.7 545.479,14370.2C537.341,14368.7 529.498,14374.1 527.976,14382.2Z" style="fill:url(#_Linear3);"/>
                </g>
                <g transform="matrix(1.08,0,0,1.08,-5.31772,-15212.7)">
                    <circle cx="447.507" cy="14660.9" r="13.795" style="fill:url(#_Linear4);"/>
                </g>
                <g transform="matrix(1.08,0,0,1.08,59.3752,-15154.1)">
                    <circle cx="447.507" cy="14660.9" r="13.795" style="fill:url(#_Linear5);"/>
                </g>
                <g transform="matrix(1.08,0,0,1.08,163.785,-15275.9)">
                    <circle cx="447.507" cy="14660.9" r="13.795" style="fill:url(#_Linear6);"/>
                </g>
                <g transform="matrix(1.08,0,0,1.08,232.926,-15313.1)">
                    <circle cx="447.507" cy="14660.9" r="13.795" style="fill:url(#_Linear7);"/>
                </g>
                <g transform="matrix(1.08,0,0,1.08,162.745,-15199)">
                    <circle cx="447.507" cy="14660.9" r="13.795" style="fill:url(#_Linear8);"/>
                </g>
                <g transform="matrix(1.08,0,0,1.08,141.707,-15344)">
                    <circle cx="447.507" cy="14660.9" r="13.795" style="fill:url(#_Linear9);"/>
                </g>
                <g transform="matrix(1.08,0,0,1.08,81.6493,-15248)">
                    <circle cx="447.507" cy="14660.9" r="13.795" style="fill:url(#_Linear10);"/>
                </g>
                <g transform="matrix(3.25716,0,0,3.25716,-84601.1,-3622.98)">
                    <circle cx="26190.9" cy="1311.76" r="28.184" style="fill:white;"/>
                </g>
                <g transform="matrix(3.25716,0,0,3.25716,-84601.1,-3622.98)">
                    <path d="M26190.9,1279.28C26172.9,1279.28 26158.4,1293.83 26158.4,1311.76C26158.4,1329.68 26172.9,1344.23 26190.9,1344.23C26208.8,1344.23 26223.3,1329.68 26223.3,1311.76C26223.3,1293.83 26208.8,1279.28 26190.9,1279.28ZM26190.9,1287.86C26204,1287.86 26214.8,1298.57 26214.8,1311.76C26214.8,1324.94 26204,1335.65 26190.9,1335.65C26177.7,1335.65 26167,1324.94 26167,1311.76C26167,1298.57 26177.7,1287.86 26190.9,1287.86Z" style="fill:url(#_Linear11);"/>
                </g>
                <g transform="matrix(2.01149,0,0,2.01149,-51983.3,-1997.37)">
                    <path d="M26188.3,1322.04L26211.1,1299.23C26213.1,1297.28 26216.2,1297.28 26218.2,1299.23C26220.1,1301.18 26220.1,1304.35 26218.2,1306.3L26191.8,1332.65C26189.9,1334.6 26186.7,1334.6 26184.8,1332.65L26170.9,1318.82C26169,1316.87 26169,1313.7 26170.9,1311.75C26172.9,1309.8 26176.1,1309.8 26178,1311.75L26188.3,1322.04Z" style="fill:url(#_Linear12);"/>
                </g>
            </g>
        </g>
    </g>
    <defs>
        <linearGradient id="_Linear1" x1="0" y1="0" x2="1" y2="0" gradientUnits="userSpaceOnUse" gradientTransform="matrix(92.6602,-158.277,158.277,92.6602,26049.1,1343.95)"><stop offset="0" style="stop-color:rgb(141,31,36);stop-opacity:0.2"/><stop offset="1" style="stop-color:rgb(141,31,36);stop-opacity:0.1"/></linearGradient>
        <linearGradient id="_Linear2" x1="0" y1="0" x2="1" y2="0" gradientUnits="userSpaceOnUse" gradientTransform="matrix(468.307,-409.379,409.379,468.307,271.119,14779.3)"><stop offset="0" style="stop-color:rgb(141,31,36);stop-opacity:1"/><stop offset="1" style="stop-color:rgb(255,61,70);stop-opacity:1"/></linearGradient>
        <linearGradient id="_Linear3" x1="0" y1="0" x2="1" y2="0" gradientUnits="userSpaceOnUse" gradientTransform="matrix(468.307,-409.379,409.379,468.307,271.119,14779.3)"><stop offset="0" style="stop-color:rgb(141,31,36);stop-opacity:1"/><stop offset="1" style="stop-color:rgb(255,61,70);stop-opacity:1"/></linearGradient>
        <linearGradient id="_Linear4" x1="0" y1="0" x2="1" y2="0" gradientUnits="userSpaceOnUse" gradientTransform="matrix(468.307,-409.379,409.379,468.307,276.043,14769.4)"><stop offset="0" style="stop-color:rgb(141,31,36);stop-opacity:1"/><stop offset="1" style="stop-color:rgb(255,61,70);stop-opacity:1"/></linearGradient>
        <linearGradient id="_Linear5" x1="0" y1="0" x2="1" y2="0" gradientUnits="userSpaceOnUse" gradientTransform="matrix(468.307,-409.379,409.379,468.307,216.142,14715.1)"><stop offset="0" style="stop-color:rgb(141,31,36);stop-opacity:1"/><stop offset="1" style="stop-color:rgb(255,61,70);stop-opacity:1"/></linearGradient>
        <linearGradient id="_Linear6" x1="0" y1="0" x2="1" y2="0" gradientUnits="userSpaceOnUse" gradientTransform="matrix(468.307,-409.379,409.379,468.307,119.466,14827.9)"><stop offset="0" style="stop-color:rgb(141,31,36);stop-opacity:1"/><stop offset="1" style="stop-color:rgb(255,61,70);stop-opacity:1"/></linearGradient>
        <linearGradient id="_Linear7" x1="0" y1="0" x2="1" y2="0" gradientUnits="userSpaceOnUse" gradientTransform="matrix(468.307,-409.379,409.379,468.307,55.4466,14862.4)"><stop offset="0" style="stop-color:rgb(141,31,36);stop-opacity:1"/><stop offset="1" style="stop-color:rgb(255,61,70);stop-opacity:1"/></linearGradient>
        <linearGradient id="_Linear8" x1="0" y1="0" x2="1" y2="0" gradientUnits="userSpaceOnUse" gradientTransform="matrix(468.307,-409.379,409.379,468.307,120.429,14756.7)"><stop offset="0" style="stop-color:rgb(141,31,36);stop-opacity:1"/><stop offset="1" style="stop-color:rgb(255,61,70);stop-opacity:1"/></linearGradient>
        <linearGradient id="_Linear9" x1="0" y1="0" x2="1" y2="0" gradientUnits="userSpaceOnUse" gradientTransform="matrix(468.307,-409.379,409.379,468.307,139.909,14891)"><stop offset="0" style="stop-color:rgb(141,31,36);stop-opacity:1"/><stop offset="1" style="stop-color:rgb(255,61,70);stop-opacity:1"/></linearGradient>
        <linearGradient id="_Linear10" x1="0" y1="0" x2="1" y2="0" gradientUnits="userSpaceOnUse" gradientTransform="matrix(468.307,-409.379,409.379,468.307,195.518,14802.1)"><stop offset="0" style="stop-color:rgb(141,31,36);stop-opacity:1"/><stop offset="1" style="stop-color:rgb(255,61,70);stop-opacity:1"/></linearGradient>
        <linearGradient id="_Linear11" x1="0" y1="0" x2="1" y2="0" gradientUnits="userSpaceOnUse" gradientTransform="matrix(155.28,-135.741,135.741,155.28,26063.8,1338.96)"><stop offset="0" style="stop-color:rgb(141,31,36);stop-opacity:1"/><stop offset="1" style="stop-color:rgb(255,61,70);stop-opacity:1"/></linearGradient>
        <linearGradient id="_Linear12" x1="0" y1="0" x2="1" y2="0" gradientUnits="userSpaceOnUse" gradientTransform="matrix(180.876,-158.116,158.116,180.876,26046.5,1343.35)"><stop offset="0" style="stop-color:rgb(141,31,36);stop-opacity:1"/><stop offset="1" style="stop-color:rgb(255,61,70);stop-opacity:1"/></linearGradient>
    </defs>
</svg>
