<?xml version="1.0" encoding="UTF-8" standalone="no"?>
<!DOCTYPE svg PUBLIC "-//W3C//DTD SVG 1.1//EN" "http://www.w3.org/Graphics/SVG/1.1/DTD/svg11.dtd">
<svg width="100%" height="100%" viewBox="0 0 121 170" version="1.1" xmlns="http://www.w3.org/2000/svg" xmlns:xlink="http://www.w3.org/1999/xlink" xml:space="preserve" xmlns:serif="http://www.serif.com/" style="fill-rule:evenodd;clip-rule:evenodd;stroke-linejoin:round;stroke-miterlimit:2;">
    <g transform="matrix(1,0,0,1,-26299,-1467)">
        <g transform="matrix(3.03411,0,0,5.19663,18709.1,942.188)">
            <g id="phase4-5" transform="matrix(0.76144,0,0,0.76144,588.669,27.6071)">
                <g id="adn" transform="matrix(0.0977773,0,0,0.0570883,2477.96,-1012.33)">
                    <path d="M575.023,19939.1C541.787,19905.5 495.563,19893.4 455.235,19878.8C397.417,19857.8 350.656,19832.3 350.656,19756.9C350.656,19689.2 390.011,19656.1 439.78,19631.8C447.216,19628.1 456.208,19631.2 459.848,19638.7C462.998,19645.1 461.113,19652.7 455.727,19657L500.168,19657C508.447,19657 515.168,19663.7 515.168,19672C515.168,19680.3 508.447,19687 500.168,19687L411.827,19687C411.11,19687 410.404,19686.9 409.715,19686.8C398.7,19697.2 390.074,19709.6 385.171,19725.2L581.876,19725.2C590.155,19725.2 596.876,19732 596.876,19740.2C596.876,19748.5 590.155,19755.2 581.876,19755.2L380.666,19755.2C380.659,19755.8 380.656,19756.3 380.656,19756.9C380.656,19771.4 382.991,19783.4 387.185,19793.5L538.766,19793.5C547.045,19793.5 553.766,19800.2 553.766,19808.5C553.766,19816.8 547.045,19823.5 538.766,19823.5L410.427,19823.5C416.481,19828.2 423.251,19832.3 430.536,19836C452.669,19847.2 479.045,19855 505.394,19864.8C541.322,19878.1 577.042,19895.1 603.988,19926.3C631.029,19957.5 649.68,20003.1 649.68,20074.7C649.68,20083 642.959,20089.7 634.68,20089.7C626.402,20089.7 619.68,20083 619.68,20074.7C619.68,20061.2 618.974,20048.8 617.627,20037.3L421.539,20037.3C413.26,20037.3 406.539,20030.6 406.539,20022.3C406.539,20014.1 413.26,20007.3 421.539,20007.3L612.164,20007.3C608.447,19992.8 603.448,19980.2 597.389,19969.1L476.42,19969.1C468.141,19969.1 461.42,19962.4 461.42,19954.1C461.42,19945.8 468.141,19939.1 476.42,19939.1L575.023,19939.1ZM441.039,19889.8C390.762,19919.3 350.656,19967.8 350.656,20074.7C350.656,20083 357.377,20089.7 365.656,20089.7C373.934,20089.7 380.656,20083 380.656,20074.7C380.656,19983.2 413.219,19940.9 456.233,19915.6C463.372,19911.4 465.763,19902.2 461.57,19895.1C457.377,19888 448.177,19885.6 441.039,19889.8ZM350.656,19439C350.656,19563.9 422.063,19604.4 494.182,19635.8C520.444,19647.2 546.74,19657.4 568.8,19670.7C598.349,19688.6 619.68,19712.8 619.68,19756.9C619.68,19810.9 587.068,19830.4 547.025,19846C539.312,19849 535.492,19857.7 538.5,19865.4C541.507,19873.1 550.211,19877 557.924,19873.9C609.724,19853.7 649.68,19826.7 649.68,19756.9C649.68,19682.2 603.318,19651.1 546.112,19625.5C473.344,19593 380.656,19570.3 380.656,19439C380.656,19430.8 373.934,19424 365.656,19424C357.377,19424 350.656,19430.8 350.656,19439ZM616.588,19477.9C618.602,19466.1 619.68,19453.2 619.68,19439C619.68,19430.8 626.402,19424 634.68,19424C642.959,19424 649.68,19430.8 649.68,19439C649.68,19532.5 609.374,19578.7 559.035,19609.3C551.963,19613.6 542.727,19611.4 538.422,19604.3C534.118,19597.2 536.364,19588 543.435,19583.7C551.129,19579 558.526,19573.9 565.486,19568.1L476.42,19568.1C468.141,19568.1 461.42,19561.4 461.42,19553.1C461.42,19544.9 468.141,19538.1 476.42,19538.1L593.193,19538.1C599.278,19529.2 604.513,19519.2 608.685,19507.9L432.054,19507.9C423.776,19507.9 417.054,19501.2 417.054,19492.9C417.054,19484.6 423.776,19477.9 432.054,19477.9L616.588,19477.9Z" style="fill:url(#_Linear1);"/>
                </g>
                <g transform="matrix(0.801258,0,0,0.801258,503.09,24.6632)">
                    <g transform="matrix(0.329586,0,0,0.192432,-6174.49,-180.954)">
                        <path d="M26410.8,1503.54C26386,1536.81 26425.4,1545.8 26437.5,1576.01C26446.1,1614.69 26402,1636.42 26440.5,1661.31C26471.5,1673.54 26493.2,1651.42 26502.7,1584.19C26493.9,1522.46 26436.6,1469.11 26410.8,1503.54Z" style="fill:url(#_Linear2);"/>
                    </g>
                    <g id="bacteria1" transform="matrix(0.142784,0,0,0.0833663,2489.9,82.9423)">
                        <g transform="matrix(1.08,0,0,1.08,0,0)">
                            <path d="M268.847,387.576C308.627,412.307 328.783,470.942 294.246,522.039C271.066,556.333 280.089,602.995 314.384,626.175C348.679,649.355 395.341,640.332 418.521,606.037C507.603,474.241 450.649,323.976 348.043,260.187C312.889,238.332 266.605,249.129 244.75,284.283C222.895,319.437 233.693,365.721 268.847,387.576ZM279.406,370.591C253.627,354.564 245.709,320.622 261.735,294.843C277.762,269.063 311.704,261.145 337.483,277.172C431.712,335.753 483.76,473.802 401.951,594.837C384.952,619.987 350.733,626.604 325.584,609.605C300.434,592.607 293.817,558.388 310.816,533.238C352.624,471.383 327.562,400.529 279.406,370.591Z" style="fill:url(#_Linear3);"/>
                        </g>
                        <g transform="matrix(1.08,0,0,1.08,2.95704,-9.10227)">
                            <path d="M304.226,304.329C287.539,304.329 273.991,317.876 273.991,334.563C273.991,351.25 287.539,364.798 304.226,364.798C320.913,364.798 334.461,351.25 334.461,334.563C334.461,317.876 320.913,304.329 304.226,304.329ZM304.226,324.329C309.874,324.329 314.461,328.915 314.461,334.563C314.461,340.212 309.874,344.798 304.226,344.798C298.577,344.798 293.991,340.212 293.991,334.563C293.991,328.915 298.577,324.329 304.226,324.329Z" style="fill:url(#_Linear4);"/>
                        </g>
                        <g transform="matrix(0.816211,0,0,0.816211,182.973,171.721)">
                            <path d="M304.226,304.405C287.581,304.405 274.067,317.918 274.067,334.563C274.067,351.208 287.581,364.722 304.226,364.722C320.871,364.722 334.384,351.208 334.384,334.563C334.384,317.918 320.871,304.405 304.226,304.405ZM304.226,324.252C309.916,324.252 314.537,328.873 314.537,334.563C314.537,340.254 309.916,344.874 304.226,344.874C298.535,344.874 293.915,340.254 293.915,334.563C293.915,328.873 298.535,324.252 304.226,324.252Z" style="fill:url(#_Linear5);"/>
                        </g>
                        <g transform="matrix(1.08,0,0,1.08,65.5609,250.835)">
                            <path d="M304.226,304.329C287.539,304.329 273.991,317.876 273.991,334.563C273.991,351.25 287.539,364.798 304.226,364.798C320.913,364.798 334.461,351.25 334.461,334.563C334.461,317.876 320.913,304.329 304.226,304.329ZM304.226,324.329C309.874,324.329 314.461,328.915 314.461,334.563C314.461,340.212 309.874,344.798 304.226,344.798C298.577,344.798 293.991,340.212 293.991,334.563C293.991,328.915 298.577,324.329 304.226,324.329Z" style="fill:url(#_Linear6);"/>
                        </g>
                        <g transform="matrix(0.637196,0,0,0.637196,213.167,302.406)">
                            <path d="M304.226,305.854C288.381,305.854 275.516,318.718 275.516,334.563C275.516,350.409 288.381,363.273 304.226,363.273C320.071,363.273 332.935,350.409 332.935,334.563C332.935,318.718 320.071,305.854 304.226,305.854ZM304.226,322.803C310.716,322.803 315.986,328.073 315.986,334.563C315.986,341.054 310.716,346.324 304.226,346.324C297.735,346.324 292.465,341.054 292.465,334.563C292.465,328.073 297.735,322.803 304.226,322.803Z" style="fill:url(#_Linear7);"/>
                        </g>
                        <g transform="matrix(0.473372,0,0,0.473372,228.259,269.906)">
                            <path d="M304.226,302.921C286.762,302.921 272.583,317.1 272.583,334.563C272.583,352.027 286.762,366.206 304.226,366.206C321.69,366.206 335.868,352.027 335.868,334.563C335.868,317.1 321.69,302.921 304.226,302.921ZM304.226,325.736C309.098,325.736 313.053,329.691 313.053,334.563C313.053,339.435 309.098,343.391 304.226,343.391C299.354,343.391 295.398,339.435 295.398,334.563C295.398,329.691 299.354,325.736 304.226,325.736Z" style="fill:url(#_Linear8);"/>
                        </g>
                        <g transform="matrix(1.08,0,0,1.08,0,0)">
                            <path d="M278.182,265.482L249.474,226.713C247.011,223.387 242.31,222.686 238.983,225.149C235.657,227.612 234.956,232.313 237.419,235.64L266.127,274.409C268.59,277.735 273.291,278.436 276.617,275.973C279.944,273.51 280.645,268.809 278.182,265.482Z" style="fill:url(#_Linear9);"/>
                        </g>
                        <g transform="matrix(1.08,0,0,1.08,0,0)">
                            <path d="M370.638,289.316L391.28,265.099C393.966,261.948 393.588,257.211 390.438,254.526C387.288,251.84 382.55,252.218 379.865,255.368L359.222,279.586C356.537,282.736 356.915,287.474 360.065,290.159C363.215,292.844 367.953,292.466 370.638,289.316Z" style="fill:url(#_Linear10);"/>
                        </g>
                        <g transform="matrix(1.08,0,0,1.08,0,0)">
                            <path d="M246.362,338.952L209.954,344.383C205.86,344.994 203.032,348.813 203.643,352.907C204.253,357.001 208.073,359.829 212.167,359.219L248.575,353.788C252.669,353.178 255.497,349.358 254.887,345.264C254.276,341.17 250.456,338.342 246.362,338.952Z" style="fill:url(#_Linear11);"/>
                        </g>
                        <g transform="matrix(1.08,0,0,1.08,0,0)">
                            <path d="M298.994,398.431L242.924,423.427C239.144,425.112 237.443,429.55 239.128,433.331C240.814,437.111 245.251,438.812 249.032,437.127L305.101,412.131C308.882,410.446 310.583,406.008 308.897,402.227C307.212,398.447 302.774,396.745 298.994,398.431Z" style="fill:url(#_Linear12);"/>
                        </g>
                        <g transform="matrix(1.08,0,0,1.08,0,0)">
                            <path d="M318.59,492.834L280.84,481.167C276.885,479.945 272.682,482.164 271.46,486.118C270.237,490.073 272.456,494.276 276.411,495.499L314.16,507.166C318.115,508.388 322.318,506.169 323.541,502.215C324.763,498.26 322.544,494.057 318.59,492.834Z" style="fill:url(#_Linear13);"/>
                        </g>
                        <g transform="matrix(1.08,0,0,1.08,0,0)">
                            <path d="M291.206,560.264L255.715,561.65C251.578,561.812 248.352,565.301 248.513,569.437C248.675,573.573 252.164,576.8 256.3,576.639L291.791,575.253C295.927,575.091 299.154,571.602 298.993,567.466C298.831,563.33 295.342,560.103 291.206,560.264Z" style="fill:url(#_Linear14);"/>
                        </g>
                        <g transform="matrix(1.08,0,0,1.08,0,0)">
                            <path d="M304.151,606.979L279.172,655.55C277.279,659.231 278.73,663.757 282.412,665.65C286.093,667.543 290.618,666.091 292.511,662.41L317.491,613.839C319.384,610.158 317.932,605.633 314.251,603.74C310.57,601.846 306.044,603.298 304.151,606.979Z" style="fill:url(#_Linear15);"/>
                        </g>
                        <g transform="matrix(1.08,0,0,1.08,0,0)">
                            <path d="M358.529,629.688L364.246,660.601C364.999,664.671 368.914,667.364 372.985,666.612C377.055,665.859 379.748,661.943 378.996,657.873L373.279,626.961C372.526,622.89 368.611,620.197 364.54,620.95C360.47,621.702 357.776,625.618 358.529,629.688Z" style="fill:url(#_Linear16);"/>
                        </g>
                        <g transform="matrix(1.08,0,0,1.08,0,0)">
                            <path d="M411.129,598.298L459.515,633.746C462.854,636.192 467.551,635.467 469.997,632.128C472.444,628.789 471.719,624.092 468.38,621.646L419.994,586.198C416.654,583.752 411.957,584.477 409.511,587.816C407.065,591.155 407.79,595.852 411.129,598.298Z" style="fill:url(#_Linear17);"/>
                        </g>
                        <g transform="matrix(1.08,0,0,1.08,0,0)">
                            <path d="M437.669,537.377L484.114,550.819C488.09,551.97 492.252,549.676 493.403,545.7C494.554,541.724 492.26,537.561 488.284,536.411L441.839,522.969C437.863,521.818 433.701,524.112 432.55,528.088C431.399,532.064 433.693,536.226 437.669,537.377Z" style="fill:url(#_Linear18);"/>
                        </g>
                        <g transform="matrix(1.08,0,0,1.08,0,0)">
                            <path d="M451.899,475.117L525.788,482.496C529.907,482.908 533.585,479.898 533.996,475.779C534.407,471.66 531.397,467.982 527.278,467.571L453.39,460.191C449.271,459.78 445.593,462.79 445.182,466.909C444.77,471.027 447.78,474.705 451.899,475.117Z" style="fill:url(#_Linear19);"/>
                        </g>
                        <g transform="matrix(1.08,0,0,1.08,0,0)">
                            <path d="M449.392,419.667L475.292,407.245C479.025,405.454 480.602,400.971 478.812,397.239C477.022,393.506 472.538,391.93 468.806,393.72L442.906,406.142C439.173,407.932 437.596,412.415 439.386,416.147C441.177,419.88 445.66,421.457 449.392,419.667Z" style="fill:url(#_Linear20);"/>
                        </g>
                        <g transform="matrix(1.08,0,0,1.08,0,0)">
                            <path d="M419.884,347.45L491.815,296.715C495.198,294.329 496.007,289.645 493.621,286.263C491.236,282.88 486.552,282.071 483.17,284.457L411.238,335.192C407.856,337.578 407.047,342.261 409.432,345.644C411.818,349.027 416.502,349.836 419.884,347.45Z" style="fill:url(#_Linear21);"/>
                        </g>
                    </g>
                </g>
            </g>
        </g>
    </g>
    <defs>
        <linearGradient id="_Linear1" x1="0" y1="0" x2="1" y2="0" gradientUnits="userSpaceOnUse" gradientTransform="matrix(306.842,-650.653,650.653,306.842,350.656,20074.7)"><stop offset="0" style="stop-color:rgb(255,48,57);stop-opacity:1"/><stop offset="1" style="stop-color:rgb(141,31,36);stop-opacity:1"/></linearGradient>
        <linearGradient id="_Linear2" x1="0" y1="0" x2="1" y2="0" gradientUnits="userSpaceOnUse" gradientTransform="matrix(95.8677,-182.544,182.544,95.8677,26409.3,1670.37)"><stop offset="0" style="stop-color:rgb(249,236,237);stop-opacity:1"/><stop offset="1" style="stop-color:rgb(250,196,198);stop-opacity:1"/></linearGradient>
        <linearGradient id="_Linear3" x1="0" y1="0" x2="1" y2="0" gradientUnits="userSpaceOnUse" gradientTransform="matrix(279.463,443.061,-443.061,279.463,204.356,223.677)"><stop offset="0" style="stop-color:rgb(85,0,4);stop-opacity:1"/><stop offset="1" style="stop-color:rgb(241,57,66);stop-opacity:1"/></linearGradient>
        <linearGradient id="_Linear4" x1="0" y1="0" x2="1" y2="0" gradientUnits="userSpaceOnUse" gradientTransform="matrix(279.463,443.061,-443.061,279.463,201.618,232.105)"><stop offset="0" style="stop-color:rgb(85,0,4);stop-opacity:1"/><stop offset="1" style="stop-color:rgb(241,57,66);stop-opacity:1"/></linearGradient>
        <linearGradient id="_Linear5" x1="0" y1="0" x2="1" y2="0" gradientUnits="userSpaceOnUse" gradientTransform="matrix(369.782,586.252,-586.252,369.782,46.2275,85.5791)"><stop offset="0" style="stop-color:rgb(85,0,4);stop-opacity:1"/><stop offset="1" style="stop-color:rgb(241,57,66);stop-opacity:1"/></linearGradient>
        <linearGradient id="_Linear6" x1="0" y1="0" x2="1" y2="0" gradientUnits="userSpaceOnUse" gradientTransform="matrix(279.463,443.061,-443.061,279.463,143.651,-8.57745)"><stop offset="0" style="stop-color:rgb(85,0,4);stop-opacity:1"/><stop offset="1" style="stop-color:rgb(241,57,66);stop-opacity:1"/></linearGradient>
        <linearGradient id="_Linear7" x1="0" y1="0" x2="1" y2="0" gradientUnits="userSpaceOnUse" gradientTransform="matrix(473.669,750.954,-750.954,473.669,11.8293,-95.4717)"><stop offset="0" style="stop-color:rgb(85,0,4);stop-opacity:1"/><stop offset="1" style="stop-color:rgb(241,57,66);stop-opacity:1"/></linearGradient>
        <linearGradient id="_Linear8" x1="0" y1="0" x2="1" y2="0" gradientUnits="userSpaceOnUse" gradientTransform="matrix(637.597,1010.84,-1010.84,637.597,-15.9598,-59.8578)"><stop offset="0" style="stop-color:rgb(85,0,4);stop-opacity:1"/><stop offset="1" style="stop-color:rgb(241,57,66);stop-opacity:1"/></linearGradient>
        <linearGradient id="_Linear9" x1="0" y1="0" x2="1" y2="0" gradientUnits="userSpaceOnUse" gradientTransform="matrix(279.463,443.061,-443.061,279.463,204.356,223.677)"><stop offset="0" style="stop-color:rgb(85,0,4);stop-opacity:1"/><stop offset="1" style="stop-color:rgb(241,57,66);stop-opacity:1"/></linearGradient>
        <linearGradient id="_Linear10" x1="0" y1="0" x2="1" y2="0" gradientUnits="userSpaceOnUse" gradientTransform="matrix(279.463,443.061,-443.061,279.463,204.356,223.677)"><stop offset="0" style="stop-color:rgb(85,0,4);stop-opacity:1"/><stop offset="1" style="stop-color:rgb(241,57,66);stop-opacity:1"/></linearGradient>
        <linearGradient id="_Linear11" x1="0" y1="0" x2="1" y2="0" gradientUnits="userSpaceOnUse" gradientTransform="matrix(279.463,443.061,-443.061,279.463,204.356,223.677)"><stop offset="0" style="stop-color:rgb(85,0,4);stop-opacity:1"/><stop offset="1" style="stop-color:rgb(241,57,66);stop-opacity:1"/></linearGradient>
        <linearGradient id="_Linear12" x1="0" y1="0" x2="1" y2="0" gradientUnits="userSpaceOnUse" gradientTransform="matrix(279.463,443.061,-443.061,279.463,204.356,223.677)"><stop offset="0" style="stop-color:rgb(85,0,4);stop-opacity:1"/><stop offset="1" style="stop-color:rgb(241,57,66);stop-opacity:1"/></linearGradient>
        <linearGradient id="_Linear13" x1="0" y1="0" x2="1" y2="0" gradientUnits="userSpaceOnUse" gradientTransform="matrix(279.463,443.061,-443.061,279.463,204.356,223.677)"><stop offset="0" style="stop-color:rgb(85,0,4);stop-opacity:1"/><stop offset="1" style="stop-color:rgb(241,57,66);stop-opacity:1"/></linearGradient>
        <linearGradient id="_Linear14" x1="0" y1="0" x2="1" y2="0" gradientUnits="userSpaceOnUse" gradientTransform="matrix(279.463,443.061,-443.061,279.463,204.356,223.677)"><stop offset="0" style="stop-color:rgb(85,0,4);stop-opacity:1"/><stop offset="1" style="stop-color:rgb(241,57,66);stop-opacity:1"/></linearGradient>
        <linearGradient id="_Linear15" x1="0" y1="0" x2="1" y2="0" gradientUnits="userSpaceOnUse" gradientTransform="matrix(279.463,443.061,-443.061,279.463,204.356,223.677)"><stop offset="0" style="stop-color:rgb(85,0,4);stop-opacity:1"/><stop offset="1" style="stop-color:rgb(241,57,66);stop-opacity:1"/></linearGradient>
        <linearGradient id="_Linear16" x1="0" y1="0" x2="1" y2="0" gradientUnits="userSpaceOnUse" gradientTransform="matrix(279.463,443.061,-443.061,279.463,204.356,223.677)"><stop offset="0" style="stop-color:rgb(85,0,4);stop-opacity:1"/><stop offset="1" style="stop-color:rgb(241,57,66);stop-opacity:1"/></linearGradient>
        <linearGradient id="_Linear17" x1="0" y1="0" x2="1" y2="0" gradientUnits="userSpaceOnUse" gradientTransform="matrix(279.463,443.061,-443.061,279.463,204.356,223.677)"><stop offset="0" style="stop-color:rgb(85,0,4);stop-opacity:1"/><stop offset="1" style="stop-color:rgb(241,57,66);stop-opacity:1"/></linearGradient>
        <linearGradient id="_Linear18" x1="0" y1="0" x2="1" y2="0" gradientUnits="userSpaceOnUse" gradientTransform="matrix(279.463,443.061,-443.061,279.463,204.356,223.677)"><stop offset="0" style="stop-color:rgb(85,0,4);stop-opacity:1"/><stop offset="1" style="stop-color:rgb(241,57,66);stop-opacity:1"/></linearGradient>
        <linearGradient id="_Linear19" x1="0" y1="0" x2="1" y2="0" gradientUnits="userSpaceOnUse" gradientTransform="matrix(279.463,443.061,-443.061,279.463,204.356,223.677)"><stop offset="0" style="stop-color:rgb(85,0,4);stop-opacity:1"/><stop offset="1" style="stop-color:rgb(241,57,66);stop-opacity:1"/></linearGradient>
        <linearGradient id="_Linear20" x1="0" y1="0" x2="1" y2="0" gradientUnits="userSpaceOnUse" gradientTransform="matrix(279.463,443.061,-443.061,279.463,204.356,223.677)"><stop offset="0" style="stop-color:rgb(85,0,4);stop-opacity:1"/><stop offset="1" style="stop-color:rgb(241,57,66);stop-opacity:1"/></linearGradient>
        <linearGradient id="_Linear21" x1="0" y1="0" x2="1" y2="0" gradientUnits="userSpaceOnUse" gradientTransform="matrix(279.463,443.061,-443.061,279.463,204.356,223.677)"><stop offset="0" style="stop-color:rgb(85,0,4);stop-opacity:1"/><stop offset="1" style="stop-color:rgb(241,57,66);stop-opacity:1"/></linearGradient>
    </defs>
</svg>
