<?xml version="1.0" encoding="UTF-8" standalone="no"?>
<!DOCTYPE svg PUBLIC "-//W3C//DTD SVG 1.1//EN" "http://www.w3.org/Graphics/SVG/1.1/DTD/svg11.dtd">
<svg width="100%" height="100%" viewBox="0 0 128 170" version="1.1" xmlns="http://www.w3.org/2000/svg" xmlns:xlink="http://www.w3.org/1999/xlink" xml:space="preserve" xmlns:serif="http://www.serif.com/" style="fill-rule:evenodd;clip-rule:evenodd;stroke-linejoin:round;stroke-miterlimit:2;">
    <g transform="matrix(1,0,0,1,-25851,-1739)">
        <g transform="matrix(3.03411,0,0,5.19663,18709.1,942.188)">
            <g id="phase4-7" transform="matrix(0.872733,0,0,0.872733,282.664,13.4208)">
                <g>
                    <g transform="matrix(0.329586,0,0,0.192432,-6166.27,-181.307)">
                        <path d="M25916.7,1783.07L25916.4,1951.82L26010.2,1955.6L26008.2,1782.28L25916.7,1783.07Z" style="fill:url(#_Linear1);"/>
                    </g>
                    <g id="drug2" transform="matrix(0.0945114,0,0,0.0551815,2352.04,147.196)">
                        <g transform="matrix(1.08,0,0,1.08,-1270.22,-12399.5)">
                            <path d="M1718.16,11738.2C1718.16,11718.9 1702.48,11703.2 1683.16,11703.2L1419.74,11703.2C1400.42,11703.2 1384.74,11718.9 1384.74,11738.2C1384.74,11738.2 1384.74,12252.6 1384.74,12252.6C1384.74,12272 1400.42,12287.6 1419.74,12287.6L1683.16,12287.6C1702.48,12287.6 1718.16,12272 1718.16,12252.6C1718.16,12252.6 1718.16,11738.2 1718.16,11738.2ZM1688.16,11738.2L1688.16,12252.6C1688.16,12255.4 1685.92,12257.6 1683.16,12257.6C1683.16,12257.6 1419.74,12257.6 1419.74,12257.6C1416.98,12257.6 1414.74,12255.4 1414.74,12252.6L1414.74,11738.2C1414.74,11735.4 1416.98,11733.2 1419.74,11733.2C1419.74,11733.2 1683.16,11733.2 1683.16,11733.2C1685.92,11733.2 1688.16,11735.4 1688.16,11738.2Z" style="fill:url(#_Linear2);"/>
                        </g>
                        <g transform="matrix(1.08,0,0,1.08,-1270.22,-12399.5)">
                            <path d="M1546.45,11770.8L1546.45,12220.1C1546.45,12222.9 1548.69,12225.1 1551.45,12225.1C1554.21,12225.1 1556.45,12222.9 1556.45,12220.1L1556.45,11770.8C1556.45,11768 1554.21,11765.8 1551.45,11765.8C1548.69,11765.8 1546.45,11768 1546.45,11770.8Z" style="fill:url(#_Linear3);"/>
                        </g>
                        <g transform="matrix(1.08,0,0,1.08,-1270.22,-12399.5)">
                            <path d="M1526.96,11786.8C1526.96,11772.3 1515.19,11760.6 1500.69,11760.6C1500.69,11760.6 1455.12,11760.6 1455.12,11760.6C1440.62,11760.6 1428.85,11772.3 1428.85,11786.8C1428.85,11801.3 1440.62,11813.1 1455.12,11813.1L1500.69,11813.1C1515.19,11813.1 1526.96,11801.3 1526.96,11786.8ZM1472.9,11770.6L1455.12,11770.6C1446.14,11770.6 1438.85,11777.9 1438.85,11786.8C1438.85,11795.8 1446.14,11803.1 1455.12,11803.1L1472.9,11803.1L1472.9,11770.6Z" style="fill:url(#_Linear4);"/>
                        </g>
                        <g transform="matrix(1.08,0,0,1.08,-1109.11,-12399.5)">
                            <path d="M1526.96,11786.8C1526.96,11772.3 1515.19,11760.6 1500.69,11760.6C1500.69,11760.6 1455.12,11760.6 1455.12,11760.6C1440.62,11760.6 1428.85,11772.3 1428.85,11786.8C1428.85,11801.3 1440.62,11813.1 1455.12,11813.1L1500.69,11813.1C1515.19,11813.1 1526.96,11801.3 1526.96,11786.8ZM1472.9,11770.6L1455.12,11770.6C1446.14,11770.6 1438.85,11777.9 1438.85,11786.8C1438.85,11795.8 1446.14,11803.1 1455.12,11803.1L1472.9,11803.1L1472.9,11770.6Z" style="fill:url(#_Linear5);"/>
                        </g>
                        <g transform="matrix(1.08,0,0,1.08,-1270.22,-12288.5)">
                            <path d="M1526.96,11786.8C1526.96,11772.3 1515.19,11760.6 1500.69,11760.6C1500.69,11760.6 1455.12,11760.6 1455.12,11760.6C1440.62,11760.6 1428.85,11772.3 1428.85,11786.8C1428.85,11801.3 1440.62,11813.1 1455.12,11813.1L1500.69,11813.1C1515.19,11813.1 1526.96,11801.3 1526.96,11786.8ZM1472.9,11770.6L1455.12,11770.6C1446.14,11770.6 1438.85,11777.9 1438.85,11786.8C1438.85,11795.8 1446.14,11803.1 1455.12,11803.1L1472.9,11803.1L1472.9,11770.6Z" style="fill:url(#_Linear6);"/>
                        </g>
                        <g transform="matrix(1.08,0,0,1.08,-1109.11,-12288.5)">
                            <path d="M1526.96,11786.8C1526.96,11772.3 1515.19,11760.6 1500.69,11760.6C1500.69,11760.6 1455.12,11760.6 1455.12,11760.6C1440.62,11760.6 1428.85,11772.3 1428.85,11786.8C1428.85,11801.3 1440.62,11813.1 1455.12,11813.1L1500.69,11813.1C1515.19,11813.1 1526.96,11801.3 1526.96,11786.8ZM1472.9,11770.6L1455.12,11770.6C1446.14,11770.6 1438.85,11777.9 1438.85,11786.8C1438.85,11795.8 1446.14,11803.1 1455.12,11803.1L1472.9,11803.1L1472.9,11770.6Z" style="fill:url(#_Linear7);"/>
                        </g>
                        <g transform="matrix(1.08,0,0,1.08,-1270.22,-12177.5)">
                            <path d="M1526.96,11786.8C1526.96,11772.3 1515.19,11760.6 1500.69,11760.6C1500.69,11760.6 1455.12,11760.6 1455.12,11760.6C1440.62,11760.6 1428.85,11772.3 1428.85,11786.8C1428.85,11801.3 1440.62,11813.1 1455.12,11813.1L1500.69,11813.1C1515.19,11813.1 1526.96,11801.3 1526.96,11786.8ZM1472.9,11770.6L1455.12,11770.6C1446.14,11770.6 1438.85,11777.9 1438.85,11786.8C1438.85,11795.8 1446.14,11803.1 1455.12,11803.1L1472.9,11803.1L1472.9,11770.6Z" style="fill:url(#_Linear8);"/>
                        </g>
                        <g transform="matrix(1.08,0,0,1.08,-1109.11,-12177.5)">
                            <path d="M1526.96,11786.8C1526.96,11772.3 1515.19,11760.6 1500.69,11760.6C1500.69,11760.6 1455.12,11760.6 1455.12,11760.6C1440.62,11760.6 1428.85,11772.3 1428.85,11786.8C1428.85,11801.3 1440.62,11813.1 1455.12,11813.1L1500.69,11813.1C1515.19,11813.1 1526.96,11801.3 1526.96,11786.8ZM1472.9,11770.6L1455.12,11770.6C1446.14,11770.6 1438.85,11777.9 1438.85,11786.8C1438.85,11795.8 1446.14,11803.1 1455.12,11803.1L1472.9,11803.1L1472.9,11770.6Z" style="fill:url(#_Linear9);"/>
                        </g>
                        <g transform="matrix(1.08,0,0,1.08,-1270.22,-12066.6)">
                            <path d="M1526.96,11786.8C1526.96,11772.3 1515.19,11760.6 1500.69,11760.6C1500.69,11760.6 1455.12,11760.6 1455.12,11760.6C1440.62,11760.6 1428.85,11772.3 1428.85,11786.8C1428.85,11801.3 1440.62,11813.1 1455.12,11813.1L1500.69,11813.1C1515.19,11813.1 1526.96,11801.3 1526.96,11786.8ZM1472.9,11770.6L1455.12,11770.6C1446.14,11770.6 1438.85,11777.9 1438.85,11786.8C1438.85,11795.8 1446.14,11803.1 1455.12,11803.1L1472.9,11803.1L1472.9,11770.6Z" style="fill:url(#_Linear10);"/>
                        </g>
                        <g transform="matrix(1.08,0,0,1.08,-1109.11,-12066.6)">
                            <path d="M1526.96,11786.8C1526.96,11772.3 1515.19,11760.6 1500.69,11760.6C1500.69,11760.6 1455.12,11760.6 1455.12,11760.6C1440.62,11760.6 1428.85,11772.3 1428.85,11786.8C1428.85,11801.3 1440.62,11813.1 1455.12,11813.1L1500.69,11813.1C1515.19,11813.1 1526.96,11801.3 1526.96,11786.8ZM1472.9,11770.6L1455.12,11770.6C1446.14,11770.6 1438.85,11777.9 1438.85,11786.8C1438.85,11795.8 1446.14,11803.1 1455.12,11803.1L1472.9,11803.1L1472.9,11770.6Z" style="fill:url(#_Linear11);"/>
                        </g>
                        <g transform="matrix(1.08,0,0,1.08,-1270.22,-11955.6)">
                            <path d="M1526.96,11786.8C1526.96,11772.3 1515.19,11760.6 1500.69,11760.6C1500.69,11760.6 1455.12,11760.6 1455.12,11760.6C1440.62,11760.6 1428.85,11772.3 1428.85,11786.8C1428.85,11801.3 1440.62,11813.1 1455.12,11813.1L1500.69,11813.1C1515.19,11813.1 1526.96,11801.3 1526.96,11786.8ZM1472.9,11770.6L1455.12,11770.6C1446.14,11770.6 1438.85,11777.9 1438.85,11786.8C1438.85,11795.8 1446.14,11803.1 1455.12,11803.1L1472.9,11803.1L1472.9,11770.6Z" style="fill:url(#_Linear12);"/>
                        </g>
                        <g transform="matrix(1.08,0,0,1.08,-1109.11,-11955.6)">
                            <path d="M1526.96,11786.8C1526.96,11772.3 1515.19,11760.6 1500.69,11760.6C1500.69,11760.6 1455.12,11760.6 1455.12,11760.6C1440.62,11760.6 1428.85,11772.3 1428.85,11786.8C1428.85,11801.3 1440.62,11813.1 1455.12,11813.1L1500.69,11813.1C1515.19,11813.1 1526.96,11801.3 1526.96,11786.8ZM1472.9,11770.6L1455.12,11770.6C1446.14,11770.6 1438.85,11777.9 1438.85,11786.8C1438.85,11795.8 1446.14,11803.1 1455.12,11803.1L1472.9,11803.1L1472.9,11770.6Z" style="fill:url(#_Linear13);"/>
                        </g>
                    </g>
                </g>
                <g transform="matrix(1,0,0,1,0,-2.57612)">
                    <g transform="matrix(0.329586,0,0,0.192432,-6166.27,-181.307)">
                        <path d="M25984.5,1852.94L25985.8,1867.5L25990.3,1873.89L25988.4,1886.92L25976.7,1897.05L25977.6,1978.25L26050.6,1978.5L26052.5,1902.2L26038.9,1883.95L26037.2,1870.09L26044.4,1865.96L26043.5,1851.63L25984.5,1852.94Z" style="fill:white;"/>
                    </g>
                    <g id="drug3" transform="matrix(0.096855,0,0,0.0565498,2355.9,155.416)">
                        <g transform="matrix(1.08,0,0,1.08,-2556.33,-12399.5)">
                            <path d="M2836.37,12000.7C2801.36,12000.7 2772.94,12029.1 2772.94,12064.1C2772.94,12099.1 2801.36,12127.5 2836.37,12127.5C2871.38,12127.5 2899.8,12099.1 2899.8,12064.1C2899.8,12029.1 2871.38,12000.7 2836.37,12000.7ZM2836.37,12010.7C2865.86,12010.7 2889.8,12034.6 2889.8,12064.1C2889.8,12093.6 2865.86,12117.5 2836.37,12117.5C2806.88,12117.5 2782.94,12093.6 2782.94,12064.1C2782.94,12034.6 2806.88,12010.7 2836.37,12010.7Z" style="fill:url(#_Linear14);"/>
                        </g>
                        <g transform="matrix(1.08,0,0,1.08,-2556.33,-12399.5)">
                            <path d="M2831.37,12059.1L2831.37,12033.4C2831.37,12030.6 2833.61,12028.4 2836.37,12028.4C2839.13,12028.4 2841.37,12030.6 2841.37,12033.4L2841.37,12059.1L2867.1,12059.1C2869.86,12059.1 2872.1,12061.3 2872.1,12064.1C2872.1,12066.9 2869.86,12069.1 2867.1,12069.1L2841.37,12069.1L2841.37,12094.8C2841.37,12097.6 2839.13,12099.8 2836.37,12099.8C2833.61,12099.8 2831.37,12097.6 2831.37,12094.8L2831.37,12069.1L2805.64,12069.1C2802.88,12069.1 2800.64,12066.9 2800.64,12064.1C2800.64,12061.3 2802.88,12059.1 2805.64,12059.1L2831.37,12059.1Z" style="fill:url(#_Linear15);"/>
                        </g>
                        <g transform="matrix(1.08,0,0,1.08,-2556.33,-12399.5)">
                            <path d="M2768.49,11869C2758.92,11864.2 2752.34,11854.3 2752.34,11842.9C2752.34,11842.9 2752.34,11814.4 2752.34,11814.4C2752.34,11798.3 2765.43,11785.2 2781.56,11785.2L2936.44,11785.2C2952.57,11785.2 2965.67,11798.3 2965.67,11814.4C2965.67,11814.4 2965.67,11842.9 2965.67,11842.9C2965.67,11854.3 2959.09,11864.2 2949.52,11869L2949.52,11893.2L2988.77,11938.8C2991.12,11941.5 2992.41,11945 2992.41,11948.6L2992.41,12181.6C2992.41,12182 2992.38,12182.5 2992.34,12183C2990.68,12200.2 2976.4,12214.9 2959.09,12214.9L2758.92,12214.9C2741.61,12214.9 2727.32,12200.2 2725.67,12183C2725.62,12182.5 2725.6,12182 2725.6,12181.6L2725.6,11948.6C2725.6,11945 2726.89,11941.5 2729.24,11938.8L2768.49,11893.2L2768.49,11869ZM2919.52,11872.1L2798.49,11872.1L2798.49,11898.8C2798.49,11902.4 2797.2,11905.9 2794.85,11908.6L2755.6,11954.1L2755.6,12180.6C2755.89,12182.7 2756.89,12184.9 2758.92,12184.9C2758.92,12184.9 2959.09,12184.9 2959.09,12184.9C2961.12,12184.9 2962.11,12182.7 2962.41,12180.6L2962.41,11954.1L2923.15,11908.6C2920.81,11905.9 2919.52,11902.4 2919.52,11898.8L2919.52,11872.1ZM2782.34,11842.1L2935.67,11842.1L2935.67,11815.2L2782.34,11815.2L2782.34,11842.1Z" style="fill:url(#_Linear16);"/>
                        </g>
                        <g transform="matrix(1.08,0,0,1.08,-2556.33,-12399.5)">
                            <path d="M2917.14,11988.1L2740.6,11988.1C2732.32,11988.1 2725.6,11981.4 2725.6,11973.1C2725.6,11964.9 2732.32,11958.1 2740.6,11958.1L2932.14,11958.1C2940.42,11958.1 2947.14,11964.8 2947.14,11973.1L2947.14,12155.1C2947.14,12163.4 2940.42,12170.1 2932.14,12170.1L2740.6,12170.1C2732.32,12170.1 2725.6,12163.4 2725.6,12155.1C2725.6,12146.8 2732.32,12140.1 2740.6,12140.1L2917.14,12140.1L2917.14,11988.1Z" style="fill:url(#_Linear17);"/>
                        </g>
                    </g>
                </g>
            </g>
        </g>
    </g>
    <defs>
        <linearGradient id="_Linear1" x1="0" y1="0" x2="1" y2="0" gradientUnits="userSpaceOnUse" gradientTransform="matrix(91.8551,-166.604,166.604,91.8551,25916.4,1951.82)"><stop offset="0" style="stop-color:rgb(141,31,36);stop-opacity:0.1"/><stop offset="1" style="stop-color:rgb(141,31,36);stop-opacity:0.1"/></linearGradient>
        <linearGradient id="_Linear2" x1="0" y1="0" x2="1" y2="0" gradientUnits="userSpaceOnUse" gradientTransform="matrix(337.294,-584.473,584.473,337.294,1384.74,12287.6)"><stop offset="0" style="stop-color:rgb(141,31,36);stop-opacity:1"/><stop offset="1" style="stop-color:rgb(255,44,53);stop-opacity:1"/></linearGradient>
        <linearGradient id="_Linear3" x1="0" y1="0" x2="1" y2="0" gradientUnits="userSpaceOnUse" gradientTransform="matrix(337.294,-584.473,584.473,337.294,1384.74,12287.6)"><stop offset="0" style="stop-color:rgb(141,31,36);stop-opacity:1"/><stop offset="1" style="stop-color:rgb(255,44,53);stop-opacity:1"/></linearGradient>
        <linearGradient id="_Linear4" x1="0" y1="0" x2="1" y2="0" gradientUnits="userSpaceOnUse" gradientTransform="matrix(337.294,-584.473,584.473,337.294,1384.74,12287.6)"><stop offset="0" style="stop-color:rgb(141,31,36);stop-opacity:1"/><stop offset="1" style="stop-color:rgb(255,44,53);stop-opacity:1"/></linearGradient>
        <linearGradient id="_Linear5" x1="0" y1="0" x2="1" y2="0" gradientUnits="userSpaceOnUse" gradientTransform="matrix(337.294,-584.473,584.473,337.294,1235.57,12287.6)"><stop offset="0" style="stop-color:rgb(141,31,36);stop-opacity:1"/><stop offset="1" style="stop-color:rgb(255,44,53);stop-opacity:1"/></linearGradient>
        <linearGradient id="_Linear6" x1="0" y1="0" x2="1" y2="0" gradientUnits="userSpaceOnUse" gradientTransform="matrix(337.294,-584.473,584.473,337.294,1384.74,12184.9)"><stop offset="0" style="stop-color:rgb(141,31,36);stop-opacity:1"/><stop offset="1" style="stop-color:rgb(255,44,53);stop-opacity:1"/></linearGradient>
        <linearGradient id="_Linear7" x1="0" y1="0" x2="1" y2="0" gradientUnits="userSpaceOnUse" gradientTransform="matrix(337.294,-584.473,584.473,337.294,1235.57,12184.9)"><stop offset="0" style="stop-color:rgb(141,31,36);stop-opacity:1"/><stop offset="1" style="stop-color:rgb(255,44,53);stop-opacity:1"/></linearGradient>
        <linearGradient id="_Linear8" x1="0" y1="0" x2="1" y2="0" gradientUnits="userSpaceOnUse" gradientTransform="matrix(337.294,-584.473,584.473,337.294,1384.74,12082.2)"><stop offset="0" style="stop-color:rgb(141,31,36);stop-opacity:1"/><stop offset="1" style="stop-color:rgb(255,44,53);stop-opacity:1"/></linearGradient>
        <linearGradient id="_Linear9" x1="0" y1="0" x2="1" y2="0" gradientUnits="userSpaceOnUse" gradientTransform="matrix(337.294,-584.473,584.473,337.294,1235.57,12082.2)"><stop offset="0" style="stop-color:rgb(141,31,36);stop-opacity:1"/><stop offset="1" style="stop-color:rgb(255,44,53);stop-opacity:1"/></linearGradient>
        <linearGradient id="_Linear10" x1="0" y1="0" x2="1" y2="0" gradientUnits="userSpaceOnUse" gradientTransform="matrix(337.294,-584.473,584.473,337.294,1384.74,11979.4)"><stop offset="0" style="stop-color:rgb(141,31,36);stop-opacity:1"/><stop offset="1" style="stop-color:rgb(255,44,53);stop-opacity:1"/></linearGradient>
        <linearGradient id="_Linear11" x1="0" y1="0" x2="1" y2="0" gradientUnits="userSpaceOnUse" gradientTransform="matrix(337.294,-584.473,584.473,337.294,1235.57,11979.4)"><stop offset="0" style="stop-color:rgb(141,31,36);stop-opacity:1"/><stop offset="1" style="stop-color:rgb(255,44,53);stop-opacity:1"/></linearGradient>
        <linearGradient id="_Linear12" x1="0" y1="0" x2="1" y2="0" gradientUnits="userSpaceOnUse" gradientTransform="matrix(337.294,-584.473,584.473,337.294,1384.74,11876.7)"><stop offset="0" style="stop-color:rgb(141,31,36);stop-opacity:1"/><stop offset="1" style="stop-color:rgb(255,44,53);stop-opacity:1"/></linearGradient>
        <linearGradient id="_Linear13" x1="0" y1="0" x2="1" y2="0" gradientUnits="userSpaceOnUse" gradientTransform="matrix(337.294,-584.473,584.473,337.294,1235.57,11876.7)"><stop offset="0" style="stop-color:rgb(141,31,36);stop-opacity:1"/><stop offset="1" style="stop-color:rgb(255,44,53);stop-opacity:1"/></linearGradient>
        <linearGradient id="_Linear14" x1="0" y1="0" x2="1" y2="0" gradientUnits="userSpaceOnUse" gradientTransform="matrix(-266.808,-429.653,429.653,-266.808,2992.41,12214.9)"><stop offset="0" style="stop-color:rgb(141,31,36);stop-opacity:1"/><stop offset="1" style="stop-color:rgb(115,0,5);stop-opacity:1"/></linearGradient>
        <linearGradient id="_Linear15" x1="0" y1="0" x2="1" y2="0" gradientUnits="userSpaceOnUse" gradientTransform="matrix(-266.808,-429.653,429.653,-266.808,2992.41,12214.9)"><stop offset="0" style="stop-color:rgb(141,31,36);stop-opacity:1"/><stop offset="1" style="stop-color:rgb(115,0,5);stop-opacity:1"/></linearGradient>
        <linearGradient id="_Linear16" x1="0" y1="0" x2="1" y2="0" gradientUnits="userSpaceOnUse" gradientTransform="matrix(-266.808,-429.653,429.653,-266.808,2992.41,12214.9)"><stop offset="0" style="stop-color:rgb(141,31,36);stop-opacity:1"/><stop offset="1" style="stop-color:rgb(115,0,5);stop-opacity:1"/></linearGradient>
        <linearGradient id="_Linear17" x1="0" y1="0" x2="1" y2="0" gradientUnits="userSpaceOnUse" gradientTransform="matrix(-266.808,-429.653,429.653,-266.808,2992.41,12214.9)"><stop offset="0" style="stop-color:rgb(141,31,36);stop-opacity:1"/><stop offset="1" style="stop-color:rgb(115,0,5);stop-opacity:1"/></linearGradient>
    </defs>
</svg>
