<svg id="Calque_1" data-name="Calque 1" xmlns="http://www.w3.org/2000/svg" viewBox="0 0 185 185"><defs><style>.cls-1{fill:#f5d2cf;}.cls-2{fill:none;}.cls-3{fill:#e63327;}</style></defs><path class="cls-1" d="M960.38,447.82a92.5,92.5,0,1,1-92.5,92.5,92.51,92.51,0,0,1,92.5-92.5" transform="translate(-867.88 -447.82)"/><path class="cls-2" d="M914.7,578.44c0,8.28,7.14,15,15.93,15h58.78c8.78,0,15.93-6.72,15.93-15v-44H914.7Z" transform="translate(-867.88 -447.82)"/><path class="cls-3" d="M996.57,499.94v2.22a9.79,9.79,0,0,1-2.64,6.56,10.94,10.94,0,0,1-16.42-.62,9.82,9.82,0,0,1-1.22-2,9.4,9.4,0,0,1-.89-4V499H944.63v3.18a9.56,9.56,0,0,1-2.1,5.94,11,11,0,0,1-16.43.62,10.27,10.27,0,0,1-1.07-1.37,9.43,9.43,0,0,1-1.56-5.19v-2.22C912.81,502.87,905,512.14,905,523.1v55.34c0,13.31,11.49,24.13,25.63,24.13h58.78c14.13,0,25.62-10.82,25.62-24.13V523.1C1015,512.14,1007.22,502.87,996.57,499.94Zm8.77,78.5c0,8.28-7.15,15-15.93,15H930.63c-8.79,0-15.93-6.72-15.93-15v-44h90.64Z" transform="translate(-867.88 -447.82)"/><path class="cls-3" d="M982.69,508.1a7.41,7.41,0,0,0,6.58,0,7,7,0,0,0,2.18-1.65,6.44,6.44,0,0,0,1.65-4.29V491.7a7.13,7.13,0,0,0-14.24,0v10.46a6.42,6.42,0,0,0,1.41,4A7,7,0,0,0,982.69,508.1Z" transform="translate(-867.88 -447.82)"/><path class="cls-3" d="M930.76,508.1a7.41,7.41,0,0,0,6.58,0,7,7,0,0,0,2.43-2,6.47,6.47,0,0,0,1.4-4V491.7a7.13,7.13,0,0,0-14.24,0v10.46a6.44,6.44,0,0,0,1.65,4.29A7,7,0,0,0,930.76,508.1Z" transform="translate(-867.88 -447.82)"/></svg>