<svg id="Calque_1" data-name="Calque 1" xmlns="http://www.w3.org/2000/svg" viewBox="0 0 185 185"><defs><style>.cls-1{fill:#f5d2cf;}.cls-2{fill:#93c92b;}.cls-3{fill:#ff623e;}.cls-4{fill:#f2f2f2;}.cls-5{fill:#e6e6e6;}.cls-6{fill:#d64136;}.cls-7{fill:#fff;}</style></defs><circle class="cls-1" cx="92.5" cy="92.5" r="92.5"/><path class="cls-2" d="M898.11,576.26l-.09-.13.16.26S898.13,576.3,898.11,576.26Z" transform="translate(-867.88 -447.82)"/><path class="cls-3" d="M942.07,585.47l35.76-23.25-1.67-2.57-4.26-6.54-7.44-11.45-8.75-13.46L948,516.34l-3.08-4.75-1.63-2.5-35.76,23.25a31.69,31.69,0,1,0,34.55,53.13Z" transform="translate(-867.88 -447.82)"/><path class="cls-4" d="M1013.3,539.15A31.69,31.69,0,1,0,978.75,486l-35.66,23.19,1.63,2.51,3.08,4.74,7.72,11.86,8.75,13.46,7.44,11.45,4.26,6.54,1.67,2.57Z" transform="translate(-867.88 -447.82)"/><path class="cls-5" d="M1022.72,495.23a33,33,0,0,0-3.36-4.26c8.33,12.81,1.19,30.56-12,39.11l-35.66,23.19,4.23,6.5,1.67,2.57,35.66-23.19A31.83,31.83,0,0,0,1022.72,495.23Z" transform="translate(-867.88 -447.82)"/><path class="cls-6" d="M976.16,559.65l-4.23-6.51L936.17,576.4c-13.15,8.55-32.27,7.87-40.6-4.94a31.57,31.57,0,0,0,46.5,14l35.76-23.25Z" transform="translate(-867.88 -447.82)"/><path class="cls-7" d="M1010.17,495.32a3.94,3.94,0,0,0-.22-3.89,4,4,0,0,0-1.54-1.37,29.06,29.06,0,0,0-28.72,1.7c-2.57,1.64-5.13,3.32-7.6,4.94l-.27.17-3.5,2.28L925,527.34l-3.84,2.49c-2.47,1.59-5,3.24-7.52,4.9a29.55,29.55,0,0,0-11.14,13.59,3.92,3.92,0,0,0,.35,3.61,3.84,3.84,0,0,0,1.81,1.49,3.93,3.93,0,0,0,5.11-2.17,21.83,21.83,0,0,1,8.21-10c2.53-1.68,5.17-3.39,7.52-4.9l.3-.2,3.48-2.25,43.34-28.18,3.53-2.3.28-.19c2.44-1.6,5-3.25,7.49-4.86a21.27,21.27,0,0,1,21-1.29,3.92,3.92,0,0,0,5.25-1.77Z" transform="translate(-867.88 -447.82)"/></svg>