<svg id="Calque_1" data-name="Calque 1" xmlns="http://www.w3.org/2000/svg" viewBox="0 0 282.12 266.68"><defs><style>.cls-1{fill:#e74033;}.cls-2{fill:#c74033;}.cls-3{fill:#343b43;}.cls-4{fill:#8c1f23;}.cls-5{fill:#fff;}</style></defs><path class="cls-1" d="M1101.44,540.33c0,73.64-63.16,133.33-141.06,133.33S819.31,614,819.31,540.33,882.47,407,960.38,407s141.06,59.69,141.06,133.34" transform="translate(-819.31 -406.99)"/><path class="cls-2" d="M1098.49,567.57l-81.63-77.16-3.68-3.47a79.39,79.39,0,0,0-51.75-19.72h-2.11c-42.15.52-76.3,33.12-76.3,73.11A70.73,70.73,0,0,0,903.64,590l4.21,4,81.37,76.92C1044,660.11,1087.11,619.34,1098.49,567.57Z" transform="translate(-819.31 -406.99)"/><path class="cls-3" d="M960.38,613.45c-42.65,0-77.36-32.81-77.36-73.12s34.71-73.12,77.36-73.12,77.35,32.8,77.35,73.12S1003,613.45,960.38,613.45Zm0-140.46c-39.29,0-71.24,30.21-71.24,67.34s32,67.33,71.24,67.33,71.24-30.21,71.24-67.33S999.66,473,960.38,473Z" transform="translate(-819.31 -406.99)"/><path class="cls-3" d="M960.38,613.45c-22.55,0-40.21-32.12-40.21-73.12s17.66-73.12,40.21-73.12,40.21,32.12,40.21,73.12S982.93,613.45,960.38,613.45Zm0-140.46c-18.48,0-34.09,30.84-34.09,67.34s15.61,67.33,34.09,67.33,34.09-30.83,34.09-67.33S978.85,473,960.38,473Z" transform="translate(-819.31 -406.99)"/><rect class="cls-3" x="138.01" y="63.12" width="6.12" height="140.45"/><rect class="cls-3" x="66.77" y="130.45" width="148.6" height="5.78"/><rect class="cls-3" x="76.7" y="95.33" width="128.71" height="5.79"/><rect class="cls-3" x="76.7" y="165.56" width="128.71" height="5.78"/><path class="cls-4" d="M936.6,540.33c0,7-6,12.64-13.37,12.64s-13.38-5.66-13.38-12.64,6-12.64,13.38-12.64S936.6,533.34,936.6,540.33Z" transform="translate(-819.31 -406.99)"/><path class="cls-5" d="M1005.93,505.21c0,7-6,12.64-13.37,12.64s-13.38-5.65-13.38-12.64,6-12.64,13.38-12.64S1005.93,498.23,1005.93,505.21Z" transform="translate(-819.31 -406.99)"/><path class="cls-5" d="M1005.93,575.44c0,7-6,12.64-13.37,12.64s-13.38-5.66-13.38-12.64,6-12.64,13.38-12.64S1005.93,568.46,1005.93,575.44Z" transform="translate(-819.31 -406.99)"/><path class="cls-3" d="M923.23,555.85c-9.06,0-16.43-7-16.43-15.52s7.37-15.54,16.43-15.54,16.43,7,16.43,15.54S932.29,555.85,923.23,555.85Zm0-25.28c-5.69,0-10.32,4.38-10.32,9.76s4.63,9.74,10.32,9.74,10.31-4.37,10.31-9.74A10.06,10.06,0,0,0,923.23,530.57Z" transform="translate(-819.31 -406.99)"/><path class="cls-3" d="M992.56,520.75c-9.07,0-16.44-7-16.44-15.54s7.37-15.53,16.44-15.53,16.43,7,16.43,15.53S1001.61,520.75,992.56,520.75Zm0-25.28c-5.69,0-10.32,4.37-10.32,9.74s4.63,9.75,10.32,9.75,10.31-4.37,10.31-9.75S998.25,495.47,992.56,495.47Z" transform="translate(-819.31 -406.99)"/><path class="cls-3" d="M992.56,591c-9.07,0-16.44-7-16.44-15.53s7.37-15.53,16.44-15.53,16.43,7,16.43,15.53S1001.61,591,992.56,591Zm0-25.28c-5.69,0-10.32,4.38-10.32,9.75s4.63,9.75,10.32,9.75,10.31-4.37,10.31-9.75S998.25,565.69,992.56,565.69Z" transform="translate(-819.31 -406.99)"/></svg>