<svg id="Calque_1" data-name="Calque 1" xmlns="http://www.w3.org/2000/svg" viewBox="0 0 185 185"><defs><style>.cls-1{fill:#f5d2cf;}.cls-2{fill:#e63327;}</style></defs><circle class="cls-1" cx="92.5" cy="92.5" r="92.5"/><path class="cls-2" d="M960.28,613.82H971.9s4-4.7,8.94-41.61a25.88,25.88,0,0,0,5.82-8.25s5.37-17.28,2.24-44.37c0,0-2.69-5.89-28.62-9h-.1c-25.94,3.14-28.62,9-28.62,9C928.43,546.68,933.8,564,933.8,564a25.77,25.77,0,0,0,5.81,8.25c4.93,36.91,8.94,41.61,8.94,41.61h11.73Z" transform="translate(-867.88 -447.82)"/><path class="cls-2" d="M983.2,487c0,11.12-10.26,20.12-22.92,20.12s-22.91-9-22.91-20.12,10.26-20.13,22.91-20.13S983.2,475.84,983.2,487Z" transform="translate(-867.88 -447.82)"/></svg>