<svg id="Calque_1" data-name="Calque 1" xmlns="http://www.w3.org/2000/svg" viewBox="0 0 269.12 273.83"><defs><style>.cls-1{fill:#e74033;}.cls-2{fill:#e77975;}.cls-3{fill:#b87975;}.cls-4{fill:#343b43;}.cls-5{fill:#fff;}.cls-6{fill:#cccbca;}.cls-7{fill:#70c9e9;}</style></defs><path class="cls-1" d="M960.38,407" transform="translate(-825.81 -403.41)"/><path class="cls-2" d="M825.81,540.32c0-75.62,60.25-136.91,134.57-136.91s134.56,61.29,134.56,136.91S1034.7,677.24,960.38,677.24s-134.57-61.3-134.57-136.92" transform="translate(-825.81 -403.41)"/><path class="cls-3" d="M1094.39,552.47l-61.74-62.82a5.12,5.12,0,0,0-3.69-1.55H891.8a5.12,5.12,0,0,0-3.69,1.55,5.31,5.31,0,0,0-1.53,3.75v87.66h55.26v0H873.79v2.61a8.84,8.84,0,0,0,2.52,6.21.15.15,0,0,0,0,.05l0,0,85.7,87.19C1031.6,676.31,1088.39,621.82,1094.39,552.47Z" transform="translate(-825.81 -403.41)"/><path class="cls-4" d="M886.58,581.06V493.4a5.31,5.31,0,0,1,1.53-3.75,5.13,5.13,0,0,1,3.69-1.55H1029a5.13,5.13,0,0,1,3.69,1.55,5.35,5.35,0,0,1,1.52,3.75v87.66Z" transform="translate(-825.81 -403.41)"/><path class="cls-5" d="M1047,583.72a8.88,8.88,0,0,1-2.54,6.24,8.57,8.57,0,0,1-6.14,2.59H882.48a8.57,8.57,0,0,1-6.14-2.59,8.88,8.88,0,0,1-2.54-6.24V581.1H1047Z" transform="translate(-825.81 -403.41)"/><path class="cls-6" d="M978.92,581.89a3.25,3.25,0,0,1-.95,2.31,3.17,3.17,0,0,1-2.27,1H945.06a3.17,3.17,0,0,1-2.27-1,3.3,3.3,0,0,1-.95-2.31v-.83h37.08Z" transform="translate(-825.81 -403.41)"/><rect class="cls-5" x="70.32" y="94.4" width="128.48" height="73.54"/><rect class="cls-7" x="76.4" y="100.59" width="116.33" height="61.17"/><rect class="cls-5" x="119.37" y="149.39" width="6.08" height="6.18"/><rect class="cls-5" x="131.53" y="149.39" width="6.07" height="6.18"/><rect class="cls-5" x="143.68" y="149.39" width="6.08" height="6.18"/></svg>