<svg id="Calque_1" data-name="Calque 1" xmlns="http://www.w3.org/2000/svg" viewBox="0 0 282.3 276.58"><defs><style>.cls-1{fill:#8c1d22;}.cls-2{fill:#6a1d22;}.cls-3{fill:#fff;}.cls-4{fill:#f44336;}.cls-5{fill:#e63327;}.cls-6{fill:#e52829;}</style></defs><path class="cls-1" d="M1101.53,540.32c0,76.38-63.2,138.3-141.15,138.3S819.23,616.7,819.23,540.32,882.42,402,960.38,402,1101.53,464,1101.53,540.32Z" transform="translate(-819.23 -402.03)"/><path class="cls-2" d="M976.64,677.67l-55.86-54.73c-.67-.62-1.31-1.27-1.95-1.91A55.42,55.42,0,0,1,903,582.24c0-26.22,18.27-48.21,43-54.46V488a6.67,6.67,0,0,1-4.65-1.9,6.33,6.33,0,0,1,0-9.1,6.64,6.64,0,0,1,4.65-1.87h20.69l-30.07-29.46-1.42-1.39a6.7,6.7,0,0,1-1.41-4.14,7,7,0,0,1,7-6.89,7.06,7.06,0,0,1,4.48,1.58l.95.92,148.84,145.82C1078.78,632.91,1032.7,671.37,976.64,677.67ZM982.74,448l-.2-.19a2.88,2.88,0,0,0-2-.79,3,3,0,0,0-3,3,2.93,2.93,0,0,0,.52,1.67l.82.8,51.79,50.75-6.56,6.41,71.61,70.15a136.35,136.35,0,0,0,4-17.19Z" transform="translate(-819.23 -402.03)"/><path class="cls-3" d="M1017.77,582.24c0,31-25.7,56.22-57.39,56.22S903,613.28,903,582.24,928.68,526,960.38,526,1017.77,551.18,1017.77,582.24Z" transform="translate(-819.23 -402.03)"/><rect class="cls-3" x="126.8" y="85.97" width="28.7" height="39.78"/><path class="cls-3" d="M981.29,481.56a6.34,6.34,0,0,0-1.93-4.55,6.63,6.63,0,0,0-4.64-1.88H946a6.63,6.63,0,0,0-4.64,1.88,6.33,6.33,0,0,0-1.92,4.55h0a6.3,6.3,0,0,0,1.92,4.55A6.6,6.6,0,0,0,946,488h28.7a6.6,6.6,0,0,0,4.64-1.89,6.31,6.31,0,0,0,1.93-4.55Z" transform="translate(-819.23 -402.03)"/><polygon class="cls-3" points="198.43 135.18 187.1 124.07 175.32 135.62 186.65 146.72 198.43 135.18"/><path class="cls-3" d="M1022.9,537.28a3.84,3.84,0,0,0,1.16-2.66A3.61,3.61,0,0,0,1023,532l-11.32-11.1a3.83,3.83,0,0,0-5.32,0h0a3.63,3.63,0,0,0,0,5.21l11.34,11.1a3.77,3.77,0,0,0,2.64,1.08,4.14,4.14,0,0,0,2.76-1.17Z" transform="translate(-819.23 -402.03)"/><path class="cls-3" d="M1036,527.78a2.35,2.35,0,1,1-2.34-2.31A2.33,2.33,0,0,1,1036,527.78Z" transform="translate(-819.23 -402.03)"/><path class="cls-3" d="M1036,503.74a7.51,7.51,0,1,1-7.5-7.35A7.43,7.43,0,0,1,1036,503.74Z" transform="translate(-819.23 -402.03)"/><path class="cls-4" d="M1008.37,582.72a43.8,43.8,0,0,1-1.34,10.54H948.36V582.72a25.65,25.65,0,0,1,7-4.54c6.25-2.91,15.71-5.21,29-5.21S1008.37,577.33,1008.37,582.72Z" transform="translate(-819.23 -402.03)"/><path class="cls-5" d="M984.38,592c-7.9-.58-17.36-3.23-24-9.75a34.46,34.46,0,0,0-48,0c0,25.94,21.53,47,48,47,26.31,0,47.77-20.84,48-46.55C1007.85,588.14,998.51,593,984.38,592Z" transform="translate(-819.23 -402.03)"/><path class="cls-6" d="M959.16,515.2a3,3,0,1,1-3-2.94A3,3,0,0,1,959.16,515.2Z" transform="translate(-819.23 -402.03)"/><path class="cls-6" d="M971.41,538.28a7.2,7.2,0,1,1-7.19-7A7.12,7.12,0,0,1,971.41,538.28Z" transform="translate(-819.23 -402.03)"/><path class="cls-6" d="M931.78,564.49a3.76,3.76,0,1,1-3.75-3.66A3.7,3.7,0,0,1,931.78,564.49Z" transform="translate(-819.23 -402.03)"/><path class="cls-3" d="M947.14,601.31a5.63,5.63,0,1,1-5.63-5.52A5.57,5.57,0,0,1,947.14,601.31Z" transform="translate(-819.23 -402.03)"/><path class="cls-3" d="M971.17,616.89a2.35,2.35,0,1,1-2.34-2.28A2.33,2.33,0,0,1,971.17,616.89Z" transform="translate(-819.23 -402.03)"/><ellipse class="cls-3" cx="164.35" cy="205.95" rx="3.75" ry="3.68"/><path class="cls-3" d="M947.9,440.15a7,7,0,1,1-7-6.89A7,7,0,0,1,947.9,440.15Z" transform="translate(-819.23 -402.03)"/><path class="cls-3" d="M964.21,463.21a4,4,0,1,1-4-3.94A4,4,0,0,1,964.21,463.21Z" transform="translate(-819.23 -402.03)"/><path class="cls-3" d="M983.53,450a3,3,0,1,1-3-3A3,3,0,0,1,983.53,450Z" transform="translate(-819.23 -402.03)"/></svg>